<?xml version="1.0" standalone="no"?>
<!DOCTYPE svg PUBLIC "-//W3C//DTD SVG 1.1//EN" "http://www.w3.org/Graphics/SVG/1.1/DTD/svg11.dtd" >
<svg xmlns="http://www.w3.org/2000/svg" xmlns:xlink="http://www.w3.org/1999/xlink" version="1.1">
<metadata>
Created by FontForge 20170731 at Wed Sep 20 00:59:40 2017
 By Aleksey,,,
Copyright 2017 Google Inc. All Rights Reserved.
</metadata>
<defs>
<font id="NotoSansBengaliUI-SemiBold" horiz-adv-x="0" >
  <font-face 
    font-family="Noto Sans Bengali SemBd"
    font-weight="600"
    font-stretch="normal"
    units-per-em="1000"
    panose-1="2 11 7 2 4 5 4 2 2 4"
    ascent="800"
    descent="-200"
    bbox="-725 -271 1603 917"
    underline-thickness="50"
    underline-position="-175"
    unicode-range="U+000D-25CC"
  />
<missing-glyph horiz-adv-x="600" 
d="M94 0v714h411v-714h-411zM145 51h309v612h-309v-612z" />
    <glyph glyph-name=".notdef" horiz-adv-x="600" 
d="M94 0v714h411v-714h-411zM145 51h309v612h-309v-612z" />
    <glyph glyph-name=".null" 
 />
    <glyph glyph-name="nonmarkingreturn" horiz-adv-x="333" 
 />
    <glyph glyph-name="NULL" 
 />
    <glyph glyph-name="NULL" 
 />
    <glyph glyph-name="CR" unicode="&#xd;" horiz-adv-x="260" 
 />
    <glyph glyph-name="space" unicode=" " horiz-adv-x="260" 
 />
    <glyph glyph-name="exclam.beng" unicode="!" horiz-adv-x="395" 
d="M167 223l-25 491h146l-25 -491h-96zM138 64q0 42 22.5 59.5t54.5 17.5q31 0 53.5 -17.5t22.5 -59.5q0 -41 -22.5 -59t-53.5 -18q-32 0 -54.5 18t-22.5 59z" />
    <glyph glyph-name="quotedbl.beng" unicode="&#x22;" horiz-adv-x="529" 
d="M133 472l-22 257h127l-22 -257h-83zM328 472l-22 257h126l-22 -257h-82z" />
    <glyph glyph-name="numbersign.beng" unicode="#" horiz-adv-x="661" 
d="M152 167h-115v87h132l26 128h-123v88h138l31 162h93l-31 -162h114l30 162h92l-31 -162h116v-88h-133l-25 -128h124v-87h-141l-32 -167h-93l33 167h-112l-32 -167h-91zM374 254l25 128h-112l-26 -128h113z" />
    <glyph glyph-name="percent.beng" unicode="%" horiz-adv-x="872" 
d="M206 271q-79 0 -119.5 47.5t-40.5 133.5t38.5 133t121.5 47q80 0 121 -47t41 -133t-39 -133.5t-123 -47.5zM581 622h99l-389 -622h-99zM206 358q61 0 61 93q0 94 -61 94q-59 0 -59 -94q0 -93 59 -93zM664 -9q-78 0 -118.5 48t-40.5 133q0 86 38.5 133.5t120.5 47.5
q80 0 121 -47.5t41 -133.5q0 -85 -38.5 -133t-123.5 -48zM664 78q61 0 61 93q0 94 -61 94q-31 0 -44.5 -23.5t-13.5 -70.5t13.5 -70t44.5 -23z" />
    <glyph glyph-name="quotesingle.beng" unicode="'" horiz-adv-x="335" 
d="M133 471l-22 258h127l-22 -258h-83z" />
    <glyph glyph-name="parenleft.beng" unicode="(" horiz-adv-x="442" 
d="M254 -129q-72 96 -109 215.5t-37 243.5q0 129 37 248t109 214h107q-69 -100 -104.5 -219t-35.5 -243q0 -121 35 -239.5t104 -219.5h-106z" />
    <glyph glyph-name="parenright.beng" unicode=")" horiz-adv-x="442" 
d="M81 -129q69 100 104.5 218.5t35.5 242.5t-35.5 242t-103.5 218h106q72 -96 109 -215.5t37 -243.5q0 -128 -37 -247.5t-109 -214.5h-107z" />
    <glyph glyph-name="asterisk.beng" unicode="*" horiz-adv-x="607" 
d="M129 338l111 150l-171 13l17 112l183 -53l-20 185h117l-20 -185l186 53l15 -112l-173 -13l113 -150l-102 -55l-79 161l-71 -160z" />
    <glyph glyph-name="plus.beng" unicode="+" horiz-adv-x="610" 
d="M258 276h-188v94h188v189h94v-189h188v-94h-188v-187h-94v187z" />
    <glyph glyph-name="comma.beng" unicode="," horiz-adv-x="289" 
d="M216 132l7 -12q-13 -56 -37 -119.5t-49 -119.5h-92q15 61 28 128.5t21 122.5h122z" />
    <glyph glyph-name="hyphen.beng" unicode="-" horiz-adv-x="356" 
d="M51 350h254v-106h-254v106z" />
    <glyph glyph-name="period.beng" unicode="." horiz-adv-x="279" 
d="M63 64q0 42 22.5 59.5t53.5 17.5t54 -17.5t23 -59.5q0 -41 -23 -59t-54 -18t-53.5 18t-22.5 59z" />
    <glyph glyph-name="slash.beng" unicode="/" horiz-adv-x="488" 
d="M324 793h110l-269 -918h-111z" />
    <glyph glyph-name="zero.beng" unicode="0" horiz-adv-x="551" 
d="M275 -10q-121 0 -179.5 97t-58.5 270q0 115 24 197.5t76.5 126.5t137.5 44q120 0 179.5 -97t59.5 -271q0 -115 -24 -197t-76.5 -126t-138.5 -44zM275 95q60 0 86 65t26 197t-26 197.5t-86 65.5q-61 0 -85.5 -66t-24.5 -197t24.5 -196.5t85.5 -65.5z" />
    <glyph glyph-name="one.beng" unicode="1" horiz-adv-x="551" 
d="M253 0v425q0 32 1.5 77.5t2.5 77.5q-9 -10 -24 -24t-31 -27l-78 -63l-63 79l214 169h104v-714h-126z" />
    <glyph glyph-name="two.beng" unicode="2" horiz-adv-x="551" 
d="M43 94l169 183q47 51 79.5 90.5t49.5 76.5t17 81t-25.5 68t-67.5 24q-41 0 -77.5 -19t-73.5 -52l-70 83q42 38 96 66.5t131 28.5q99 0 157 -53t58 -144q0 -55 -24 -105t-65 -98t-91 -100l-105 -108v-6h308v-110h-466v94z" />
    <glyph glyph-name="three.beng" unicode="3" horiz-adv-x="551" 
d="M230 -10q-56 0 -105 9.5t-92 29.5v111q43 -23 93 -35t94 -12q86 0 121 32.5t35 87.5q0 52 -43 79.5t-135 27.5h-56v94h56q86 0 122 33t36 82q0 43 -27 67t-80 24q-49 0 -85.5 -16.5t-64.5 -36.5l-65 86q39 30 95 50.5t128 20.5q105 0 165.5 -47t60.5 -126
q0 -73 -43.5 -117t-110.5 -58v-3q86 -11 130.5 -54t44.5 -113q0 -62 -29.5 -111t-90 -77t-154.5 -28z" />
    <glyph glyph-name="four.beng" unicode="4" horiz-adv-x="551" 
d="M314 153h-309v94l311 469h122v-460h92v-103h-92v-153h-124v153zM314 256v141q0 16 1 40.5t2 51t2 48t1 32.5h-4q-9 -19 -20.5 -43.5t-24.5 -44.5l-150 -225h193z" />
    <glyph glyph-name="five.beng" unicode="5" horiz-adv-x="551" 
d="M234 -10q-52 0 -101 9.5t-83 29.5v113q22 -14 53.5 -24.5t64.5 -16.5t61 -6q71 0 108.5 31t37.5 97q0 59 -37.5 90.5t-111.5 31.5q-26 0 -57 -5t-50 -10l-54 31l27 353h362v-110h-252l-14 -165q16 4 40.5 7t53.5 3q62 0 112.5 -24.5t80 -72t29.5 -117.5
q0 -115 -69.5 -180t-200.5 -65z" />
    <glyph glyph-name="six.beng" unicode="6" horiz-adv-x="551" 
d="M288 -10q-68 0 -123.5 34t-88 103.5t-32.5 176.5q0 62 8.5 122t29 113.5t58 95t95 65t139.5 23.5q20 0 46 -2t43 -6v-104q-38 11 -81 11q-88 0 -135.5 -32.5t-66.5 -88.5t-22 -126h6q20 35 56 59t94 24q93 0 147 -58t54 -165q0 -114 -61.5 -179.5t-165.5 -65.5zM286 94
q46 0 76 34t30 106q0 58 -26 91.5t-78 33.5q-35 0 -61.5 -16.5t-41 -42t-14.5 -52.5q0 -37 12.5 -72.5t38 -58.5t64.5 -23z" />
    <glyph glyph-name="seven.beng" unicode="7" horiz-adv-x="551" 
d="M376 604h-343v109h480v-86l-264 -627h-134z" />
    <glyph glyph-name="eight.beng" unicode="8" horiz-adv-x="551" 
d="M276 -10q-112 0 -173.5 51t-61.5 140q0 73 40.5 118.5t97.5 73.5q-48 31 -81.5 73t-33.5 107q0 57 29.5 95t78 57t104.5 19q58 0 106 -19t77 -57t29 -96q0 -65 -36.5 -106t-91.5 -69q38 -21 72.5 -47t56 -62t21.5 -83q0 -59 -29.5 -103t-82 -68t-122.5 -24zM276 430
q37 18 63.5 44t26.5 70q0 40 -25 61.5t-66 21.5q-40 0 -65 -21.5t-25 -61.5q0 -46 26.5 -70t64.5 -44zM274 87q58 0 87 27.5t29 72.5q0 44 -34 74.5t-89 60.5q-49 -25 -77.5 -57t-28.5 -78q0 -44 28 -72t85 -28z" />
    <glyph glyph-name="nine.beng" unicode="9" horiz-adv-x="551" 
d="M179 -10q-19 0 -45 2t-44 6v104q38 -11 81 -11q89 0 136 32.5t66 88.5t22 126h-6q-19 -35 -55.5 -59t-94.5 -24q-92 0 -146 58.5t-54 164.5q0 114 61.5 179.5t165.5 65.5q68 0 123.5 -34t88 -103.5t32.5 -176.5q0 -61 -8.5 -121.5t-29 -114t-58 -95t-95 -65t-140.5 -23.5
zM266 354q36 0 62 16.5t40.5 42t14.5 52.5q0 37 -13 72t-38.5 58.5t-63.5 23.5q-46 0 -76 -33.5t-30 -106.5q0 -58 26 -91.5t78 -33.5z" />
    <glyph glyph-name="colon.beng" unicode=":" horiz-adv-x="313" 
d="M156 399q-32 0 -54.5 18.5t-22.5 58.5q0 44 22.5 61t54.5 17q31 0 54 -17t23 -61q0 -40 -23 -58.5t-54 -18.5zM156 -13q-32 0 -54.5 18t-22.5 59q0 43 22.5 60t54.5 17q31 0 54 -17t23 -60q0 -41 -23 -59t-54 -18z" />
    <glyph glyph-name="semicolon.beng" unicode=";" horiz-adv-x="313" 
d="M156 399q-32 0 -54.5 18.5t-22.5 58.5q0 44 22.5 61t54.5 17q31 0 54 -17t23 -61q0 -40 -23 -58.5t-54 -18.5zM219 132l7 -12q-14 -56 -37.5 -119.5t-48.5 -119.5h-92q15 61 28.5 128.5t20.5 122.5h122z" />
    <glyph glyph-name="less.beng" unicode="&#x3c;" horiz-adv-x="610" 
d="M70 287v62l470 235v-103l-341 -161l341 -154v-103z" />
    <glyph glyph-name="equal.beng" unicode="=" horiz-adv-x="610" 
d="M70 466h470v-93h-470v93zM70 273h470v-94h-470v94z" />
    <glyph glyph-name="greater.beng" unicode="&#x3e;" horiz-adv-x="610" 
d="M70 166l341 154l-341 161v103l470 -235v-62l-470 -224v103z" />
    <glyph glyph-name="question.beng" unicode="?" horiz-adv-x="534" 
d="M183 224v29q0 52 19.5 87t66.5 74q29 23 46.5 41t25.5 37.5t8 47.5q0 35 -23 57.5t-67 22.5q-36 0 -74.5 -14t-76.5 -33l-43 95q41 22 93 39t103 17q96 0 151.5 -47.5t55.5 -131.5q0 -42 -11.5 -72.5t-35 -57t-59.5 -55.5q-30 -24 -46 -41t-21.5 -33.5t-5.5 -40.5v-21
h-106zM241 -13q-32 0 -54 18t-22 59q0 43 22 60t54 17q31 0 54 -17t23 -60q0 -41 -23 -59t-54 -18z" />
    <glyph glyph-name="bracketleft.beng" unicode="[" horiz-adv-x="438" 
d="M136 792h221v-91h-111v-739h111v-91h-221v921z" />
    <glyph glyph-name="backslash.beng" unicode="\" horiz-adv-x="488" 
d="M54 793h111l269 -922h-110z" />
    <glyph glyph-name="bracketright.beng" unicode="]" horiz-adv-x="438" 
d="M79 -38h110v736h-110v90h220v-917h-220v91z" />
    <glyph glyph-name="asciicircum.beng" unicode="^" horiz-adv-x="610" 
d="M274 718h63l224 -459h-102l-154 331l-156 -331h-101z" />
    <glyph glyph-name="underscore.beng" unicode="_" horiz-adv-x="411" 
d="M-2 -90h415v-68h-415v68z" />
    <glyph glyph-name="braceleft.beng" unicode="{" horiz-adv-x="460" 
d="M67 381q61 0 92.5 22.5t31.5 74.5v162q0 80 45 115.5t153 36.5v-96q-41 -1 -64.5 -16t-23.5 -63v-158q0 -104 -110 -125v-6q110 -20 110 -125v-156q0 -48 23.5 -63t64.5 -16v-97q-108 1 -153 36.5t-45 115.5v160q0 53 -31.5 75t-92.5 22v101z" />
    <glyph glyph-name="bar.beng" unicode="|" horiz-adv-x="540" 
d="M223 792h94v-921h-94v921z" />
    <glyph glyph-name="braceright.beng" unicode="}" horiz-adv-x="484" 
d="M403 281q-61 0 -93.5 -22.5t-32.5 -74.5v-161q0 -80 -44.5 -115.5t-151.5 -36.5v96q41 1 63.5 16t22.5 64v156q0 103 111 125v6q-111 20 -111 125v157q0 48 -22.5 63.5t-63.5 16.5v96q107 -1 151.5 -36.5t44.5 -115.5v-161q0 -53 32.5 -75t93.5 -22v-101z" />
    <glyph glyph-name="asciitilde.beng" unicode="~" horiz-adv-x="610" 
d="M75 346q49 53 123 53q20 0 36 -2.5t36.5 -9t51.5 -19.5q37 -16 57.5 -21.5t42.5 -5.5q28 0 58 17t55 42v-100q-49 -53 -124 -53q-19 0 -35.5 2t-37 8.5t-50.5 19.5q-37 16 -57.5 22t-42.5 6q-28 0 -58 -17.5t-55 -41.5v100z" />
    <glyph glyph-name="uni00A0.beng" unicode="&#xa0;" horiz-adv-x="260" 
 />
    <glyph glyph-name="sfthyphen.beng" unicode="&#xad;" horiz-adv-x="356" 
d="M51 350h254v-106h-254v106z" />
    <glyph glyph-name="multiply.beng" unicode="&#xd7;" horiz-adv-x="610" 
d="M304 257l-150 -149l-65 65l149 150l-150 150l66 66l150 -149l152 149l66 -64l-152 -152l150 -151l-64 -65z" />
    <glyph glyph-name="divide.beng" unicode="&#xf7;" horiz-adv-x="610" 
d="M304 426q-26 0 -44.5 16t-18.5 53q0 38 18.5 53.5t44.5 15.5t45 -15.5t19 -53.5q0 -37 -19 -53t-45 -16zM70 370h470v-94h-470v94zM304 85q-26 0 -44.5 16t-18.5 53q0 38 18.5 53.5t44.5 15.5t45 -15.5t19 -53.5q0 -37 -19 -53t-45 -16z" />
    <glyph glyph-name="uni02BC" unicode="&#x2bc;" horiz-adv-x="326" 
d="M256 729l7 -11q-13 -53 -37 -116t-49 -118h-92q13 59 27 126.5t22 118.5h122z" />
    <glyph glyph-name="uni0951" unicode="&#x951;" 
d="M-210 917v-293h-89v293h89z" />
    <glyph glyph-name="uni0952" unicode="&#x952;" 
d="M-454 -194v84h398v-84h-398z" />
    <glyph glyph-name="dandadeva" unicode="&#x964;" horiz-adv-x="391" 
d="M184 0v622h114v-622h-114z" />
    <glyph glyph-name="dbldandadeva" unicode="&#x965;" horiz-adv-x="623" 
d="M416 0v622h114v-622h-114zM184 0v622h114v-622h-114z" />
    <glyph glyph-name="uni0980" unicode="&#x980;" horiz-adv-x="569" 
d="M350 274q-48 -12 -97 -12q-105 0 -155.5 46.5t-50.5 127.5q0 66 34.5 116t92 78.5t126.5 28.5q38 0 71.5 -8.5t56.5 -28.5q22 -20 35 -48.5t13 -87.5v-354q0 -32 5.5 -47.5t22 -21.5t49.5 -7l-11 -105q-66 2 -105.5 14.5t-56.5 46t-17 97.5v355q0 34 -3.5 52t-14.5 29
q-17 18 -54 18q-35 0 -64 -17t-46.5 -45.5t-17.5 -61.5q0 -45 27 -61.5t69 -16.5q41 0 71 10z" />
    <glyph glyph-name="candrabindubeng" unicode="&#x981;" 
d="M-96 837q0 -23 -14 -35t-35 -12q-25 0 -38 14t-13 36q0 17 12 30.5t37 13.5q51 0 51 -47zM51 870q-5 -55 -26.5 -98t-62 -68t-104.5 -25q-65 0 -107.5 25t-64.5 68t-28 97l93 11q5 -57 28 -88.5t75 -31.5q92 0 103 121z" />
    <glyph glyph-name="anusvarabeng" unicode="&#x982;" horiz-adv-x="438" 
d="M69 479q0 43 20 75t53.5 50t76.5 18t76.5 -18t53.5 -50t20 -75q0 -65 -43 -105t-107 -40t-107 39.5t-43 105.5zM158 479q0 -28 17.5 -45t43.5 -17t43.5 17t17.5 45q0 27 -17.5 43.5t-43.5 16.5t-43.5 -17t-17.5 -43zM135 316q95 -57 170.5 -141t126.5 -174l-87 -46
q-39 57 -78.5 104.5t-88 90t-112.5 81.5z" />
    <glyph glyph-name="visargabeng" unicode="&#x983;" horiz-adv-x="438" 
d="M69 479q0 43 20 75t53.5 50t76.5 18t76.5 -18t53.5 -50t20 -75q0 -65 -43 -105t-107 -40t-107 39.5t-43 105.5zM158 479q0 -28 17.5 -45t43.5 -17t43.5 17t17.5 45q0 26 -17.5 43t-43.5 17t-43.5 -17t-17.5 -43zM69 144q0 43 20 75.5t53.5 50.5t76.5 18t76.5 -18
t53.5 -50.5t20 -75.5t-20 -75.5t-53.5 -50.5t-76.5 -18t-76.5 18t-53.5 50.5t-20 75.5zM158 144q0 -27 17.5 -44t43.5 -17t43.5 17t17.5 44t-17.5 44t-43.5 17t-43.5 -17t-17.5 -44z" />
    <glyph glyph-name="abeng" unicode="&#x985;" horiz-adv-x="935" 
d="M390 85q-78 0 -145.5 32t-124 108.5t-100.5 207.5l106 31q50 -146 109.5 -212t151.5 -66q75 0 109 31t34 82q0 45 -24.5 72t-62.5 27q-54 0 -54 -47q0 -18 8 -37l-106 -17q-8 19 -12 37.5t-4 32.5q0 36 15.5 61t40.5 39q-17 41 -70 60h-271v95h955v-95h-100v-527h-111
q-25 48 -65.5 85.5t-82.5 64.5q-31 -30 -79.5 -47.5t-116.5 -17.5zM641 287q0 -32 -9 -60q32 -21 59.5 -46t45.5 -49q-3 36 -3 76v319h-325q18 -16 28 -36q63 -2 108.5 -28.5t70.5 -72t25 -103.5z" />
    <glyph glyph-name="aabeng" unicode="&#x986;" horiz-adv-x="1224" 
d="M390 85q-78 0 -145.5 32t-124 108.5t-100.5 207.5l106 31q50 -146 109.5 -212t151.5 -66q75 0 109 31t34 82q0 45 -24.5 72t-62.5 27q-54 0 -54 -47q0 -18 8 -37l-106 -17q-8 19 -12 37.5t-4 32.5q0 36 15.5 61t40.5 39q-17 41 -70 60h-271v95h956q22 0 43.5 -14.5
t37.5 -48.5q-1 5 -2.5 23t-1.5 31v75h88l23 -66h100v-95h-99v-527h-112v457q-16 37 -35 53.5t-47 16.5h-96v-527h-111q-25 48 -65.5 85.5t-82.5 64.5q-31 -30 -79.5 -47.5t-116.5 -17.5zM641 287q0 -32 -9 -60q32 -21 59.5 -46t45.5 -49q-3 36 -3 76v319h-325q18 -16 28 -36
q63 -2 108.5 -28.5t70.5 -72t25 -103.5z" />
    <glyph glyph-name="ibeng" unicode="&#x987;" horiz-adv-x="557" 
d="M255 491q87 0 139.5 -27.5t76 -68.5t23.5 -84q0 -70 -40 -113.5t-116 -61.5q57 -21 115.5 -52.5t113.5 -72.5l-61 -78q-70 51 -140 89t-148 64t-172 44l19 92q67 -19 140 -19q66 0 104.5 14t55 37.5t16.5 53.5q0 43 -32 67t-85 24q-48 0 -67.5 -13t-19.5 -38q0 -6 2 -14
t4 -13l-104 -17q-13 32 -13 68q0 34 21 60t59 41q-19 36 -68 54h-88v95h366q-2 34 -18 49.5t-56 15.5h-64q-72 0 -115 12.5t-69 38.5q-43 40 -43 118q0 14 1.5 27t3.5 29l106 -7q-3 -19 -3 -32q0 -22 4.5 -38.5t15.5 -27.5q12 -12 32.5 -18t62.5 -6h61q57 0 90 -8.5
t56 -31.5q37 -36 40 -121h106v-95h-341q19 -16 29 -36v0z" />
    <glyph glyph-name="iibeng" unicode="&#x988;" horiz-adv-x="709" 
d="M216 75q-46 0 -81.5 26.5t-67.5 79.5l79 48q20 -30 34 -41.5t31 -11.5q16 0 31 10t33 32q30 36 30 75q0 25 -11 49.5t-32 40.5t-51 16q-25 0 -37.5 -12t-12.5 -30q0 -19 7 -36l-104 -18q-8 19 -11 38t-3 36q0 39 22 63.5t54 36.5q-19 33 -65 50h-71v95h492
q-2 34 -17.5 49.5t-55.5 15.5h-140q-72 0 -115 12.5t-69 38.5q-43 40 -43 118q0 14 1.5 27t3.5 29l106 -7q-3 -19 -3 -32q0 -22 4.5 -38.5t15.5 -27.5q12 -12 32.5 -18t62.5 -6h137q57 0 90.5 -8.5t55.5 -31.5q36 -35 39 -121h132v-95h-510q20 -17 30 -40q61 -8 101 -43.5
t54 -87.5q31 32 71.5 61t92.5 52l90 -87q-25 -42 -35.5 -86.5t-10.5 -99.5q0 -79 34 -182l-109 -23q-18 55 -27.5 108t-9.5 106q0 73 23 134q-31 -22 -62.5 -54.5t-67.5 -84.5q-31 -46 -56 -73.5t-51 -39.5t-60 -12z" />
    <glyph glyph-name="ubeng" unicode="&#x989;" horiz-adv-x="730" 
d="M509 622q-1 34 -17.5 49.5t-56.5 15.5h-141q-71 0 -114.5 12.5t-69.5 38.5q-43 40 -43 118q0 14 1.5 27t3.5 29l106 -7q-3 -19 -3 -32q0 -22 4.5 -38.5t15.5 -27.5q12 -12 32 -18t63 -6h138q57 0 90.5 -8.5t56.5 -31.5q18 -18 27.5 -47.5t11.5 -73.5h126v-95h-355v-148
q0 -20 6.5 -32t23.5 -12q23 0 50 23.5t58 68.5l95 17q34 -49 51 -98.5t17 -103.5q0 -63 -29.5 -112.5t-87 -78.5t-142.5 -29q-66 0 -125.5 20.5t-111 68.5t-94.5 129t-75 202l106 29q35 -127 77.5 -203.5t95.5 -111.5t119 -35q74 0 115.5 35t41.5 96q0 21 -3.5 38t-10.5 31
q-39 -43 -80 -63t-82 -20q-59 0 -90 34q-17 16 -26.5 44.5t-9.5 80.5v130h-284v95h519z" />
    <glyph glyph-name="uubeng" unicode="&#x98a;" horiz-adv-x="869" 
d="M648 622q-2 34 -18 49.5t-55 15.5h-177q-72 0 -115 12.5t-69 38.5q-43 40 -43 118q0 14 1 27t4 29l106 -7q-3 -19 -3 -32q0 -22 4.5 -38.5t15.5 -27.5q12 -12 32.5 -18t62.5 -6h173q57 0 90.5 -8.5t56.5 -31.5q18 -18 28 -47.5t11 -73.5h126v-95h-351v-148q0 -20 7 -32
t24 -12q23 0 49 23.5t58 68.5l92 17q33 -49 50 -97.5t17 -104.5q0 -61 -28 -111t-88.5 -79.5t-159.5 -29.5q-119 0 -217.5 36t-176 120.5t-134.5 231.5l98 32q41 -116 96 -192t132 -125l3 3q-50 50 -90.5 125.5t-66.5 163.5l100 30q32 -124 70.5 -195t88.5 -101t114 -30
q74 0 111.5 37.5t37.5 95.5q0 21 -4 37.5t-10 28.5q-35 -38 -76 -60t-82 -22q-58 0 -90 34q-17 16 -26.5 44.5t-9.5 80.5v130h-427v95h658z" />
    <glyph glyph-name="rvocalicbeng" unicode="&#x98b;" horiz-adv-x="902" 
d="M188 424q-65 0 -103.5 32.5t-38.5 88.5q0 24 6 45.5t15 37.5l102 -25q-5 -10 -8.5 -20.5t-3.5 -21.5q0 -21 12.5 -31t31.5 -10q25 0 53.5 17t57.5 69l83 19q22 -26 48 -65.5t43 -80.5v209h88l24 -66v-325q30 -18 58 -42t51 -51q-2 26 -2 63v421h87l24 -66v-548h-111
q-42 67 -107 118v-192h-112q-28 45 -75 87.5t-109 73.5t-135 44l-46 109q64 36 136 69t146 61q-8 16 -19 32.5t-23 32.5q-37 -41 -78.5 -63t-94.5 -22zM486 373q-61 -19 -117 -43t-114 -56q40 -9 84 -29.5t83.5 -49.5t67.5 -64q-2 17 -3 35.5t-1 43.5v163z" />
    <glyph glyph-name="lvocalicbeng" unicode="&#x98c;" horiz-adv-x="647" 
d="M206 324q78 0 126.5 -39t48.5 -97q0 -50 -23 -86q135 28 135 126q0 36 -18 63.5t-66.5 52.5t-140.5 54q-86 27 -133 53t-65.5 56.5t-18.5 71.5q0 32 20.5 66.5t57.5 66.5l76 -56q-22 -23 -30.5 -37t-8.5 -29q0 -12 6 -23t24 -22.5t55 -25.5t99 -33q84 -26 135.5 -55.5
t78 -62.5t36 -67.5t9.5 -69.5q0 -65 -31 -109.5t-85.5 -71t-124 -38.5t-147.5 -12h-21l-22 92q96 22 96 79q0 27 -16.5 43.5t-49.5 16.5q-29 0 -41.5 -12t-12.5 -29q0 -18 8 -34l-105 -23q-7 19 -11 36.5t-4 36.5q0 56 42.5 87t121.5 31z" />
    <glyph glyph-name="ebeng" unicode="&#x98f;" horiz-adv-x="782" 
d="M525 628q45 0 74 -9.5t51 -26.5q20 -16 32.5 -43t12.5 -76v-473h-109q-15 40 -39.5 57.5t-71.5 17.5q-37 0 -68 -4t-63 -8t-72 -4q-39 0 -80.5 7.5t-76.5 29.5t-56.5 65t-21.5 113q0 25 3.5 52.5t8.5 50.5l109 -15q-4 -14 -7 -34.5t-3 -49.5q0 -53 20 -78.5t51.5 -33.5
t65.5 -8q48 0 88 7.5t84 7.5q41 0 70.5 -11t56.5 -41v325q0 33 -4.5 48t-14.5 24q-15 15 -47 15q-30 0 -57.5 -14t-48 -35.5t-32.5 -44t-12 -39.5q0 -14 9 -26t44 -12q11 0 20 1t19 2l7 -93q-24 -9 -74 -9q-57 0 -96.5 30.5t-39.5 94.5q0 41 21 83t58 77.5t85.5 57.5
t103.5 22z" />
    <glyph glyph-name="aibeng" unicode="&#x990;" horiz-adv-x="902" 
d="M525 628q45 0 74 -9.5t51 -26.5q20 -16 32.5 -42t12.5 -72q24 15 40 37.5t16 56.5q0 25 -10 42.5t-27 30.5q-36 27 -117 37l-115 16q-96 13 -137.5 52.5t-41.5 118.5q0 12 2 25t4 23l107 -5q-2 -8 -2.5 -17t-0.5 -17q0 -37 19 -56q20 -20 71 -26l127 -17q70 -9 113 -26
t69 -44q51 -49 51 -130q0 -54 -22.5 -94t-61 -69.5t-84.5 -52.5v-363h-109q-15 40 -39.5 57.5t-71.5 17.5q-37 0 -68 -4t-63 -8t-72 -4q-39 0 -80.5 7.5t-76.5 29.5t-56.5 65t-21.5 113q0 25 3.5 52.5t8.5 50.5l109 -15q-4 -14 -7 -34.5t-3 -49.5q0 -53 20 -78.5t51.5 -33.5
t65.5 -8q48 0 88 7.5t84 7.5q41 0 70.5 -11t56.5 -41v325q0 33 -4.5 48.5t-14.5 23.5q-15 15 -47 15q-30 0 -57.5 -14t-48 -35.5t-32.5 -44t-12 -39.5q0 -14 9 -26t44 -12q11 0 20 1t19 2l7 -93q-24 -9 -74 -9q-57 0 -96.5 30.5t-39.5 94.5q0 41 21 83t58 77.5t85.5 57.5
t103.5 22z" />
    <glyph glyph-name="obeng" unicode="&#x993;" horiz-adv-x="764" 
d="M712 219q0 -84 -64.5 -135.5t-175.5 -51.5q-102 0 -186.5 41.5t-151 140.5t-113.5 271l106 30q41 -139 89 -223t109 -122t140 -38q56 0 94.5 24t38.5 73q0 20 -8.5 36.5t-22.5 29.5q-31 -16 -67 -29l-40 94q56 19 92.5 45.5t36.5 70.5q0 28 -17.5 43.5t-51.5 15.5
q-40 0 -75.5 -17t-57.5 -40.5t-22 -42.5q0 -13 8.5 -22.5t39.5 -13.5l-24 -97q-70 9 -104 43t-34 82q0 39 22 75t60.5 65t87.5 45.5t102 16.5q86 0 133 -40.5t47 -110.5q0 -37 -15 -69t-42 -58q31 -25 48.5 -58.5t17.5 -73.5z" />
    <glyph glyph-name="aubeng" unicode="&#x994;" horiz-adv-x="908" 
d="M712 219q0 -84 -64.5 -135.5t-175.5 -51.5q-102 0 -186.5 41.5t-151 140.5t-113.5 271l106 30q41 -139 89 -223t109 -122t140 -38q56 0 94.5 24t38.5 73q0 21 -8.5 37t-22.5 29q-30 -15 -67 -29l-40 94q56 19 92.5 45.5t36.5 69.5q0 60 -69 60q-40 0 -75.5 -17
t-57.5 -40.5t-22 -42.5q0 -13 8.5 -22.5t39.5 -13.5l-24 -97q-70 9 -104 43t-34 82q0 39 22 75t60.5 65t87.5 45.5t102 16.5q86 0 132 -39.5t46 -109.5v-5q24 16 40 39.5t16 56.5q0 23 -7.5 39t-21.5 29q-19 18 -50 28t-70 15l-120 16q-98 13 -138.5 52.5t-40.5 118.5
q0 26 5 48l108 -5q-2 -8 -2.5 -17t-0.5 -17q0 -36 18 -56q11 -10 28.5 -16.5t47.5 -10.5l136 -17q61 -8 101 -24t65 -41q54 -49 54 -134q0 -58 -26.5 -100.5t-74.5 -75.5t-111 -61q25 -25 40 -55.5t15 -67.5z" />
    <glyph glyph-name="kabeng" unicode="&#x995;" horiz-adv-x="838" 
d="M801 269q0 -33 -13.5 -63t-45.5 -48.5t-87 -18.5q-19 0 -35.5 1t-31.5 4l5 96q6 -1 13.5 -1.5t19.5 -0.5q40 0 52.5 14.5t12.5 36.5q0 39 -42.5 68t-124.5 44v-401h-111q-52 84 -142 142.5t-201 75.5l-46 110q89 50 188 94.5t202 74.5v30h-424v95h858v-95h-325v-28
q77 -12 140 -42.5t100.5 -78t37.5 -109.5zM164 288q43 -8 89 -29t88 -52.5t74 -70.5q-1 14 -1.5 29.5t-0.5 32.5v196q-65 -21 -127 -48.5t-122 -57.5z" />
    <glyph glyph-name="khabeng" unicode="&#x996;" horiz-adv-x="729" 
d="M188 424q-65 0 -103.5 32.5t-38.5 88.5q0 24 6 45.5t15 37.5l102 -25q-5 -10 -8.5 -20.5t-3.5 -21.5q0 -21 12.5 -31t31.5 -10q29 0 56 17t58 70l78 18q31 -31 52 -72t21 -88q0 -70 -44 -120t-127 -73q90 -25 143 -64.5t92 -79.5q-2 22 -2 45.5v50.5v464h88l23 -66h100
v-95h-99v-527h-112q-65 84 -150.5 138.5t-211.5 75.5l-30 107q113 16 167 48.5t54 85.5q0 23 -11 43q-30 -35 -68.5 -54.5t-89.5 -19.5z" />
    <glyph glyph-name="gabeng" unicode="&#x997;" horiz-adv-x="683" 
d="M483 0v391q-48 62 -99 102t-114 40q-45 0 -73 -19.5t-52 -46.5q17 8 38.5 12.5t48.5 4.5q68 0 101.5 -37.5t33.5 -85.5q0 -60 -42.5 -108.5t-129.5 -96.5l-66 94q56 25 93 51t37 59q0 19 -13 30.5t-41 11.5q-42 0 -91 -26l-96 78q50 76 109.5 125.5t136.5 49.5
q63 0 114.5 -28.5t106.5 -83.5q-1 13 -1.5 30.5t-0.5 37.5v103h88l22 -66h100v-95h-99v-527h-111z" />
    <glyph glyph-name="ghabeng" unicode="&#x998;" horiz-adv-x="650" 
d="M660 622v-95h-99v-527h-111q-49 63 -137 110.5t-205 61.5l-39 90q24 17 48 33t49 31q-62 10 -91.5 42t-29.5 76q0 47 32 83h-87v95h670zM381 350q-44 -24 -89 -50.5t-83 -52.5q76 -18 135 -49.5t108 -78.5q-1 16 -1.5 33.5t-0.5 35.5v339h-242q-25 -17 -36 -36t-11 -40
q0 -32 21 -44.5t47 -12.5q23 0 46.5 7t53.5 26z" />
    <glyph glyph-name="ngabeng" unicode="&#x999;" horiz-adv-x="740" 
d="M431 6q-67 0 -127 20t-112.5 67t-95 128t-75.5 203l106 30q34 -127 76.5 -203.5t97 -110.5t123.5 -34q74 0 118 32t44 90q0 15 -2.5 30t-9.5 31q-41 -38 -83 -55.5t-85 -17.5q-54 0 -84 24q-21 17 -32.5 46.5t-11.5 79.5v60q-52 25 -91 62.5t-69 77.5l80 57
q22 -29 46 -55t50 -47q22 53 67 80t104 27q65 0 101.5 -30t36.5 -85q0 -41 -23.5 -67.5t-62 -40t-83.5 -13.5q-25 0 -48 3v-38q0 -20 6 -32t26 -12q31 0 57.5 16.5t67.5 56.5l100 8q25 -36 39.5 -81.5t14.5 -91.5q0 -63 -30 -111.5t-89 -76t-147 -27.5zM461 550
q-31 0 -49.5 -21.5t-23.5 -53.5q22 -5 46 -5q36 0 52.5 13.5t16.5 32.5q0 34 -42 34z" />
    <glyph glyph-name="cabeng" unicode="&#x99a;" horiz-adv-x="583" 
d="M593 622v-95h-395v-14q28 -45 69.5 -68t102.5 -23h19q47 0 73 -8t44 -25q16 -15 25 -38.5t9 -50.5q0 -61 -25 -111.5t-66 -87.5q-39 -37 -88 -58t-105 -21q-47 0 -75.5 10t-47.5 28q-20 19 -33.5 50.5t-13.5 98.5v318h-96v95h603zM214 134q15 -17 49 -17q32 0 60.5 14.5
t54.5 40.5q24 24 37.5 51t13.5 56q0 26 -15.5 35.5t-41.5 9.5h-8q-36 0 -61 6.5t-54 22.5q-30 17 -53 42q1 -9 1.5 -19.5t0.5 -19.5v-142q0 -38 4 -55t12 -25z" />
    <glyph glyph-name="chabeng" unicode="&#x99b;" horiz-adv-x="716" 
d="M236 201q-91 0 -126 44q-14 17 -22.5 42t-8.5 74v166h-89v95h736v-95h-539v-6q23 -22 52 -34t77 -12h62q11 1 27 1.5t32 0.5q66 0 108.5 -18t66.5 -46t33.5 -58.5t9.5 -55.5q0 -80 -44 -128.5t-106 -71.5q50 -11 102 -26.5t108 -38.5l-35 -87q-135 55 -265.5 81.5
t-265.5 35.5l11 96q26 -4 61 -8t78 -4q88 0 142 19.5t79 53t25 73.5q0 75 -73 94q1 -5 1 -11q0 -50 -31 -90t-84.5 -63t-121.5 -23zM199 305q12 -15 45 -15q35 0 62.5 12t43 30t15.5 35q0 24 -41 24h-19q-34 0 -64.5 10.5t-54.5 29.5q0 -9 0.5 -18.5t0.5 -17.5v-42
q0 -22 3.5 -32t8.5 -16z" />
    <glyph glyph-name="jabeng" unicode="&#x99c;" horiz-adv-x="967" 
d="M425 42q-89 0 -165 36.5t-136.5 124t-102.5 239.5l106 29q35 -122 77 -194t95.5 -103t122.5 -31q72 0 105.5 27.5t33.5 77.5q0 20 -4 38q-31 -21 -67 -34t-82 -13q-63 0 -103.5 32.5t-40.5 98.5q0 41 25.5 82t90.5 76q-19 -1 -38.5 -1h-41.5h-310v95h987v-95h-303
q-14 0 -29 0.5t-30 0.5q21 -31 64 -53t121 -22q12 0 23.5 0.5t27.5 2.5l53 -88q-21 -38 -31.5 -78t-10.5 -90q0 -84 34 -186l-109 -23q-18 55 -27.5 107t-9.5 113q0 43 7 80.5t19 68.5q-105 10 -169 47.5t-100 96.5q-70 -34 -101 -65.5t-31 -60.5q0 -23 13.5 -33.5
t29.5 -10.5q32 0 56 13.5t55 38.5l124 -38q7 -20 12 -47.5t5 -57.5q0 -50 -24 -96t-78 -75.5t-143 -29.5z" />
    <glyph glyph-name="jhabeng" unicode="&#x99d;" horiz-adv-x="831" 
d="M524 622v-325q30 -18 58 -42t50 -51q-1 26 -1 63v421h88l22 -66h100v-95h-99v-453h-111q-42 67 -107 118v-192h-111q-52 84 -142 142.5t-201 75.5l-46 110q89 51 189.5 97t201.5 76v26h-425v95h534zM164 288q43 -8 89 -29t88 -52.5t74 -70.5q-1 14 -1.5 29.5t-0.5 32.5
v199q-64 -21 -125.5 -48.5t-123.5 -60.5z" />
    <glyph glyph-name="nyabeng" unicode="&#x99e;" horiz-adv-x="1051" 
d="M525 628q45 0 74 -9.5t51 -26.5q11 -9 20 -22.5t15 -33.5q36 38 76.5 56.5t91.5 18.5q68 0 106.5 -33.5t38.5 -85.5q0 -23 -9 -50t-37 -52q21 -16 36 -40.5t15 -59.5q0 -50 -37.5 -88.5t-115.5 -38.5q-55 0 -93 20.5t-64 53.5q1 -15 1.5 -30.5t0.5 -31.5v-175h-109
q-15 40 -39.5 57.5t-71.5 17.5q-37 0 -68.5 -4t-64 -8t-70.5 -4q-39 0 -80.5 7.5t-76.5 29.5t-56.5 65t-21.5 113q0 25 3.5 52.5t8.5 50.5l109 -15q-4 -14 -7 -34.5t-3 -49.5q0 -53 20 -78.5t51.5 -33.5t65.5 -8q48 0 88 7.5t84 7.5q41 0 70.5 -11t56.5 -41v325
q0 33 -4.5 48.5t-14.5 23.5q-15 15 -47 15q-30 0 -57.5 -14t-48 -35.5t-32.5 -44t-12 -39.5q0 -14 9 -26t44 -12q11 0 20 1t19 2l7 -93q-24 -9 -74 -9q-57 0 -96.5 30.5t-39.5 94.5q0 41 21 83t58 77.5t85.5 57.5t103.5 22zM840 522q-42 0 -79 -29.5t-66 -78.5v-26
q21 -68 59 -102t83 -34q25 0 42.5 11t17.5 37q0 28 -24 48q-23 -8 -50 -13l-21 86q89 13 89 61q0 22 -15 31t-36 9z" />
    <glyph glyph-name="ttabeng" unicode="&#x99f;" horiz-adv-x="583" 
d="M386 622q-2 34 -18 49.5t-55 15.5h-83q-71 0 -114.5 12.5t-69.5 38.5q-22 20 -32 50t-10 68q0 14 1 27t4 29l105 -7q-1 -10 -1.5 -17.5t-0.5 -14.5q0 -22 4 -38.5t15 -27.5q12 -12 32.5 -18t63.5 -6h78q57 0 90.5 -8.5t56.5 -31.5q18 -18 28 -47.5t11 -73.5h102v-95h-395
v-313q0 -38 4 -55t12 -25q15 -17 49 -17q31 0 60 14.5t55 40.5q52 50 52 108q0 23 -13.5 37t-44.5 14q-13 0 -24.5 -1.5t-22.5 -3.5l-15 94q20 4 41.5 7.5t48.5 3.5q70 0 105 -36.5t35 -98.5q0 -57 -25 -107.5t-66 -87.5q-39 -37 -88 -58t-105 -21q-47 0 -75.5 10t-48.5 29
q-20 18 -33 49.5t-13 98.5v318h-96v95h396z" />
    <glyph glyph-name="tthabeng" unicode="&#x9a0;" horiz-adv-x="618" 
d="M298 0q-94 0 -165 45t-106 112l30 102q81 9 126 35t63 64t18 84q0 18 -3 40t-12 45h-259v95h209q-35 44 -53 80t-18 74q0 42 23 76t66 65l79 -78q-31 -24 -43.5 -44t-12.5 -45q0 -28 21 -58t59 -70h308v-95h-141q-19 0 -32.5 0.5t-28.5 1.5q68 -68 104 -138.5t36 -149.5
q0 -110 -68.5 -175.5t-199.5 -65.5zM296 99q74 0 114.5 40t40.5 107q0 58 -23.5 114t-80.5 124q6 -19 9.5 -39.5t3.5 -42.5q0 -49 -18 -93t-64 -79.5t-130 -58.5q25 -37 65 -54.5t83 -17.5z" />
    <glyph glyph-name="ddabeng" unicode="&#x9a1;" horiz-adv-x="730" 
d="M740 622v-95h-355v-148q0 -20 6.5 -32t23.5 -12q23 0 50 23.5t58 68.5l95 17q34 -49 51 -98.5t17 -103.5q0 -63 -29.5 -112.5t-87 -78.5t-142.5 -29q-66 0 -125.5 20.5t-111 68.5t-94.5 129t-75 202l106 29q35 -127 77.5 -203.5t95.5 -111.5t119 -35q74 0 115.5 35
t41.5 96q0 21 -3.5 38t-10.5 31q-39 -43 -80 -63t-82 -20q-59 0 -90 34q-17 16 -26.5 44.5t-9.5 80.5v130h-284v95h750z" />
    <glyph glyph-name="ddhabeng" unicode="&#x9a2;" horiz-adv-x="583" 
d="M593 622v-95h-395v-313q0 -38 4 -55t12 -25q15 -17 49 -17q31 0 60 14.5t55 40.5q52 50 52 108q0 23 -13.5 37t-44.5 14q-13 0 -24.5 -1.5t-22.5 -3.5l-15 94q20 4 41.5 7.5t48.5 3.5q70 0 105 -36.5t35 -98.5q0 -57 -25 -107.5t-66 -87.5q-39 -37 -88 -58t-105 -21
q-47 0 -75.5 10t-48.5 29q-20 18 -33 49.5t-13 98.5v318h-96v95h603z" />
    <glyph glyph-name="nnabeng" unicode="&#x9a3;" horiz-adv-x="634" 
d="M644 622v-95h-99v-527h-111v393q-51 63 -101.5 100.5t-103.5 37.5q-36 0 -57.5 -20.5t-21.5 -54.5q0 -39 28.5 -62.5t107.5 -27.5l-11 -113q-119 13 -180 65.5t-61 138.5q0 53 24 92t64.5 59.5t89.5 20.5q71 0 123.5 -32t100.5 -82q-1 18 -1.5 38t-0.5 38v97h87l23 -66
h100z" />
    <glyph glyph-name="tabeng" unicode="&#x9a4;" horiz-adv-x="723" 
d="M733 622v-95h-743v95h743zM421 39q-89 0 -164.5 38t-135 126.5t-100.5 238.5l106 30q49 -172 114.5 -252t169.5 -80q83 0 120 35.5t37 95.5q0 55 -30 88t-73 33q-62 0 -62 -54q0 -10 1.5 -21.5t6.5 -22.5l-107 -17q-16 41 -16 76q0 46 23 75t61 43t84 14q70 0 120 -28.5
t77 -79t27 -115.5q0 -60 -27 -111t-84.5 -81.5t-147.5 -30.5z" />
    <glyph glyph-name="thabeng" unicode="&#x9a5;" horiz-adv-x="690" 
d="M221 625q71 0 116.5 -23.5t67.5 -62t22 -83.5q0 -67 -44.5 -114.5t-124.5 -69.5q87 -25 140.5 -64t93.5 -80q-2 22 -2 45.5v50.5v464h87l23 -66h100v-95h-99v-527h-111q-66 84 -151.5 138t-211.5 76l-28 107q118 17 167 50t49 83q0 34 -23.5 56t-70.5 22q-39 0 -56 -15
t-17 -31q0 -26 31 -45l-67 -74q-28 17 -51.5 46t-23.5 75q0 56 46.5 96.5t137.5 40.5z" />
    <glyph glyph-name="dabeng" unicode="&#x9a6;" horiz-adv-x="625" 
d="M635 622v-95h-446v-242q55 54 131 101t167 83l81 -71q-46 -83 -46 -194q0 -43 8 -90.5t26 -99.5l-109 -23q-18 55 -27.5 107t-9.5 111q0 35 5.5 67.5t14.5 60.5q-71 -38 -137 -89t-125 -109l-90 59v329h-88v95h645z" />
    <glyph glyph-name="dhabeng" unicode="&#x9a7;" horiz-adv-x="617" 
d="M238 629q14 0 29 -1.5t30 -3.5l-8 -90q-5 1 -12 1.5t-18 0.5q-28 0 -41 -11t-13 -28q0 -35 47 -56q41 17 82 31.5t82 27.5v122h211v-95h-100v-527h-111q-52 84 -142.5 141.5t-203.5 76.5l-46 110q33 19 67.5 37t69.5 35q-30 23 -47 50.5t-17 63.5q0 28 13.5 54t44.5 43.5
t83 17.5zM164 288q42 -9 88 -29t89.5 -51t76.5 -72q-1 16 -1.5 33.5t-0.5 38.5v188q-64 -21 -127 -48t-125 -60z" />
    <glyph glyph-name="nabeng" unicode="&#x9a8;" horiz-adv-x="623" 
d="M633 622v-95h-100v-527h-111v193q-46 54 -98 91.5t-102 37.5q-30 0 -50.5 -14.5t-20.5 -44.5q0 -46 74 -75l-51 -96q-65 26 -102 72.5t-37 102.5q0 52 24.5 85.5t63 50t79.5 16.5q65 0 119 -27.5t102 -75.5q-1 17 -1 33.5v32.5v145h-432v95h643z" />
    <glyph glyph-name="pabeng" unicode="&#x9aa;" horiz-adv-x="747" 
d="M757 622v-95h-100v-527h-111v354q-25 33 -46 59l-257 -237l-78 74l28 26q10 13 16 28t6 31q0 24 -14 36.5t-37 12.5q-27 0 -57 -18l-91 84q65 82 130 130.5t149 48.5q75 0 132.5 -38t121.5 -108q-1 17 -2 37t-1 40v128h87l23 -66h101zM297 365v-6q12 12 24.5 23.5
t24.5 23.5l85 76q-64 51 -131 51q-51 0 -89 -23.5t-71 -60.5q12 6 26 9t30 3q52 0 76.5 -29t24.5 -67z" />
    <glyph glyph-name="phabeng" unicode="&#x9ab;" horiz-adv-x="867" 
d="M877 622v-95h-703q50 -17 94 -46t74 -58l9 -76q-43 -18 -89.5 -40t-85.5 -44q74 -16 144.5 -51.5t122.5 -90.5q-1 17 -1.5 34t-0.5 35v304h34q95 0 168 -19.5t128 -72.5q59 -54 59 -133q0 -33 -13.5 -63t-45.5 -48.5t-87 -18.5q-19 0 -35.5 1t-31.5 4l5 96q5 -1 13 -1.5
t20 -0.5q41 0 53 14.5t12 36.5q0 37 -41.5 68t-125.5 38v-395h-112q-60 77 -147 122.5t-214 64.5l-43 105q43 27 93.5 54t100.5 51q-41 25 -89.5 45t-109.5 31l24 54h-66v95h887z" />
    <glyph glyph-name="babeng" unicode="&#x9ac;" horiz-adv-x="617" 
d="M627 622v-95h-100v-527h-111q-52 84 -142.5 141.5t-203.5 76.5l-46 110q89 51 190.5 96.5t203.5 75.5v27h-428v95h637zM164 288q42 -9 88 -29t89.5 -51t76.5 -72q-1 16 -1.5 32t-0.5 33v195q-64 -21 -127 -48t-125 -60z" />
    <glyph glyph-name="bhabeng" unicode="&#x9ad;" horiz-adv-x="739" 
d="M749 622v-95h-759v95h759zM434 34q-91 0 -168.5 36.5t-139.5 125.5t-105 246l106 29q35 -125 78.5 -198.5t98 -105.5t123.5 -32q75 0 116.5 34.5t41.5 95.5q0 22 -4.5 41t-11.5 35q-36 -36 -77.5 -55t-93.5 -19q-66 0 -104 31.5t-38 87.5q0 24 6.5 46.5t14.5 39.5
l104 -27q-13 -21 -13 -42q0 -22 12.5 -31.5t32.5 -9.5q29 0 55 16.5t61 70.5l93 15q73 -102 73 -210q0 -62 -29.5 -112t-87.5 -79t-144 -29z" />
    <glyph glyph-name="mabeng" unicode="&#x9ae;" horiz-adv-x="636" 
d="M646 622v-95h-99v-527h-111v155q-48 58 -100 94.5t-101 36.5q-29 0 -49.5 -14.5t-20.5 -44.5q0 -25 17.5 -42.5t56.5 -32.5l-51 -96q-64 26 -101.5 73t-37.5 102q0 50 23 82.5t59 49t75 18.5q-10 28 -30.5 44.5t-57.5 26.5t-97 18l13 57h-44v95h656zM436 527h-252
q61 -21 94 -61t38 -104q32 -12 61.5 -33.5t59.5 -50.5q-1 17 -1 34v35v180z" />
    <glyph glyph-name="yabeng" unicode="&#x9af;" horiz-adv-x="650" 
d="M660 622v-95h-99v-527h-111q-62 78 -150.5 123.5t-219.5 63.5l-43 105q43 27 93.5 54t100.5 51q-41 25 -89.5 45t-109.5 31l24 54h-66v95h670zM450 527h-276q50 -17 94 -46t74 -58l9 -76q-43 -18 -89.5 -40t-85.5 -45q78 -13 151 -50t125 -92q-2 17 -2 34.5v36.5v336z
" />
    <glyph glyph-name="rabeng" unicode="&#x9b0;" horiz-adv-x="617" 
d="M627 622v-95h-100v-527h-111q-52 84 -142.5 141.5t-203.5 76.5l-46 110q89 51 190.5 96.5t203.5 75.5v27h-428v95h637zM164 288q42 -9 88 -29t89.5 -51t76.5 -72q-1 16 -1.5 32t-0.5 33v195q-64 -21 -127 -48t-125 -60zM176 -9q-29 0 -48.5 19t-19.5 49t19.5 50t48.5 20
t48.5 -20t19.5 -50t-19.5 -49t-48.5 -19z" />
    <glyph glyph-name="labeng" unicode="&#x9b2;" horiz-adv-x="759" 
d="M769 622v-95h-99v-527h-112v304q-16 20 -34 32t-39 12q-12 0 -25.5 -5t-23 -20t-9.5 -43q0 -18 3 -33l-95 -7q-7 54 -38 85t-76 31q-32 0 -51 -17.5t-19 -44.5q0 -38 28.5 -61t75.5 -38l-34 -98q-84 25 -135 75t-51 126q0 48 23.5 83t63 54t87.5 19q52 0 89 -16.5
t72 -52.5q12 30 38.5 45t55.5 15t51.5 -9.5t44.5 -26.5q-2 29 -2 54v64h-568v95h779z" />
    <glyph glyph-name="shabeng" unicode="&#x9b6;" horiz-adv-x="700" 
d="M80 629q45 0 84.5 -18.5t61.5 -59.5q19 40 53 59t73 19q48 0 85 -20.5t64 -56.5q-1 13 -1.5 26t-0.5 27v83h88l23 -66h100v-95h-99v-527h-112v436q-28 45 -61 71t-73 26q-32 0 -54 -17.5t-22 -53.5q0 -75 125 -81l-11 -103q-68 4 -110.5 27.5t-62.5 62.5
q-20 -39 -62.5 -64.5t-112.5 -25.5l-11 103q71 2 97 25.5t26 53.5q0 35 -23.5 54t-66.5 19q-20 0 -37.5 -2t-39.5 -8l-11 97q25 4 47 6.5t44 2.5z" />
    <glyph glyph-name="ssabeng" unicode="&#x9b7;" horiz-adv-x="657" 
d="M667 622v-95h-99v-527h-111q-70 78 -158 123.5t-219 63.5l-43 105q44 26 98 55t108 52q-114 55 -211 74l24 54h-66v95h677zM457 527h-285q71 -23 148 -64.5t139 -92.5q-1 18 -1.5 37.5t-0.5 38.5v81zM171 263q78 -13 153 -50t135 -92q-1 17 -1.5 34t-0.5 36v67
q-24 24 -54 46.5t-64 42.5q-42 -19 -86.5 -40.5t-81.5 -43.5z" />
    <glyph glyph-name="sabeng" unicode="&#x9b8;" horiz-adv-x="698" 
d="M708 622v-95h-99v-527h-111v308q-16 17 -29 26.5t-26 9.5t-24 -7.5t-25 -29t-40 -65.5q-28 -46 -52 -75t-50 -42t-60 -13q-44 0 -82.5 24.5t-78.5 93.5l80 49q23 -38 38 -52t35 -14q16 0 31 10t36 44q-8 59 -18.5 94t-33.5 55q-25 22 -66 33t-103 18l17 60h-57v95h718z
M498 527h-325q50 -12 79.5 -31.5t44 -50.5t20.5 -77q23 40 45 56.5t52 16.5q24 0 44 -10t42 -31q-1 15 -1.5 30t-0.5 30v67z" />
    <glyph glyph-name="habeng" unicode="&#x9b9;" horiz-adv-x="557" 
d="M255 491q87 0 139.5 -27.5t76 -68.5t23.5 -84q0 -70 -40 -113.5t-116 -61.5q57 -21 115.5 -52.5t113.5 -72.5l-61 -78q-70 51 -140 89t-148 64t-172 44l19 92q67 -19 140 -19q66 0 104.5 14t55 37.5t16.5 53.5q0 43 -32 67t-85 24q-48 0 -67.5 -13t-19.5 -38q0 -6 2 -14
t4 -13l-104 -17q-13 32 -13 68q0 34 21 60t59 41q-19 36 -68 54h-88v95h577v-95h-341q19 -16 29 -36v0z" />
    <glyph glyph-name="nuktabeng" unicode="&#x9bc;" 
d="M-255 -197q-29 0 -48.5 19t-19.5 49t19.5 50t48.5 20t48.5 -20t19.5 -50t-19.5 -49t-48.5 -19z" />
    <glyph glyph-name="avagrahabeng" unicode="&#x9bd;" horiz-adv-x="557" 
d="M305 622v-134q68 -8 109.5 -35.5t60.5 -65.5t19 -76q0 -70 -40 -113.5t-116 -61.5q57 -21 115.5 -52.5t113.5 -72.5l-61 -78q-70 51 -140 89t-148 64t-172 44l19 92q67 -19 140 -19q66 0 104.5 14t55 37.5t16.5 53.5q0 43 -32 67t-85 24q-48 0 -67.5 -13t-19.5 -38
q0 -6 2 -14t4 -13l-104 -17q-13 32 -13 68q0 44 34.5 74t94.5 40v41h-205v95h315z" />
    <glyph glyph-name="aavowelsignbeng" unicode="&#x9be;" horiz-adv-x="290" 
d="M300 622v-95h-100v-527h-111v453q-12 32 -34.5 53t-58.5 21h-6v95h18q23 0 45.5 -13.5t39.5 -49.5q-1 5 -2.5 23t-1.5 31v75h88l22 -66h101z" />
    <glyph glyph-name="ivowelsignbeng" unicode="&#x9bf;" horiz-adv-x="290" 
d="M300 622v-95h-100v-527h-111v527h-99v95h95q-35 39 -65 83q44 72 89 119t98.5 70t122.5 23q66 0 126 -18t127.5 -56.5t157.5 -100.5l-58 -76q-77 54 -133 88t-105 50.5t-102 16.5q-50 0 -87 -18.5t-64 -48.5t-48 -64q17 -33 49 -68h107z" />
    <glyph glyph-name="iivowelsignbeng" unicode="&#x9c0;" horiz-adv-x="290" 
d="M300 527h-100v-527h-111v527h-99v95h99q-11 76 -57.5 121.5t-123 65.5t-177.5 20q-80 0 -122 -12t-42 -32q0 -13 16 -17.5t45 -4.5h99q56 0 89 -9.5t55 -28.5q19 -18 27.5 -44t8.5 -66h-103q-2 40 -21 53q-10 6 -22 9t-33 3h-83q-53 0 -85.5 6t-53.5 17q-26 14 -35.5 35
t-9.5 44q0 61 69 98t211 37q211 0 329.5 -71.5t132.5 -223.5h97v-95z" />
    <glyph glyph-name="uvowelsignbeng" unicode="&#x9c1;" 
d="M-298 -266q-32 0 -67 12t-59 38.5t-24 70.5q0 53 40.5 85t116.5 32q46 0 90 -10v51h112v-51q0 -9 -0.5 -19t-1.5 -21q43 -22 87 -52.5t94 -68.5l-61 -72q-39 34 -74.5 61t-68.5 47q-20 -42 -63 -72.5t-121 -30.5zM-345 -149q0 -22 15 -31t38 -9q38 0 57 21.5t27 48.5
q-38 12 -73 12q-33 0 -48.5 -12t-15.5 -30z" />
    <glyph glyph-name="uuvowelsignbeng" unicode="&#x9c2;" 
d="M-188 -253q-37 0 -70 11.5t-53.5 37.5t-20.5 68q0 50 38.5 78t92.5 30v42h112v-62l-44 -58q-16 2 -36 2q-59 0 -59 -34q0 -18 14.5 -26.5t35.5 -8.5q44 0 79 23t63 57q49 -19 100 -45.5t99 -55.5l-51 -77q-76 52 -130 78q-33 -29 -72.5 -44.5t-97.5 -15.5z" />
    <glyph glyph-name="rvocalicvowelsignbeng" unicode="&#x9c3;" 
d="M-366 -73q58 29 127.5 59t134.5 53l33 -82q-36 -11 -78.5 -26t-78.5 -30q83 -11 151 -38.5t118 -59.5l-49 -74q-77 47 -154.5 70t-162.5 34z" />
    <glyph glyph-name="evowelsignbeng" unicode="&#x9c7;" horiz-adv-x="379" 
d="M389 622v-95h-43q-44 -17 -87 -54t-71.5 -90t-28.5 -120q0 -65 19 -102t48 -52.5t58 -15.5q20 0 37 4t39 16l45 -84q-31 -19 -62.5 -26.5t-64.5 -7.5q-106 0 -169.5 70t-63.5 195q0 86 37 156t99 113q-27 -2 -74 -2h-117v95h399z" />
    <glyph glyph-name="aivowelsignbeng" unicode="&#x9c8;" horiz-adv-x="379" 
d="M283 622q-1 34 -17 49.5t-57 15.5h-12q-72 0 -115 12.5t-69 38.5q-43 40 -43 118q0 14 1 27t4 29l106 -7q-3 -19 -3 -32q0 -22 4.5 -38.5t15.5 -27.5q11 -12 31.5 -18t63.5 -6h10q56 0 89.5 -8.5t56.5 -31.5q18 -18 27.5 -47.5t11.5 -73.5h1v-95h-43q-44 -17 -87 -54
t-71.5 -90t-28.5 -120q0 -65 19 -102t48 -52.5t58 -15.5q20 0 37 4t39 16l45 -84q-31 -19 -62.5 -26.5t-64.5 -7.5q-106 0 -169.5 70t-63.5 195q0 86 37 156t99 113q-27 -2 -74 -2h-117v95h293z" />
    <glyph glyph-name="ovowelsignbeng" unicode="&#x9cb;" horiz-adv-x="980" 
d="M389 622v-95h-43q-44 -17 -87 -54t-71.5 -90t-28.5 -120q0 -65 19 -102t48 -52.5t58 -15.5q20 0 37 4t39 16l45 -84q-31 -19 -62.5 -26.5t-64.5 -7.5q-106 0 -169.5 70t-63.5 195q0 86 37 156t99 113q-27 -2 -74 -2h-117v95h399zM990 622v-95h-100v-527h-111v453
q-12 32 -34.5 53t-58.5 21h-6v95h18q23 0 45.5 -13.5t39.5 -49.5q-1 5 -2.5 23t-1.5 31v75h88l22 -66h101zM523 256q-29 0 -48.5 19t-19.5 49t19.5 50t48.5 20t48.5 -20t19.5 -50t-19.5 -49t-48.5 -19z" />
    <glyph glyph-name="auvowelsignbeng" unicode="&#x9cc;" horiz-adv-x="980" 
d="M389 622v-95h-43q-44 -17 -87 -54t-71.5 -90t-28.5 -120q0 -65 19 -102t48 -52.5t58 -15.5q20 0 37 4t39 16l45 -84q-31 -19 -62.5 -26.5t-64.5 -7.5q-106 0 -169.5 70t-63.5 195q0 86 37 156t99 113q-27 -2 -74 -2h-117v95h399zM890 0h-111v527h-99v95h104
q-2 34 -18 49.5t-55 15.5h-170q-72 0 -115 12.5t-69 38.5q-43 40 -43 118q0 14 1.5 27t3.5 29l106 -7q-3 -19 -3 -32q0 -22 4.5 -38.5t15.5 -27.5q12 -12 32 -18t63 -6h167q57 0 90 -8.5t56 -31.5q18 -18 28 -47.5t11 -73.5h101v-95h-100v-527zM523 256q-29 0 -48.5 19
t-19.5 49t19.5 50t48.5 20t48.5 -20t19.5 -50t-19.5 -49t-48.5 -19z" />
    <glyph glyph-name="viramabeng" unicode="&#x9cd;" 
d="M-148 -14l270 -179l-52 -77l-275 173z" />
    <glyph glyph-name="khandatabeng" unicode="&#x9ce;" horiz-adv-x="558" 
d="M289 629q69 0 113 -20.5t65 -54.5t21 -76q0 -68 -43.5 -106.5t-127.5 -38.5q-36 0 -71.5 8.5t-66.5 21.5l26 89q24 -10 48 -16.5t49 -6.5q40 0 57 13t17 38q0 26 -22 41t-63 15q-69 0 -104 -34.5t-35 -81.5q0 -39 18 -66.5t62 -53.5t121 -58q83 -34 132.5 -66t73 -71.5
t28.5 -94.5l-108 -21q-9 39 -26.5 64t-55.5 48t-106 52q-91 39 -146 78.5t-79 85.5t-24 105q0 58 30 105t85.5 74.5t131.5 27.5z" />
    <glyph glyph-name="aulengthmarkbeng" unicode="&#x9d7;" horiz-adv-x="290" 
d="M200 0h-111v527h-99v95h104q-2 34 -18 49.5t-55 15.5h-170q-72 0 -115 12.5t-69 38.5q-43 40 -43 118q0 14 1.5 27t3.5 29l106 -7q-3 -19 -3 -32q0 -22 4.5 -38.5t15.5 -27.5q12 -12 32 -18t63 -6h167q57 0 90 -8.5t56 -31.5q18 -18 28 -47.5t11 -73.5h101v-95h-100v-527
z" />
    <glyph glyph-name="rrabeng" unicode="&#x9dc;" horiz-adv-x="730" 
d="M740 622v-95h-355v-148q0 -20 6.5 -32t23.5 -12q23 0 50 23.5t58 68.5l95 17q34 -49 51 -98.5t17 -103.5q0 -63 -29.5 -112.5t-87 -78.5t-142.5 -29q-66 0 -125.5 20.5t-111 68.5t-94.5 129t-75 202l106 29q35 -127 77.5 -203.5t95.5 -111.5t119 -35q74 0 115.5 35
t41.5 96q0 21 -3.5 38t-10.5 31q-39 -43 -80 -63t-82 -20q-59 0 -90 34q-17 16 -26.5 44.5t-9.5 80.5v130h-284v95h750zM368 -166q-29 0 -48.5 19t-19.5 49t19.5 50t48.5 20t48.5 -20t19.5 -50t-19.5 -49t-48.5 -19z" />
    <glyph glyph-name="rhabeng" unicode="&#x9dd;" horiz-adv-x="583" 
d="M593 622v-95h-395v-313q0 -38 4 -55t12 -25q15 -17 49 -17q31 0 60 14.5t55 40.5q52 50 52 108q0 23 -13.5 37t-44.5 14q-13 0 -24.5 -1.5t-22.5 -3.5l-15 94q20 4 41.5 7.5t48.5 3.5q70 0 105 -36.5t35 -98.5q0 -57 -25 -107.5t-66 -87.5q-39 -37 -88 -58t-105 -21
q-47 0 -75.5 10t-48.5 29q-20 18 -33 49.5t-13 98.5v318h-96v95h603zM288 -169q-29 0 -48.5 19t-19.5 49t19.5 50t48.5 20t48.5 -20t19.5 -50t-19.5 -49t-48.5 -19z" />
    <glyph glyph-name="yyabeng" unicode="&#x9df;" horiz-adv-x="650" 
d="M660 622v-95h-99v-527h-111q-62 78 -150.5 123.5t-219.5 63.5l-43 105q43 27 93.5 54t100.5 51q-41 25 -89.5 45t-109.5 31l24 54h-66v95h670zM450 527h-276q50 -17 94 -46t74 -58l9 -76q-43 -18 -89.5 -40t-85.5 -45q78 -13 151 -50t125 -92q-2 17 -2 34.5v36.5v336z
M175 -19q-29 0 -48.5 19t-19.5 49t19.5 50t48.5 20t48.5 -20t19.5 -50t-19.5 -49t-48.5 -19z" />
    <glyph glyph-name="rrvocalicbeng" unicode="&#x9e0;" horiz-adv-x="902" 
d="M188 424q-65 0 -103.5 32.5t-38.5 88.5q0 24 6 45.5t15 37.5l102 -25q-5 -10 -8.5 -20.5t-3.5 -21.5q0 -21 12.5 -31t31.5 -10q25 0 53.5 17t57.5 69l83 19q22 -26 48 -65.5t43 -80.5v209h88l24 -66v-325q30 -18 58 -42t51 -51q-2 26 -2 63v421h87l24 -66v-548h-111
q-42 67 -107 118v-192h-112q-28 45 -75 87.5t-109 73.5t-135 44l-46 109q64 36 136 69t146 61q-8 16 -19 32.5t-23 32.5q-37 -41 -78.5 -63t-94.5 -22zM486 373q-61 -19 -117 -43t-114 -56q40 -9 84 -29.5t83.5 -49.5t67.5 -64q-2 17 -3 35.5t-1 43.5v163zM321 -73
q58 29 127.5 59t134.5 53l33 -82q-36 -11 -78.5 -26t-78.5 -30q83 -11 151 -38.5t118 -59.5l-49 -74q-77 47 -154.5 70t-162.5 34z" />
    <glyph glyph-name="zerobeng" unicode="&#x9e6;" horiz-adv-x="610" 
d="M301 85q-68 0 -121.5 24.5t-84.5 76t-31 131.5q0 59 25 112t79 87t141 34q84 0 136.5 -31t76.5 -84t24 -119q0 -62 -26.5 -114.5t-81 -84.5t-137.5 -32zM311 455q-59 0 -95.5 -36.5t-36.5 -106.5q0 -57 27.5 -94.5t92.5 -37.5q62 0 97 38t35 105q0 63 -30.5 97.5
t-89.5 34.5z" />
    <glyph glyph-name="onebeng" unicode="&#x9e7;" horiz-adv-x="610" 
d="M302 0q-95 0 -140 40t-45 96q0 98 123 142l42 -99q-48 -11 -48 -39q0 -18 17 -29.5t51 -11.5q52 0 80 24.5t28 60.5q0 28 -13 50.5t-42 45t-78 53.5q-63 41 -98 70t-48.5 56.5t-13.5 61.5q0 26 13.5 55.5t39.5 54.5l97 -55q-12 -12 -20 -25t-8 -26q0 -16 8 -28.5
t35.5 -33.5t87.5 -59q56 -36 89.5 -68.5t49 -69t15.5 -84.5q0 -57 -28.5 -98t-78.5 -62.5t-115 -21.5z" />
    <glyph glyph-name="twobeng" unicode="&#x9e8;" horiz-adv-x="610" 
d="M120 534q0 24 11 48t32 49l92 -43q-17 -22 -17 -39q0 -11 6 -19.5t27 -15.5t67 -16q98 -19 137 -60.5t39 -103.5q0 -66 -40.5 -108t-113.5 -58q54 -21 101 -49t101 -69l-62 -77q-70 56 -136 92.5t-140 60.5t-167 42l18 92q34 -10 72 -15.5t86 -5.5q93 0 130 23.5t37 62.5
q0 35 -24.5 52t-87.5 30q-68 13 -104 32t-50 42.5t-14 52.5z" />
    <glyph glyph-name="threebeng" unicode="&#x9e9;" horiz-adv-x="610" 
d="M570 294q0 -76 -20.5 -135t-67 -92.5t-124.5 -33.5q-56 0 -104.5 18.5t-90 66.5t-75 135t-58.5 225l106 26q28 -142 58.5 -223t68.5 -114.5t88 -33.5q61 0 84.5 45.5t23.5 116.5q0 51 -13 95.5t-35 72t-50 27.5q-19 0 -30.5 -11.5t-11.5 -31.5q0 -27 15 -55l-107 -29
q-11 26 -16.5 51.5t-5.5 52.5q0 44 22 70t54 37t63 11q77 0 127 -40t74.5 -106.5t24.5 -144.5z" />
    <glyph glyph-name="fourbeng" unicode="&#x9ea;" horiz-adv-x="610" 
d="M305 0q-120 0 -184 47t-64 125q0 49 30 86.5t96 66.5q-60 31 -87.5 63t-27.5 81q0 41 27 76t78.5 56t125.5 21q91 0 144 -21.5t76 -55t23 -69.5q0 -56 -33 -89t-83 -56q60 -26 93.5 -62t33.5 -96q0 -87 -63.5 -130t-184.5 -43zM306 374q30 7 57.5 19.5t45.5 29.5t18 39
q0 28 -31 46.5t-95 18.5q-47 0 -82.5 -16.5t-35.5 -48.5q0 -31 29 -51.5t94 -36.5zM305 95q72 0 103 23t31 63q0 27 -19.5 47t-50.5 33t-64 20q-66 -17 -99.5 -41.5t-33.5 -61.5q0 -34 32.5 -58.5t100.5 -24.5z" />
    <glyph glyph-name="fivebeng" unicode="&#x9eb;" horiz-adv-x="610" 
d="M324 0q-81 0 -144 29t-99 84t-36 135t45 146.5t128 124t197 110.5l52 -71q-16 -20 -16 -46q0 -25 21 -40t53 -15h8.5t8.5 1l44 -72q-60 -34 -94.5 -59.5t-49 -48.5t-14.5 -49q0 -25 19 -44.5t64 -19.5q7 0 16.5 0.5t16.5 1.5l41 -105q-53 -29 -119 -45.5t-142 -16.5z
M331 95q29 0 49 2.5t40 7.5q-53 16 -77.5 48.5t-24.5 75.5q0 46 24.5 84.5t78.5 81.5q-31 15 -46 39t-15 46v1v7q-92 -52 -146 -113t-54 -136q0 -53 24.5 -84.5t64 -45.5t82.5 -14z" />
    <glyph glyph-name="sixbeng" unicode="&#x9ec;" horiz-adv-x="610" 
d="M362 33q-59 0 -109 18t-92.5 62t-77.5 122t-63 198l105 30q25 -120 56.5 -192.5t73.5 -105t96 -32.5q58 0 89.5 36t31.5 109q0 18 -3 36q-50 -63 -116 -63q-51 0 -82 25q-15 13 -27 38t-12 79v39q0 35 -11.5 48.5t-52.5 14.5l13 104q49 -1 81 -10t50 -28q27 -30 27 -97
v-68q0 -23 5.5 -36.5t23.5 -13.5q12 0 23.5 5.5t23.5 23t25 55.5l83 20q26 -38 41 -88t15 -97q0 -65 -22 -118t-69.5 -83.5t-125.5 -30.5z" />
    <glyph glyph-name="sevenbeng" unicode="&#x9ed;" horiz-adv-x="610" 
d="M549 104l-12 -104q-63 2 -98.5 15t-50 43t-14.5 83v109q-26 -7 -52 -10.5t-53 -3.5q-106 0 -156.5 44.5t-50.5 123.5q0 62 34.5 111.5t90.5 78t121 28.5q40 0 72.5 -9.5t56.5 -29.5q23 -19 35.5 -47t12.5 -87v-282q0 -35 11.5 -48t52.5 -15zM276 333q55 0 98 18v76
q0 35 -3.5 53t-14.5 29q-16 18 -53 18q-31 0 -60 -16.5t-47.5 -44.5t-18.5 -61q0 -42 27 -57t72 -15z" />
    <glyph glyph-name="eightbeng" unicode="&#x9ee;" horiz-adv-x="610" 
d="M254 0q-40 0 -68.5 9.5t-47.5 26.5q-22 20 -34.5 50t-12.5 87v282q0 36 -11.5 49t-51.5 14l12 105q94 -3 129 -34q17 -16 25 -39t8 -69v-108q25 8 47 11t37 3q32 0 59 -6q22 -5 37.5 -7t31.5 -2q30 0 52 10t41 45l97 -48q-22 -56 -58.5 -76.5t-76.5 -23.5q11 -29 11 -62
q0 -67 -30.5 -116t-82 -75t-113.5 -26zM260 95q35 0 58.5 17.5t35.5 44.5t12 57q0 32 -13 48.5t-33 23t-40 6.5q-23 0 -42 -4t-36 -11v-98q0 -30 4 -45t12 -23q6 -7 16 -11.5t26 -4.5z" />
    <glyph glyph-name="ninebeng" unicode="&#x9ef;" horiz-adv-x="610" 
d="M190 324q76 0 124 -39t48 -97q0 -49 -23 -87q60 12 93 42.5t33 79.5q0 32 -15 57t-56.5 47t-121.5 44q-88 23 -139.5 44.5t-74 49t-22.5 68.5q0 49 45 98l96 -41q-21 -21 -21 -42q0 -16 11 -26.5t47 -23t111 -32.5q83 -23 133.5 -50t77.5 -57t36.5 -63.5t9.5 -70.5
q0 -65 -31 -108t-85 -69t-123.5 -37t-146.5 -11h-15l-22 92q96 22 96 79q0 27 -16.5 43.5t-47.5 16.5q-29 0 -41.5 -12t-12.5 -29q0 -18 8 -34l-103 -23q-8 19 -12.5 36.5t-4.5 36.5q0 56 42.5 87t122.5 31z" />
    <glyph glyph-name="ra1beng" unicode="&#x9f0;" horiz-adv-x="621" 
d="M631 622v-95h-99v-527h-112q-52 84 -144.5 141.5t-205.5 76.5l-46 110q90 51 192.5 97t205.5 76v26h-432v95h641zM307 358q30 -12 58.5 -27.5t54.5 -35.5v105q-28 -9 -56.5 -19.5t-56.5 -22.5zM159 287q42 -9 90.5 -29.5t93.5 -51.5t79 -72q-1 17 -1.5 33.5t-0.5 33.5v14
q-78 73 -188 109q-18 -9 -36.5 -18.5t-36.5 -18.5z" />
    <glyph glyph-name="wabeng" unicode="&#x9f1;" horiz-adv-x="617" 
d="M627 622v-95h-100v-527h-108q-51 84 -143 143t-207 78l-45 107q89 51 190.5 96.5t203.5 75.5v27h-428v95h637zM164 288q42 -9 88 -29t89.5 -51t76.5 -72q-1 16 -1.5 32t-0.5 33v195q-64 -21 -127 -48t-125 -60zM75 172q96 -19 156 -55t105 -85l-56 -51q-52 44 -104.5 68
t-118.5 38z" />
    <glyph glyph-name="rupeemarkbeng" unicode="&#x9f2;" horiz-adv-x="601" 
d="M431 91q-41 84 -88.5 147.5t-113 108.5t-159.5 73l41 107q107 -32 186.5 -84t138.5 -129t105 -183z" />
    <glyph glyph-name="rupeesignbeng" unicode="&#x9f3;" horiz-adv-x="648" 
d="M139 749q62 0 95 -33q20 -19 30 -52t10 -94v-70h335v-95h-335v-246q0 -35 10 -50t41 -15q34 0 66.5 16.5t54 43t21.5 56.5q0 15 -10.5 25t-35.5 10q-11 0 -21 -1.5t-18 -2.5l-14 89q36 9 83 9q57 0 92 -26.5t35 -84.5q0 -51 -24 -93t-63 -72.5t-86 -46.5t-93 -16
q-40 0 -67 9t-44 25q-16 16 -27 41t-11 84v246h-89v95h89v65q0 43 -11 65.5t-50 22.5q-16 0 -32 -4t-30 -10l-34 83q36 14 66 20.5t67 6.5z" />
    <glyph glyph-name="uni09F4" unicode="&#x9f4;" horiz-adv-x="601" 
d="M60 197q94 28 160 73t114 108.5t88 147.5l110 -40q-47 -108 -106.5 -184.5t-138.5 -128t-186 -82.5z" />
    <glyph glyph-name="uni09F5" unicode="&#x9f5;" horiz-adv-x="716" 
d="M212 430q77 0 123 -38.5t46 -97.5q0 -6 -1 -12q56 43 97 102t82 142l110 -40q-47 -108 -106.5 -184.5t-139 -127t-186.5 -82.5l-39 100q34 10 57 32t23 55q0 25 -16 41.5t-48 16.5q-29 0 -41.5 -11.5t-12.5 -28.5q0 -11 2 -19t6 -16l-104 -22q-8 17 -12 35t-4 37
q0 54 41.5 86t122.5 32z" />
    <glyph glyph-name="uni09F6" unicode="&#x9f6;" horiz-adv-x="753" 
d="M228 0q-88 0 -136.5 38t-48.5 97q0 55 39 83t117 41q55 8 76.5 19t21.5 39q0 19 -14.5 37t-49.5 18q-28 0 -40.5 -12t-12.5 -30q0 -16 8 -34l-104 -22q-17 36 -17 72q0 49 39 84t126 35q76 0 124.5 -38.5t48.5 -100.5q0 -57 -27 -90q-21 -26 -60 -40t-97 -24
q-41 -7 -55.5 -15t-14.5 -25q0 -15 16.5 -25.5t59.5 -10.5q89 0 151.5 41t104 113.5t67.5 169t41 207.5l111 -13q-16 -124 -48 -235t-86 -196.5t-137.5 -134t-202.5 -48.5z" />
    <glyph glyph-name="uni09F7" unicode="&#x9f7;" horiz-adv-x="315" 
d="M102 0v622h111v-622h-111z" />
    <glyph glyph-name="uni09F8" unicode="&#x9f8;" horiz-adv-x="700" 
d="M56 625q94 -3 128 -34q17 -16 25.5 -39.5t8.5 -68.5v-181q56 54 131.5 100.5t166.5 81.5l78 -59v-260q0 -36 11 -49t52 -14l-12 -105q-97 3 -133 37q-15 16 -22 39t-7 66v222q-78 -38 -149 -91t-137 -116l-90 59v244q0 35 -11.5 48.5t-52.5 14.5z" />
    <glyph glyph-name="uni09F9" unicode="&#x9f9;" horiz-adv-x="492" 
d="M54 330q0 54 24.5 94t68 62.5t99.5 22.5t99.5 -22.5t68.5 -62.5t25 -94t-24.5 -94.5t-68.5 -63t-100 -22.5t-99.5 22.5t-68 63t-24.5 94.5zM155 330q0 -39 25.5 -62t65.5 -23t65.5 23.5t25.5 61.5q0 39 -25.5 62t-65.5 23t-65.5 -23t-25.5 -62z" />
    <glyph glyph-name="issharbeng" unicode="&#x9fa;" horiz-adv-x="692" 
d="M311 357q-63 0 -115 27t-85 84t-39 147l113 8q5 -77 35.5 -120t92.5 -43q52 0 89.5 25.5t68.5 88t61 174.5l112 -29q-32 -118 -73.5 -198.5t-103 -122t-156.5 -41.5zM325 512q-29 0 -48.5 20t-19.5 49t19.5 49t48.5 20t48.5 -20t19.5 -49q0 -30 -19.5 -49.5t-48.5 -19.5z
" />
    <glyph glyph-name="uni09FB" unicode="&#x9fb;" horiz-adv-x="303" 
d="M50 252q0 56 30 94t103 74l62 -101q-43 -17 -59.5 -37t-16.5 -42q0 -18 9.5 -42t33 -59.5t66 -87t109.5 -123.5l-90 -72q-73 83 -121 144t-75.5 106.5t-39 80t-11.5 65.5z" />
    <glyph glyph-name="uni200B" unicode="&#x200b;" 
 />
    <glyph glyph-name="uni200C" unicode="&#x200c;" 
d="M-26 -166v954h52v-954h-52z" />
    <glyph glyph-name="uni200D" unicode="&#x200d;" 
d="M36 646l110 -107l-37 -36l-83 82v-750h-52v750l-83 -82l-37 36l110 107l-110 106l37 36l109 -108l109 108l37 -37z" />
    <glyph glyph-name="uni2010" unicode="&#x2010;" horiz-adv-x="356" 
d="M51 350h254v-106h-254v106z" />
    <glyph glyph-name="endash.beng" unicode="&#x2013;" horiz-adv-x="500" 
d="M40 350h420v-101h-420v101z" />
    <glyph glyph-name="emdash.beng" unicode="&#x2014;" horiz-adv-x="1000" 
d="M40 350h920v-101h-920v101z" />
    <glyph glyph-name="quoteleft.beng" unicode="&#x2018;" horiz-adv-x="326" 
d="M87 484l-7 11q14 53 37.5 116t48.5 118h91q-14 -59 -27.5 -126t-21.5 -119h-121z" />
    <glyph glyph-name="quoteright.beng" unicode="&#x2019;" horiz-adv-x="326" 
d="M256 729l7 -11q-13 -53 -37 -116t-49 -118h-92q13 59 27 126.5t22 118.5h122z" />
    <glyph glyph-name="quotedblleft.beng" unicode="&#x201c;" horiz-adv-x="539" 
d="M87 484l-7 11q14 53 37.5 116t48.5 118h92q-15 -59 -28.5 -126t-20.5 -119h-122zM300 484l-7 11q13 53 37 116t49 118h92q-14 -59 -27.5 -126t-21.5 -119h-122z" />
    <glyph glyph-name="quotedblright.beng" unicode="&#x201d;" horiz-adv-x="539" 
d="M469 729l7 -11q-14 -53 -37.5 -116t-48.5 -118h-92q15 59 28.5 126.5t20.5 118.5h122zM256 729l7 -11q-13 -53 -37 -116t-49 -118h-92q13 59 27 126.5t22 118.5h122z" />
    <glyph glyph-name="ellipsis.beng" unicode="&#x2026;" horiz-adv-x="836" 
d="M418 -13q-32 0 -54.5 18t-22.5 59q0 43 22.5 60t54.5 17t54.5 -17t22.5 -60q0 -41 -22.5 -59t-54.5 -18zM140 -13q-32 0 -54.5 18t-22.5 59q0 43 22.5 60t54.5 17q30 0 53 -17t23 -60q0 -41 -23 -59t-53 -18zM697 -13q-32 0 -54.5 18t-22.5 59q0 43 22.5 60t54.5 17
q31 0 53.5 -17t22.5 -60q0 -41 -22.5 -59t-53.5 -18z" />
    <glyph glyph-name="uni20B9.beng" unicode="&#x20b9;" horiz-adv-x="610" 
d="M88 471h183q-9 26 -28 41q-14 12 -35 16t-59 4h-61v90h443v-90h-189q27 -20 40 -61h149v-90h-145q-10 -59 -51.5 -97.5t-114.5 -52.5l201 -231h-141l-192 225l15 87h33q50 0 74 7t39 21q16 16 23 41h-184v90z" />
    <glyph glyph-name="minus.beng" unicode="&#x2212;" horiz-adv-x="610" 
d="M70 370h470v-94h-470v94z" />
    <glyph glyph-name="uni25CC" unicode="&#x25cc;" horiz-adv-x="510" 
d="M254 514q30 0 30 -28q0 -29 -30 -29q-28 0 -28 29q0 28 28 28zM125 465q29 0 29 -29t-29 -29q-28 0 -28 29t28 29zM384 465q29 0 29 -29t-29 -29t-29 29t29 29zM429 340q29 0 29 -28q0 -29 -29 -29t-29 29q0 28 29 28zM81 340q28 0 28 -28q0 -29 -28 -29q-29 0 -29 29
q0 28 29 28zM125 216q29 0 29 -29t-29 -29q-28 0 -28 29t28 29zM384 216q29 0 29 -29t-29 -29t-29 29t29 29zM254 166q30 0 30 -29t-30 -29q-28 0 -28 29t28 29z" />
    <glyph glyph-name="kanuktabeng" horiz-adv-x="838" 
d="M801 269q0 -33 -13.5 -63t-45.5 -48.5t-87 -18.5q-19 0 -35.5 1t-31.5 4l5 96q6 -1 13.5 -1.5t19.5 -0.5q40 0 52.5 14.5t12.5 36.5q0 39 -42.5 68t-124.5 44v-401h-111q-52 84 -142 142.5t-201 75.5l-46 110q89 50 188 94.5t202 74.5v30h-424v95h858v-95h-325v-28
q77 -12 140 -42.5t100.5 -78t37.5 -109.5zM164 288q43 -8 89 -29t88 -52.5t74 -70.5q-1 14 -1.5 29.5t-0.5 32.5v196q-65 -21 -127 -48.5t-122 -57.5zM174 -9q-29 0 -48.5 19t-19.5 49t19.5 50t48.5 20t48.5 -20t19.5 -50t-19.5 -49t-48.5 -19z" />
    <glyph glyph-name="khanuktabeng" horiz-adv-x="729" 
d="M188 424q-65 0 -103.5 32.5t-38.5 88.5q0 24 6 45.5t15 37.5l102 -25q-5 -10 -8.5 -20.5t-3.5 -21.5q0 -21 12.5 -31t31.5 -10q29 0 56 17t58 70l78 18q31 -31 52 -72t21 -88q0 -70 -44 -120t-127 -73q90 -25 143 -64.5t92 -79.5q-2 22 -2 45.5v50.5v464h88l23 -66h100
v-95h-99v-527h-112q-65 84 -150.5 138.5t-211.5 75.5l-30 107q113 16 167 48.5t54 85.5q0 23 -11 43q-30 -35 -68.5 -54.5t-89.5 -19.5zM263 -9q-29 0 -48.5 19t-19.5 49t19.5 50t48.5 20t48.5 -20t19.5 -50t-19.5 -49t-48.5 -19z" />
    <glyph glyph-name="ganuktabeng" horiz-adv-x="683" 
d="M483 0v391q-48 62 -99 102t-114 40q-45 0 -73 -19.5t-52 -46.5q17 8 38.5 12.5t48.5 4.5q68 0 101.5 -37.5t33.5 -85.5q0 -60 -42.5 -108.5t-129.5 -96.5l-66 94q56 25 93 51t37 59q0 19 -13 30.5t-41 11.5q-42 0 -91 -26l-96 78q50 76 109.5 125.5t136.5 49.5
q63 0 114.5 -28.5t106.5 -83.5q-1 13 -1.5 30.5t-0.5 37.5v103h88l22 -66h100v-95h-99v-527h-111zM245 -39q-29 0 -48.5 19t-19.5 49t19.5 50t48.5 20t48.5 -20t19.5 -50t-19.5 -49t-48.5 -19z" />
    <glyph glyph-name="ghanuktabeng" horiz-adv-x="650" 
d="M660 622v-95h-99v-527h-111q-49 63 -137 110.5t-205 61.5l-39 90q24 17 48 33t49 31q-62 10 -91.5 42t-29.5 76q0 47 32 83h-87v95h670zM381 350q-44 -24 -89 -50.5t-83 -52.5q76 -18 135 -49.5t108 -78.5q-1 16 -1.5 33.5t-0.5 35.5v339h-242q-25 -17 -36 -36t-11 -40
q0 -32 21 -44.5t47 -12.5q23 0 46.5 7t53.5 26zM176 -19q-29 0 -48.5 19t-19.5 49t19.5 50t48.5 20t48.5 -20t19.5 -50t-19.5 -49t-48.5 -19z" />
    <glyph glyph-name="nganuktabeng" horiz-adv-x="740" 
d="M431 6q-67 0 -127 20t-112.5 67t-95 128t-75.5 203l106 30q34 -127 76.5 -203.5t97 -110.5t123.5 -34q74 0 118 32t44 90q0 15 -2.5 30t-9.5 31q-41 -38 -83 -55.5t-85 -17.5q-54 0 -84 24q-21 17 -32.5 46.5t-11.5 79.5v60q-52 25 -91 62.5t-69 77.5l80 57
q22 -29 46 -55t50 -47q22 53 67 80t104 27q65 0 101.5 -30t36.5 -85q0 -41 -23.5 -67.5t-62 -40t-83.5 -13.5q-25 0 -48 3v-38q0 -20 6 -32t26 -12q31 0 57.5 16.5t67.5 56.5l100 8q25 -36 39.5 -81.5t14.5 -91.5q0 -63 -30 -111.5t-89 -76t-147 -27.5zM461 550
q-31 0 -49.5 -21.5t-23.5 -53.5q22 -5 46 -5q36 0 52.5 13.5t16.5 32.5q0 34 -42 34zM370 -197q-29 0 -48.5 19t-19.5 49t19.5 50t48.5 20t48.5 -20t19.5 -50t-19.5 -49t-48.5 -19z" />
    <glyph glyph-name="canuktabeng" horiz-adv-x="583" 
d="M593 622v-95h-395v-14q28 -45 69.5 -68t102.5 -23h19q47 0 73 -8t44 -25q16 -15 25 -38.5t9 -50.5q0 -61 -25 -111.5t-66 -87.5q-39 -37 -88 -58t-105 -21q-47 0 -75.5 10t-47.5 28q-20 19 -33.5 50.5t-13.5 98.5v318h-96v95h603zM214 134q15 -17 49 -17q32 0 60.5 14.5
t54.5 40.5q24 24 37.5 51t13.5 56q0 26 -15.5 35.5t-41.5 9.5h-8q-36 0 -61 6.5t-54 22.5q-30 17 -53 42q1 -9 1.5 -19.5t0.5 -19.5v-142q0 -38 4 -55t12 -25zM288 -197q-29 0 -48.5 19t-19.5 49t19.5 50t48.5 20t48.5 -20t19.5 -50t-19.5 -49t-48.5 -19z" />
    <glyph glyph-name="chanuktabeng" horiz-adv-x="716" 
d="M236 201q-91 0 -126 44q-14 17 -22.5 42t-8.5 74v166h-89v95h736v-95h-539v-6q23 -22 52 -34t77 -12h62q11 1 27 1.5t32 0.5q66 0 108.5 -18t66.5 -46t33.5 -58.5t9.5 -55.5q0 -80 -44 -128.5t-106 -71.5q50 -11 102 -26.5t108 -38.5l-35 -87q-135 55 -265.5 81.5
t-265.5 35.5l11 96q26 -4 61 -8t78 -4q88 0 142 19.5t79 53t25 73.5q0 75 -73 94q1 -5 1 -11q0 -50 -31 -90t-84.5 -63t-121.5 -23zM199 305q12 -15 45 -15q35 0 62.5 12t43 30t15.5 35q0 24 -41 24h-19q-34 0 -64.5 10.5t-54.5 29.5q0 -9 0.5 -18.5t0.5 -17.5v-42
q0 -22 3.5 -32t8.5 -16zM353 -166q-29 0 -48.5 19t-19.5 49t19.5 50t48.5 20t48.5 -20t19.5 -50t-19.5 -49t-48.5 -19z" />
    <glyph glyph-name="januktabeng" horiz-adv-x="967" 
d="M425 42q-89 0 -165 36.5t-136.5 124t-102.5 239.5l106 29q35 -122 77 -194t95.5 -103t122.5 -31q72 0 105.5 27.5t33.5 77.5q0 20 -4 38q-31 -21 -67 -34t-82 -13q-63 0 -103.5 32.5t-40.5 98.5q0 41 25.5 82t90.5 76q-19 -1 -38.5 -1h-41.5h-310v95h987v-95h-303
q-14 0 -29 0.5t-30 0.5q21 -31 64 -53t121 -22q12 0 23.5 0.5t27.5 2.5l53 -88q-21 -38 -31.5 -78t-10.5 -90q0 -84 34 -186l-109 -23q-18 55 -27.5 107t-9.5 113q0 43 7 80.5t19 68.5q-105 10 -169 47.5t-100 96.5q-70 -34 -101 -65.5t-31 -60.5q0 -23 13.5 -33.5
t29.5 -10.5q32 0 56 13.5t55 38.5l124 -38q7 -20 12 -47.5t5 -57.5q0 -50 -24 -96t-78 -75.5t-143 -29.5zM477 -159q-29 0 -48.5 19t-19.5 49t19.5 50t48.5 20t48.5 -20t19.5 -50t-19.5 -49t-48.5 -19z" />
    <glyph glyph-name="jhanuktabeng" horiz-adv-x="831" 
d="M524 622v-325q30 -18 58 -42t50 -51q-1 26 -1 63v421h88l22 -66h100v-95h-99v-453h-111q-42 67 -107 118v-192h-111q-52 84 -142 142.5t-201 75.5l-46 110q89 51 189.5 97t201.5 76v26h-425v95h534zM164 288q43 -8 89 -29t88 -52.5t74 -70.5q-1 14 -1.5 29.5t-0.5 32.5
v199q-64 -21 -125.5 -48.5t-123.5 -60.5zM176 -9q-29 0 -48.5 19t-19.5 49t19.5 50t48.5 20t48.5 -20t19.5 -50t-19.5 -49t-48.5 -19z" />
    <glyph glyph-name="nyanuktabeng" horiz-adv-x="1051" 
d="M525 628q45 0 74 -9.5t51 -26.5q11 -9 20 -22.5t15 -33.5q36 38 76.5 56.5t91.5 18.5q68 0 106.5 -33.5t38.5 -85.5q0 -23 -9 -50t-37 -52q21 -16 36 -40.5t15 -59.5q0 -50 -37.5 -88.5t-115.5 -38.5q-55 0 -93 20.5t-64 53.5q1 -15 1.5 -30.5t0.5 -31.5v-175h-109
q-15 40 -39.5 57.5t-71.5 17.5q-37 0 -68.5 -4t-64 -8t-70.5 -4q-39 0 -80.5 7.5t-76.5 29.5t-56.5 65t-21.5 113q0 25 3.5 52.5t8.5 50.5l109 -15q-4 -14 -7 -34.5t-3 -49.5q0 -53 20 -78.5t51.5 -33.5t65.5 -8q48 0 88 7.5t84 7.5q41 0 70.5 -11t56.5 -41v325
q0 33 -4.5 48.5t-14.5 23.5q-15 15 -47 15q-30 0 -57.5 -14t-48 -35.5t-32.5 -44t-12 -39.5q0 -14 9 -26t44 -12q11 0 20 1t19 2l7 -93q-24 -9 -74 -9q-57 0 -96.5 30.5t-39.5 94.5q0 41 21 83t58 77.5t85.5 57.5t103.5 22zM840 522q-42 0 -79 -29.5t-66 -78.5v-26
q21 -68 59 -102t83 -34q25 0 42.5 11t17.5 37q0 28 -24 48q-23 -8 -50 -13l-21 86q89 13 89 61q0 22 -15 31t-36 9zM406 -158q-29 0 -48.5 19t-19.5 49t19.5 50t48.5 20t48.5 -20t19.5 -50t-19.5 -49t-48.5 -19z" />
    <glyph glyph-name="ttanuktabeng" horiz-adv-x="583" 
d="M386 622q-2 34 -18 49.5t-55 15.5h-83q-71 0 -114.5 12.5t-69.5 38.5q-22 20 -32 50t-10 68q0 14 1 27t4 29l105 -7q-1 -10 -1.5 -17.5t-0.5 -14.5q0 -22 4 -38.5t15 -27.5q12 -12 32.5 -18t63.5 -6h78q57 0 90.5 -8.5t56.5 -31.5q18 -18 28 -47.5t11 -73.5h102v-95h-395
v-313q0 -38 4 -55t12 -25q15 -17 49 -17q31 0 60 14.5t55 40.5q52 50 52 108q0 23 -13.5 37t-44.5 14q-13 0 -24.5 -1.5t-22.5 -3.5l-15 94q20 4 41.5 7.5t48.5 3.5q70 0 105 -36.5t35 -98.5q0 -57 -25 -107.5t-66 -87.5q-39 -37 -88 -58t-105 -21q-47 0 -75.5 10t-48.5 29
q-20 18 -33 49.5t-13 98.5v318h-96v95h396zM288 -197q-29 0 -48.5 19t-19.5 49t19.5 50t48.5 20t48.5 -20t19.5 -50t-19.5 -49t-48.5 -19z" />
    <glyph glyph-name="tthanuktabeng" horiz-adv-x="618" 
d="M298 0q-94 0 -165 45t-106 112l30 102q81 9 126 35t63 64t18 84q0 18 -3 40t-12 45h-259v95h209q-35 44 -53 80t-18 74q0 42 23 76t66 65l79 -78q-31 -24 -43.5 -44t-12.5 -45q0 -28 21 -58t59 -70h308v-95h-141q-19 0 -32.5 0.5t-28.5 1.5q68 -68 104 -138.5t36 -149.5
q0 -110 -68.5 -175.5t-199.5 -65.5zM296 99q74 0 114.5 40t40.5 107q0 58 -23.5 114t-80.5 124q6 -19 9.5 -39.5t3.5 -42.5q0 -49 -18 -93t-64 -79.5t-130 -58.5q25 -37 65 -54.5t83 -17.5zM307 -197q-29 0 -48.5 19t-19.5 49t19.5 50t48.5 20t48.5 -20t19.5 -50t-19.5 -49
t-48.5 -19z" />
    <glyph glyph-name="nnanuktabeng" horiz-adv-x="634" 
d="M644 622v-95h-99v-527h-111v393q-51 63 -101.5 100.5t-103.5 37.5q-36 0 -57.5 -20.5t-21.5 -54.5q0 -39 28.5 -62.5t107.5 -27.5l-11 -113q-119 13 -180 65.5t-61 138.5q0 53 24 92t64.5 59.5t89.5 20.5q71 0 123.5 -32t100.5 -82q-1 18 -1.5 38t-0.5 38v97h87l23 -66
h100zM235 -9q-29 0 -48.5 19t-19.5 49t19.5 50t48.5 20t48.5 -20t19.5 -50t-19.5 -49t-48.5 -19z" />
    <glyph glyph-name="tanuktabeng" horiz-adv-x="723" 
d="M733 622v-95h-743v95h743zM421 39q-89 0 -164.5 38t-135 126.5t-100.5 238.5l106 30q49 -172 114.5 -252t169.5 -80q83 0 120 35.5t37 95.5q0 55 -30 88t-73 33q-62 0 -62 -54q0 -10 1.5 -21.5t6.5 -22.5l-107 -17q-16 41 -16 76q0 46 23 75t61 43t84 14q70 0 120 -28.5
t77 -79t27 -115.5q0 -60 -27 -111t-84.5 -81.5t-147.5 -30.5zM363 -173q-29 0 -48.5 19t-19.5 49t19.5 50t48.5 20t48.5 -20t19.5 -50t-19.5 -49t-48.5 -19z" />
    <glyph glyph-name="thanuktabeng" horiz-adv-x="690" 
d="M221 625q71 0 116.5 -23.5t67.5 -62t22 -83.5q0 -67 -44.5 -114.5t-124.5 -69.5q87 -25 140.5 -64t93.5 -80q-2 22 -2 45.5v50.5v464h87l23 -66h100v-95h-99v-527h-111q-66 84 -151.5 138t-211.5 76l-28 107q118 17 167 50t49 83q0 34 -23.5 56t-70.5 22q-39 0 -56 -15
t-17 -31q0 -26 31 -45l-67 -74q-28 17 -51.5 46t-23.5 75q0 56 46.5 96.5t137.5 40.5zM224 -9q-29 0 -48.5 19t-19.5 49t19.5 50t48.5 20t48.5 -20t19.5 -50t-19.5 -49t-48.5 -19z" />
    <glyph glyph-name="danuktabeng" horiz-adv-x="625" 
d="M635 622v-95h-446v-242q55 54 131 101t167 83l81 -71q-46 -83 -46 -194q0 -43 8 -90.5t26 -99.5l-109 -23q-18 55 -27.5 107t-9.5 111q0 35 5.5 67.5t14.5 60.5q-71 -38 -137 -89t-125 -109l-90 59v329h-88v95h645zM279 -130q-29 0 -48.5 19t-19.5 49t19.5 50t48.5 20
t48.5 -20t19.5 -50t-19.5 -49t-48.5 -19z" />
    <glyph glyph-name="dhanuktabeng" horiz-adv-x="617" 
d="M238 629q14 0 29 -1.5t30 -3.5l-8 -90q-5 1 -12 1.5t-18 0.5q-28 0 -41 -11t-13 -28q0 -35 47 -56q41 17 82 31.5t82 27.5v122h211v-95h-100v-527h-111q-52 84 -142.5 141.5t-203.5 76.5l-46 110q33 19 67.5 37t69.5 35q-30 23 -47 50.5t-17 63.5q0 28 13.5 54t44.5 43.5
t83 17.5zM164 288q42 -9 88 -29t89.5 -51t76.5 -72q-1 16 -1.5 33.5t-0.5 38.5v188q-64 -21 -127 -48t-125 -60zM176 -9q-29 0 -48.5 19t-19.5 49t19.5 50t48.5 20t48.5 -20t19.5 -50t-19.5 -49t-48.5 -19z" />
    <glyph glyph-name="nanuktabeng" horiz-adv-x="623" 
d="M633 622v-95h-100v-527h-111v193q-46 54 -98 91.5t-102 37.5q-30 0 -50.5 -14.5t-20.5 -44.5q0 -46 74 -75l-51 -96q-65 26 -102 72.5t-37 102.5q0 52 24.5 85.5t63 50t79.5 16.5q65 0 119 -27.5t102 -75.5q-1 17 -1 33.5v32.5v145h-432v95h643zM230 -110q-29 0 -48.5 19
t-19.5 49t19.5 50t48.5 20t48.5 -20t19.5 -50t-19.5 -49t-48.5 -19z" />
    <glyph glyph-name="panuktabeng" horiz-adv-x="747" 
d="M757 622v-95h-100v-527h-111v354q-25 33 -46 59l-257 -237l-78 74l28 26q10 13 16 28t6 31q0 24 -14 36.5t-37 12.5q-27 0 -57 -18l-91 84q65 82 130 130.5t149 48.5q75 0 132.5 -38t121.5 -108q-1 17 -2 37t-1 40v128h87l23 -66h101zM297 365v-6q12 12 24.5 23.5
t24.5 23.5l85 76q-64 51 -131 51q-51 0 -89 -23.5t-71 -60.5q12 6 26 9t30 3q52 0 76.5 -29t24.5 -67zM255 -22q-29 0 -48.5 19t-19.5 49t19.5 50t48.5 20t48.5 -20t19.5 -50t-19.5 -49t-48.5 -19z" />
    <glyph glyph-name="phanuktabeng" horiz-adv-x="867" 
d="M877 622v-95h-703q50 -17 94 -46t74 -58l9 -76q-43 -18 -89.5 -40t-85.5 -44q74 -16 144.5 -51.5t122.5 -90.5q-1 17 -1.5 34t-0.5 35v304h34q95 0 168 -19.5t128 -72.5q59 -54 59 -133q0 -33 -13.5 -63t-45.5 -48.5t-87 -18.5q-19 0 -35.5 1t-31.5 4l5 96q5 -1 13 -1.5
t20 -0.5q41 0 53 14.5t12 36.5q0 37 -41.5 68t-125.5 38v-395h-112q-60 77 -147 122.5t-214 64.5l-43 105q43 27 93.5 54t100.5 51q-41 25 -89.5 45t-109.5 31l24 54h-66v95h887zM175 -19q-29 0 -48.5 19t-19.5 49t19.5 50t48.5 20t48.5 -20t19.5 -50t-19.5 -49t-48.5 -19z
" />
    <glyph glyph-name="bhanuktabeng" horiz-adv-x="739" 
d="M749 622v-95h-759v95h759zM434 34q-91 0 -168.5 36.5t-139.5 125.5t-105 246l106 29q35 -125 78.5 -198.5t98 -105.5t123.5 -32q75 0 116.5 34.5t41.5 95.5q0 22 -4.5 41t-11.5 35q-36 -36 -77.5 -55t-93.5 -19q-66 0 -104 31.5t-38 87.5q0 24 6.5 46.5t14.5 39.5
l104 -27q-13 -21 -13 -42q0 -22 12.5 -31.5t32.5 -9.5q29 0 55 16.5t61 70.5l93 15q73 -102 73 -210q0 -62 -29.5 -112t-87.5 -79t-144 -29zM373 -173q-29 0 -48.5 19t-19.5 49t19.5 50t48.5 20t48.5 -20t19.5 -50t-19.5 -49t-48.5 -19z" />
    <glyph glyph-name="manuktabeng" horiz-adv-x="636" 
d="M646 622v-95h-99v-527h-111v155q-48 58 -100 94.5t-101 36.5q-29 0 -49.5 -14.5t-20.5 -44.5q0 -25 17.5 -42.5t56.5 -32.5l-51 -96q-64 26 -101.5 73t-37.5 102q0 50 23 82.5t59 49t75 18.5q-10 28 -30.5 44.5t-57.5 26.5t-97 18l13 57h-44v95h656zM436 527h-252
q61 -21 94 -61t38 -104q32 -12 61.5 -33.5t59.5 -50.5q-1 17 -1 34v35v180zM235 -132q-29 0 -48.5 19t-19.5 49t19.5 50t48.5 20t48.5 -20t19.5 -50t-19.5 -49t-48.5 -19z" />
    <glyph glyph-name="lanuktabeng" horiz-adv-x="759" 
d="M769 622v-95h-99v-527h-112v304q-16 20 -34 32t-39 12q-12 0 -25.5 -5t-23 -20t-9.5 -43q0 -18 3 -33l-95 -7q-7 54 -38 85t-76 31q-32 0 -51 -17.5t-19 -44.5q0 -38 28.5 -61t75.5 -38l-34 -98q-84 25 -135 75t-51 126q0 48 23.5 83t63 54t87.5 19q52 0 89 -16.5
t72 -52.5q12 30 38.5 45t55.5 15t51.5 -9.5t44.5 -26.5q-2 29 -2 54v64h-568v95h779zM350 -32q-29 0 -48.5 19t-19.5 49t19.5 50t48.5 20t48.5 -20t19.5 -50t-19.5 -49t-48.5 -19z" />
    <glyph glyph-name="shanuktabeng" horiz-adv-x="700" 
d="M80 629q45 0 84.5 -18.5t61.5 -59.5q19 40 53 59t73 19q48 0 85 -20.5t64 -56.5q-1 13 -1.5 26t-0.5 27v83h88l23 -66h100v-95h-99v-527h-112v436q-28 45 -61 71t-73 26q-32 0 -54 -17.5t-22 -53.5q0 -75 125 -81l-11 -103q-68 4 -110.5 27.5t-62.5 62.5
q-20 -39 -62.5 -64.5t-112.5 -25.5l-11 103q71 2 97 25.5t26 53.5q0 35 -23.5 54t-66.5 19q-20 0 -37.5 -2t-39.5 -8l-11 97q25 4 47 6.5t44 2.5zM251 -9q-29 0 -48.5 19t-19.5 49t19.5 50t48.5 20t48.5 -20t19.5 -50t-19.5 -49t-48.5 -19z" />
    <glyph glyph-name="ssanuktabeng" horiz-adv-x="657" 
d="M667 622v-95h-99v-527h-111q-70 78 -158 123.5t-219 63.5l-43 105q44 26 98 55t108 52q-114 55 -211 74l24 54h-66v95h677zM457 527h-285q71 -23 148 -64.5t139 -92.5q-1 18 -1.5 37.5t-0.5 38.5v81zM171 263q78 -13 153 -50t135 -92q-1 17 -1.5 34t-0.5 36v67
q-24 24 -54 46.5t-64 42.5q-42 -19 -86.5 -40.5t-81.5 -43.5zM175 -19q-29 0 -48.5 19t-19.5 49t19.5 50t48.5 20t48.5 -20t19.5 -50t-19.5 -49t-48.5 -19z" />
    <glyph glyph-name="sanuktabeng" horiz-adv-x="698" 
d="M708 622v-95h-99v-527h-111v308q-16 17 -29 26.5t-26 9.5t-24 -7.5t-25 -29t-40 -65.5q-28 -46 -52 -75t-50 -42t-60 -13q-44 0 -82.5 24.5t-78.5 93.5l80 49q23 -38 38 -52t35 -14q16 0 31 10t36 44q-8 59 -18.5 94t-33.5 55q-25 22 -66 33t-103 18l17 60h-57v95h718z
M498 527h-325q50 -12 79.5 -31.5t44 -50.5t20.5 -77q23 40 45 56.5t52 16.5q24 0 44 -10t42 -31q-1 15 -1.5 30t-0.5 30v67zM228 -77q-29 0 -48.5 19t-19.5 49t19.5 50t48.5 20t48.5 -20t19.5 -50t-19.5 -49t-48.5 -19z" />
    <glyph glyph-name="hanuktabeng" horiz-adv-x="557" 
d="M255 491q87 0 139.5 -27.5t76 -68.5t23.5 -84q0 -70 -40 -113.5t-116 -61.5q57 -21 115.5 -52.5t113.5 -72.5l-61 -78q-70 51 -140 89t-148 64t-172 44l19 92q67 -19 140 -19q66 0 104.5 14t55 37.5t16.5 53.5q0 43 -32 67t-85 24q-48 0 -67.5 -13t-19.5 -38q0 -6 2 -14
t4 -13l-104 -17q-13 32 -13 68q0 34 21 60t59 41q-19 36 -68 54h-88v95h577v-95h-341q19 -16 29 -36v0zM221 -123q-29 0 -48.5 19t-19.5 49t19.5 50t48.5 20t48.5 -20t19.5 -50t-19.5 -49t-48.5 -19z" />
    <glyph glyph-name="ra1nuktabeng" horiz-adv-x="621" 
d="M631 622v-95h-99v-527h-112q-52 84 -144.5 141.5t-205.5 76.5l-46 110q90 51 192.5 97t205.5 76v26h-432v95h641zM307 358q30 -12 58.5 -27.5t54.5 -35.5v105q-28 -9 -56.5 -19.5t-56.5 -22.5zM159 287q42 -9 90.5 -29.5t93.5 -51.5t79 -72q-1 17 -1.5 33.5t-0.5 33.5v14
q-78 73 -188 109q-18 -9 -36.5 -18.5t-36.5 -18.5zM176 -9q-29 0 -48.5 19t-19.5 49t19.5 50t48.5 20t48.5 -20t19.5 -50t-19.5 -49t-48.5 -19z" />
    <glyph glyph-name="wanuktabeng" horiz-adv-x="617" 
d="M627 622v-95h-100v-527h-108q-51 84 -143 143t-207 78l-45 107q89 51 190.5 96.5t203.5 75.5v27h-428v95h637zM164 288q42 -9 88 -29t89.5 -51t76.5 -72q-1 16 -1.5 32t-0.5 33v195q-64 -21 -127 -48t-125 -60zM75 172q96 -19 156 -55t105 -85l-56 -51q-52 44 -104.5 68
t-118.5 38zM140 -118q-29 0 -48.5 19t-19.5 49t19.5 50t48.5 20t48.5 -20t19.5 -50t-19.5 -49t-48.5 -19z" />
    <glyph glyph-name="kassabeng" horiz-adv-x="982" 
d="M948 253q0 -33 -14.5 -63t-46 -49.5t-83.5 -19.5q-14 0 -29.5 1t-30.5 4l6 96q12 -2 30 -2q35 0 46 13t11 29q0 27 -24 45q-39 27 -134 28v-335h-111v72q-39 53 -81 89.5t-91 36.5q-31 0 -46 -13t-15 -35q0 -14 4.5 -25.5t11.5 -21.5l-102 -38q-13 23 -21 48.5t-8 56.5
q0 34 16 58t41.5 38.5t53.5 20.5q-16 38 -47.5 63.5t-75.5 25.5q-29 0 -44 -13t-15 -35q0 -14 4.5 -26t11.5 -21l-102 -38q-13 23 -21 49t-8 56q0 37 18 61.5t46 38t60 19.5q-12 34 -39 60h-129v95h1002v-95h-313v-98q92 -2 143 -19t81 -46q24 -23 34.5 -51.5t10.5 -59.5z
M384 512q0 7 1 15h-146q9 -14 16 -30t9 -36q44 -12 80.5 -38t59.5 -61.5t29 -76.5q40 -10 73.5 -33t63.5 -58q-2 22 -2 64v78q-81 7 -132.5 47t-51.5 129zM488 517q0 -44 20.5 -63.5t61.5 -23.5v97h-82v-10z" />
    <glyph glyph-name="janyabeng" horiz-adv-x="1022" 
d="M817 53q-67 0 -107.5 27.5t-67.5 68.5q-23 -46 -75.5 -76.5t-141.5 -30.5t-165 36.5t-136.5 124t-102.5 239.5l106 29q35 -122 77 -194t95.5 -103t122.5 -31q72 0 105.5 28t33.5 77q0 23 -5 44q-36 -28 -71 -40.5t-77 -12.5q-63 0 -103.5 32.5t-40.5 98.5q0 41 25.5 82
t90.5 76q-19 -1 -41 -1h-45h-304v95h1042v-95h-475q9 -34 24.5 -68t41.5 -65q47 58 94 83t104 25q70 0 108 -34t38 -86q0 -23 -9 -50t-37 -51q21 -16 36 -40.5t15 -59.5q0 -51 -38 -89.5t-117 -38.5zM373 378q0 -23 12.5 -33.5t32.5 -10.5q29 0 51.5 10.5t45.5 28.5
q-18 26 -31.5 54.5t-21.5 55.5q-48 -28 -68.5 -54t-20.5 -51zM810 413q-42 0 -80.5 -30t-68.5 -85q1 -5 1 -9q21 -74 59.5 -110.5t84.5 -36.5q26 0 43.5 11t17.5 37q0 28 -24 48q-23 -7 -50 -13l-22 87q90 13 90 61q0 23 -15 31.5t-36 8.5z" />
    <glyph glyph-name="rephbeng" 
d="M-284 730l339 187l47 -80l-334 -193z" />
    <glyph glyph-name="vattubeng" 
d="M-89 -233h-110q-25 68 -110 68q-37 0 -67 -4.5t-63 -8.5t-75 -4q-35 0 -72 7t-68.5 25.5t-51 53t-19.5 88.5q0 21 2.5 38t6.5 28l108 -14q-4 -11 -6 -21.5t-2 -24.5q0 -50 34 -67t83 -17q33 0 61 4t55 8.5t59 4.5q40 0 71.5 -12.5t51.5 -41.5v244l112 51v-405z" />
    <glyph glyph-name="basubscriptbeng" 
d="M-89 70v-338h-112q-55 50 -109.5 74t-128.5 37l-44 99q39 22 86.5 46t98 45t97.5 37h112zM-201 -24q-37 -12 -79.5 -30t-81.5 -38q47 -11 88 -29.5t76 -48.5q-2 13 -2.5 28.5t-0.5 27.5v90z" />
    <glyph glyph-name="kahalfbeng" horiz-adv-x="712" 
d="M-10 527v95h732v-95h-258v-20q67 -11 122 -36t87.5 -64.5t32.5 -95.5q0 -49 -33 -83t-101 -34q-18 0 -31 1.5t-27 3.5l4 90q6 -1 13 -1.5t14 -0.5q32 0 42.5 11t10.5 27q0 31 -34.5 56t-97.5 36v-295h-111q-57 64 -125 98t-163 48l-43 106q79 40 165.5 75.5t166.5 56.5
v21h-366zM355 304v109q-50 -14 -102.5 -34.5t-97.5 -41.5q63 -14 115 -42.5t88 -63.5q-3 37 -3 73z" />
    <glyph glyph-name="khahalfbeng" horiz-adv-x="729" 
d="M188 424q-65 0 -103.5 32.5t-38.5 88.5q0 24 6 45.5t15 37.5l102 -25q-5 -10 -8.5 -20.5t-3.5 -21.5q0 -21 12.5 -31t31.5 -10q29 0 56 17t58 70l78 18q31 -31 52 -72t21 -88q0 -70 -44 -120t-127 -73q90 -25 143 -64.5t92 -79.5q-2 22 -2 45.5v50.5v464h88l23 -66h100
v-95h-99v-527h-112q-65 84 -150.5 138.5t-211.5 75.5l-30 107q113 16 167 48.5t54 85.5q0 23 -11 43q-30 -35 -68.5 -54.5t-89.5 -19.5zM581 -14l270 -179l-52 -77l-275 173z" />
    <glyph glyph-name="gahalfbeng" horiz-adv-x="506" 
d="M265 629q86 0 156.5 -50.5t143.5 -135.5l-74 -62q-56 72 -107.5 112t-112.5 40q-41 0 -69 -14.5t-53 -37.5q16 6 36 10.5t46 4.5q63 0 95 -33t32 -76q0 -59 -38.5 -100.5t-123.5 -84.5l-59 91q62 27 87.5 47t25.5 43q0 33 -48 33q-42 0 -93 -26l-91 74q55 75 112.5 120
t134.5 45z" />
    <glyph glyph-name="ghahalfbeng" horiz-adv-x="650" 
d="M660 622v-95h-99v-527h-111q-49 63 -137 110.5t-205 61.5l-39 90q24 17 48 33t49 31q-62 10 -91.5 42t-29.5 76q0 47 32 83h-87v95h670zM381 350q-44 -24 -89 -50.5t-83 -52.5q76 -18 135 -49.5t108 -78.5q-1 16 -1.5 33.5t-0.5 35.5v339h-242q-25 -17 -36 -36t-11 -40
q0 -32 21 -44.5t47 -12.5q23 0 46.5 7t53.5 26zM503 -14l270 -179l-52 -77l-275 173z" />
    <glyph glyph-name="ngahalfbeng" horiz-adv-x="659" 
d="M383 122q-82 0 -150.5 30t-121.5 98t-90 182l104 29q27 -89 61.5 -143.5t81 -78.5t109.5 -24q77 0 113.5 27t36.5 68q0 7 -1 13q-40 -30 -77 -40.5t-75 -10.5q-71 0 -107 37.5t-36 95.5q0 37 10.5 68t27.5 55q-25 -1 -51 -1h-228v95h679v-95h-127q2 -9 2 -20
q0 -49 -37.5 -76t-114.5 -27q-16 0 -34 2.5t-34 6.5v-7q0 -28 13 -40.5t40 -12.5q37 0 71 16t77 51l78 -5q13 -25 20.5 -55.5t7.5 -58.5q0 -85 -66.5 -132t-181.5 -47zM417 544q-25 0 -45 -17.5t-32 -44.5q12 -3 25.5 -5t27.5 -2q35 0 48.5 11t13.5 28q0 16 -10.5 23
t-27.5 7z" />
    <glyph glyph-name="cahalfbeng" horiz-adv-x="512" 
d="M522 622v-95h-334v-13q24 -27 57 -44t90 -17h20q43 0 65 -6t37 -19q35 -26 35 -81q0 -52 -25 -93.5t-65 -72.5q-78 -59 -179 -59q-37 0 -64 9t-43 24q-16 16 -27.5 41t-11.5 85v246h-87v95h532zM188 278q0 -36 11.5 -49t39.5 -13t53.5 10t45.5 27q42 32 42 73
q0 20 -12 26t-31 6h-9q-34 0 -56 6.5t-42 17.5q-24 15 -44 36q1 -10 1.5 -22t0.5 -25v-93z" />
    <glyph glyph-name="chahalfbeng" horiz-adv-x="716" 
d="M236 201q-91 0 -126 44q-14 17 -22.5 42t-8.5 74v166h-89v95h736v-95h-539v-6q23 -22 52 -34t77 -12h62q11 1 27 1.5t32 0.5q66 0 108.5 -18t66.5 -46t33.5 -58.5t9.5 -55.5q0 -80 -44 -128.5t-106 -71.5q50 -11 102 -26.5t108 -38.5l-35 -87q-135 55 -265.5 81.5
t-265.5 35.5l11 96q26 -4 61 -8t78 -4q88 0 142 19.5t79 53t25 73.5q0 75 -73 94q1 -5 1 -11q0 -50 -31 -90t-84.5 -63t-121.5 -23zM199 305q12 -15 45 -15q35 0 62.5 12t43 30t15.5 35q0 24 -41 24h-19q-34 0 -64.5 10.5t-54.5 29.5q0 -9 0.5 -18.5t0.5 -17.5v-42
q0 -22 3.5 -32t8.5 -16zM432 -14l270 -179l-52 -77l-275 173z" />
    <glyph glyph-name="jahalfbeng" horiz-adv-x="967" 
d="M425 42q-89 0 -165 36.5t-136.5 124t-102.5 239.5l106 29q35 -122 77 -194t95.5 -103t122.5 -31q72 0 105.5 27.5t33.5 77.5q0 20 -4 38q-31 -21 -67 -34t-82 -13q-63 0 -103.5 32.5t-40.5 98.5q0 41 25.5 82t90.5 76q-19 -1 -38.5 -1h-41.5h-310v95h987v-95h-303
q-14 0 -29 0.5t-30 0.5q21 -31 64 -53t121 -22q12 0 23.5 0.5t27.5 2.5l53 -88q-21 -38 -31.5 -78t-10.5 -90q0 -84 34 -186l-109 -23q-18 55 -27.5 107t-9.5 113q0 43 7 80.5t19 68.5q-105 10 -169 47.5t-100 96.5q-70 -34 -101 -65.5t-31 -60.5q0 -23 13.5 -33.5
t29.5 -10.5q32 0 56 13.5t55 38.5l124 -38q7 -20 12 -47.5t5 -57.5q0 -50 -24 -96t-78 -75.5t-143 -29.5zM610 -14l270 -179l-52 -77l-275 173z" />
    <glyph glyph-name="jhahalfbeng" horiz-adv-x="831" 
d="M524 622v-325q30 -18 58 -42t50 -51q-1 26 -1 63v421h88l22 -66h100v-95h-99v-453h-111q-42 67 -107 118v-192h-111q-52 84 -142 142.5t-201 75.5l-46 110q89 51 189.5 97t201.5 76v26h-425v95h534zM164 288q43 -8 89 -29t88 -52.5t74 -70.5q-1 14 -1.5 29.5t-0.5 32.5
v199q-64 -21 -125.5 -48.5t-123.5 -60.5zM465 -14l270 -179l-52 -77l-275 173z" />
    <glyph glyph-name="nyahalfbeng" horiz-adv-x="1051" 
d="M525 628q45 0 74 -9.5t51 -26.5q11 -9 20 -22.5t15 -33.5q36 38 76.5 56.5t91.5 18.5q68 0 106.5 -33.5t38.5 -85.5q0 -23 -9 -50t-37 -52q21 -16 36 -40.5t15 -59.5q0 -50 -37.5 -88.5t-115.5 -38.5q-55 0 -93 20.5t-64 53.5q1 -15 1.5 -30.5t0.5 -31.5v-175h-109
q-15 40 -39.5 57.5t-71.5 17.5q-37 0 -68.5 -4t-64 -8t-70.5 -4q-39 0 -80.5 7.5t-76.5 29.5t-56.5 65t-21.5 113q0 25 3.5 52.5t8.5 50.5l109 -15q-4 -14 -7 -34.5t-3 -49.5q0 -53 20 -78.5t51.5 -33.5t65.5 -8q48 0 88 7.5t84 7.5q41 0 70.5 -11t56.5 -41v325
q0 33 -4.5 48.5t-14.5 23.5q-15 15 -47 15q-30 0 -57.5 -14t-48 -35.5t-32.5 -44t-12 -39.5q0 -14 9 -26t44 -12q11 0 20 1t19 2l7 -93q-24 -9 -74 -9q-57 0 -96.5 30.5t-39.5 94.5q0 41 21 83t58 77.5t85.5 57.5t103.5 22zM840 522q-42 0 -79 -29.5t-66 -78.5v-26
q21 -68 59 -102t83 -34q25 0 42.5 11t17.5 37q0 28 -24 48q-23 -8 -50 -13l-21 86q89 13 89 61q0 22 -15 31t-36 9zM636 -14l270 -179l-52 -77l-275 173z" />
    <glyph glyph-name="ttahalfbeng" horiz-adv-x="512" 
d="M362 622q-2 34 -18 49.5t-55 15.5h-59q-71 0 -114.5 12.5t-69.5 38.5q-22 20 -32 50t-10 68q0 14 1 27t4 29l105 -7q-1 -10 -1.5 -17.5t-0.5 -14.5q0 -22 4 -38.5t15 -27.5q12 -12 32.5 -18t63.5 -6h54q57 0 90.5 -8.5t56.5 -31.5q18 -18 28 -47.5t11 -73.5h55v-95h-334
v-249q0 -36 11.5 -49t39.5 -13t53.5 10t45.5 27q43 33 43 77q0 16 -10.5 26t-35.5 10q-11 0 -21 -1t-18 -2l-13 89q17 4 38.5 6.5t45.5 2.5q55 0 90 -27.5t35 -85.5q0 -53 -24.5 -94.5t-65.5 -72.5q-78 -59 -179 -59q-37 0 -64 9t-43 24q-16 16 -27.5 41t-11.5 85v246h-87
v95h372z" />
    <glyph glyph-name="tthahalfbeng" horiz-adv-x="618" 
d="M298 0q-94 0 -165 45t-106 112l30 102q81 9 126 35t63 64t18 84q0 18 -3 40t-12 45h-259v95h209q-35 44 -53 80t-18 74q0 42 23 76t66 65l79 -78q-31 -24 -43.5 -44t-12.5 -45q0 -28 21 -58t59 -70h308v-95h-141q-19 0 -32.5 0.5t-28.5 1.5q68 -68 104 -138.5t36 -149.5
q0 -110 -68.5 -175.5t-199.5 -65.5zM296 99q74 0 114.5 40t40.5 107q0 58 -23.5 114t-80.5 124q6 -19 9.5 -39.5t3.5 -42.5q0 -49 -18 -93t-64 -79.5t-130 -58.5q25 -37 65 -54.5t83 -17.5zM343 -14l270 -179l-52 -77l-275 173z" />
    <glyph glyph-name="ddahalfbeng" horiz-adv-x="644" 
d="M654 622v-95h-303v-100q0 -18 5.5 -26.5t20.5 -8.5q19 0 41 17t50 58l92 17q27 -38 42.5 -79t15.5 -86q0 -85 -63.5 -136.5t-178.5 -51.5q-76 0 -142 28t-120 97.5t-93 195.5l104 29q28 -97 63.5 -152t80.5 -78.5t101 -23.5q70 0 106.5 28t36.5 73q0 21 -5 41
q-32 -34 -67.5 -51.5t-81.5 -17.5q-51 0 -80 24q-16 14 -27.5 39t-11.5 77v87h-250v95h664z" />
    <glyph glyph-name="ddhahalfbeng" horiz-adv-x="512" 
d="M522 622v-95h-334v-249q0 -36 11.5 -49t39.5 -13t53.5 10t45.5 27q43 33 43 77q0 16 -10.5 26t-35.5 10q-11 0 -21 -1t-18 -2l-13 89q17 4 38.5 6.5t45.5 2.5q55 0 90 -27.5t35 -85.5q0 -53 -24.5 -94.5t-65.5 -72.5q-78 -59 -179 -59q-37 0 -64 9t-43 24
q-16 16 -27.5 41t-11.5 85v246h-87v95h532z" />
    <glyph glyph-name="nnahalfbeng" horiz-adv-x="415" 
d="M205 629q52 0 95.5 -19t84.5 -53.5t88 -80.5l-68 -66q-49 56 -93 88.5t-92 32.5q-29 0 -49.5 -17t-20.5 -51q0 -33 27 -53.5t94 -26.5l-12 -111q-63 6 -114 28.5t-81 63t-30 101.5q0 52 23.5 88.5t62 56t85.5 19.5z" />
    <glyph glyph-name="tahalfbeng" horiz-adv-x="723" 
d="M733 622v-95h-743v95h743zM421 39q-89 0 -164.5 38t-135 126.5t-100.5 238.5l106 30q49 -172 114.5 -252t169.5 -80q83 0 120 35.5t37 95.5q0 55 -30 88t-73 33q-62 0 -62 -54q0 -10 1.5 -21.5t6.5 -22.5l-107 -17q-16 41 -16 76q0 46 23 75t61 43t84 14q70 0 120 -28.5
t77 -79t27 -115.5q0 -60 -27 -111t-84.5 -81.5t-147.5 -30.5zM457 -14l270 -179l-52 -77l-275 173z" />
    <glyph glyph-name="thahalfbeng" horiz-adv-x="690" 
d="M221 625q71 0 116.5 -23.5t67.5 -62t22 -83.5q0 -67 -44.5 -114.5t-124.5 -69.5q87 -25 140.5 -64t93.5 -80q-2 22 -2 45.5v50.5v464h87l23 -66h100v-95h-99v-527h-111q-66 84 -151.5 138t-211.5 76l-28 107q118 17 167 50t49 83q0 34 -23.5 56t-70.5 22q-39 0 -56 -15
t-17 -31q0 -26 31 -45l-67 -74q-28 17 -51.5 46t-23.5 75q0 56 46.5 96.5t137.5 40.5zM543 -14l270 -179l-52 -77l-275 173z" />
    <glyph glyph-name="dahalfbeng" horiz-adv-x="551" 
d="M561 622v-95h-375v-160q47 34 114 66.5t143 55.5l77 -70q-19 -34 -26 -69t-7 -69q0 -37 6 -73.5t18 -74.5l-108 -21q-14 43 -21 83.5t-7 76.5q0 25 2.5 48t9.5 45q-63 -26 -119.5 -59.5t-103.5 -68.5l-89 59v231h-85v95h571z" />
    <glyph glyph-name="dhahalfbeng" horiz-adv-x="617" 
d="M238 629q14 0 29 -1.5t30 -3.5l-8 -90q-5 1 -12 1.5t-18 0.5q-28 0 -41 -11t-13 -28q0 -35 47 -56q41 17 82 31.5t82 27.5v122h211v-95h-100v-527h-111q-52 84 -142.5 141.5t-203.5 76.5l-46 110q33 19 67.5 37t69.5 35q-30 23 -47 50.5t-17 63.5q0 28 13.5 54t44.5 43.5
t83 17.5zM164 288q42 -9 88 -29t89.5 -51t76.5 -72q-1 16 -1.5 33.5t-0.5 38.5v188q-64 -21 -127 -48t-125 -60zM469 -14l270 -179l-52 -77l-275 173z" />
    <glyph glyph-name="nahalfbeng" horiz-adv-x="372" 
d="M-10 527v95h392v-95h-392zM192 477q48 0 86.5 -13.5t76 -39.5t80.5 -64l-65 -70q-37 38 -77.5 63.5t-81.5 25.5q-25 0 -42.5 -12.5t-17.5 -37.5q0 -40 63 -66l-50 -95q-60 25 -94.5 69t-34.5 97q0 48 23 79.5t59 47.5t75 16z" />
    <glyph glyph-name="pahalfbeng" horiz-adv-x="558" 
d="M299 629q55 0 103 -21t99.5 -65.5t115.5 -116.5l-70 -64q-14 17 -27 32.5t-26 29.5l-256 -212l-75 76l23 18q12 12 20 25.5t8 31.5t-13 30t-35 12q-16 0 -30.5 -5t-29.5 -14l-90 82q46 52 89 88t90 54.5t104 18.5zM295 389v-5q19 18 39 34l89 71q-30 22 -61 33t-66 11
q-44 0 -79.5 -17t-70.5 -46q13 5 27 8t30 3q41 0 66.5 -24.5t25.5 -67.5z" />
    <glyph glyph-name="phahalfbeng" horiz-adv-x="867" 
d="M877 622v-95h-703q50 -17 94 -46t74 -58l9 -76q-43 -18 -89.5 -40t-85.5 -44q74 -16 144.5 -51.5t122.5 -90.5q-1 17 -1.5 34t-0.5 35v304h34q95 0 168 -19.5t128 -72.5q59 -54 59 -133q0 -33 -13.5 -63t-45.5 -48.5t-87 -18.5q-19 0 -35.5 1t-31.5 4l5 96q5 -1 13 -1.5
t20 -0.5q41 0 53 14.5t12 36.5q0 37 -41.5 68t-125.5 38v-395h-112q-60 77 -147 122.5t-214 64.5l-43 105q43 27 93.5 54t100.5 51q-41 25 -89.5 45t-109.5 31l24 54h-66v95h887zM497 -14l270 -179l-52 -77l-275 173z" />
    <glyph glyph-name="bahalfbeng" horiz-adv-x="527" 
d="M537 622v-95h-63v-405h-112q-60 64 -127.5 98t-167.5 48l-43 106q83 43 172.5 78t167.5 54v21h-374v95h547zM362 304v109q-50 -14 -104.5 -34t-102.5 -42q67 -14 119 -42t91 -64q-1 17 -2 37t-1 36z" />
    <glyph glyph-name="bhahalfbeng" horiz-adv-x="739" 
d="M749 622v-95h-759v95h759zM434 34q-91 0 -168.5 36.5t-139.5 125.5t-105 246l106 29q35 -125 78.5 -198.5t98 -105.5t123.5 -32q75 0 116.5 34.5t41.5 95.5q0 22 -4.5 41t-11.5 35q-36 -36 -77.5 -55t-93.5 -19q-66 0 -104 31.5t-38 87.5q0 24 6.5 46.5t14.5 39.5
l104 -27q-13 -21 -13 -42q0 -22 12.5 -31.5t32.5 -9.5q29 0 55 16.5t61 70.5l93 15q73 -102 73 -210q0 -62 -29.5 -112t-87.5 -79t-144 -29zM387 -14l270 -179l-52 -77l-275 173z" />
    <glyph glyph-name="mahalfbeng" horiz-adv-x="601" 
d="M421 279q-49 0 -90 17t-83 44q-26 16 -42 24t-30 8q-33 0 -33 -29q0 -24 31 -46l-71 -71q-29 24 -49.5 55t-20.5 72q0 38 19.5 62t48.5 35t57 11q-11 44 -59 66h-109v95h621v-95h-63q13 -21 22 -48t9 -57q0 -67 -40 -105t-118 -38zM293 419q38 -25 62 -35t50 -10
q62 0 62 64q0 24 -10.5 46.5t-27.5 42.5h-195q36 -36 36 -94q11 -6 23 -14z" />
    <glyph glyph-name="yahalfbeng" horiz-adv-x="650" 
d="M660 622v-95h-99v-527h-111q-62 78 -150.5 123.5t-219.5 63.5l-43 105q43 27 93.5 54t100.5 51q-41 25 -89.5 45t-109.5 31l24 54h-66v95h670zM450 527h-276q50 -17 94 -46t74 -58l9 -76q-43 -18 -89.5 -40t-85.5 -45q78 -13 151 -50t125 -92q-2 17 -2 34.5v36.5v336z
M503 -14l270 -179l-52 -77l-275 173z" />
    <glyph glyph-name="lahalfbeng" horiz-adv-x="538" 
d="M-10 527v95h558v-95h-558zM199 470q50 0 86.5 -17t67.5 -51q13 29 39 44.5t57 15.5q44 0 79.5 -21t72.5 -56l-64 -65q-17 20 -34.5 32.5t-38.5 12.5q-19 0 -35 -12.5t-16 -43.5q0 -8 0.5 -15t1.5 -14l-95 -6q-11 46 -39.5 72.5t-67.5 26.5q-29 0 -45.5 -14.5t-16.5 -37.5
q0 -32 26 -50.5t69 -31.5l-35 -98q-81 23 -128.5 69t-47.5 117q0 43 22 75.5t59.5 50t82.5 17.5z" />
    <glyph glyph-name="shahalfbeng" horiz-adv-x="537" 
d="M80 629q45 0 84.5 -18.5t61.5 -59.5q19 40 54 59t78 19q74 0 128 -42t112 -123l-76 -57q-37 55 -72.5 90.5t-84.5 35.5q-32 0 -54 -17.5t-22 -53.5q0 -75 125 -81l-11 -103q-68 4 -110.5 27.5t-62.5 62.5q-20 -39 -62.5 -64.5t-112.5 -25.5l-11 103q71 2 97 25.5t26 53.5
q0 35 -23.5 54t-66.5 19q-20 0 -37.5 -2t-39.5 -8l-11 97q25 4 47 6.5t44 2.5z" />
    <glyph glyph-name="ssahalfbeng" horiz-adv-x="528" 
d="M538 622v-95h-53q24 -36 24 -84q0 -63 -35.5 -106t-93.5 -65.5t-127 -22.5q-61 0 -110.5 20.5t-78.5 59.5t-29 96q0 31 10 56.5t28 45.5h-43h-40v95h548zM285 537q-42 0 -74 -13q97 -52 175 -122q13 22 13 49q0 41 -29 63.5t-85 22.5zM146 432q0 -41 30 -66t84 -25
q38 0 69 13q-79 71 -173 121q-10 -19 -10 -43z" />
    <glyph glyph-name="sahalfbeng" horiz-adv-x="696" 
d="M511 279q-66 0 -114 30t-75 80q-9 -28 -26 -53t-43.5 -41t-62.5 -16q-45 0 -84.5 23t-82.5 94l81 50q24 -42 40.5 -54t35.5 -12q34 0 54.5 31t22.5 116h-267v95h716v-95h-62q13 -21 21.5 -48t8.5 -57q0 -67 -43 -105t-120 -38zM562 438q0 24 -10.5 46.5t-28.5 42.5h-160
q13 -65 46.5 -109t90.5 -44q62 0 62 64z" />
    <glyph glyph-name="hahalfbeng" horiz-adv-x="557" 
d="M255 491q87 0 139.5 -27.5t76 -68.5t23.5 -84q0 -70 -40 -113.5t-116 -61.5q57 -21 115.5 -52.5t113.5 -72.5l-61 -78q-70 51 -140 89t-148 64t-172 44l19 92q67 -19 140 -19q66 0 104.5 14t55 37.5t16.5 53.5q0 43 -32 67t-85 24q-48 0 -67.5 -13t-19.5 -38q0 -6 2 -14
t4 -13l-104 -17q-13 32 -13 68q0 34 21 60t59 41q-19 36 -68 54h-88v95h577v-95h-341q19 -16 29 -36v0zM327 -14l270 -179l-52 -77l-275 173z" />
    <glyph glyph-name="ra1halfbeng" horiz-adv-x="621" 
d="M631 622v-95h-99v-527h-112q-52 84 -144.5 141.5t-205.5 76.5l-46 110q90 51 192.5 97t205.5 76v26h-432v95h641zM307 358q30 -12 58.5 -27.5t54.5 -35.5v105q-28 -9 -56.5 -19.5t-56.5 -22.5zM159 287q42 -9 90.5 -29.5t93.5 -51.5t79 -72q-1 17 -1.5 33.5t-0.5 33.5v14
q-78 73 -188 109q-18 -9 -36.5 -18.5t-36.5 -18.5zM473 -14l270 -179l-52 -77l-275 173z" />
    <glyph glyph-name="wahalfbeng" horiz-adv-x="617" 
d="M627 622v-95h-100v-527h-108q-51 84 -143 143t-207 78l-45 107q89 51 190.5 96.5t203.5 75.5v27h-428v95h637zM164 288q42 -9 88 -29t89.5 -51t76.5 -72q-1 16 -1.5 32t-0.5 33v195q-64 -21 -127 -48t-125 -60zM75 172q96 -19 156 -55t105 -85l-56 -51q-52 44 -104.5 68
t-118.5 38zM469 -14l270 -179l-52 -77l-275 173z" />
    <glyph glyph-name="kassahalfbeng" horiz-adv-x="982" 
d="M948 253q0 -33 -14.5 -63t-46 -49.5t-83.5 -19.5q-14 0 -29.5 1t-30.5 4l6 96q12 -2 30 -2q35 0 46 13t11 29q0 27 -24 45q-39 27 -134 28v-335h-111v72q-39 53 -81 89.5t-91 36.5q-31 0 -46 -13t-15 -35q0 -14 4.5 -25.5t11.5 -21.5l-102 -38q-13 23 -21 48.5t-8 56.5
q0 34 16 58t41.5 38.5t53.5 20.5q-16 38 -47.5 63.5t-75.5 25.5q-29 0 -44 -13t-15 -35q0 -14 4.5 -26t11.5 -21l-102 -38q-13 23 -21 49t-8 56q0 37 18 61.5t46 38t60 19.5q-12 34 -39 60h-129v95h1002v-95h-313v-98q92 -2 143 -19t81 -46q24 -23 34.5 -51.5t10.5 -59.5z
M384 512q0 7 1 15h-146q9 -14 16 -30t9 -36q44 -12 80.5 -38t59.5 -61.5t29 -76.5q40 -10 73.5 -33t63.5 -58q-2 22 -2 64v78q-81 7 -132.5 47t-51.5 129zM488 517q0 -44 20.5 -63.5t61.5 -23.5v97h-82v-10zM620 -14l270 -179l-52 -77l-275 173z" />
    <glyph glyph-name="janyahalfbeng" horiz-adv-x="1022" 
d="M817 53q-67 0 -107.5 27.5t-67.5 68.5q-23 -46 -75.5 -76.5t-141.5 -30.5t-165 36.5t-136.5 124t-102.5 239.5l106 29q35 -122 77 -194t95.5 -103t122.5 -31q72 0 105.5 28t33.5 77q0 23 -5 44q-36 -28 -71 -40.5t-77 -12.5q-63 0 -103.5 32.5t-40.5 98.5q0 41 25.5 82
t90.5 76q-19 -1 -41 -1h-45h-304v95h1042v-95h-475q9 -34 24.5 -68t41.5 -65q47 58 94 83t104 25q70 0 108 -34t38 -86q0 -23 -9 -50t-37 -51q21 -16 36 -40.5t15 -59.5q0 -51 -38 -89.5t-117 -38.5zM373 378q0 -23 12.5 -33.5t32.5 -10.5q29 0 51.5 10.5t45.5 28.5
q-18 26 -31.5 54.5t-21.5 55.5q-48 -28 -68.5 -54t-20.5 -51zM810 413q-42 0 -80.5 -30t-68.5 -85q1 -5 1 -9q21 -74 59.5 -110.5t84.5 -36.5q26 0 43.5 11t17.5 37q0 28 -24 48q-23 -7 -50 -13l-22 87q90 13 90 61q0 23 -15 31.5t-36 8.5zM529 -14l270 -179l-52 -77
l-275 173z" />
    <glyph glyph-name="kanuktahalfbeng" horiz-adv-x="838" 
d="M801 269q0 -33 -13.5 -63t-45.5 -48.5t-87 -18.5q-19 0 -35.5 1t-31.5 4l5 96q6 -1 13.5 -1.5t19.5 -0.5q40 0 52.5 14.5t12.5 36.5q0 39 -42.5 68t-124.5 44v-401h-111q-52 84 -142 142.5t-201 75.5l-46 110q89 50 188 94.5t202 74.5v30h-424v95h858v-95h-325v-28
q77 -12 140 -42.5t100.5 -78t37.5 -109.5zM164 288q43 -8 89 -29t88 -52.5t74 -70.5q-1 14 -1.5 29.5t-0.5 32.5v196q-65 -21 -127 -48.5t-122 -57.5zM464 -14l270 -179l-52 -77l-275 173zM174 -9q-29 0 -48.5 19t-19.5 49t19.5 50t48.5 20t48.5 -20t19.5 -50t-19.5 -49
t-48.5 -19z" />
    <glyph glyph-name="khanuktahalfbeng" horiz-adv-x="729" 
d="M188 424q-65 0 -103.5 32.5t-38.5 88.5q0 24 6 45.5t15 37.5l102 -25q-5 -10 -8.5 -20.5t-3.5 -21.5q0 -21 12.5 -31t31.5 -10q29 0 56 17t58 70l78 18q31 -31 52 -72t21 -88q0 -70 -44 -120t-127 -73q90 -25 143 -64.5t92 -79.5q-2 22 -2 45.5v50.5v464h88l23 -66h100
v-95h-99v-527h-112q-65 84 -150.5 138.5t-211.5 75.5l-30 107q113 16 167 48.5t54 85.5q0 23 -11 43q-30 -35 -68.5 -54.5t-89.5 -19.5zM581 -14l270 -179l-52 -77l-275 173zM263 -9q-29 0 -48.5 19t-19.5 49t19.5 50t48.5 20t48.5 -20t19.5 -50t-19.5 -49t-48.5 -19z" />
    <glyph glyph-name="ganuktahalfbeng" horiz-adv-x="683" 
d="M483 0v391q-48 62 -99 102t-114 40q-45 0 -73 -19.5t-52 -46.5q17 8 38.5 12.5t48.5 4.5q68 0 101.5 -37.5t33.5 -85.5q0 -60 -42.5 -108.5t-129.5 -96.5l-66 94q56 25 93 51t37 59q0 19 -13 30.5t-41 11.5q-42 0 -91 -26l-96 78q50 76 109.5 125.5t136.5 49.5
q63 0 114.5 -28.5t106.5 -83.5q-1 13 -1.5 30.5t-0.5 37.5v103h88l22 -66h100v-95h-99v-527h-111zM536 -14l270 -179l-52 -77l-275 173zM232 -39q-29 0 -48.5 19t-19.5 49t19.5 50t48.5 20t48.5 -20t19.5 -50t-19.5 -49t-48.5 -19z" />
    <glyph glyph-name="ghanuktahalfbeng" horiz-adv-x="650" 
d="M660 622v-95h-99v-527h-111q-49 63 -137 110.5t-205 61.5l-39 90q24 17 48 33t49 31q-62 10 -91.5 42t-29.5 76q0 47 32 83h-87v95h670zM381 350q-44 -24 -89 -50.5t-83 -52.5q76 -18 135 -49.5t108 -78.5q-1 16 -1.5 33.5t-0.5 35.5v339h-242q-25 -17 -36 -36t-11 -40
q0 -32 21 -44.5t47 -12.5q23 0 46.5 7t53.5 26zM503 -14l270 -179l-52 -77l-275 173zM176 -19q-29 0 -48.5 19t-19.5 49t19.5 50t48.5 20t48.5 -20t19.5 -50t-19.5 -49t-48.5 -19z" />
    <glyph glyph-name="nganuktahalfbeng" horiz-adv-x="740" 
d="M431 6q-67 0 -127 20t-112.5 67t-95 128t-75.5 203l106 30q34 -127 76.5 -203.5t97 -110.5t123.5 -34q74 0 118 32t44 90q0 15 -2.5 30t-9.5 31q-41 -38 -83 -55.5t-85 -17.5q-54 0 -84 24q-21 17 -32.5 46.5t-11.5 79.5v60q-52 25 -91 62.5t-69 77.5l80 57
q22 -29 46 -55t50 -47q22 53 67 80t104 27q65 0 101.5 -30t36.5 -85q0 -41 -23.5 -67.5t-62 -40t-83.5 -13.5q-25 0 -48 3v-38q0 -20 6 -32t26 -12q31 0 57.5 16.5t67.5 56.5l100 8q25 -36 39.5 -81.5t14.5 -91.5q0 -63 -30 -111.5t-89 -76t-147 -27.5zM461 550
q-31 0 -49.5 -21.5t-23.5 -53.5q22 -5 46 -5q36 0 52.5 13.5t16.5 32.5q0 34 -42 34zM576 -14l270 -179l-52 -77l-275 173zM368 -197q-29 0 -48.5 19t-19.5 49t19.5 50t48.5 20t48.5 -20t19.5 -50t-19.5 -49t-48.5 -19z" />
    <glyph glyph-name="canuktahalfbeng" horiz-adv-x="583" 
d="M593 622v-95h-395v-14q28 -45 69.5 -68t102.5 -23h19q47 0 73 -8t44 -25q16 -15 25 -38.5t9 -50.5q0 -61 -25 -111.5t-66 -87.5q-39 -37 -88 -58t-105 -21q-47 0 -75.5 10t-47.5 28q-20 19 -33.5 50.5t-13.5 98.5v318h-96v95h603zM214 134q15 -17 49 -17q32 0 60.5 14.5
t54.5 40.5q24 24 37.5 51t13.5 56q0 26 -15.5 35.5t-41.5 9.5h-8q-36 0 -61 6.5t-54 22.5q-30 17 -53 42q1 -9 1.5 -19.5t0.5 -19.5v-142q0 -38 4 -55t12 -25zM420 -14l270 -179l-52 -77l-275 173zM219 -197q-29 0 -48.5 19t-19.5 49t19.5 50t48.5 20t48.5 -20t19.5 -50
t-19.5 -49t-48.5 -19z" />
    <glyph glyph-name="chanuktahalfbeng" horiz-adv-x="716" 
d="M236 201q-91 0 -126 44q-14 17 -22.5 42t-8.5 74v166h-89v95h736v-95h-539v-6q23 -22 52 -34t77 -12h62q11 1 27 1.5t32 0.5q66 0 108.5 -18t66.5 -46t33.5 -58.5t9.5 -55.5q0 -80 -44 -128.5t-106 -71.5q50 -11 102 -26.5t108 -38.5l-35 -87q-135 55 -265.5 81.5
t-265.5 35.5l11 96q26 -4 61 -8t78 -4q88 0 142 19.5t79 53t25 73.5q0 75 -73 94q1 -5 1 -11q0 -50 -31 -90t-84.5 -63t-121.5 -23zM199 305q12 -15 45 -15q35 0 62.5 12t43 30t15.5 35q0 24 -41 24h-19q-34 0 -64.5 10.5t-54.5 29.5q0 -9 0.5 -18.5t0.5 -17.5v-42
q0 -22 3.5 -32t8.5 -16zM435 -14l270 -179l-52 -77l-275 173zM238 -166q-29 0 -48.5 19t-19.5 49t19.5 50t48.5 20t48.5 -20t19.5 -50t-19.5 -49t-48.5 -19z" />
    <glyph glyph-name="januktahalfbeng" horiz-adv-x="967" 
d="M425 42q-89 0 -165 36.5t-136.5 124t-102.5 239.5l106 29q35 -122 77 -194t95.5 -103t122.5 -31q72 0 105.5 27.5t33.5 77.5q0 20 -4 38q-31 -21 -67 -34t-82 -13q-63 0 -103.5 32.5t-40.5 98.5q0 41 25.5 82t90.5 76q-19 -1 -38.5 -1h-41.5h-310v95h987v-95h-303
q-14 0 -29 0.5t-30 0.5q21 -31 64 -53t121 -22q12 0 23.5 0.5t27.5 2.5l53 -88q-21 -38 -31.5 -78t-10.5 -90q0 -84 34 -186l-109 -23q-18 55 -27.5 107t-9.5 113q0 43 7 80.5t19 68.5q-105 10 -169 47.5t-100 96.5q-70 -34 -101 -65.5t-31 -60.5q0 -23 13.5 -33.5
t29.5 -10.5q32 0 56 13.5t55 38.5l124 -38q7 -20 12 -47.5t5 -57.5q0 -50 -24 -96t-78 -75.5t-143 -29.5zM618 -14l270 -179l-52 -77l-275 173zM415 -159q-29 0 -48.5 19t-19.5 49t19.5 50t48.5 20t48.5 -20t19.5 -50t-19.5 -49t-48.5 -19z" />
    <glyph glyph-name="jhanuktahalfbeng" horiz-adv-x="831" 
d="M524 622v-325q30 -18 58 -42t50 -51q-1 26 -1 63v421h88l22 -66h100v-95h-99v-453h-111q-42 67 -107 118v-192h-111q-52 84 -142 142.5t-201 75.5l-46 110q89 51 189.5 97t201.5 76v26h-425v95h534zM164 288q43 -8 89 -29t88 -52.5t74 -70.5q-1 14 -1.5 29.5t-0.5 32.5
v199q-64 -21 -125.5 -48.5t-123.5 -60.5zM465 -14l270 -179l-52 -77l-275 173zM176 -9q-29 0 -48.5 19t-19.5 49t19.5 50t48.5 20t48.5 -20t19.5 -50t-19.5 -49t-48.5 -19z" />
    <glyph glyph-name="nyanuktahalfbeng" horiz-adv-x="1051" 
d="M525 628q45 0 74 -9.5t51 -26.5q11 -9 20 -22.5t15 -33.5q36 38 76.5 56.5t91.5 18.5q68 0 106.5 -33.5t38.5 -85.5q0 -23 -9 -50t-37 -52q21 -16 36 -40.5t15 -59.5q0 -50 -37.5 -88.5t-115.5 -38.5q-55 0 -93 20.5t-64 53.5q1 -15 1.5 -30.5t0.5 -31.5v-175h-109
q-15 40 -39.5 57.5t-71.5 17.5q-37 0 -68.5 -4t-64 -8t-70.5 -4q-39 0 -80.5 7.5t-76.5 29.5t-56.5 65t-21.5 113q0 25 3.5 52.5t8.5 50.5l109 -15q-4 -14 -7 -34.5t-3 -49.5q0 -53 20 -78.5t51.5 -33.5t65.5 -8q48 0 88 7.5t84 7.5q41 0 70.5 -11t56.5 -41v325
q0 33 -4.5 48.5t-14.5 23.5q-15 15 -47 15q-30 0 -57.5 -14t-48 -35.5t-32.5 -44t-12 -39.5q0 -14 9 -26t44 -12q11 0 20 1t19 2l7 -93q-24 -9 -74 -9q-57 0 -96.5 30.5t-39.5 94.5q0 41 21 83t58 77.5t85.5 57.5t103.5 22zM840 522q-42 0 -79 -29.5t-66 -78.5v-26
q21 -68 59 -102t83 -34q25 0 42.5 11t17.5 37q0 28 -24 48q-23 -8 -50 -13l-21 86q89 13 89 61q0 22 -15 31t-36 9zM636 -14l270 -179l-52 -77l-275 173zM406 -158q-29 0 -48.5 19t-19.5 49t19.5 50t48.5 20t48.5 -20t19.5 -50t-19.5 -49t-48.5 -19z" />
    <glyph glyph-name="ttanuktahalfbeng" horiz-adv-x="583" 
d="M386 622q-2 34 -18 49.5t-55 15.5h-83q-71 0 -114.5 12.5t-69.5 38.5q-22 20 -32 50t-10 68q0 14 1 27t4 29l105 -7q-1 -10 -1.5 -17.5t-0.5 -14.5q0 -22 4 -38.5t15 -27.5q12 -12 32.5 -18t63.5 -6h78q57 0 90.5 -8.5t56.5 -31.5q18 -18 28 -47.5t11 -73.5h102v-95h-395
v-313q0 -38 4 -55t12 -25q15 -17 49 -17q31 0 60 14.5t55 40.5q52 50 52 108q0 23 -13.5 37t-44.5 14q-13 0 -24.5 -1.5t-22.5 -3.5l-15 94q20 4 41.5 7.5t48.5 3.5q70 0 105 -36.5t35 -98.5q0 -57 -25 -107.5t-66 -87.5q-39 -37 -88 -58t-105 -21q-47 0 -75.5 10t-48.5 29
q-20 18 -33 49.5t-13 98.5v318h-96v95h396zM219 -197q-29 0 -48.5 19t-19.5 49t19.5 50t48.5 20t48.5 -20t19.5 -50t-19.5 -49t-48.5 -19zM420 -14l270 -179l-52 -77l-275 173z" />
    <glyph glyph-name="tthanuktahalfbeng" horiz-adv-x="618" 
d="M298 0q-94 0 -165 45t-106 112l30 102q81 9 126 35t63 64t18 84q0 18 -3 40t-12 45h-259v95h209q-35 44 -53 80t-18 74q0 42 23 76t66 65l79 -78q-31 -24 -43.5 -44t-12.5 -45q0 -28 21 -58t59 -70h308v-95h-141q-19 0 -32.5 0.5t-28.5 1.5q68 -68 104 -138.5t36 -149.5
q0 -110 -68.5 -175.5t-199.5 -65.5zM296 99q74 0 114.5 40t40.5 107q0 58 -23.5 114t-80.5 124q6 -19 9.5 -39.5t3.5 -42.5q0 -49 -18 -93t-64 -79.5t-130 -58.5q25 -37 65 -54.5t83 -17.5zM427 -14l270 -179l-52 -77l-275 173zM226 -197q-29 0 -48.5 19t-19.5 49t19.5 50
t48.5 20t48.5 -20t19.5 -50t-19.5 -49t-48.5 -19z" />
    <glyph glyph-name="ddanuktahalfbeng" horiz-adv-x="644" 
d="M654 622v-95h-303v-100q0 -18 5.5 -26.5t20.5 -8.5q19 0 41 17t50 58l92 17q27 -38 42.5 -79t15.5 -86q0 -85 -63.5 -136.5t-178.5 -51.5q-76 0 -142 28t-120 97.5t-93 195.5l104 29q28 -97 63.5 -152t80.5 -78.5t101 -23.5q70 0 106.5 28t36.5 73q0 21 -5 41
q-32 -34 -67.5 -51.5t-81.5 -17.5q-51 0 -80 24q-16 14 -27.5 39t-11.5 77v87h-250v95h664zM332 -55q-29 0 -48.5 19t-19.5 49t19.5 50t48.5 20t48.5 -20t19.5 -50t-19.5 -49t-48.5 -19z" />
    <glyph glyph-name="ddhanuktahalfbeng" horiz-adv-x="512" 
d="M522 622v-95h-334v-249q0 -36 11.5 -49t39.5 -13t53.5 10t45.5 27q43 33 43 77q0 16 -10.5 26t-35.5 10q-11 0 -21 -1t-18 -2l-13 89q17 4 38.5 6.5t45.5 2.5q55 0 90 -27.5t35 -85.5q0 -53 -24.5 -94.5t-65.5 -72.5q-78 -59 -179 -59q-37 0 -64 9t-43 24
q-16 16 -27.5 41t-11.5 85v246h-87v95h532zM252 -66q-29 0 -48.5 19t-19.5 49t19.5 50t48.5 20t48.5 -20t19.5 -50t-19.5 -49t-48.5 -19z" />
    <glyph glyph-name="nnanuktahalfbeng" horiz-adv-x="634" 
d="M644 622v-95h-99v-527h-111v393q-51 63 -101.5 100.5t-103.5 37.5q-36 0 -57.5 -20.5t-21.5 -54.5q0 -39 28.5 -62.5t107.5 -27.5l-11 -113q-119 13 -180 65.5t-61 138.5q0 53 24 92t64.5 59.5t89.5 20.5q71 0 123.5 -32t100.5 -82q-1 18 -1.5 38t-0.5 38v97h87l23 -66
h100zM487 -14l270 -179l-52 -77l-275 173zM241 -9q-29 0 -48.5 19t-19.5 49t19.5 50t48.5 20t48.5 -20t19.5 -50t-19.5 -49t-48.5 -19z" />
    <glyph glyph-name="tanuktahalfbeng" horiz-adv-x="723" 
d="M733 622v-95h-743v95h743zM421 39q-89 0 -164.5 38t-135 126.5t-100.5 238.5l106 30q49 -172 114.5 -252t169.5 -80q83 0 120 35.5t37 95.5q0 55 -30 88t-73 33q-62 0 -62 -54q0 -10 1.5 -21.5t6.5 -22.5l-107 -17q-16 41 -16 76q0 46 23 75t61 43t84 14q70 0 120 -28.5
t77 -79t27 -115.5q0 -60 -27 -111t-84.5 -81.5t-147.5 -30.5zM542 -14l270 -179l-52 -77l-275 173zM350 -173q-29 0 -48.5 19t-19.5 49t19.5 50t48.5 20t48.5 -20t19.5 -50t-19.5 -49t-48.5 -19z" />
    <glyph glyph-name="thanuktahalfbeng" horiz-adv-x="690" 
d="M221 625q71 0 116.5 -23.5t67.5 -62t22 -83.5q0 -67 -44.5 -114.5t-124.5 -69.5q87 -25 140.5 -64t93.5 -80q-2 22 -2 45.5v50.5v464h87l23 -66h100v-95h-99v-527h-111q-66 84 -151.5 138t-211.5 76l-28 107q118 17 167 50t49 83q0 34 -23.5 56t-70.5 22q-39 0 -56 -15
t-17 -31q0 -26 31 -45l-67 -74q-28 17 -51.5 46t-23.5 75q0 56 46.5 96.5t137.5 40.5zM543 -14l270 -179l-52 -77l-275 173zM224 -9q-29 0 -48.5 19t-19.5 49t19.5 50t48.5 20t48.5 -20t19.5 -50t-19.5 -49t-48.5 -19z" />
    <glyph glyph-name="danuktahalfbeng" horiz-adv-x="625" 
d="M635 622v-95h-446v-242q55 54 131 101t167 83l81 -71q-46 -83 -46 -194q0 -43 8 -90.5t26 -99.5l-109 -23q-18 55 -27.5 107t-9.5 111q0 35 5.5 67.5t14.5 60.5q-71 -38 -137 -89t-125 -109l-90 59v329h-88v95h645zM476 -14l270 -179l-52 -77l-275 173zM279 -130
q-29 0 -48.5 19t-19.5 49t19.5 50t48.5 20t48.5 -20t19.5 -50t-19.5 -49t-48.5 -19z" />
    <glyph glyph-name="dhanuktahalfbeng" horiz-adv-x="617" 
d="M238 629q14 0 29 -1.5t30 -3.5l-8 -90q-5 1 -12 1.5t-18 0.5q-28 0 -41 -11t-13 -28q0 -35 47 -56q41 17 82 31.5t82 27.5v122h211v-95h-100v-527h-111q-52 84 -142.5 141.5t-203.5 76.5l-46 110q33 19 67.5 37t69.5 35q-30 23 -47 50.5t-17 63.5q0 28 13.5 54t44.5 43.5
t83 17.5zM164 288q42 -9 88 -29t89.5 -51t76.5 -72q-1 16 -1.5 33.5t-0.5 38.5v188q-64 -21 -127 -48t-125 -60zM469 -14l270 -179l-52 -77l-275 173zM176 -9q-29 0 -48.5 19t-19.5 49t19.5 50t48.5 20t48.5 -20t19.5 -50t-19.5 -49t-48.5 -19z" />
    <glyph glyph-name="nanuktahalfbeng" horiz-adv-x="623" 
d="M633 622v-95h-100v-527h-111v193q-46 54 -98 91.5t-102 37.5q-30 0 -50.5 -14.5t-20.5 -44.5q0 -46 74 -75l-51 -96q-65 26 -102 72.5t-37 102.5q0 52 24.5 85.5t63 50t79.5 16.5q65 0 119 -27.5t102 -75.5q-1 17 -1 33.5v32.5v145h-432v95h643zM475 -14l270 -179
l-52 -77l-275 173zM230 -110q-29 0 -48.5 19t-19.5 49t19.5 50t48.5 20t48.5 -20t19.5 -50t-19.5 -49t-48.5 -19z" />
    <glyph glyph-name="panuktahalfbeng" horiz-adv-x="747" 
d="M757 622v-95h-100v-527h-111v354q-25 33 -46 59l-257 -237l-78 74l28 26q10 13 16 28t6 31q0 24 -14 36.5t-37 12.5q-27 0 -57 -18l-91 84q65 82 130 130.5t149 48.5q75 0 132.5 -38t121.5 -108q-1 17 -2 37t-1 40v128h87l23 -66h101zM297 365v-6q12 12 24.5 23.5
t24.5 23.5l85 76q-64 51 -131 51q-51 0 -89 -23.5t-71 -60.5q12 6 26 9t30 3q52 0 76.5 -29t24.5 -67zM599 -14l270 -179l-52 -77l-275 173zM255 -22q-29 0 -48.5 19t-19.5 49t19.5 50t48.5 20t48.5 -20t19.5 -50t-19.5 -49t-48.5 -19z" />
    <glyph glyph-name="phanuktahalfbeng" horiz-adv-x="867" 
d="M877 622v-95h-703q50 -17 94 -46t74 -58l9 -76q-43 -18 -89.5 -40t-85.5 -44q74 -16 144.5 -51.5t122.5 -90.5q-1 17 -1.5 34t-0.5 35v304h34q95 0 168 -19.5t128 -72.5q59 -54 59 -133q0 -33 -13.5 -63t-45.5 -48.5t-87 -18.5q-19 0 -35.5 1t-31.5 4l5 96q5 -1 13 -1.5
t20 -0.5q41 0 53 14.5t12 36.5q0 37 -41.5 68t-125.5 38v-395h-112q-60 77 -147 122.5t-214 64.5l-43 105q43 27 93.5 54t100.5 51q-41 25 -89.5 45t-109.5 31l24 54h-66v95h887zM175 -19q-29 0 -48.5 19t-19.5 49t19.5 50t48.5 20t48.5 -20t19.5 -50t-19.5 -49t-48.5 -19z
M497 -14l270 -179l-52 -77l-275 173z" />
    <glyph glyph-name="banuktahalfbeng" horiz-adv-x="617" 
d="M627 622v-95h-100v-527h-111q-52 84 -142.5 141.5t-203.5 76.5l-46 110q89 51 190.5 96.5t203.5 75.5v27h-428v95h637zM164 288q42 -9 88 -29t89.5 -51t76.5 -72q-1 16 -1.5 32t-0.5 33v195q-64 -21 -127 -48t-125 -60zM469 -14l270 -179l-52 -77l-275 173zM176 -9
q-29 0 -48.5 19t-19.5 49t19.5 50t48.5 20t48.5 -20t19.5 -50t-19.5 -49t-48.5 -19z" />
    <glyph glyph-name="bhanuktahalfbeng" horiz-adv-x="739" 
d="M749 622v-95h-759v95h759zM434 34q-91 0 -168.5 36.5t-139.5 125.5t-105 246l106 29q35 -125 78.5 -198.5t98 -105.5t123.5 -32q75 0 116.5 34.5t41.5 95.5q0 22 -4.5 41t-11.5 35q-36 -36 -77.5 -55t-93.5 -19q-66 0 -104 31.5t-38 87.5q0 24 6.5 46.5t14.5 39.5
l104 -27q-13 -21 -13 -42q0 -22 12.5 -31.5t32.5 -9.5q29 0 55 16.5t61 70.5l93 15q73 -102 73 -210q0 -62 -29.5 -112t-87.5 -79t-144 -29zM511 -14l270 -179l-52 -77l-275 173zM324 -164q-29 0 -48.5 19t-19.5 49t19.5 50t48.5 20t48.5 -20t19.5 -50t-19.5 -49t-48.5 -19z
" />
    </font>
</defs>
</svg>
