<?xml version="1.0" standalone="no"?>
<!DOCTYPE svg PUBLIC "-//W3C//DTD SVG 1.1//EN" "http://www.w3.org/Graphics/SVG/1.1/DTD/svg11.dtd" >
<svg xmlns="http://www.w3.org/2000/svg" xmlns:xlink="http://www.w3.org/1999/xlink" version="1.1">
<metadata>
Created by FontForge 20170731 at Wed Sep 20 00:59:39 2017
 By Aleksey,,,
Copyright 2017 Google Inc. All Rights Reserved.
</metadata>
<defs>
<font id="NotoSansBengaliUI-Bold" horiz-adv-x="0" >
  <font-face 
    font-family="Noto Sans Bengali UI"
    font-weight="700"
    font-stretch="normal"
    units-per-em="1000"
    panose-1="2 11 8 2 4 5 4 2 2 4"
    ascent="800"
    descent="-200"
    bbox="-742 -271 1651 917"
    underline-thickness="50"
    underline-position="-175"
    unicode-range="U+000D-25CC"
  />
<missing-glyph horiz-adv-x="600" 
d="M94 0v714h411v-714h-411zM145 51h309v612h-309v-612z" />
    <glyph glyph-name=".notdef" horiz-adv-x="600" 
d="M94 0v714h411v-714h-411zM145 51h309v612h-309v-612z" />
    <glyph glyph-name=".null" 
 />
    <glyph glyph-name="nonmarkingreturn" horiz-adv-x="333" 
 />
    <glyph glyph-name="NULL" 
 />
    <glyph glyph-name="NULL" 
 />
    <glyph glyph-name="CR" unicode="&#xd;" horiz-adv-x="260" 
 />
    <glyph glyph-name="space" unicode=" " horiz-adv-x="260" 
 />
    <glyph glyph-name="exclam.beng" unicode="!" horiz-adv-x="403" 
d="M159 237l-25 477h169l-25 -477h-119zM132 70q0 46 25 64.5t61 18.5q34 0 59.5 -18.5t25.5 -64.5q0 -44 -25.5 -63.5t-59.5 -19.5q-36 0 -61 19.5t-25 63.5z" />
    <glyph glyph-name="quotedbl.beng" unicode="&#x22;" horiz-adv-x="546" 
d="M129 472l-20 257h136l-20 -257h-96zM335 472l-20 257h136l-20 -257h-96z" />
    <glyph glyph-name="numbersign.beng" unicode="#" horiz-adv-x="666" 
d="M148 161h-109v100h128l23 114h-116v102h134l29 155h107l-29 -155h97l29 155h105l-29 -155h110v-102h-129l-23 -114h119v-100h-138l-31 -161h-107l31 161h-95l-30 -161h-105zM369 261l23 114h-96l-23 -114h96z" />
    <glyph glyph-name="percent.beng" unicode="%" horiz-adv-x="899" 
d="M208 271q-82 0 -125 47.5t-43 133.5t40 133t128 47q84 0 127.5 -47t43.5 -133t-41 -133.5t-130 -47.5zM588 622h112l-391 -622h-112zM209 372q52 0 52 79t-52 79q-51 0 -51 -79t51 -79zM689 -9q-83 0 -125.5 48t-42.5 133q0 86 40 133.5t128 47.5q84 0 127.5 -47.5
t43.5 -133.5q0 -85 -41 -133t-130 -48zM689 92q52 0 52 79t-52 79q-51 0 -51 -79t51 -79z" />
    <glyph glyph-name="quotesingle.beng" unicode="'" horiz-adv-x="340" 
d="M129 471l-20 258h136l-20 -258h-96z" />
    <glyph glyph-name="parenleft.beng" unicode="(" horiz-adv-x="456" 
d="M253 -125q-71 96 -109 214.5t-38 239.5q0 128 38 247.5t109 215.5h122q-70 -100 -104.5 -220t-34.5 -242q0 -117 34.5 -235.5t103.5 -219.5h-121z" />
    <glyph glyph-name="parenright.beng" unicode=")" horiz-adv-x="456" 
d="M81 -125q70 101 104.5 220t34.5 241t-35 240t-103 216h121q71 -96 109 -214t38 -240q0 -128 -38 -247.5t-109 -215.5h-122z" />
    <glyph glyph-name="asterisk.beng" unicode="*" horiz-adv-x="607" 
d="M124 336l107 145l-165 13l19 122l179 -51l-20 180h128l-20 -180l182 51l16 -123l-166 -12l109 -145l-111 -59l-76 153l-67 -152z" />
    <glyph glyph-name="plus.beng" unicode="+" horiz-adv-x="621" 
d="M257 270h-187v106h187v189h107v-189h187v-106h-187v-186h-107v186z" />
    <glyph glyph-name="comma.beng" unicode="," horiz-adv-x="304" 
d="M231 141l7 -12q-14 -57 -37.5 -123.5t-48.5 -124.5h-107q15 63 28.5 134t20.5 126h137z" />
    <glyph glyph-name="hyphen.beng" unicode="-" horiz-adv-x="366" 
d="M52 358h262v-122h-262v122z" />
    <glyph glyph-name="period.beng" unicode="." horiz-adv-x="285" 
d="M57 70q0 46 25 64.5t61 18.5q35 0 60 -18.5t25 -64.5q0 -44 -25 -63.5t-60 -19.5q-36 0 -61 19.5t-25 63.5z" />
    <glyph glyph-name="slash.beng" unicode="/" horiz-adv-x="512" 
d="M329 793h128l-274 -918h-128z" />
    <glyph glyph-name="zero.beng" unicode="0" horiz-adv-x="551" 
d="M275 -10q-124 0 -184 97t-60 270q0 115 24.5 197.5t78 126.5t141.5 44q123 0 184 -97t61 -271q0 -115 -24.5 -197t-78.5 -126t-142 -44zM275 112q51 0 73 61t22 184t-22 184.5t-73 61.5q-52 0 -73 -62t-21 -184t21 -183.5t73 -61.5z" />
    <glyph glyph-name="one.beng" unicode="1" horiz-adv-x="551" 
d="M248 0v413q0 25 1.5 67.5t2.5 74.5q-4 -6 -21 -22t-31 -27l-82 -66l-73 91l230 183h124v-714h-151z" />
    <glyph glyph-name="two.beng" unicode="2" horiz-adv-x="551" 
d="M40 105l168 181q46 50 77.5 88t47.5 73t16 75q0 36 -21.5 56t-58.5 20q-38 0 -74 -19t-75 -54l-82 97q29 26 62.5 49.5t76.5 38t101 14.5q102 0 161.5 -54.5t59.5 -146.5q0 -55 -25.5 -105.5t-67.5 -99t-92 -98.5l-86 -86v-7h291v-127h-479v105z" />
    <glyph glyph-name="three.beng" unicode="3" horiz-adv-x="551" 
d="M231 -10q-115 0 -203 39v128q44 -23 95 -35t93 -12q83 0 114 30t31 77q0 43 -38.5 69.5t-133.5 26.5h-51v106h50q60 0 94 14t47.5 37t13.5 51q0 38 -23.5 59.5t-75.5 21.5q-46 0 -81 -16t-58 -33l-76 101q41 30 97.5 50t130.5 20q106 0 170 -44.5t64 -125.5
q0 -74 -44.5 -118.5t-109.5 -59.5v-3q175 -21 175 -165q0 -62 -30.5 -111.5t-92.5 -78t-158 -28.5z" />
    <glyph glyph-name="four.beng" unicode="4" horiz-adv-x="551" 
d="M297 148h-295v105l303 461h139v-449h86v-117h-86v-148h-147v148zM297 265v121q0 9 1 30.5t2 46t2 45t1 27.5h-4q-9 -20 -20 -43t-25 -46l-119 -181h162z" />
    <glyph glyph-name="five.beng" unicode="5" horiz-adv-x="551" 
d="M231 -10q-54 0 -104 9.5t-85 29.5v130q34 -19 86 -32.5t95 -13.5q66 0 100 27t34 86q0 108 -137 108q-25 0 -55 -5t-49 -11l-60 32l27 364h377v-128h-246l-12 -140q16 4 39 7t51 3q62 0 111 -25t77.5 -73t28.5 -119q0 -116 -71.5 -182.5t-206.5 -66.5z" />
    <glyph glyph-name="six.beng" unicode="6" horiz-adv-x="551" 
d="M288 -10q-70 0 -127 33.5t-90.5 103t-33.5 176.5q0 61 8.5 121.5t30.5 114t60.5 95t98 65t144.5 23.5q20 0 46.5 -1.5t45.5 -5.5v-121q-19 4 -39.5 7t-41.5 3q-88 0 -135.5 -28t-66.5 -78.5t-22 -116.5h6q20 35 56 59t94 24q93 0 146 -59t53 -167q0 -116 -63 -182
t-170 -66zM285 111q40 0 65 30.5t25 94.5q0 52 -22 82t-66 30q-30 0 -52.5 -15t-35 -37.5t-12.5 -46.5q0 -33 11 -65t32.5 -52.5t54.5 -20.5z" />
    <glyph glyph-name="seven.beng" unicode="7" horiz-adv-x="551" 
d="M355 586h-328v127h492v-95l-260 -618h-158z" />
    <glyph glyph-name="eight.beng" unicode="8" horiz-adv-x="551" 
d="M276 -10q-116 0 -178.5 51t-62.5 140q0 73 40 118.5t97 73.5q-48 31 -81.5 73t-33.5 106q0 56 30.5 94.5t80.5 57.5t108 19q59 0 108.5 -19t79.5 -57.5t30 -95.5q0 -65 -36.5 -105.5t-91.5 -68.5q38 -21 72.5 -47t56 -62t21.5 -83q0 -59 -30.5 -103t-84.5 -68t-125 -24z
M276 440q30 15 53 38t23 62q0 34 -22 53.5t-55 19.5q-32 0 -54 -19.5t-22 -53.5q0 -41 22.5 -62t54.5 -38zM274 101q51 0 76.5 24t25.5 64q0 41 -31.5 68t-74.5 54q-43 -22 -69 -51t-26 -70q0 -39 25 -64t74 -25z" />
    <glyph glyph-name="nine.beng" unicode="9" horiz-adv-x="551" 
d="M173 -10q-20 0 -47 1.5t-45 5.5v121q18 -4 39 -7t42 -3q88 0 135.5 28.5t66.5 79t22 115.5h-6q-20 -35 -56 -59t-94 -24q-93 0 -146 59t-53 167q0 116 63 182t170 66q70 0 127 -33.5t90.5 -103t33.5 -176.5q0 -61 -8.5 -121.5t-30 -114t-60 -95t-98.5 -65t-145 -23.5z
M265 364q31 0 53 15t34.5 37.5t12.5 46.5q0 33 -11 65t-32.5 52.5t-54.5 20.5q-40 0 -65 -30t-25 -95q0 -52 22 -82t66 -30z" />
    <glyph glyph-name="colon.beng" unicode=":" horiz-adv-x="324" 
d="M162 390q-36 0 -61 19.5t-25 63.5q0 46 25 64.5t61 18.5q34 0 59.5 -18.5t25.5 -64.5q0 -44 -25.5 -63.5t-59.5 -19.5zM162 -13q-36 0 -61 19.5t-25 63.5q0 46 25 64.5t61 18.5q34 0 59.5 -18.5t25.5 -64.5q0 -44 -25.5 -63.5t-59.5 -19.5z" />
    <glyph glyph-name="semicolon.beng" unicode=";" horiz-adv-x="324" 
d="M162 390q-36 0 -61 19.5t-25 63.5q0 46 25 64.5t61 18.5q34 0 59.5 -18.5t25.5 -64.5q0 -44 -25.5 -63.5t-59.5 -19.5zM236 141l7 -12q-13 -57 -37 -123.5t-49 -124.5h-107q15 63 28.5 134t20.5 126h137z" />
    <glyph glyph-name="less.beng" unicode="&#x3c;" horiz-adv-x="621" 
d="M70 289v70l481 234v-117l-330 -152l330 -152v-117z" />
    <glyph glyph-name="equal.beng" unicode="=" horiz-adv-x="621" 
d="M70 471h481v-106h-481v106zM70 281h481v-106h-481v106z" />
    <glyph glyph-name="greater.beng" unicode="&#x3e;" horiz-adv-x="621" 
d="M70 172l330 152l-330 152v117l481 -234v-70l-481 -234v117z" />
    <glyph glyph-name="question.beng" unicode="?" horiz-adv-x="544" 
d="M179 237v36q0 49 20.5 83.5t67.5 71.5q41 32 57.5 54t16.5 58q0 28 -19 46t-57 18q-34 0 -73 -14t-80 -35l-50 108q42 25 97 43t108 18q100 0 157.5 -47t57.5 -130q0 -41 -12 -71t-36 -56t-60 -54q-28 -22 -42 -36t-19 -28.5t-5 -35.5v-29h-129zM249 -13q-36 0 -61 19.5
t-25 63.5q0 46 25 64.5t61 18.5q35 0 60 -18.5t25 -64.5q0 -44 -25 -63.5t-60 -19.5z" />
    <glyph glyph-name="bracketleft.beng" unicode="[" horiz-adv-x="452" 
d="M134 792h237v-103h-110v-711h110v-103h-237v917z" />
    <glyph glyph-name="backslash.beng" unicode="\" horiz-adv-x="512" 
d="M55 793h128l274 -918h-128z" />
    <glyph glyph-name="bracketright.beng" unicode="]" horiz-adv-x="452" 
d="M77 -22h109v711h-109v103h236v-917h-236v103z" />
    <glyph glyph-name="asciicircum.beng" unicode="^" horiz-adv-x="621" 
d="M274 718h72l227 -464h-117l-146 314l-148 -314h-115z" />
    <glyph glyph-name="underscore.beng" unicode="_" horiz-adv-x="411" 
d="M-2 -90h415v-68h-415v68z" />
    <glyph glyph-name="braceleft.beng" unicode="{" horiz-adv-x="501" 
d="M81 391q61 0 93 23t32 78v141q0 56 18 91t64 51.5t132 16.5v-110q-40 -2 -63.5 -17t-23.5 -65v-135q0 -108 -112 -129v-6q112 -20 112 -129v-133q0 -50 23.5 -65.5t63.5 -16.5v-111q-86 0 -132 16.5t-64 51.5t-18 91v138q0 56 -32 79t-93 23v117z" />
    <glyph glyph-name="bar.beng" unicode="|" horiz-adv-x="540" 
d="M216 792h107v-917h-107v917z" />
    <glyph glyph-name="braceright.beng" unicode="}" horiz-adv-x="501" 
d="M420 275q-61 0 -94.5 -23t-33.5 -78v-140q0 -56 -17 -91t-63 -51.5t-131 -16.5v110q40 1 62 17t22 65v134q0 54 29.5 86.5t85.5 42.5v6q-115 20 -115 129v134q0 49 -22 65t-62 17v111q85 0 131 -16.5t63 -51.5t17 -91v-139q0 -56 33 -79t95 -23v-117z" />
    <glyph glyph-name="asciitilde.beng" unicode="~" horiz-adv-x="621" 
d="M78 353q50 53 125 53q19 0 36 -2.5t37.5 -9t51.5 -19.5q37 -16 58 -21.5t43 -5.5q29 0 59 17t55 42v-113q-49 -53 -125 -53q-20 0 -36.5 2t-37 8.5t-51.5 19.5q-37 16 -58 22t-43 6q-28 0 -58 -17.5t-56 -41.5v113z" />
    <glyph glyph-name="uni00A0.beng" unicode="&#xa0;" horiz-adv-x="260" 
 />
    <glyph glyph-name="sfthyphen.beng" unicode="&#xad;" horiz-adv-x="366" 
d="M52 358h262v-122h-262v122z" />
    <glyph glyph-name="multiply.beng" unicode="&#xd7;" horiz-adv-x="621" 
d="M309 249l-147 -146l-73 74l145 147l-146 147l74 75l147 -146l149 146l75 -73l-149 -149l147 -148l-73 -74z" />
    <glyph glyph-name="divide.beng" unicode="&#xf7;" horiz-adv-x="621" 
d="M310 420q-28 0 -48 17t-20 57t20 57t48 17q27 0 47.5 -17t20.5 -57t-20.5 -57t-47.5 -17zM70 376h481v-106h-481v106zM310 79q-28 0 -48 17t-20 57q0 41 20 57.5t48 16.5q27 0 47.5 -16.5t20.5 -57.5q0 -40 -20.5 -57t-47.5 -17z" />
    <glyph glyph-name="uni02BC" unicode="&#x2bc;" horiz-adv-x="335" 
d="M274 729l7 -11q-13 -53 -37 -116t-49 -118h-107q14 59 28 126.5t21 118.5h137z" />
    <glyph glyph-name="uni0951" unicode="&#x951;" 
d="M-205 917v-294h-100v294h100z" />
    <glyph glyph-name="uni0952" unicode="&#x952;" 
d="M-461 -198v91h411v-91h-411z" />
    <glyph glyph-name="dandadeva" unicode="&#x964;" horiz-adv-x="398" 
d="M178 0v622h134v-622h-134z" />
    <glyph glyph-name="dbldandadeva" unicode="&#x965;" horiz-adv-x="638" 
d="M417 0v622h134v-622h-134zM178 0v622h134v-622h-134z" />
    <glyph glyph-name="uni0980" unicode="&#x980;" horiz-adv-x="586" 
d="M350 264q-22 -4 -45.5 -7t-46.5 -3q-110 0 -161 47t-51 130q0 68 35 119.5t95 80t135 28.5q41 0 75.5 -9t58.5 -29t37.5 -49t13.5 -90v-336q0 -42 13 -57t60 -16l-13 -122q-66 3 -109 13.5t-64 44t-21 106.5v341q0 34 -3 50t-13 26q-15 16 -49 16q-33 0 -58.5 -15
t-40.5 -40t-15 -54q0 -42 23 -57t62 -15q34 0 62 9z" />
    <glyph glyph-name="candrabindubeng" unicode="&#x981;" 
d="M-99 841q0 -23 -15.5 -36t-37.5 -13q-27 0 -41 14t-14 38q0 18 13 32t40 14q55 0 55 -49zM56 876q-6 -58 -28 -103.5t-65.5 -71.5t-111.5 -26q-69 0 -114 26t-69 71.5t-29 102.5l107 11q5 -57 27.5 -89t73.5 -32q90 0 101 122z" />
    <glyph glyph-name="anusvarabeng" unicode="&#x982;" horiz-adv-x="438" 
d="M64 474q0 44 20.5 77t55.5 52t79 19t79 -19t55.5 -52t20.5 -77t-20.5 -77.5t-55.5 -52.5t-79 -19t-79 18.5t-55.5 52.5t-20.5 78zM165 474q0 -24 15.5 -39.5t38.5 -15.5t38.5 15.5t15.5 39.5q0 23 -15.5 38.5t-38.5 15.5t-38.5 -15.5t-15.5 -38.5zM142 318
q96 -58 169 -139t126 -173l-100 -53q-37 53 -76 99t-87.5 88t-112.5 80z" />
    <glyph glyph-name="visargabeng" unicode="&#x983;" horiz-adv-x="438" 
d="M64 474q0 44 20.5 77t55.5 52t79 19t79 -19t55.5 -52t20.5 -77t-20.5 -77.5t-55.5 -52.5t-79 -19t-79 18.5t-55.5 52.5t-20.5 78zM165 474q0 -24 15.5 -39.5t38.5 -15.5t38.5 15.5t15.5 39.5q0 23 -15.5 38.5t-38.5 15.5t-38.5 -15.5t-15.5 -38.5zM64 149q0 43 20.5 76.5
t55.5 52.5t79 19t79 -19t55.5 -52.5t20.5 -76.5q0 -44 -20.5 -77.5t-55.5 -52.5t-79 -19t-79 18.5t-55.5 52t-20.5 78.5zM165 149q0 -24 15.5 -39.5t38.5 -15.5t38.5 15.5t15.5 39.5q0 23 -15.5 38.5t-38.5 15.5t-38.5 -15.5t-15.5 -38.5z" />
    <glyph glyph-name="abeng" unicode="&#x985;" horiz-adv-x="960" 
d="M398 82q-82 0 -153.5 32t-129 108t-100.5 206l125 35q32 -93 67 -152t80 -86.5t105 -27.5q70 0 104 27t34 74q0 38 -20.5 59.5t-52.5 21.5q-23 0 -34.5 -11t-11.5 -29q0 -16 7 -35l-124 -18q-8 19 -12 36.5t-4 31.5q0 36 13.5 61t35.5 41q-17 37 -67 56h-270v110h980
v-110h-96v-512h-132q-24 44 -64.5 78.5t-81.5 59.5q-32 -26 -81 -41t-117 -15zM662 283q0 -32 -9 -61q57 -38 92 -76q-3 32 -3 71v295h-316q13 -12 22 -26q67 -2 114.5 -29t73.5 -72t26 -102z" />
    <glyph glyph-name="aabeng" unicode="&#x986;" horiz-adv-x="1264" 
d="M398 82q-82 0 -153.5 32t-129 108t-100.5 206l125 35q32 -93 67 -152t80 -86.5t105 -27.5q70 0 104 27t34 74q0 38 -20.5 59.5t-52.5 21.5q-23 0 -34.5 -11t-11.5 -29q0 -16 7 -35l-124 -18q-8 19 -12 36.5t-4 31.5q0 36 13.5 61t35.5 41q-17 37 -67 56h-270v110h985
q20 0 39.5 -14t35.5 -49q-2 5 -3 23t-1 31v75h108l23 -66h97v-110h-96v-512h-132v444q-16 37 -34 52.5t-44 15.5h-94v-512h-132q-24 44 -64.5 78.5t-81.5 59.5q-32 -26 -81 -41t-117 -15zM662 283q0 -32 -9 -61q57 -38 92 -76q-3 32 -3 71v295h-316q13 -12 22 -26
q67 -2 114.5 -29t73.5 -72t26 -102z" />
    <glyph glyph-name="ibeng" unicode="&#x987;" horiz-adv-x="574" 
d="M263 485q92 0 146.5 -27.5t78.5 -69.5t24 -86q0 -67 -35 -108t-100 -62q53 -19 105 -46.5t102 -62.5l-70 -93q-94 68 -210 116t-258 70l22 105q34 -9 68 -14t68 -5q95 0 135 27t40 72q0 36 -27.5 58t-77.5 22q-44 0 -61.5 -11.5t-17.5 -34.5q0 -12 6 -24l-124 -18
q-6 15 -10 34.5t-4 36.5q0 64 71 97q-19 34 -65 51h-79v110h364q-2 31 -17 44.5t-52 13.5h-59q-76 0 -123.5 14.5t-74.5 44.5q-36 40 -36 115q0 15 1 27.5t4 30.5l125 -8q-1 -9 -1.5 -16t-0.5 -13q0 -21 4.5 -38t15.5 -27q10 -10 27.5 -15t55.5 -5h63q59 0 93.5 -9t58.5 -32
q19 -19 29.5 -50t11.5 -77h104v-110h-347q13 -12 22 -27h5z" />
    <glyph glyph-name="iibeng" unicode="&#x988;" horiz-adv-x="721" 
d="M219 65q-53 0 -90.5 28.5t-70.5 84.5l92 56q19 -30 32.5 -41.5t30.5 -11.5q16 0 29.5 9t27.5 25q27 29 27 68q0 23 -9.5 45t-27.5 36.5t-44 14.5q-21 0 -32.5 -10.5t-11.5 -26.5q0 -14 6 -31l-123 -18q-7 17 -10 36.5t-3 37.5q0 39 22 64t54 38q-19 28 -60 43h-68v110
h495q-1 31 -16 44.5t-53 13.5h-142q-76 0 -123.5 14.5t-74.5 44.5q-36 40 -36 115q0 15 1 27.5t4 30.5l125 -8q-1 -9 -1.5 -16t-0.5 -13q0 -21 4.5 -38t15.5 -27q10 -10 27.5 -15t55.5 -5h146q59 0 93.5 -9t58.5 -32q19 -19 29 -50t12 -77h121v-110h-507q17 -14 26 -32
q56 -10 94.5 -42.5t55.5 -77.5q32 30 72.5 57t87.5 47l102 -100q-22 -37 -32 -79.5t-10 -91.5q0 -37 8 -81.5t25 -95.5l-130 -27q-36 111 -36 208q0 59 18 113q-28 -21 -55 -49.5t-54 -68.5q-32 -48 -58.5 -76t-54 -39.5t-64.5 -11.5z" />
    <glyph glyph-name="ubeng" unicode="&#x989;" horiz-adv-x="741" 
d="M509 622q-1 31 -16 44.5t-53 13.5h-142q-76 0 -123.5 14.5t-74.5 44.5q-36 40 -36 115q0 15 1 27.5t4 30.5l125 -8q-1 -9 -1.5 -16t-0.5 -13q0 -21 4.5 -38t15.5 -27q10 -10 27.5 -15t55.5 -5h146q59 0 93.5 -9t58.5 -32q19 -19 29 -50t12 -77h117v-110h-348v-129
q0 -15 5 -25.5t21 -10.5q19 0 42.5 21t47.5 55l117 22q34 -49 51 -98.5t17 -106.5q0 -63 -30.5 -112.5t-91 -78.5t-149.5 -29q-66 0 -127 19t-114.5 64.5t-98 125t-77.5 199.5l125 35q33 -119 75 -191.5t93 -105t113 -32.5q72 0 111.5 32t39.5 91q0 26 -7 48
q-39 -36 -79.5 -52.5t-82.5 -16.5q-66 0 -99 38q-17 19 -25.5 49t-8.5 77v112h-281v110h519z" />
    <glyph glyph-name="uubeng" unicode="&#x98a;" horiz-adv-x="879" 
d="M647 622q-1 31 -16 44.5t-53 13.5h-171q-76 0 -123.5 14.5t-74.5 44.5q-36 40 -36 115q0 15 1 27.5t4 30.5l125 -8q-1 -9 -1.5 -16t-0.5 -13q0 -21 4.5 -38t15.5 -27t28 -15t55 -5h175q59 0 93.5 -9t58.5 -32q19 -19 29 -50t12 -77h117v-110h-341v-129q0 -15 5 -25.5
t21 -10.5q20 0 43 21t47 55l111 22q34 -49 51 -98t17 -107q0 -61 -29 -111t-93.5 -79.5t-170.5 -29.5q-126 0 -226 35t-176.5 117t-131.5 223l112 38q42 -120 96 -189t110 -108l3 3q-42 46 -81.5 112.5t-65.5 151.5l114 35q32 -122 71 -188t88 -91t109 -25q68 0 104 34
t36 92q0 23 -6 42q-37 -34 -78 -50t-79 -16q-66 0 -99 38q-17 19 -25.5 49t-8.5 77v112h-426v110h657z" />
    <glyph glyph-name="rvocalicbeng" unicode="&#x98b;" horiz-adv-x="932" 
d="M191 421q-67 0 -107 32.5t-40 89.5q0 24 6 45.5t15 39.5l118 -28q-9 -18 -9 -34q0 -18 11 -26t28 -8q22 0 46.5 14.5t49.5 56.5l99 22q19 -26 43.5 -66t40.5 -80v209h108l24 -66v-329q25 -15 49 -33.5t45 -40.5q-1 25 -1 54v415h108l24 -66v-548h-132q-39 56 -93 97v-171
h-132q-28 40 -74 79.5t-108 70t-136 44.5l-50 118q60 34 130 65.5t142 59.5q-15 28 -36 55q-37 -36 -77 -53.5t-92 -17.5zM492 356q-58 -19 -106 -39t-103 -49q55 -12 113.5 -46t99.5 -77q-2 16 -3 35t-1 44v132z" />
    <glyph glyph-name="lvocalicbeng" unicode="&#x98c;" horiz-adv-x="652" 
d="M208 330q82 0 131.5 -39.5t49.5 -98.5q0 -40 -15 -73q55 15 81 44.5t26 68.5q0 37 -18 64.5t-68 51.5t-145 52q-82 24 -126.5 50.5t-62 58t-17.5 72.5q0 31 20 66.5t57 67.5l90 -65q-18 -21 -25 -32.5t-7 -25.5q0 -15 11.5 -27.5t48.5 -27.5t116 -38q87 -25 139.5 -56.5
t79 -66t35.5 -70t9 -69.5q0 -67 -32.5 -112.5t-89 -73t-130.5 -39.5t-156 -12h-21l-22 107q51 8 73.5 25t22.5 41q0 23 -14 36.5t-41 13.5q-23 0 -33.5 -10.5t-10.5 -26.5q0 -14 6 -28l-122 -26q-7 19 -11 36.5t-4 36.5q0 60 46 92.5t129 32.5z" />
    <glyph glyph-name="ebeng" unicode="&#x98f;" horiz-adv-x="797" 
d="M533 628q48 0 78.5 -9.5t53.5 -27.5q20 -17 33.5 -45t13.5 -84v-462h-130q-16 36 -40 51.5t-71 15.5q-37 0 -68 -4t-62 -7.5t-69 -3.5q-43 0 -85.5 7.5t-77.5 30t-56.5 66t-21.5 115.5q0 25 3.5 54t8.5 52l129 -17q-4 -14 -7 -34t-3 -49q0 -49 18.5 -73t48 -31t62.5 -7
q47 0 86 7t77 7q40 0 68 -10t58 -40v305q0 31 -4 45.5t-13 23.5q-14 14 -43 14q-27 0 -50.5 -12.5t-41.5 -31.5t-28.5 -38t-10.5 -32q0 -14 9 -23t41 -9q11 0 19 1t18 2l6 -107q-13 -4 -32 -7t-47 -3q-61 0 -102.5 31t-41.5 97q0 41 21 83.5t59 78.5t87.5 58t106.5 22z" />
    <glyph glyph-name="aibeng" unicode="&#x990;" horiz-adv-x="919" 
d="M533 628q48 0 78.5 -9.5t53.5 -27.5q17 -14 29.5 -36t16.5 -61q17 13 28 32t11 45q0 25 -10.5 42.5t-28.5 29.5q-20 13 -47.5 21t-59.5 12l-122 16q-98 13 -139 53.5t-41 120.5q0 28 7 51l127 -6q-3 -15 -3 -33q0 -34 18 -51q11 -10 28.5 -15t41.5 -8l124 -16
q72 -10 116.5 -28t70.5 -46q50 -52 50 -133q0 -55 -23 -96.5t-61.5 -72.5t-85.5 -55v-357h-130q-16 36 -40 51.5t-71 15.5q-37 0 -68 -4t-62 -7.5t-69 -3.5q-43 0 -85.5 7.5t-77.5 30t-56.5 66t-21.5 115.5q0 25 3.5 54t8.5 52l129 -17q-4 -14 -7 -34t-3 -49q0 -49 18.5 -73
t48 -31t62.5 -7q47 0 86 7t77 7q40 0 68 -10t58 -40v305q0 31 -4 46t-13 23q-13 14 -43 14q-27 0 -50.5 -12.5t-41.5 -31.5t-28.5 -38t-10.5 -32q0 -14 9 -23t41 -9q11 0 19 1t18 2l6 -107q-13 -4 -32 -7t-47 -3q-61 0 -102.5 31t-41.5 97q0 41 21 83.5t59 78.5t87.5 58
t106.5 22z" />
    <glyph glyph-name="obeng" unicode="&#x993;" horiz-adv-x="780" 
d="M731 216q0 -86 -66.5 -138t-181.5 -52q-79 0 -148 21.5t-127.5 71.5t-106 136.5t-85.5 216.5l125 35q41 -137 88.5 -217t106.5 -114.5t135 -34.5q52 0 89 22.5t37 66.5q0 30 -22 53q-29 -15 -63 -27l-46 108q50 17 85.5 42t35.5 66q0 22 -15 35.5t-45 13.5
q-36 0 -68.5 -15t-52.5 -35.5t-20 -37.5q0 -11 8 -19.5t36 -12.5l-27 -111q-77 8 -114.5 46t-37.5 88q0 42 23 79.5t63 65.5t90 44t104 16q92 0 141.5 -41t49.5 -113q0 -37 -15 -69t-41 -59q29 -26 47 -58.5t18 -72.5z" />
    <glyph glyph-name="aubeng" unicode="&#x994;" horiz-adv-x="928" 
d="M731 216q0 -86 -66.5 -138t-181.5 -52q-79 0 -148 21.5t-127.5 71.5t-106 136.5t-85.5 216.5l125 35q41 -137 88.5 -217t106.5 -114.5t135 -34.5q52 0 89 22.5t37 66.5q0 30 -22 53q-29 -15 -63 -27l-46 108q50 17 85.5 41.5t35.5 64.5q0 51 -60 51q-36 0 -68.5 -15
t-52.5 -35.5t-20 -37.5q0 -12 8 -20t36 -12l-27 -111q-77 8 -114.5 46t-37.5 88q0 42 23 79.5t63 65.5t90 44t104 16q87 0 134.5 -36t52.5 -102q18 14 29.5 33.5t11.5 46.5q0 21 -7.5 36.5t-21.5 27.5q-19 17 -50.5 27t-66.5 14l-122 16q-99 13 -139.5 53.5t-40.5 120.5
q0 14 1.5 27.5t4.5 23.5l128 -6q-1 -6 -2 -15.5t-1 -17.5q0 -34 18 -51q20 -17 70 -23l133 -17q67 -9 110 -26.5t69 -45.5q49 -50 49 -134q0 -60 -26.5 -104t-74.5 -78t-112 -64q24 -24 38.5 -54t14.5 -65z" />
    <glyph glyph-name="kabeng" unicode="&#x995;" horiz-adv-x="857" 
d="M825 258q0 -33 -13.5 -63t-46.5 -49t-92 -19q-41 0 -71 6l4 110q5 -1 12.5 -1.5t19.5 -0.5q36 0 47 12.5t11 30.5q0 32 -39 57t-114 40v-381h-132q-56 81 -144.5 132.5t-200.5 70.5l-50 118q87 49 191.5 94.5t206.5 74.5v22h-424v110h877v-110h-326v-21q79 -12 143.5 -43
t102.5 -78.5t38 -111.5zM184 278q56 -11 117 -43.5t112 -83.5q-1 12 -1.5 25.5t-0.5 27.5v167q-59 -19 -113.5 -42t-113.5 -51z" />
    <glyph glyph-name="khabeng" unicode="&#x996;" horiz-adv-x="749" 
d="M191 421q-67 0 -107 32.5t-40 89.5q0 24 6 45.5t15 39.5l118 -28q-9 -18 -9 -34q0 -18 11 -26t28 -8q29 0 50.5 15t50.5 57l93 21q29 -31 48.5 -73t19.5 -90q0 -66 -37 -117.5t-115 -77.5q77 -22 123.5 -54.5t86.5 -66.5q-1 22 -1.5 46t-0.5 50v446h108l23 -66h97v-110
h-96v-512h-132q-47 56 -99.5 95.5t-117 65t-148.5 38.5l-33 116q109 20 161 51.5t52 82.5q0 15 -6 29q-29 -27 -65 -42t-84 -15z" />
    <glyph glyph-name="gabeng" unicode="&#x997;" horiz-adv-x="700" 
d="M482 0v391q-28 33 -59.5 62t-68.5 47.5t-79 18.5q-39 0 -64.5 -15t-47.5 -37q16 7 35 11t43 4q67 0 102.5 -37t35.5 -89q0 -60 -43.5 -110t-132.5 -100l-76 107q58 26 92.5 50.5t34.5 53.5q0 17 -10.5 26.5t-35.5 9.5q-39 0 -88 -26l-105 84q53 77 114 127.5t141 50.5
q60 0 110 -26t104 -76q-1 12 -1.5 26.5t-0.5 31.5v103h109l22 -66h97v-110h-96v-512h-132z" />
    <glyph glyph-name="ghabeng" unicode="&#x998;" horiz-adv-x="662" 
d="M672 622v-110h-96v-512h-132q-50 62 -137 106t-205 61l-42 92q22 15 43 29t44 28q-57 11 -82.5 43t-25.5 70q0 48 32 83h-81v110h682zM386 332q-42 -21 -81.5 -42t-75.5 -43q63 -16 116.5 -42.5t100.5 -69.5q0 15 -1 32.5t-1 34.5v310h-222q-47 -31 -47 -73
q0 -30 18.5 -40.5t38.5 -10.5q23 0 45.5 7t50.5 24z" />
    <glyph glyph-name="ngabeng" unicode="&#x999;" horiz-adv-x="751" 
d="M439 4q-68 0 -130 19t-116.5 65t-99 125.5t-77.5 200.5l125 35q48 -177 118 -254t169 -77q70 0 112.5 30t42.5 87q0 23 -7 46q-77 -61 -167 -61q-57 0 -88 25q-47 36 -47 130v46v0q-52 25 -89 61t-67 75l92 66q20 -26 41.5 -50.5t44.5 -43.5q24 48 69.5 73.5t105.5 25.5
q71 0 107 -32t36 -87q0 -41 -24 -68t-64.5 -40t-89.5 -13q-17 0 -33 1v-20q0 -17 4.5 -27.5t21.5 -10.5q29 0 53 13.5t59 45.5l118 11q25 -36 40.5 -83.5t15.5 -93.5q0 -98 -69.5 -159t-206.5 -61zM465 542q-28 0 -42.5 -19t-18.5 -46q15 -3 31 -3q33 0 49 11.5t16 27.5
q0 14 -9.5 21.5t-25.5 7.5z" />
    <glyph glyph-name="cabeng" unicode="&#x99a;" horiz-adv-x="593" 
d="M603 622v-110h-390v-10q28 -39 70.5 -59.5t92.5 -20.5h20q52 0 81 -10t49 -32q14 -15 21 -37.5t7 -45.5q0 -61 -23 -108t-61 -85q-40 -39 -92 -61.5t-111 -22.5q-54 0 -84 10t-50 28q-22 19 -37 53.5t-15 108.5v292h-91v110h613zM229 145q13 -15 46 -15q52 0 103 48
q22 20 34 43t12 47q0 22 -13.5 31.5t-35.5 9.5h-10q-30 0 -53.5 6t-53.5 23q-27 16 -46 36q0 -8 0.5 -16t0.5 -16v-123q0 -35 4 -50.5t12 -23.5z" />
    <glyph glyph-name="chabeng" unicode="&#x99b;" horiz-adv-x="733" 
d="M241 192q-51 0 -86 12t-54 39q-13 19 -21 44t-8 75v150h-82v110h753v-110h-544v-3q22 -18 48 -28t65 -10h70q24 3 64 3q70 0 115.5 -18.5t71.5 -46.5t36.5 -59.5t10.5 -56.5q0 -75 -38 -122.5t-95 -73.5q45 -9 91.5 -21t94.5 -28l-35 -104q-145 50 -278.5 72.5
t-267.5 29.5l13 111q25 -5 61 -8t79 -3q131 0 187.5 38.5t56.5 100.5q0 65 -62 86v-1q0 -50 -32 -90.5t-87.5 -64t-126.5 -23.5zM208 308q11 -15 42 -15q46 0 78 20.5t32 42.5t-34 22h-27q-28 0 -53.5 8.5t-48.5 23.5q2 -18 2 -30v-30q0 -20 2.5 -29t6.5 -13z" />
    <glyph glyph-name="jabeng" unicode="&#x99c;" horiz-adv-x="997" 
d="M440 30q-96 0 -176 35.5t-142.5 122t-105.5 240.5l125 35q35 -121 76.5 -190.5t94.5 -98.5t121 -29q71 0 101.5 25.5t30.5 65.5q0 17 -2 32q-30 -19 -64.5 -29.5t-80.5 -10.5q-65 0 -107.5 32t-42.5 101q0 40 22 78.5t82 73.5q-19 -1 -34.5 -1h-35.5h-312v110h1017v-110
h-296q-13 0 -28 0.5t-31 0.5q20 -25 61.5 -44t116.5 -19q11 0 21.5 1t26.5 2l61 -99q-19 -34 -29.5 -72t-10.5 -85q0 -40 8.5 -86t24.5 -95l-129 -27q-19 54 -28 103.5t-9 111.5q0 37 5.5 72.5t16.5 66.5q-104 15 -167.5 53t-100.5 93q-58 -26 -89 -55.5t-31 -56.5
q0 -20 11 -29.5t26 -9.5q27 0 48 11t48 31l146 -43q7 -20 11.5 -46.5t4.5 -54.5q0 -50 -25 -97.5t-81 -78t-149 -30.5z" />
    <glyph glyph-name="jhabeng" unicode="&#x99d;" horiz-adv-x="854" 
d="M543 622v-329q25 -14 49 -32.5t46 -40.5q-1 12 -1.5 25.5t-0.5 27.5v415h109l22 -66h97v-110h-96v-438h-131q-39 56 -94 98v-172h-132q-56 81 -144.5 132.5t-200.5 70.5l-50 118q88 49 192 95t207 74v22h-425v110h553zM184 278q56 -11 117 -43.5t112 -83.5
q-1 12 -1.5 25.5t-0.5 27.5v167q-59 -19 -113.5 -42t-113.5 -51z" />
    <glyph glyph-name="nyabeng" unicode="&#x99e;" horiz-adv-x="1070" 
d="M533 628q48 0 78.5 -9.5t53.5 -27.5q10 -8 18.5 -20t14.5 -29q37 36 78.5 54t94.5 18q71 0 110.5 -35t39.5 -88q0 -23 -9.5 -50t-36.5 -51q21 -16 36 -41t15 -60q0 -34 -17 -63.5t-52 -47.5t-91 -18q-52 0 -91 19t-65 49q2 -30 2 -62v-166h-130q-16 36 -40 51.5t-71 15.5
q-55 0 -100.5 -7.5t-98.5 -7.5q-43 0 -85.5 7.5t-77.5 30t-56.5 66t-21.5 115.5q0 25 3.5 54t8.5 52l129 -17q-4 -14 -7 -34t-3 -49q0 -49 18.5 -73t48 -31t62.5 -7q47 0 86 7t77 7q40 0 68 -10t58 -40v305q0 31 -4 46t-13 23q-13 14 -43 14q-27 0 -50.5 -12.5t-41.5 -31.5
t-28.5 -38t-10.5 -32q0 -14 9 -23t41 -9q11 0 19 1t18 2l6 -107q-13 -4 -32 -7t-47 -3q-61 0 -102.5 31t-41.5 97q0 41 21 83.5t59 78.5t87.5 58t106.5 22zM853 513q-41 0 -77.5 -28.5t-63.5 -78.5v-15q21 -66 57.5 -98t77.5 -32q24 0 39.5 9.5t15.5 32.5q0 21 -17 38
q-23 -7 -49 -12l-24 97q84 14 84 54q0 19 -12.5 26t-30.5 7z" />
    <glyph glyph-name="ttabeng" unicode="&#x99f;" horiz-adv-x="593" 
d="M380 622q-2 31 -17 44.5t-52 13.5h-75q-76 0 -123.5 14.5t-74.5 44.5q-36 40 -36 115q0 15 1 27.5t4 30.5l125 -8q-1 -9 -1.5 -16t-0.5 -13q0 -21 4.5 -38t15.5 -27q10 -10 27.5 -15t55.5 -5h79q59 0 93.5 -9t58.5 -32q19 -19 29.5 -50t11.5 -77h98v-110h-390v-293
q0 -35 4 -50.5t12 -23.5q13 -15 46 -15q52 0 103 48q22 20 34 43t12 47q0 19 -12 31t-39 12q-13 0 -23.5 -1.5t-19.5 -2.5l-18 108q22 5 44 8t51 3q79 0 113 -39t34 -95t-23 -103t-61 -85q-40 -39 -92 -61.5t-111 -22.5q-54 0 -84 10t-51 29q-21 18 -36 52.5t-15 108.5v292
h-91v110h390z" />
    <glyph glyph-name="tthabeng" unicode="&#x9a0;" horiz-adv-x="634" 
d="M308 0q-65 0 -120.5 20t-97.5 54t-68 77l34 115q81 10 126.5 34t63.5 60t18 78q0 15 -1.5 34.5t-9.5 39.5h-263v110h209q-37 44 -54.5 80t-17.5 74q0 42 23 76t66 65l96 -92q-30 -23 -41.5 -42t-11.5 -42q0 -26 20.5 -53.5t58.5 -65.5h306v-110h-120h-33t-28 2
q65 -65 95.5 -133t30.5 -140q0 -113 -70.5 -177t-210.5 -64zM305 114q65 0 106.5 33t41.5 100q0 53 -19.5 105t-66.5 112q4 -16 6.5 -32.5t2.5 -32.5q0 -50 -18 -93.5t-63 -78t-126 -57.5q25 -28 61.5 -42t74.5 -14z" />
    <glyph glyph-name="ddabeng" unicode="&#x9a1;" horiz-adv-x="741" 
d="M751 622v-110h-348v-129q0 -15 5 -25.5t21 -10.5q19 0 42.5 21t47.5 55l117 22q34 -49 51 -98.5t17 -106.5q0 -63 -30.5 -112.5t-91 -78.5t-149.5 -29q-66 0 -127 19t-114.5 64.5t-98 125t-77.5 199.5l125 35q33 -119 75 -191.5t93 -105t113 -32.5q72 0 111.5 32t39.5 91
q0 26 -7 48q-39 -36 -79.5 -52.5t-82.5 -16.5q-66 0 -99 38q-17 19 -25.5 49t-8.5 77v112h-281v110h761z" />
    <glyph glyph-name="ddhabeng" unicode="&#x9a2;" horiz-adv-x="593" 
d="M603 622v-110h-390v-293q0 -35 4 -50.5t12 -23.5q13 -15 46 -15q52 0 103 48q22 20 34 43t12 47q0 19 -12 31t-39 12q-13 0 -23.5 -1.5t-19.5 -2.5l-18 108q22 5 44 8t51 3q79 0 113 -39t34 -95t-23 -103t-61 -85q-40 -39 -92 -61.5t-111 -22.5q-54 0 -84 10t-51 29
q-21 18 -36 52.5t-15 108.5v292h-91v110h613z" />
    <glyph glyph-name="nnabeng" unicode="&#x9a3;" horiz-adv-x="643" 
d="M653 622v-110h-96v-512h-132v392q-44 52 -92.5 88t-98.5 36q-30 0 -48.5 -17t-18.5 -48q0 -21 10.5 -38.5t37.5 -28t78 -12.5l-15 -130q-130 15 -188.5 70.5t-58.5 141.5q0 53 24 92.5t65 61t93 21.5q69 0 120 -31t94 -72q-2 38 -2 74v88h108l23 -66h97z" />
    <glyph glyph-name="tabeng" unicode="&#x9a4;" horiz-adv-x="732" 
d="M742 622v-110h-752v110h752zM430 33q-94 0 -172.5 36.5t-139 122.5t-102.5 236l125 35q47 -162 110 -238.5t163 -76.5q77 0 114 30t37 89q0 51 -26.5 76.5t-61.5 25.5q-23 0 -38.5 -12t-15.5 -36q0 -22 8 -43l-125 -19q-10 23 -14 43t-4 35q0 50 25 80.5t65 44.5t87 14
q75 0 127 -29t79 -79t27 -113q0 -59 -27.5 -110t-87 -81.5t-153.5 -30.5z" />
    <glyph glyph-name="thabeng" unicode="&#x9a5;" horiz-adv-x="718" 
d="M227 625q75 0 123 -25t71 -64.5t23 -84.5q0 -65 -40 -112.5t-112 -71.5q77 -22 123.5 -54.5t86.5 -66.5q-2 22 -2 46v50v446h108l23 -66h97v-110h-96v-512h-132q-47 56 -99.5 95.5t-117 65t-148.5 38.5l-32 116q113 21 161 53t48 79q0 29 -21 50t-63 21q-32 0 -46 -12
t-14 -25q0 -24 29 -43l-82 -82q-17 12 -35.5 28.5t-30.5 40t-12 57.5q0 38 21 71t63 52.5t106 19.5z" />
    <glyph glyph-name="dabeng" unicode="&#x9a6;" horiz-adv-x="639" 
d="M649 622v-110h-442v-228q53 49 126 94t161 81l91 -76q-22 -38 -32 -83t-10 -97q0 -39 8 -87.5t25 -99.5l-129 -27q-18 53 -27.5 103t-9.5 109q0 26 3.5 51t10.5 48q-67 -38 -128 -86.5t-112 -96.5l-109 71v324h-85v110h659z" />
    <glyph glyph-name="dhabeng" unicode="&#x9a7;" horiz-adv-x="629" 
d="M237 629q16 0 31.5 -1.5t30.5 -3.5l-8 -101q-5 1 -11 1.5t-16 0.5q-26 0 -37.5 -10.5t-11.5 -24.5q0 -34 45 -53q37 15 75.5 28.5t75.5 23.5v133h228v-110h-96v-512h-132q-56 81 -144.5 132.5t-200.5 70.5l-50 118q32 18 67 36t71 35q-31 23 -47.5 51t-16.5 65
q0 28 13 56t45 46.5t89 18.5zM184 278q56 -11 117 -43.5t112 -84.5q-1 16 -1.5 33t-0.5 37v151q-59 -19 -113.5 -42t-113.5 -51z" />
    <glyph glyph-name="nabeng" unicode="&#x9a8;" horiz-adv-x="634" 
d="M644 622v-110h-96v-512h-132v182q-44 52 -94 87t-97 35q-25 0 -42.5 -11.5t-17.5 -36.5q0 -22 16 -37t51 -29l-59 -110q-67 26 -105.5 74.5t-38.5 106.5q0 53 25 88t64 51.5t82 16.5q62 0 115 -25t102 -70q-1 17 -1 34v32v124h-426v110h654z" />
    <glyph glyph-name="pabeng" unicode="&#x9aa;" horiz-adv-x="765" 
d="M775 622v-110h-96v-512h-132v349q-20 26 -38 47l-255 -231l-91 85l28 25q22 29 22 55q0 24 -13.5 34.5t-32.5 10.5q-25 0 -55 -18l-99 91q45 56 88.5 97t90.5 62.5t105 21.5q74 0 131.5 -36.5t121.5 -99.5q-1 16 -2 33.5t-1 35.5v126h108l23 -66h97zM304 370v-4
q11 11 23.5 22t23.5 21l75 65q-30 22 -61 33.5t-64 11.5q-46 0 -81 -19t-67 -52q12 5 26 8t30 3q49 0 72 -27.5t23 -61.5z" />
    <glyph glyph-name="phabeng" unicode="&#x9ab;" horiz-adv-x="885" 
d="M895 622v-110h-699q45 -16 82 -41.5t67 -52.5l12 -88q-40 -16 -81.5 -35.5t-78.5 -39.5q36 -7 81 -23t88 -40.5t75 -57.5q-1 16 -1.5 33t-0.5 35v283h46q102 0 175 -18.5t131 -71.5q31 -29 46.5 -64t15.5 -73q0 -34 -13.5 -63.5t-46.5 -48.5t-92 -19q-41 0 -72 6l5 110
q5 -1 12.5 -1.5t19.5 -0.5q36 0 47 12.5t11 30.5q0 29 -36 54.5t-117 33.5v-372h-132q-59 74 -149 115t-212 57l-47 113q41 25 89.5 51.5t98.5 50.5q-42 24 -90.5 42t-105.5 27l25 56h-58v110h905z" />
    <glyph glyph-name="babeng" unicode="&#x9ac;" horiz-adv-x="629" 
d="M639 622v-110h-96v-512h-132q-56 81 -144.5 132.5t-200.5 70.5l-50 118q88 49 192 95t207 74v22h-425v110h649zM184 278q56 -11 117 -43t111 -84q-1 29 -1 57v163q-59 -19 -113.5 -42t-113.5 -51z" />
    <glyph glyph-name="bhabeng" unicode="&#x9ad;" horiz-adv-x="750" 
d="M760 622v-110h-770v110h770zM442 29q-70 0 -133.5 19t-118 64t-98.5 122t-76 194l125 35q35 -121 76.5 -190.5t94 -99t120.5 -29.5q72 0 111.5 31t39.5 89q0 29 -9 53q-35 -30 -76 -45.5t-91 -15.5q-68 0 -107.5 32.5t-39.5 88.5q0 24 6 46t15 40l118 -29q-9 -18 -9 -33
q0 -19 11 -27t28 -8q29 0 50.5 15t50.5 57l111 19q73 -99 73 -210q0 -62 -30.5 -111.5t-91 -78t-150.5 -28.5z" />
    <glyph glyph-name="mabeng" unicode="&#x9ae;" horiz-adv-x="645" 
d="M655 622v-110h-96v-512h-132v152q-48 56 -96.5 89.5t-94.5 33.5q-26 0 -43 -12t-17 -36q0 -22 16 -37.5t52 -28.5l-59 -111q-67 26 -106 75t-39 106q0 48 20.5 80t54 49.5t71.5 22.5q-10 23 -30 36.5t-53.5 21.5t-87.5 15l14 56h-39v110h665zM427 512h-214q46 -21 72 -56
t33 -91q55 -22 110 -75q-1 17 -1 34v33v155z" />
    <glyph glyph-name="yabeng" unicode="&#x9af;" horiz-adv-x="665" 
d="M675 622v-110h-96v-512h-132q-61 75 -151.5 115t-217.5 57l-47 113q41 25 89.5 51.5t98.5 50.5q-42 24 -90.5 42t-105.5 27l25 56h-58v110h685zM447 512h-251q45 -16 82 -41.5t67 -52.5l12 -88q-40 -16 -81.5 -35.5t-78.5 -39.5q40 -7 85.5 -23t89.5 -41t77 -58
q-2 17 -2 34v36v309z" />
    <glyph glyph-name="rabeng" unicode="&#x9b0;" horiz-adv-x="629" 
d="M639 622v-110h-96v-512h-132q-56 81 -144.5 132.5t-200.5 70.5l-50 118q88 49 192 95t207 74v22h-425v110h649zM184 278q56 -11 117 -43t111 -84q-1 29 -1 57v163q-59 -19 -113.5 -42t-113.5 -51zM170 -12q-31 0 -52 21.5t-21 53.5t21 53.5t52 21.5t52 -21.5t21 -53.5
t-21 -53.5t-52 -21.5z" />
    <glyph glyph-name="labeng" unicode="&#x9b2;" horiz-adv-x="776" 
d="M786 622v-110h-96v-512h-132v297q-13 14 -28 23t-33 9q-16 0 -34 -12.5t-18 -52.5q0 -17 3 -32l-113 -7q-8 49 -35.5 78.5t-73.5 29.5q-28 0 -44.5 -14.5t-16.5 -38.5q0 -36 28.5 -56t69.5 -33l-38 -112q-91 25 -143.5 76.5t-52.5 129.5q0 50 24.5 86t65.5 55.5t90 19.5
q54 0 91.5 -16.5t75.5 -51.5q12 31 38.5 47t56.5 16q26 0 48 -8t41 -22q-2 26 -2 50v51h-568v110h796z" />
    <glyph glyph-name="shabeng" unicode="&#x9b6;" horiz-adv-x="714" 
d="M82 629q44 0 82.5 -17.5t61.5 -55.5q19 37 51 55t69 18q50 0 87 -21t65 -59q-1 14 -1.5 28t-0.5 27v84h108l23 -66h97v-110h-96v-512h-132v424q-27 43 -59.5 69t-70.5 26q-28 0 -48.5 -15.5t-20.5 -47.5q0 -68 118 -72l-14 -120q-67 4 -108.5 26.5t-62.5 59.5
q-21 -37 -63.5 -61.5t-111.5 -24.5l-13 119q68 4 92.5 23.5t24.5 48.5q0 32 -22.5 48t-59.5 16q-21 0 -38.5 -2t-38.5 -8l-12 111q26 4 48.5 6.5t45.5 2.5z" />
    <glyph glyph-name="ssabeng" unicode="&#x9b7;" horiz-adv-x="672" 
d="M682 622v-110h-96v-512h-132q-67 74 -158 114.5t-218 57.5l-47 113q41 25 95.5 53.5t102.5 48.5q-55 24 -108.5 42t-97.5 27l25 56h-58v110h692zM454 512h-258q62 -21 132 -56.5t128 -79.5q-1 17 -1.5 37.5t-0.5 40.5v58zM188 256q40 -6 87 -21.5t94 -41t87 -59.5
q-2 16 -2 33v36v48q-23 21 -52 41t-61 39q-38 -17 -78 -36t-75 -39z" />
    <glyph glyph-name="sabeng" unicode="&#x9b8;" horiz-adv-x="708" 
d="M718 622v-110h-96v-512h-132v301q-24 24 -43 24q-13 0 -22.5 -7t-24 -28.5t-40.5 -63.5q-43 -67 -78.5 -95t-87.5 -28q-45 0 -85.5 23.5t-80.5 94.5l92 57q20 -32 34 -45.5t33 -13.5q13 0 24.5 6t29.5 31q-9 57 -19 91.5t-32 53.5q-24 21 -64 31t-101 18l20 62h-55v110
h728zM490 512h-285q58 -18 81.5 -50t31.5 -90q22 35 43.5 49.5t51.5 14.5q22 0 40.5 -9t38.5 -26q-1 14 -1.5 29.5t-0.5 30.5v51z" />
    <glyph glyph-name="habeng" unicode="&#x9b9;" horiz-adv-x="573" 
d="M263 485q92 0 146.5 -27.5t78.5 -69.5t24 -86q0 -67 -35 -108t-100 -62q53 -19 105 -46.5t102 -62.5l-70 -93q-94 68 -210 116t-258 70l22 105q34 -9 68 -14t68 -5q95 0 135 27t40 72q0 36 -27.5 58t-77.5 22q-44 0 -61.5 -11.5t-17.5 -34.5q0 -12 6 -24l-124 -18
q-6 15 -10 34.5t-4 36.5q0 64 71 97q-19 34 -65 51h-79v110h593v-110h-347q13 -12 22 -27h5z" />
    <glyph glyph-name="nuktabeng" unicode="&#x9bc;" 
d="M-255 -206q-31 0 -52 21.5t-21 53.5t21 53.5t52 21.5t52 -21.5t21 -53.5t-21 -53.5t-52 -21.5z" />
    <glyph glyph-name="avagrahabeng" unicode="&#x9bd;" horiz-adv-x="573" 
d="M322 622v-141q70 -9 111.5 -36.5t60 -65.5t18.5 -77q0 -67 -35 -108t-100 -62q53 -19 105 -46.5t102 -62.5l-70 -93q-94 68 -210 116t-258 70l22 105q34 -9 68 -14t68 -5q95 0 135 27t40 72q0 36 -27.5 58t-77.5 22q-44 0 -61.5 -11.5t-17.5 -34.5q0 -12 6 -24l-124 -18
q-6 15 -10 34.5t-4 36.5q0 43 34 73t95 42v33h-202v110h332z" />
    <glyph glyph-name="aavowelsignbeng" unicode="&#x9be;" horiz-adv-x="304" 
d="M314 622v-110h-96v-512h-132v444q-12 31 -34 49.5t-57 18.5h-5v110h20q23 0 43 -12t37 -51q-2 5 -3 23t-1 31v75h108l23 -66h97z" />
    <glyph glyph-name="ivowelsignbeng" unicode="&#x9bf;" horiz-adv-x="304" 
d="M314 622v-110h-96v-512h-132v512h-96v110h97q-17 18 -35 41t-32 42q50 81 98.5 127t102.5 65.5t119 19.5q48 0 91.5 -8t91 -27.5t105.5 -52t135 -80.5l-68 -89q-81 52 -138 84.5t-104 47.5t-99 15q-47 0 -82 -18t-60.5 -45.5t-44.5 -55.5q9 -16 21 -34t25 -32h101z" />
    <glyph glyph-name="iivowelsignbeng" unicode="&#x9c0;" horiz-adv-x="304" 
d="M314 512h-96v-512h-132v512h-96v110h96q-20 104 -112.5 149.5t-253.5 45.5q-74 0 -110.5 -10.5t-36.5 -26.5q0 -10 10.5 -13.5t40.5 -3.5h101q58 0 92.5 -9.5t56.5 -28.5q20 -18 29 -44t9 -66h-126q0 35 -20 47q-9 5 -20 7.5t-29 2.5h-73q-60 0 -94 6.5t-55 18.5
q-25 14 -35 35.5t-10 45.5q0 62 71.5 100.5t218.5 38.5q218 0 341 -71.5t139 -223.5h94v-110z" />
    <glyph glyph-name="uvowelsignbeng" unicode="&#x9c1;" 
d="M-306 -266q-34 0 -70.5 12t-61.5 39.5t-25 72.5q0 55 41.5 88t120.5 33q43 0 83 -7v44h132v-49q0 -20 -2 -38q42 -21 86 -50t93 -67l-71 -83q-72 65 -135 104q-21 -41 -66 -70t-125 -29zM-341 -146q0 -34 45 -34q32 0 48.5 18.5t22.5 43.5q-30 8 -58 8q-31 0 -44.5 -10
t-13.5 -26z" />
    <glyph glyph-name="uuvowelsignbeng" unicode="&#x9c2;" 
d="M-194 -261q-41 0 -76 13t-56 40.5t-21 72.5q0 50 38 79.5t91 32.5v41h132v-61l-50 -66q-16 2 -36 2q-52 0 -52 -30q0 -17 14 -24.5t33 -7.5q46 0 80.5 24.5t61.5 56.5q51 -17 99.5 -40.5t98.5 -51.5l-57 -91q-38 24 -67.5 42t-54.5 30q-34 -29 -74 -45.5t-104 -16.5z" />
    <glyph glyph-name="rvocalicvowelsignbeng" unicode="&#x9c3;" 
d="M-373 -68q59 28 132 60t137 55l38 -92q-30 -9 -69 -22.5t-73 -27.5q72 -10 138.5 -36t113.5 -56l-56 -84q-76 45 -155 66.5t-161 32.5z" />
    <glyph glyph-name="evowelsignbeng" unicode="&#x9c7;" horiz-adv-x="399" 
d="M409 622v-110h-57q-46 -22 -85.5 -58t-64.5 -84t-25 -107q0 -60 18 -94t45 -47.5t54 -13.5q18 0 35 3.5t39 14.5l50 -99q-33 -19 -65 -25.5t-67 -6.5q-112 0 -177.5 68.5t-65.5 196.5q0 79 32.5 144.5t89.5 109.5q-25 -2 -72 -2h-103v110h419z" />
    <glyph glyph-name="aivowelsignbeng" unicode="&#x9c8;" horiz-adv-x="399" 
d="M283 622q-1 31 -16.5 44.5t-53.5 13.5h-8q-76 0 -123.5 14.5t-74.5 44.5q-36 40 -36 115q0 15 1 27.5t4 30.5l125 -8q-1 -9 -1.5 -16t-0.5 -13q0 -21 4.5 -38t15.5 -27t28 -15t55 -5h13q59 0 93.5 -9t58.5 -32q19 -19 29 -50t12 -77h1v-110h-57q-46 -22 -85.5 -58
t-64.5 -84t-25 -107q0 -60 18 -94t45 -47.5t54 -13.5q18 0 35 3.5t39 14.5l50 -99q-33 -19 -65 -25.5t-67 -6.5q-112 0 -177.5 68.5t-65.5 196.5q0 79 32.5 144.5t89.5 109.5q-25 -2 -72 -2h-103v110h293z" />
    <glyph glyph-name="ovowelsignbeng" unicode="&#x9cb;" horiz-adv-x="996" 
d="M409 622v-110h-57q-46 -22 -85.5 -58t-64.5 -84t-25 -107q0 -60 18 -94t45 -47.5t54 -13.5q18 0 35 3.5t39 14.5l50 -99q-33 -19 -65 -25.5t-67 -6.5q-112 0 -177.5 68.5t-65.5 196.5q0 79 32.5 144.5t89.5 109.5q-25 -2 -72 -2h-103v110h419zM1006 622v-110h-96v-512
h-132v444q-12 31 -34 49.5t-57 18.5h-5v110h20q23 0 43 -12t37 -51q-2 5 -3 23t-1 31v75h108l23 -66h97zM527 250q-31 0 -52 21.5t-21 53.5t21 53.5t52 21.5t52 -21.5t21 -53.5t-21 -53.5t-52 -21.5z" />
    <glyph glyph-name="auvowelsignbeng" unicode="&#x9cc;" horiz-adv-x="996" 
d="M409 622v-110h-57q-46 -22 -85.5 -58t-64.5 -84t-25 -107q0 -60 18 -94t45 -47.5t54 -13.5q18 0 35 3.5t39 14.5l50 -99q-33 -19 -65 -25.5t-67 -6.5q-112 0 -177.5 68.5t-65.5 196.5q0 79 32.5 144.5t89.5 109.5q-25 -2 -72 -2h-103v110h419zM910 0h-132v512h-96v110
h101q-1 31 -16.5 44.5t-53.5 13.5h-170q-76 0 -123.5 14.5t-74.5 44.5q-36 40 -36 115q0 15 1 27.5t4 30.5l125 -8q-1 -9 -1.5 -16t-0.5 -13q0 -21 4.5 -38t15.5 -27t28 -15t55 -5h175q59 0 93.5 -9t58.5 -32q19 -19 29 -50t12 -77h98v-110h-96v-512zM527 250
q-31 0 -52 21.5t-21 53.5t21 53.5t52 21.5t52 -21.5t21 -53.5t-21 -53.5t-52 -21.5z" />
    <glyph glyph-name="viramabeng" unicode="&#x9cd;" 
d="M-157 -12l285 -169l-57 -90l-288 164z" />
    <glyph glyph-name="khandatabeng" unicode="&#x9ce;" horiz-adv-x="578" 
d="M295 629q112 0 163 -45t51 -112q0 -69 -45.5 -108t-133.5 -39q-33 0 -65.5 6.5t-60.5 17.5l26 101q20 -7 39.5 -11t40.5 -4q40 0 53.5 11.5t13.5 30.5q0 21 -20.5 33.5t-58.5 12.5q-67 0 -99 -32t-32 -74q0 -37 18.5 -62.5t62 -48.5t119.5 -53q83 -33 134 -66t77 -74.5
t30 -99.5l-129 -25q-9 39 -28.5 65t-57.5 48t-100 48q-97 41 -152.5 81t-79.5 86t-24 103q0 60 31.5 107.5t89.5 75t137 27.5z" />
    <glyph glyph-name="aulengthmarkbeng" unicode="&#x9d7;" horiz-adv-x="304" 
d="M218 0h-132v512h-96v110h101q-1 31 -16.5 44.5t-53.5 13.5h-170q-76 0 -123.5 14.5t-74.5 44.5q-36 40 -36 115q0 15 1 27.5t4 30.5l125 -8q-1 -9 -1.5 -16t-0.5 -13q0 -21 4.5 -38t15.5 -27t28 -15t55 -5h175q59 0 93.5 -9t58.5 -32q19 -19 29 -50t12 -77h98v-110h-96
v-512z" />
    <glyph glyph-name="rrabeng" unicode="&#x9dc;" horiz-adv-x="741" 
d="M751 622v-110h-348v-129q0 -15 5 -25.5t21 -10.5q19 0 42.5 21t47.5 55l117 22q34 -49 51 -98.5t17 -106.5q0 -63 -30.5 -112.5t-91 -78.5t-149.5 -29q-66 0 -127 19t-114.5 64.5t-98 125t-77.5 199.5l125 35q33 -119 75 -191.5t93 -105t113 -32.5q72 0 111.5 32t39.5 91
q0 26 -7 48q-39 -36 -79.5 -52.5t-82.5 -16.5q-66 0 -99 38q-17 19 -25.5 49t-8.5 77v112h-281v110h761zM371 -177q-31 0 -52 21.5t-21 53.5t21 53.5t52 21.5t52 -21.5t21 -53.5t-21 -53.5t-52 -21.5z" />
    <glyph glyph-name="rhabeng" unicode="&#x9dd;" horiz-adv-x="593" 
d="M603 622v-110h-390v-293q0 -35 4 -50.5t12 -23.5q13 -15 46 -15q52 0 103 48q22 20 34 43t12 47q0 19 -12 31t-39 12q-13 0 -23.5 -1.5t-19.5 -2.5l-18 108q22 5 44 8t51 3q79 0 113 -39t34 -95t-23 -103t-61 -85q-40 -39 -92 -61.5t-111 -22.5q-54 0 -84 10t-51 29
q-21 18 -36 52.5t-15 108.5v292h-91v110h613zM292 -180q-31 0 -52 21.5t-21 53.5t21 53.5t52 21.5t52 -21.5t21 -53.5t-21 -53.5t-52 -21.5z" />
    <glyph glyph-name="yyabeng" unicode="&#x9df;" horiz-adv-x="665" 
d="M675 622v-110h-96v-512h-132q-61 75 -151.5 115t-217.5 57l-47 113q41 25 89.5 51.5t98.5 50.5q-42 24 -90.5 42t-105.5 27l25 56h-58v110h685zM447 512h-251q45 -16 82 -41.5t67 -52.5l12 -88q-40 -16 -81.5 -35.5t-78.5 -39.5q40 -7 85.5 -23t89.5 -41t77 -58
q-2 17 -2 34v36v309zM172 -27q-31 0 -52 21.5t-21 53.5t21 53.5t52 21.5t52 -21.5t21 -53.5t-21 -53.5t-52 -21.5z" />
    <glyph glyph-name="rrvocalicbeng" unicode="&#x9e0;" horiz-adv-x="932" 
d="M191 421q-67 0 -107 32.5t-40 89.5q0 24 6 45.5t15 39.5l118 -28q-9 -18 -9 -34q0 -18 11 -26t28 -8q22 0 46.5 14.5t49.5 56.5l99 22q19 -26 43.5 -66t40.5 -80v209h108l24 -66v-329q25 -15 49 -33.5t45 -40.5q-1 25 -1 54v415h108l24 -66v-548h-132q-39 56 -93 97v-171
h-132q-28 40 -74 79.5t-108 70t-136 44.5l-50 118q60 34 130 65.5t142 59.5q-15 28 -36 55q-37 -36 -77 -53.5t-92 -17.5zM492 356q-58 -19 -106 -39t-103 -49q55 -12 113.5 -46t99.5 -77q-2 16 -3 35t-1 44v132zM336 -68q59 28 132 60t137 55l38 -92q-30 -9 -69 -22.5
t-73 -27.5q72 -10 138.5 -36t113.5 -56l-56 -84q-76 45 -155 66.5t-161 32.5z" />
    <glyph glyph-name="zerobeng" unicode="&#x9e6;" horiz-adv-x="621" 
d="M307 81q-71 0 -127 25t-88.5 78t-32.5 136q0 58 26 111.5t82.5 88t146.5 34.5q86 0 141 -31t81 -85.5t26 -123.5q0 -63 -28 -116t-84.5 -85t-142.5 -32zM317 444q-55 0 -88.5 -33t-33.5 -99q0 -54 25.5 -87.5t83.5 -33.5t90 34.5t32 97.5q0 121 -109 121z" />
    <glyph glyph-name="onebeng" unicode="&#x9e7;" horiz-adv-x="621" 
d="M311 0q-101 0 -149 42t-48 102q0 57 33 92.5t97 61.5l49 -111q-42 -10 -42 -35q0 -16 15 -27t45 -11q47 0 71 21t24 51q0 28 -14 49t-43.5 42t-77.5 50q-63 38 -97.5 67t-48 57.5t-13.5 64.5q0 28 14 58.5t39 56.5l116 -67q-11 -10 -18 -21.5t-7 -23.5q0 -11 4 -19.5
t17 -19.5t40 -28.5t73 -46.5q54 -35 87.5 -67t49 -69t15.5 -87q0 -57 -29 -98t-81 -62.5t-121 -21.5z" />
    <glyph glyph-name="twobeng" unicode="&#x9e8;" horiz-adv-x="621" 
d="M116 531q0 25 11.5 50t31.5 50l110 -48q-14 -19 -14 -34q0 -10 4.5 -17.5t24.5 -14.5t68 -17q94 -19 132 -61.5t38 -105.5q0 -67 -36 -108t-101 -58q48 -18 89 -42t93 -62l-72 -90q-63 50 -130 85t-144 59t-169 40l20 105q33 -9 72.5 -14t83.5 -5q88 0 124 21.5t36 55.5
q0 33 -23.5 48.5t-78.5 26.5q-72 15 -108.5 35t-49 45.5t-12.5 55.5z" />
    <glyph glyph-name="threebeng" unicode="&#x9e9;" horiz-adv-x="621" 
d="M581 293q0 -79 -20.5 -138t-67.5 -92.5t-128 -33.5q-57 0 -107 18.5t-92 66t-76 134t-59 222.5l124 30q25 -138 54.5 -215.5t65 -109t81.5 -31.5q52 0 72.5 41t20.5 110q0 45 -10.5 87t-28.5 69.5t-41 27.5q-14 0 -23.5 -10.5t-9.5 -27.5q0 -22 12 -48l-124 -33
q-10 27 -15.5 52t-5.5 55q0 45 23 72t56.5 38.5t66.5 11.5q81 0 132 -41t75.5 -108.5t24.5 -146.5z" />
    <glyph glyph-name="fourbeng" unicode="&#x9ea;" horiz-adv-x="621" 
d="M311 0q-123 0 -190 47t-67 127q0 47 28.5 84.5t90.5 66.5q-57 30 -82.5 62t-25.5 80q0 43 27.5 78t81 56t130.5 21q94 0 149 -21.5t79 -55t24 -69.5q0 -57 -31.5 -89.5t-79.5 -55.5q58 -25 90 -61t32 -96q0 -88 -65 -131t-191 -43zM311 380q27 6 52 17t41 26t16 33
q0 25 -27.5 40.5t-85.5 15.5q-44 0 -75.5 -14t-31.5 -42q0 -26 26 -44t85 -32zM311 110q66 0 93.5 20.5t27.5 55.5q0 23 -18 41t-45.5 30t-57.5 18q-60 -15 -90.5 -37t-30.5 -55q0 -30 28.5 -51.5t92.5 -21.5z" />
    <glyph glyph-name="fivebeng" unicode="&#x9eb;" horiz-adv-x="621" 
d="M331 0q-83 0 -148.5 29t-103 84t-37.5 135t45.5 146t129 123.5t199.5 111.5l59 -81q-13 -17 -13 -40q0 -22 19 -35.5t48 -13.5h10t9 1l50 -82q-63 -36 -94.5 -60t-42.5 -43.5t-11 -40.5q0 -24 18 -40t55 -16q6 0 15 0.5t16 1.5l46 -118q-54 -29 -122.5 -45.5
t-146.5 -16.5zM338 110q21 0 36.5 1.5t29.5 4.5q-43 18 -64 49t-21 69q0 42 20.5 77.5t68.5 76.5q-27 16 -39.5 37t-12.5 38v4q-84 -50 -131 -105t-47 -122q0 -47 22.5 -75.5t59 -41.5t78.5 -13z" />
    <glyph glyph-name="sixbeng" unicode="&#x9ec;" horiz-adv-x="621" 
d="M371 29q-63 0 -115.5 17t-95.5 60t-77.5 119.5t-62.5 195.5l123 34q23 -113 52.5 -181.5t69 -99t91.5 -30.5q110 0 110 139v11q-47 -47 -105 -47q-28 0 -50 6.5t-39 18.5q-16 12 -29 37.5t-13 79.5v32q0 35 -11 47t-49 14l15 121q55 -1 89 -10.5t54 -31.5
q14 -16 20.5 -40.5t6.5 -61.5v-53q0 -22 4.5 -35.5t20.5 -13.5q8 0 17.5 3.5t20 17.5t20.5 47l99 23q25 -37 39.5 -87.5t14.5 -97.5q0 -65 -21.5 -118.5t-70 -84.5t-128.5 -31z" />
    <glyph glyph-name="sevenbeng" unicode="&#x9ed;" horiz-adv-x="621" 
d="M562 121l-15 -121q-67 2 -106 15t-55.5 45.5t-16.5 92.5v87q-24 -6 -48.5 -9t-50.5 -3q-110 0 -161.5 46t-51.5 125q0 65 35.5 115t94 79t128.5 29q41 0 75.5 -9.5t59.5 -29.5q24 -19 37.5 -48.5t13.5 -89.5v-263q0 -34 11 -47t50 -14zM282 340q49 0 87 15v65q0 34 -3 50
t-13 26q-15 16 -46 16q-30 0 -56.5 -15t-42.5 -39.5t-16 -53.5q0 -38 24.5 -51t65.5 -13z" />
    <glyph glyph-name="eightbeng" unicode="&#x9ee;" horiz-adv-x="621" 
d="M265 0q-82 0 -124 35q-24 20 -37 52.5t-13 90.5v262q0 34 -11 47t-49 14l14 121q54 -2 89 -10t55 -27q17 -16 25.5 -39.5t8.5 -76.5v-85q22 6 40.5 8.5t32.5 2.5q37 0 65 -7q17 -4 31 -6t26 -2q25 0 46 9.5t39 43.5l112 -56q-23 -56 -56 -77.5t-68 -26.5q8 -25 8 -53
q0 -68 -32 -117.5t-85.5 -76t-116.5 -26.5zM273 110q45 0 68 32t23 73q0 42 -25.5 56t-54.5 14q-18 0 -33 -3.5t-28 -7.5v-89q0 -28 3.5 -41.5t11.5 -21.5q12 -12 35 -12z" />
    <glyph glyph-name="ninebeng" unicode="&#x9ef;" horiz-adv-x="621" 
d="M199 330q82 0 131.5 -39.5t49.5 -98.5q0 -40 -16 -74q94 25 94 110q0 30 -14.5 53.5t-55 45t-118.5 41.5q-85 22 -136 43t-74 49t-23 71q0 26 11 50.5t31 49.5l116 -44q-7 -9 -11.5 -18t-4.5 -20q0 -14 11 -23t44.5 -19.5t102.5 -29.5q85 -24 136.5 -51.5t78 -58.5
t35.5 -65t9 -71q0 -67 -32 -111.5t-88 -71t-128 -37.5t-152 -11h-16l-22 107q52 8 74 25t22 41q0 23 -14 36.5t-40 13.5q-24 0 -34.5 -10.5t-10.5 -26.5q0 -14 6 -28l-121 -26q-8 19 -12 36.5t-4 36.5q0 60 46 92.5t129 32.5z" />
    <glyph glyph-name="ra1beng" unicode="&#x9f0;" horiz-adv-x="636" 
d="M646 622v-110h-96v-512h-132q-56 81 -148 132.5t-204 70.5l-50 118q89 50 195 96.5t210 74.5v20h-431v110h656zM324 342q25 -10 48.5 -22.5t45.5 -29.5v86q-24 -8 -47.5 -16.5t-46.5 -17.5zM178 277q56 -11 123 -44t118 -86q-1 30 -1 61v3q-36 32 -80 56.5t-92 40.5
q-17 -7 -34 -15z" />
    <glyph glyph-name="wabeng" unicode="&#x9f1;" horiz-adv-x="629" 
d="M639 622v-110h-96v-512h-127q-55 80 -145.5 134t-206.5 74l-48 113q88 49 192 95t207 74v22h-425v110h649zM184 278q56 -11 117 -43t111 -84q-1 29 -1 57v163q-59 -19 -113.5 -42t-113.5 -51zM68 163q68 -13 115.5 -32t84 -45t70.5 -60l-61 -57q-58 45 -110.5 65.5
t-117.5 35.5z" />
    <glyph glyph-name="rupeemarkbeng" unicode="&#x9f2;" horiz-adv-x="609" 
d="M425 86q-40 78 -87 140.5t-111.5 109t-157.5 75.5l47 123q113 -33 194.5 -89t140 -133.5t104.5 -177.5z" />
    <glyph glyph-name="rupeesignbeng" unicode="&#x9f3;" horiz-adv-x="655" 
d="M147 749q65 0 100 -33q20 -20 31 -54t11 -95v-65h328v-110h-328v-228q0 -28 8 -41.5t36 -13.5q30 0 58.5 13t47.5 33.5t19 45.5q0 9 -8 17t-31 8q-19 0 -32 -3l-16 102q36 9 87 9q59 0 95 -27t36 -84q0 -54 -25 -96t-66 -70t-89.5 -42.5t-94.5 -14.5q-42 0 -70.5 10
t-45.5 26q-12 10 -21 24.5t-14.5 39.5t-5.5 67v225h-84v110h84v60q0 38 -10 57t-46 19q-27 0 -57 -12l-38 96q39 14 70 20.5t71 6.5z" />
    <glyph glyph-name="uni09F4" unicode="&#x9f4;" horiz-adv-x="609" 
d="M54 208q92 28 157 74.5t112.5 109t87.5 140.5l129 -48q-46 -102 -105 -179.5t-140 -131.5t-194 -86z" />
    <glyph glyph-name="uni09F5" unicode="&#x9f5;" horiz-adv-x="721" 
d="M215 433q77 0 123 -35.5t51 -89.5q47 42 84.5 97t75.5 127l129 -48q-46 -102 -105 -179.5t-140 -131.5t-194 -86l-47 116q29 7 53.5 27t24.5 47q0 22 -14 35.5t-39 13.5t-35.5 -10t-10.5 -26q0 -14 6 -29l-121 -25q-8 18 -12 36t-4 36q0 61 46 93t129 32z" />
    <glyph glyph-name="uni09F6" unicode="&#x9f6;" horiz-adv-x="768" 
d="M231 0q-91 0 -141 39t-50 100q0 57 37.5 87.5t122.5 44.5q53 9 73.5 18.5t20.5 32.5q0 16 -12 31t-42 15q-23 0 -33.5 -10.5t-10.5 -26.5q0 -15 6 -28l-121 -26q-8 17 -12.5 37t-4.5 36q0 52 41.5 88.5t133.5 36.5q80 0 131 -38.5t51 -103.5q0 -29 -6.5 -51.5
t-22.5 -40.5q-22 -25 -63.5 -41t-100.5 -26q-38 -7 -49.5 -13.5t-11.5 -20.5q0 -13 12 -21t49 -8q90 0 152.5 39.5t103.5 110.5t66 164.5t39 201.5l133 -16q-14 -99 -37 -190t-59 -167.5t-90 -133.5t-129 -88.5t-176 -31.5z" />
    <glyph glyph-name="uni09F7" unicode="&#x9f7;" horiz-adv-x="326" 
d="M97 0v622h132v-622h-132z" />
    <glyph glyph-name="uni09F8" unicode="&#x9f8;" horiz-adv-x="711" 
d="M56 625q53 -1 88 -9.5t55 -27.5q17 -16 26 -39.5t9 -76.5v-153q53 49 126 93.5t161 79.5l89 -72v-241q0 -35 11 -47.5t49 -13.5l-14 -121q-54 1 -89 9.5t-55 27.5q-17 16 -25.5 39.5t-8.5 76.5v194q-74 -38 -142 -89.5t-125 -104.5l-109 71v222q0 35 -11.5 47.5
t-49.5 13.5z" />
    <glyph glyph-name="uni09F9" unicode="&#x9f9;" horiz-adv-x="498" 
d="M51 330q0 56 25.5 97.5t70.5 64.5t102 23t102 -22.5t70.5 -64.5t25.5 -98t-25.5 -97.5t-70 -64.5t-102.5 -23q-57 0 -102 22.5t-70.5 64.5t-25.5 98zM167 330q0 -35 23 -55.5t59 -20.5q35 0 58.5 21t23.5 55q0 35 -23.5 55.5t-58.5 20.5q-36 0 -59 -20.5t-23 -55.5z" />
    <glyph glyph-name="issharbeng" unicode="&#x9fa;" horiz-adv-x="701" 
d="M319 347q-65 0 -119 27.5t-89 86.5t-42 152l132 10q5 -76 34 -117.5t87 -41.5q48 0 84 24t65.5 85t59.5 172l130 -34q-33 -119 -74.5 -200.5t-105 -122.5t-162.5 -41zM333 506q-31 0 -52 21.5t-21 53.5q0 31 21 52.5t52 21.5t52 -21.5t21 -52.5q0 -32 -21 -53.5
t-52 -21.5z" />
    <glyph glyph-name="uni09FB" unicode="&#x9fb;" horiz-adv-x="311" 
d="M46 254q0 61 32.5 99.5t107.5 75.5l73 -117q-38 -16 -55 -34t-17 -41q0 -15 9 -37.5t32 -56.5t63.5 -84.5t104.5 -121.5l-105 -83q-72 84 -119.5 145.5t-75 107.5t-39 81t-11.5 66z" />
    <glyph glyph-name="uni200B" unicode="&#x200b;" 
 />
    <glyph glyph-name="uni200C" unicode="&#x200c;" 
d="M-26 -166v954h52v-954h-52z" />
    <glyph glyph-name="uni200D" unicode="&#x200d;" 
d="M36 646l110 -107l-37 -36l-83 82v-750h-52v750l-83 -82l-37 36l110 107l-110 106l37 36l109 -108l109 108l37 -37z" />
    <glyph glyph-name="uni2010" unicode="&#x2010;" horiz-adv-x="366" 
d="M52 358h262v-122h-262v122z" />
    <glyph glyph-name="endash.beng" unicode="&#x2013;" horiz-adv-x="500" 
d="M40 354h420v-112h-420v112z" />
    <glyph glyph-name="emdash.beng" unicode="&#x2014;" horiz-adv-x="1000" 
d="M40 354h920v-112h-920v112z" />
    <glyph glyph-name="quoteleft.beng" unicode="&#x2018;" horiz-adv-x="335" 
d="M85 484l-7 11q14 53 37.5 116t48.5 118h107q-14 -59 -27.5 -126t-21.5 -119h-137z" />
    <glyph glyph-name="quoteright.beng" unicode="&#x2019;" horiz-adv-x="335" 
d="M274 729l7 -11q-13 -53 -37 -116t-49 -118h-107q14 59 28 126.5t21 118.5h137z" />
    <glyph glyph-name="quotedblleft.beng" unicode="&#x201c;" horiz-adv-x="563" 
d="M85 484l-7 11q14 53 37.5 116t48.5 118h107q-14 -59 -27.5 -126t-21.5 -119h-137zM313 484l-7 11q14 53 37.5 116t48.5 118h107q-13 -59 -27 -126t-22 -119h-137z" />
    <glyph glyph-name="quotedblright.beng" unicode="&#x201d;" horiz-adv-x="563" 
d="M502 729l7 -11q-13 -53 -37 -116t-49 -118h-107q15 59 28.5 126.5t20.5 118.5h137zM274 729l7 -11q-13 -53 -37 -116t-49 -118h-107q14 59 28 126.5t21 118.5h137z" />
    <glyph glyph-name="ellipsis.beng" unicode="&#x2026;" horiz-adv-x="855" 
d="M428 -13q-36 0 -61 19.5t-25 63.5q0 46 25 64.5t61 18.5q34 0 59.5 -18.5t25.5 -64.5q0 -44 -25.5 -63.5t-59.5 -19.5zM143 -13q-36 0 -61 19.5t-25 63.5q0 46 25 64.5t61 18.5q34 0 59.5 -18.5t25.5 -64.5q0 -44 -25.5 -63.5t-59.5 -19.5zM713 -13q-36 0 -61 19.5
t-25 63.5q0 46 25 64.5t61 18.5q34 0 59.5 -18.5t25.5 -64.5q0 -44 -25.5 -63.5t-59.5 -19.5z" />
    <glyph glyph-name="uni20B9.beng" unicode="&#x20b9;" horiz-adv-x="621" 
d="M86 469h173q-8 20 -23 32q-14 12 -34 16t-58 4h-58v101h455v-101h-189q23 -18 36 -52h153v-101h-146q-11 -56 -52 -94t-108 -54l196 -220h-165l-180 212l18 96h26q50 0 73.5 7t37.5 20q13 14 20 33h-175v101z" />
    <glyph glyph-name="minus.beng" unicode="&#x2212;" horiz-adv-x="621" 
d="M70 376h481v-106h-481v106z" />
    <glyph glyph-name="uni25CC" unicode="&#x25cc;" horiz-adv-x="510" 
d="M254 514q30 0 30 -28q0 -29 -30 -29q-28 0 -28 29q0 28 28 28zM125 465q29 0 29 -29t-29 -29q-28 0 -28 29t28 29zM384 465q29 0 29 -29t-29 -29t-29 29t29 29zM429 340q29 0 29 -28q0 -29 -29 -29t-29 29q0 28 29 28zM81 340q28 0 28 -28q0 -29 -28 -29q-29 0 -29 29
q0 28 29 28zM125 216q29 0 29 -29t-29 -29q-28 0 -28 29t28 29zM384 216q29 0 29 -29t-29 -29t-29 29t29 29zM254 166q30 0 30 -29t-30 -29q-28 0 -28 29t28 29z" />
    <glyph glyph-name="kanuktabeng" horiz-adv-x="857" 
d="M825 258q0 -33 -13.5 -63t-46.5 -49t-92 -19q-41 0 -71 6l4 110q5 -1 12.5 -1.5t19.5 -0.5q36 0 47 12.5t11 30.5q0 32 -39 57t-114 40v-381h-132q-56 81 -144.5 132.5t-200.5 70.5l-50 118q87 49 191.5 94.5t206.5 74.5v22h-424v110h877v-110h-326v-21q79 -12 143.5 -43
t102.5 -78.5t38 -111.5zM184 278q56 -11 117 -43.5t112 -83.5q-1 12 -1.5 25.5t-0.5 27.5v167q-59 -19 -113.5 -42t-113.5 -51zM170 -12q-31 0 -52 21.5t-21 53.5t21 53.5t52 21.5t52 -21.5t21 -53.5t-21 -53.5t-52 -21.5z" />
    <glyph glyph-name="khanuktabeng" horiz-adv-x="749" 
d="M191 421q-67 0 -107 32.5t-40 89.5q0 24 6 45.5t15 39.5l118 -28q-9 -18 -9 -34q0 -18 11 -26t28 -8q29 0 50.5 15t50.5 57l93 21q29 -31 48.5 -73t19.5 -90q0 -66 -37 -117.5t-115 -77.5q77 -22 123.5 -54.5t86.5 -66.5q-1 22 -1.5 46t-0.5 50v446h108l23 -66h97v-110
h-96v-512h-132q-47 56 -99.5 95.5t-117 65t-148.5 38.5l-33 116q109 20 161 51.5t52 82.5q0 15 -6 29q-29 -27 -65 -42t-84 -15zM267 -12q-31 0 -52 21.5t-21 53.5t21 53.5t52 21.5t52 -21.5t21 -53.5t-21 -53.5t-52 -21.5z" />
    <glyph glyph-name="ganuktabeng" horiz-adv-x="700" 
d="M482 0v391q-28 33 -59.5 62t-68.5 47.5t-79 18.5q-39 0 -64.5 -15t-47.5 -37q16 7 35 11t43 4q67 0 102.5 -37t35.5 -89q0 -60 -43.5 -110t-132.5 -100l-76 107q58 26 92.5 50.5t34.5 53.5q0 17 -10.5 26.5t-35.5 9.5q-39 0 -88 -26l-105 84q53 77 114 127.5t141 50.5
q60 0 110 -26t104 -76q-1 12 -1.5 26.5t-0.5 31.5v103h109l22 -66h97v-110h-96v-512h-132zM251 -46q-31 0 -52 21.5t-21 53.5t21 53.5t52 21.5t52 -21.5t21 -53.5t-21 -53.5t-52 -21.5z" />
    <glyph glyph-name="ghanuktabeng" horiz-adv-x="662" 
d="M672 622v-110h-96v-512h-132q-50 62 -137 106t-205 61l-42 92q22 15 43 29t44 28q-57 11 -82.5 43t-25.5 70q0 48 32 83h-81v110h682zM386 332q-42 -21 -81.5 -42t-75.5 -43q63 -16 116.5 -42.5t100.5 -69.5q0 15 -1 32.5t-1 34.5v310h-222q-47 -31 -47 -73
q0 -30 18.5 -40.5t38.5 -10.5q23 0 45.5 7t50.5 24zM170 -27q-31 0 -52 21.5t-21 53.5t21 53.5t52 21.5t52 -21.5t21 -53.5t-21 -53.5t-52 -21.5z" />
    <glyph glyph-name="nganuktabeng" horiz-adv-x="751" 
d="M439 4q-68 0 -130 19t-116.5 65t-99 125.5t-77.5 200.5l125 35q48 -177 118 -254t169 -77q70 0 112.5 30t42.5 87q0 23 -7 46q-77 -61 -167 -61q-57 0 -88 25q-47 36 -47 130v46v0q-52 25 -89 61t-67 75l92 66q20 -26 41.5 -50.5t44.5 -43.5q24 48 69.5 73.5t105.5 25.5
q71 0 107 -32t36 -87q0 -41 -24 -68t-64.5 -40t-89.5 -13q-17 0 -33 1v-20q0 -17 4.5 -27.5t21.5 -10.5q29 0 53 13.5t59 45.5l118 11q25 -36 40.5 -83.5t15.5 -93.5q0 -98 -69.5 -159t-206.5 -61zM465 542q-28 0 -42.5 -19t-18.5 -46q15 -3 31 -3q33 0 49 11.5t16 27.5
q0 14 -9.5 21.5t-25.5 7.5zM375 -206q-31 0 -52 21.5t-21 53.5t21 53.5t52 21.5t52 -21.5t21 -53.5t-21 -53.5t-52 -21.5z" />
    <glyph glyph-name="canuktabeng" horiz-adv-x="593" 
d="M603 622v-110h-390v-10q28 -39 70.5 -59.5t92.5 -20.5h20q52 0 81 -10t49 -32q14 -15 21 -37.5t7 -45.5q0 -61 -23 -108t-61 -85q-40 -39 -92 -61.5t-111 -22.5q-54 0 -84 10t-50 28q-22 19 -37 53.5t-15 108.5v292h-91v110h613zM229 145q13 -15 46 -15q52 0 103 48
q22 20 34 43t12 47q0 22 -13.5 31.5t-35.5 9.5h-10q-30 0 -53.5 6t-53.5 23q-27 16 -46 36q0 -8 0.5 -16t0.5 -16v-123q0 -35 4 -50.5t12 -23.5zM292 -206q-31 0 -52 21.5t-21 53.5t21 53.5t52 21.5t52 -21.5t21 -53.5t-21 -53.5t-52 -21.5z" />
    <glyph glyph-name="chanuktabeng" horiz-adv-x="733" 
d="M241 192q-51 0 -86 12t-54 39q-13 19 -21 44t-8 75v150h-82v110h753v-110h-544v-3q22 -18 48 -28t65 -10h70q24 3 64 3q70 0 115.5 -18.5t71.5 -46.5t36.5 -59.5t10.5 -56.5q0 -75 -38 -122.5t-95 -73.5q45 -9 91.5 -21t94.5 -28l-35 -104q-145 50 -278.5 72.5
t-267.5 29.5l13 111q25 -5 61 -8t79 -3q131 0 187.5 38.5t56.5 100.5q0 65 -62 86v-1q0 -50 -32 -90.5t-87.5 -64t-126.5 -23.5zM208 308q11 -15 42 -15q46 0 78 20.5t32 42.5t-34 22h-27q-28 0 -53.5 8.5t-48.5 23.5q2 -18 2 -30v-30q0 -20 2.5 -29t6.5 -13zM362 -177
q-31 0 -52 21.5t-21 53.5t21 53.5t52 21.5t52 -21.5t21 -53.5t-21 -53.5t-52 -21.5z" />
    <glyph glyph-name="januktabeng" horiz-adv-x="997" 
d="M440 30q-96 0 -176 35.5t-142.5 122t-105.5 240.5l125 35q35 -121 76.5 -190.5t94.5 -98.5t121 -29q71 0 101.5 25.5t30.5 65.5q0 17 -2 32q-30 -19 -64.5 -29.5t-80.5 -10.5q-65 0 -107.5 32t-42.5 101q0 40 22 78.5t82 73.5q-19 -1 -34.5 -1h-35.5h-312v110h1017v-110
h-296q-13 0 -28 0.5t-31 0.5q20 -25 61.5 -44t116.5 -19q11 0 21.5 1t26.5 2l61 -99q-19 -34 -29.5 -72t-10.5 -85q0 -40 8.5 -86t24.5 -95l-129 -27q-19 54 -28 103.5t-9 111.5q0 37 5.5 72.5t16.5 66.5q-104 15 -167.5 53t-100.5 93q-58 -26 -89 -55.5t-31 -56.5
q0 -20 11 -29.5t26 -9.5q27 0 48 11t48 31l146 -43q7 -20 11.5 -46.5t4.5 -54.5q0 -50 -25 -97.5t-81 -78t-149 -30.5zM488 -168q-31 0 -52 21.5t-21 53.5t21 53.5t52 21.5t52 -21.5t21 -53.5t-21 -53.5t-52 -21.5z" />
    <glyph glyph-name="jhanuktabeng" horiz-adv-x="854" 
d="M543 622v-329q25 -14 49 -32.5t46 -40.5q-1 12 -1.5 25.5t-0.5 27.5v415h109l22 -66h97v-110h-96v-438h-131q-39 56 -94 98v-172h-132q-56 81 -144.5 132.5t-200.5 70.5l-50 118q88 49 192 95t207 74v22h-425v110h553zM184 278q56 -11 117 -43.5t112 -83.5
q-1 12 -1.5 25.5t-0.5 27.5v167q-59 -19 -113.5 -42t-113.5 -51zM170 -12q-31 0 -52 21.5t-21 53.5t21 53.5t52 21.5t52 -21.5t21 -53.5t-21 -53.5t-52 -21.5z" />
    <glyph glyph-name="nyanuktabeng" horiz-adv-x="1070" 
d="M533 628q48 0 78.5 -9.5t53.5 -27.5q10 -8 18.5 -20t14.5 -29q37 36 78.5 54t94.5 18q71 0 110.5 -35t39.5 -88q0 -23 -9.5 -50t-36.5 -51q21 -16 36 -41t15 -60q0 -34 -17 -63.5t-52 -47.5t-91 -18q-52 0 -91 19t-65 49q2 -30 2 -62v-166h-130q-16 36 -40 51.5t-71 15.5
q-55 0 -100.5 -7.5t-98.5 -7.5q-43 0 -85.5 7.5t-77.5 30t-56.5 66t-21.5 115.5q0 25 3.5 54t8.5 52l129 -17q-4 -14 -7 -34t-3 -49q0 -49 18.5 -73t48 -31t62.5 -7q47 0 86 7t77 7q40 0 68 -10t58 -40v305q0 31 -4 46t-13 23q-13 14 -43 14q-27 0 -50.5 -12.5t-41.5 -31.5
t-28.5 -38t-10.5 -32q0 -14 9 -23t41 -9q11 0 19 1t18 2l6 -107q-13 -4 -32 -7t-47 -3q-61 0 -102.5 31t-41.5 97q0 41 21 83.5t59 78.5t87.5 58t106.5 22zM853 513q-41 0 -77.5 -28.5t-63.5 -78.5v-15q21 -66 57.5 -98t77.5 -32q24 0 39.5 9.5t15.5 32.5q0 21 -17 38
q-23 -7 -49 -12l-24 97q84 14 84 54q0 19 -12.5 26t-30.5 7zM414 -167q-31 0 -52 21.5t-21 53.5t21 53.5t52 21.5t52 -21.5t21 -53.5t-21 -53.5t-52 -21.5z" />
    <glyph glyph-name="ttanuktabeng" horiz-adv-x="593" 
d="M380 622q-2 31 -17 44.5t-52 13.5h-75q-76 0 -123.5 14.5t-74.5 44.5q-36 40 -36 115q0 15 1 27.5t4 30.5l125 -8q-1 -9 -1.5 -16t-0.5 -13q0 -21 4.5 -38t15.5 -27q10 -10 27.5 -15t55.5 -5h79q59 0 93.5 -9t58.5 -32q19 -19 29.5 -50t11.5 -77h98v-110h-390v-293
q0 -35 4 -50.5t12 -23.5q13 -15 46 -15q52 0 103 48q22 20 34 43t12 47q0 19 -12 31t-39 12q-13 0 -23.5 -1.5t-19.5 -2.5l-18 108q22 5 44 8t51 3q79 0 113 -39t34 -95t-23 -103t-61 -85q-40 -39 -92 -61.5t-111 -22.5q-54 0 -84 10t-51 29q-21 18 -36 52.5t-15 108.5v292
h-91v110h390zM292 -206q-31 0 -52 21.5t-21 53.5t21 53.5t52 21.5t52 -21.5t21 -53.5t-21 -53.5t-52 -21.5z" />
    <glyph glyph-name="tthanuktabeng" horiz-adv-x="634" 
d="M308 0q-65 0 -120.5 20t-97.5 54t-68 77l34 115q81 10 126.5 34t63.5 60t18 78q0 15 -1.5 34.5t-9.5 39.5h-263v110h209q-37 44 -54.5 80t-17.5 74q0 42 23 76t66 65l96 -92q-30 -23 -41.5 -42t-11.5 -42q0 -26 20.5 -53.5t58.5 -65.5h306v-110h-120h-33t-28 2
q65 -65 95.5 -133t30.5 -140q0 -113 -70.5 -177t-210.5 -64zM305 114q65 0 106.5 33t41.5 100q0 53 -19.5 105t-66.5 112q4 -16 6.5 -32.5t2.5 -32.5q0 -50 -18 -93.5t-63 -78t-126 -57.5q25 -28 61.5 -42t74.5 -14zM314 -206q-31 0 -52 21.5t-21 53.5t21 53.5t52 21.5
t52 -21.5t21 -53.5t-21 -53.5t-52 -21.5z" />
    <glyph glyph-name="nnanuktabeng" horiz-adv-x="643" 
d="M653 622v-110h-96v-512h-132v392q-44 52 -92.5 88t-98.5 36q-30 0 -48.5 -17t-18.5 -48q0 -21 10.5 -38.5t37.5 -28t78 -12.5l-15 -130q-130 15 -188.5 70.5t-58.5 141.5q0 53 24 92.5t65 61t93 21.5q69 0 120 -31t94 -72q-2 38 -2 74v88h108l23 -66h97zM234 -12
q-31 0 -52 21.5t-21 53.5t21 53.5t52 21.5t52 -21.5t21 -53.5t-21 -53.5t-52 -21.5z" />
    <glyph glyph-name="tanuktabeng" horiz-adv-x="732" 
d="M742 622v-110h-752v110h752zM430 33q-94 0 -172.5 36.5t-139 122.5t-102.5 236l125 35q47 -162 110 -238.5t163 -76.5q77 0 114 30t37 89q0 51 -26.5 76.5t-61.5 25.5q-23 0 -38.5 -12t-15.5 -36q0 -22 8 -43l-125 -19q-10 23 -14 43t-4 35q0 50 25 80.5t65 44.5t87 14
q75 0 127 -29t79 -79t27 -113q0 -59 -27.5 -110t-87 -81.5t-153.5 -30.5zM368 -182q-31 0 -52 21.5t-21 53.5t21 53.5t52 21.5t52 -21.5t21 -53.5t-21 -53.5t-52 -21.5z" />
    <glyph glyph-name="thanuktabeng" horiz-adv-x="718" 
d="M227 625q75 0 123 -25t71 -64.5t23 -84.5q0 -65 -40 -112.5t-112 -71.5q77 -22 123.5 -54.5t86.5 -66.5q-2 22 -2 46v50v446h108l23 -66h97v-110h-96v-512h-132q-47 56 -99.5 95.5t-117 65t-148.5 38.5l-32 116q113 21 161 53t48 79q0 29 -21 50t-63 21q-32 0 -46 -12
t-14 -25q0 -24 29 -43l-82 -82q-17 12 -35.5 28.5t-30.5 40t-12 57.5q0 38 21 71t63 52.5t106 19.5zM232 -12q-31 0 -52 21.5t-21 53.5t21 53.5t52 21.5t52 -21.5t21 -53.5t-21 -53.5t-52 -21.5z" />
    <glyph glyph-name="danuktabeng" horiz-adv-x="639" 
d="M649 622v-110h-442v-228q53 49 126 94t161 81l91 -76q-22 -38 -32 -83t-10 -97q0 -39 8 -87.5t25 -99.5l-129 -27q-18 53 -27.5 103t-9.5 109q0 26 3.5 51t10.5 48q-67 -38 -128 -86.5t-112 -96.5l-109 71v324h-85v110h659zM288 -135q-31 0 -52 21.5t-21 53.5t21 53.5
t52 21.5t52 -21.5t21 -53.5t-21 -53.5t-52 -21.5z" />
    <glyph glyph-name="dhanuktabeng" horiz-adv-x="629" 
d="M237 629q16 0 31.5 -1.5t30.5 -3.5l-8 -101q-5 1 -11 1.5t-16 0.5q-26 0 -37.5 -10.5t-11.5 -24.5q0 -34 45 -53q37 15 75.5 28.5t75.5 23.5v133h228v-110h-96v-512h-132q-56 81 -144.5 132.5t-200.5 70.5l-50 118q32 18 67 36t71 35q-31 23 -47.5 51t-16.5 65
q0 28 13 56t45 46.5t89 18.5zM184 278q56 -11 117 -43.5t112 -84.5q-1 16 -1.5 33t-0.5 37v151q-59 -19 -113.5 -42t-113.5 -51zM170 -12q-31 0 -52 21.5t-21 53.5t21 53.5t52 21.5t52 -21.5t21 -53.5t-21 -53.5t-52 -21.5z" />
    <glyph glyph-name="nanuktabeng" horiz-adv-x="634" 
d="M644 622v-110h-96v-512h-132v182q-44 52 -94 87t-97 35q-25 0 -42.5 -11.5t-17.5 -36.5q0 -22 16 -37t51 -29l-59 -110q-67 26 -105.5 74.5t-38.5 106.5q0 53 25 88t64 51.5t82 16.5q62 0 115 -25t102 -70q-1 17 -1 34v32v124h-426v110h654zM233 -122q-31 0 -52 21.5
t-21 53.5t21 53.5t52 21.5t52 -21.5t21 -53.5t-21 -53.5t-52 -21.5z" />
    <glyph glyph-name="panuktabeng" horiz-adv-x="765" 
d="M775 622v-110h-96v-512h-132v349q-20 26 -38 47l-255 -231l-91 85l28 25q22 29 22 55q0 24 -13.5 34.5t-32.5 10.5q-25 0 -55 -18l-99 91q45 56 88.5 97t90.5 62.5t105 21.5q74 0 131.5 -36.5t121.5 -99.5q-1 16 -2 33.5t-1 35.5v126h108l23 -66h97zM304 370v-4
q11 11 23.5 22t23.5 21l75 65q-30 22 -61 33.5t-64 11.5q-46 0 -81 -19t-67 -52q12 5 26 8t30 3q49 0 72 -27.5t23 -61.5zM251 -32q-31 0 -52 21.5t-21 53.5t21 53.5t52 21.5t52 -21.5t21 -53.5t-21 -53.5t-52 -21.5z" />
    <glyph glyph-name="phanuktabeng" horiz-adv-x="885" 
d="M895 622v-110h-699q45 -16 82 -41.5t67 -52.5l12 -88q-40 -16 -81.5 -35.5t-78.5 -39.5q36 -7 81 -23t88 -40.5t75 -57.5q-1 16 -1.5 33t-0.5 35v283h46q102 0 175 -18.5t131 -71.5q31 -29 46.5 -64t15.5 -73q0 -34 -13.5 -63.5t-46.5 -48.5t-92 -19q-41 0 -72 6l5 110
q5 -1 12.5 -1.5t19.5 -0.5q36 0 47 12.5t11 30.5q0 29 -36 54.5t-117 33.5v-372h-132q-59 74 -149 115t-212 57l-47 113q41 25 89.5 51.5t98.5 50.5q-42 24 -90.5 42t-105.5 27l25 56h-58v110h905zM172 -27q-31 0 -52 21.5t-21 53.5t21 53.5t52 21.5t52 -21.5t21 -53.5
t-21 -53.5t-52 -21.5z" />
    <glyph glyph-name="bhanuktabeng" horiz-adv-x="750" 
d="M760 622v-110h-770v110h770zM442 29q-70 0 -133.5 19t-118 64t-98.5 122t-76 194l125 35q35 -121 76.5 -190.5t94 -99t120.5 -29.5q72 0 111.5 31t39.5 89q0 29 -9 53q-35 -30 -76 -45.5t-91 -15.5q-68 0 -107.5 32.5t-39.5 88.5q0 24 6 46t15 40l118 -29q-9 -18 -9 -33
q0 -19 11 -27t28 -8q29 0 50.5 15t50.5 57l111 19q73 -99 73 -210q0 -62 -30.5 -111.5t-91 -78t-150.5 -28.5zM380 -182q-31 0 -52 21.5t-21 53.5t21 53.5t52 21.5t52 -21.5t21 -53.5t-21 -53.5t-52 -21.5z" />
    <glyph glyph-name="manuktabeng" horiz-adv-x="645" 
d="M655 622v-110h-96v-512h-132v152q-48 56 -96.5 89.5t-94.5 33.5q-26 0 -43 -12t-17 -36q0 -22 16 -37.5t52 -28.5l-59 -111q-67 26 -106 75t-39 106q0 48 20.5 80t54 49.5t71.5 22.5q-10 23 -30 36.5t-53.5 21.5t-87.5 15l14 56h-39v110h665zM427 512h-214q46 -21 72 -56
t33 -91q55 -22 110 -75q-1 17 -1 34v33v155zM241 -137q-31 0 -52 21.5t-21 53.5t21 53.5t52 21.5t52 -21.5t21 -53.5t-21 -53.5t-52 -21.5z" />
    <glyph glyph-name="lanuktabeng" horiz-adv-x="776" 
d="M786 622v-110h-96v-512h-132v297q-13 14 -28 23t-33 9q-16 0 -34 -12.5t-18 -52.5q0 -17 3 -32l-113 -7q-8 49 -35.5 78.5t-73.5 29.5q-28 0 -44.5 -14.5t-16.5 -38.5q0 -36 28.5 -56t69.5 -33l-38 -112q-91 25 -143.5 76.5t-52.5 129.5q0 50 24.5 86t65.5 55.5t90 19.5
q54 0 91.5 -16.5t75.5 -51.5q12 31 38.5 47t56.5 16q26 0 48 -8t41 -22q-2 26 -2 50v51h-568v110h796zM361 -49q-31 0 -52 21.5t-21 53.5t21 53.5t52 21.5t52 -21.5t21 -53.5t-21 -53.5t-52 -21.5z" />
    <glyph glyph-name="shanuktabeng" horiz-adv-x="714" 
d="M82 629q44 0 82.5 -17.5t61.5 -55.5q19 37 51 55t69 18q50 0 87 -21t65 -59q-1 14 -1.5 28t-0.5 27v84h108l23 -66h97v-110h-96v-512h-132v424q-27 43 -59.5 69t-70.5 26q-28 0 -48.5 -15.5t-20.5 -47.5q0 -68 118 -72l-14 -120q-67 4 -108.5 26.5t-62.5 59.5
q-21 -37 -63.5 -61.5t-111.5 -24.5l-13 119q68 4 92.5 23.5t24.5 48.5q0 32 -22.5 48t-59.5 16q-21 0 -38.5 -2t-38.5 -8l-12 111q26 4 48.5 6.5t45.5 2.5zM256 -12q-31 0 -52 21.5t-21 53.5t21 53.5t52 21.5t52 -21.5t21 -53.5t-21 -53.5t-52 -21.5z" />
    <glyph glyph-name="ssanuktabeng" horiz-adv-x="672" 
d="M682 622v-110h-96v-512h-132q-67 74 -158 114.5t-218 57.5l-47 113q41 25 95.5 53.5t102.5 48.5q-55 24 -108.5 42t-97.5 27l25 56h-58v110h692zM454 512h-258q62 -21 132 -56.5t128 -79.5q-1 17 -1.5 37.5t-0.5 40.5v58zM188 256q40 -6 87 -21.5t94 -41t87 -59.5
q-2 16 -2 33v36v48q-23 21 -52 41t-61 39q-38 -17 -78 -36t-75 -39zM172 -27q-31 0 -52 21.5t-21 53.5t21 53.5t52 21.5t52 -21.5t21 -53.5t-21 -53.5t-52 -21.5z" />
    <glyph glyph-name="sanuktabeng" horiz-adv-x="708" 
d="M718 622v-110h-96v-512h-132v301q-24 24 -43 24q-13 0 -22.5 -7t-24 -28.5t-40.5 -63.5q-43 -67 -78.5 -95t-87.5 -28q-45 0 -85.5 23.5t-80.5 94.5l92 57q20 -32 34 -45.5t33 -13.5q13 0 24.5 6t29.5 31q-9 57 -19 91.5t-32 53.5q-24 21 -64 31t-101 18l20 62h-55v110
h728zM490 512h-285q58 -18 81.5 -50t31.5 -90q22 35 43.5 49.5t51.5 14.5q22 0 40.5 -9t38.5 -26q-1 14 -1.5 29.5t-0.5 30.5v51zM229 -88q-31 0 -52 21.5t-21 53.5t21 53.5t52 21.5t52 -21.5t21 -53.5t-21 -53.5t-52 -21.5z" />
    <glyph glyph-name="hanuktabeng" horiz-adv-x="573" 
d="M263 485q92 0 146.5 -27.5t78.5 -69.5t24 -86q0 -67 -35 -108t-100 -62q53 -19 105 -46.5t102 -62.5l-70 -93q-94 68 -210 116t-258 70l22 105q34 -9 68 -14t68 -5q95 0 135 27t40 72q0 36 -27.5 58t-77.5 22q-44 0 -61.5 -11.5t-17.5 -34.5q0 -12 6 -24l-124 -18
q-6 15 -10 34.5t-4 36.5q0 64 71 97q-19 34 -65 51h-79v110h593v-110h-347q13 -12 22 -27h5zM226 -132q-31 0 -52 21.5t-21 53.5t21 53.5t52 21.5t52 -21.5t21 -53.5t-21 -53.5t-52 -21.5z" />
    <glyph glyph-name="ra1nuktabeng" horiz-adv-x="636" 
d="M646 622v-110h-96v-512h-132q-56 81 -148 132.5t-204 70.5l-50 118q89 50 195 96.5t210 74.5v20h-431v110h656zM324 342q25 -10 48.5 -22.5t45.5 -29.5v86q-24 -8 -47.5 -16.5t-46.5 -17.5zM178 277q56 -11 123 -44t118 -86q-1 30 -1 61v3q-36 32 -80 56.5t-92 40.5
q-17 -7 -34 -15zM170 -12q-31 0 -52 21.5t-21 53.5t21 53.5t52 21.5t52 -21.5t21 -53.5t-21 -53.5t-52 -21.5z" />
    <glyph glyph-name="wanuktabeng" horiz-adv-x="629" 
d="M639 622v-110h-96v-512h-127q-55 80 -145.5 134t-206.5 74l-48 113q88 49 192 95t207 74v22h-425v110h649zM184 278q56 -11 117 -43t111 -84q-1 29 -1 57v163q-59 -19 -113.5 -42t-113.5 -51zM68 163q68 -13 115.5 -32t84 -45t70.5 -60l-61 -57q-58 45 -110.5 65.5
t-117.5 35.5zM140 -138q-31 0 -52 21.5t-21 53.5t21 53.5t52 21.5t52 -21.5t21 -53.5t-21 -53.5t-52 -21.5z" />
    <glyph glyph-name="kassabeng" horiz-adv-x="1002" 
d="M973 242q0 -34 -15.5 -65.5t-49 -52t-87.5 -20.5q-31 0 -62 6l5 110q4 -1 11.5 -1.5t16.5 -0.5q31 0 40 11t9 24q0 24 -22 38q-19 12 -48 16.5t-71 4.5v-312h-132v65q-36 48 -75 80.5t-83 32.5q-55 0 -55 -42q0 -14 4.5 -24.5t10.5 -19.5l-119 -43q-14 25 -22.5 52.5
t-8.5 61.5q0 47 31 75.5t70 39.5q-15 32 -42.5 53t-64.5 21q-26 0 -39 -11.5t-13 -30.5q0 -14 4.5 -25t10.5 -19l-119 -43q-14 24 -22.5 52t-8.5 61q0 53 35.5 81t82.5 38q-12 33 -38 57h-117v110h1022v-110h-312v-91q96 -2 147.5 -19.5t80.5 -47.5q24 -24 34.5 -52
t10.5 -60zM382 501v11h-136q9 -13 15.5 -28t9.5 -33q64 -18 111 -65t58 -106q73 -17 130 -82q-1 14 -1.5 28.5t-0.5 39.5v48q-82 9 -134 52t-52 135zM503 505q0 -38 16.5 -57.5t51.5 -24.5v89h-68v-7z" />
    <glyph glyph-name="janyabeng" horiz-adv-x="1051" 
d="M839 38q-69 0 -110 28.5t-67 67.5q-26 -45 -80 -74.5t-142 -29.5q-96 0 -176 35.5t-142.5 122t-105.5 240.5l125 35q35 -121 76.5 -190.5t94.5 -98.5t121 -29q71 0 101.5 25.5t30.5 65.5q0 19 -3 36q-34 -24 -68 -34t-76 -10q-65 0 -107.5 32t-42.5 101q0 40 22 78.5
t82 73.5q-18 -1 -38 -1h-43h-301v110h1071v-110h-474q9 -29 24 -60.5t38 -59.5q48 57 95 78.5t104 21.5q71 0 110.5 -35.5t39.5 -88.5q0 -23 -9.5 -49.5t-36.5 -51.5q21 -16 36 -40.5t15 -59.5q0 -34 -17 -63.5t-53.5 -47.5t-93.5 -18zM396 376q0 -38 41 -38q26 0 46.5 8.5
t38.5 23.5q-15 24 -27 49t-20 49q-79 -46 -79 -92zM830 391q-42 0 -79 -29t-64 -80q1 -3 1 -6q20 -70 57 -103.5t79 -33.5q24 0 39.5 9.5t15.5 32.5q0 21 -16 38q-23 -7 -50 -12l-24 97q84 14 84 54q0 20 -12.5 26.5t-30.5 6.5z" />
    <glyph glyph-name="rephbeng" 
d="M-302 744l347 173l52 -94l-343 -179z" />
    <glyph glyph-name="vattubeng" 
d="M-86 -233h-131q-23 57 -109 57q-36 0 -66.5 -4t-62.5 -8.5t-73 -4.5q-36 0 -74 7.5t-69.5 26.5t-51 54.5t-19.5 92.5q0 23 2.5 41t6.5 29l127 -16q-4 -11 -6 -21.5t-2 -24.5q0 -46 31.5 -62t81.5 -16q31 0 56.5 4t51 8.5t55.5 4.5q80 0 120 -54v240l132 44v-398z" />
    <glyph glyph-name="basubscriptbeng" 
d="M-86 72v-340h-132q-36 30 -70 50t-72.5 32.5t-88.5 21.5l-49 111q61 35 135 68t145 57h132zM-218 -36q-33 -9 -68.5 -23t-73.5 -33q42 -9 78 -26t66 -42q-1 11 -1.5 22.5t-0.5 22.5v79z" />
    <glyph glyph-name="kahalfbeng" horiz-adv-x="730" 
d="M-10 512v110h750v-110h-260v-11q70 -11 126 -36t88 -65.5t32 -97.5q0 -50 -34 -83.5t-106 -33.5q-20 0 -34 1.5t-28 3.5l5 101q5 -1 11.5 -1.5t13.5 -0.5q27 0 36 9t9 22q0 27 -31 48.5t-86 30.5v-279h-132q-42 39 -83 65t-90 42.5t-114 26.5l-47 115q81 41 167.5 75.5
t168.5 56.5v11h-362zM350 303v93q-46 -13 -94.5 -31.5t-88.5 -36.5q55 -12 104 -37t82 -55q-1 19 -2 34.5t-1 32.5z" />
    <glyph glyph-name="khahalfbeng" horiz-adv-x="749" 
d="M191 421q-67 0 -107 32.5t-40 89.5q0 24 6 45.5t15 39.5l118 -28q-9 -18 -9 -34q0 -18 11 -26t28 -8q29 0 50.5 15t50.5 57l93 21q29 -31 48.5 -73t19.5 -90q0 -66 -37 -117.5t-115 -77.5q77 -22 123.5 -54.5t86.5 -66.5q-1 22 -1.5 46t-0.5 50v446h108l23 -66h97v-110
h-96v-512h-132q-47 56 -99.5 95.5t-117 65t-148.5 38.5l-33 116q109 20 161 51.5t52 82.5q0 15 -6 29q-29 -27 -65 -42t-84 -15zM592 -12l285 -169l-57 -90l-288 164z" />
    <glyph glyph-name="gahalfbeng" horiz-adv-x="514" 
d="M271 629q84 0 157.5 -50t150.5 -133l-83 -71q-54 64 -106 104t-113 40q-38 0 -64.5 -12.5t-51.5 -33.5q17 7 38.5 11.5t48.5 4.5q62 0 96.5 -33t34.5 -80q0 -64 -41.5 -107t-124.5 -84l-68 105q65 28 87 46t22 37q0 29 -44 29q-22 0 -43.5 -7t-48.5 -20l-103 83
q39 52 77.5 90.5t82 59.5t96.5 21z" />
    <glyph glyph-name="ghahalfbeng" horiz-adv-x="662" 
d="M672 622v-110h-96v-512h-132q-50 62 -137 106t-205 61l-42 92q22 15 43 29t44 28q-57 11 -82.5 43t-25.5 70q0 48 32 83h-81v110h682zM386 332q-42 -21 -81.5 -42t-75.5 -43q63 -16 116.5 -42.5t100.5 -69.5q0 15 -1 32.5t-1 34.5v310h-222q-47 -31 -47 -73
q0 -30 18.5 -40.5t38.5 -10.5q23 0 45.5 7t50.5 24zM505 -12l285 -169l-57 -90l-288 164z" />
    <glyph glyph-name="ngahalfbeng" horiz-adv-x="680" 
d="M395 120q-89 0 -161 28.5t-126.5 94t-91.5 176.5l122 34q26 -83 58.5 -133t78 -72.5t109.5 -22.5q78 0 112 25.5t36 60.5q-37 -24 -72.5 -33.5t-74.5 -9.5q-77 0 -115.5 37t-38.5 95q0 33 9.5 61.5t25.5 51.5q-23 -1 -48 -1h-228v110h700v-110h-134q1 -6 1 -14
q0 -50 -38.5 -76t-121.5 -26q-29 0 -61 8q1 -28 15 -38t39 -10q38 0 72 15t74 46l92 -6q13 -24 19.5 -53.5t6.5 -53.5q0 -90 -70.5 -137t-188.5 -47zM423 531q-21 0 -39.5 -14.5t-30.5 -37.5q23 -6 45 -6q34 0 46 9t12 24q0 25 -33 25z" />
    <glyph glyph-name="cahalfbeng" horiz-adv-x="523" 
d="M533 622v-110h-328v-8q22 -24 54.5 -41t88.5 -17h22q44 0 66.5 -7.5t38.5 -21.5q31 -28 31 -76q0 -50 -24 -90.5t-65 -70.5q-43 -32 -90 -46t-99 -14q-40 0 -68 9t-45 26q-17 16 -29 42.5t-12 89.5v225h-84v110h543zM205 282q0 -31 11.5 -42t33.5 -11q23 0 46.5 8
t41.5 21q16 11 26 25.5t10 28.5q0 16 -10 20t-23 4h-10q-30 0 -52 7.5t-39 19.5q-20 14 -37 35q1 -10 1.5 -21.5t0.5 -23.5v-71z" />
    <glyph glyph-name="chahalfbeng" horiz-adv-x="733" 
d="M241 192q-51 0 -86 12t-54 39q-13 19 -21 44t-8 75v150h-82v110h753v-110h-544v-3q22 -18 48 -28t65 -10h70q24 3 64 3q70 0 115.5 -18.5t71.5 -46.5t36.5 -59.5t10.5 -56.5q0 -75 -38 -122.5t-95 -73.5q45 -9 91.5 -21t94.5 -28l-35 -104q-145 50 -278.5 72.5
t-267.5 29.5l13 111q25 -5 61 -8t79 -3q131 0 187.5 38.5t56.5 100.5q0 65 -62 86v-1q0 -50 -32 -90.5t-87.5 -64t-126.5 -23.5zM208 308q11 -15 42 -15q46 0 78 20.5t32 42.5t-34 22h-27q-28 0 -53.5 8.5t-48.5 23.5q2 -18 2 -30v-30q0 -20 2.5 -29t6.5 -13zM435 -12
l285 -169l-57 -90l-288 164z" />
    <glyph glyph-name="jahalfbeng" horiz-adv-x="997" 
d="M440 30q-96 0 -176 35.5t-142.5 122t-105.5 240.5l125 35q35 -121 76.5 -190.5t94.5 -98.5t121 -29q71 0 101.5 25.5t30.5 65.5q0 17 -2 32q-30 -19 -64.5 -29.5t-80.5 -10.5q-65 0 -107.5 32t-42.5 101q0 40 22 78.5t82 73.5q-19 -1 -34.5 -1h-35.5h-312v110h1017v-110
h-296q-13 0 -28 0.5t-31 0.5q20 -25 61.5 -44t116.5 -19q11 0 21.5 1t26.5 2l61 -99q-19 -34 -29.5 -72t-10.5 -85q0 -40 8.5 -86t24.5 -95l-129 -27q-19 54 -28 103.5t-9 111.5q0 37 5.5 72.5t16.5 66.5q-104 15 -167.5 53t-100.5 93q-58 -26 -89 -55.5t-31 -56.5
q0 -20 11 -29.5t26 -9.5q27 0 48 11t48 31l146 -43q7 -20 11.5 -46.5t4.5 -54.5q0 -50 -25 -97.5t-81 -78t-149 -30.5zM610 -12l285 -169l-57 -90l-288 164z" />
    <glyph glyph-name="jhahalfbeng" horiz-adv-x="854" 
d="M543 622v-329q25 -14 49 -32.5t46 -40.5q-1 12 -1.5 25.5t-0.5 27.5v415h109l22 -66h97v-110h-96v-438h-131q-39 56 -94 98v-172h-132q-56 81 -144.5 132.5t-200.5 70.5l-50 118q88 49 192 95t207 74v22h-425v110h553zM184 278q56 -11 117 -43.5t112 -83.5
q-1 12 -1.5 25.5t-0.5 27.5v167q-59 -19 -113.5 -42t-113.5 -51zM472 -12l285 -169l-57 -90l-288 164z" />
    <glyph glyph-name="nyahalfbeng" horiz-adv-x="1070" 
d="M533 628q48 0 78.5 -9.5t53.5 -27.5q10 -8 18.5 -20t14.5 -29q37 36 78.5 54t94.5 18q71 0 110.5 -35t39.5 -88q0 -23 -9.5 -50t-36.5 -51q21 -16 36 -41t15 -60q0 -34 -17 -63.5t-52 -47.5t-91 -18q-52 0 -91 19t-65 49q2 -30 2 -62v-166h-130q-16 36 -40 51.5t-71 15.5
q-55 0 -100.5 -7.5t-98.5 -7.5q-43 0 -85.5 7.5t-77.5 30t-56.5 66t-21.5 115.5q0 25 3.5 54t8.5 52l129 -17q-4 -14 -7 -34t-3 -49q0 -49 18.5 -73t48 -31t62.5 -7q47 0 86 7t77 7q40 0 68 -10t58 -40v305q0 31 -4 46t-13 23q-13 14 -43 14q-27 0 -50.5 -12.5t-41.5 -31.5
t-28.5 -38t-10.5 -32q0 -14 9 -23t41 -9q11 0 19 1t18 2l6 -107q-13 -4 -32 -7t-47 -3q-61 0 -102.5 31t-41.5 97q0 41 21 83.5t59 78.5t87.5 58t106.5 22zM853 513q-41 0 -77.5 -28.5t-63.5 -78.5v-15q21 -66 57.5 -98t77.5 -32q24 0 39.5 9.5t15.5 32.5q0 21 -17 38
q-23 -7 -49 -12l-24 97q84 14 84 54q0 19 -12.5 26t-30.5 7zM636 -12l285 -169l-57 -90l-288 164z" />
    <glyph glyph-name="ttahalfbeng" horiz-adv-x="523" 
d="M354 622q-2 31 -17 44.5t-52 13.5h-49q-76 0 -123.5 14.5t-74.5 44.5q-36 40 -36 115q0 15 1 27.5t4 30.5l125 -8q-1 -9 -1.5 -16t-0.5 -13q0 -21 4.5 -38t15.5 -27q10 -10 27.5 -15t55.5 -5h53q59 0 93.5 -9t58.5 -32q19 -19 29.5 -50t11.5 -77h54v-110h-327v-230
q0 -31 11 -42t33 -11q23 0 46 8t41 21q17 12 27.5 28t10.5 32q0 11 -8.5 19t-30.5 8q-9 0 -17 -0.5t-15 -1.5l-16 102q18 4 40.5 6.5t46.5 2.5q59 0 95 -27.5t36 -83.5q0 -53 -23 -92t-66 -71t-90 -46t-99 -14q-40 0 -68 9t-45 26q-17 16 -29 42.5t-12 89.5v225h-84v110h364
z" />
    <glyph glyph-name="tthahalfbeng" horiz-adv-x="634" 
d="M308 0q-65 0 -120.5 20t-97.5 54t-68 77l34 115q81 10 126.5 34t63.5 60t18 78q0 15 -1.5 34.5t-9.5 39.5h-263v110h209q-37 44 -54.5 80t-17.5 74q0 42 23 76t66 65l96 -92q-30 -23 -41.5 -42t-11.5 -42q0 -26 20.5 -53.5t58.5 -65.5h306v-110h-120h-33t-28 2
q65 -65 95.5 -133t30.5 -140q0 -113 -70.5 -177t-210.5 -64zM305 114q65 0 106.5 33t41.5 100q0 53 -19.5 105t-66.5 112q4 -16 6.5 -32.5t2.5 -32.5q0 -50 -18 -93.5t-63 -78t-126 -57.5q25 -28 61.5 -42t74.5 -14zM342 -12l285 -169l-57 -90l-288 164z" />
    <glyph glyph-name="ddahalfbeng" horiz-adv-x="662" 
d="M672 622v-110h-302v-84q0 -16 4.5 -23.5t17.5 -7.5q17 0 35.5 15t40.5 49l114 21q26 -37 41 -77.5t15 -86.5q0 -88 -67.5 -139.5t-188.5 -51.5q-57 0 -110 13.5t-100 47.5t-86.5 95t-69.5 155l122 34q28 -92 63 -143.5t78 -72t95 -20.5q69 0 105.5 27.5t36.5 68.5
q0 9 -1 19q-30 -28 -65.5 -43t-83.5 -15q-29 0 -50 6.5t-36 19.5q-16 13 -29 40t-13 81v72h-248v110h682z" />
    <glyph glyph-name="ddhahalfbeng" horiz-adv-x="523" 
d="M533 622v-110h-327v-230q0 -31 11 -42t33 -11q23 0 46 8t41 21q17 12 27.5 28t10.5 32q0 11 -8.5 19t-30.5 8q-9 0 -17 -0.5t-15 -1.5l-16 102q18 4 40.5 6.5t46.5 2.5q59 0 95 -27.5t36 -83.5q0 -53 -23 -92t-66 -71t-90 -46t-99 -14q-40 0 -68 9t-45 26
q-17 16 -29 42.5t-12 89.5v225h-84v110h543z" />
    <glyph glyph-name="nnahalfbeng" horiz-adv-x="416" 
d="M207 629q52 0 96 -19t86.5 -53t88.5 -79l-76 -76q-44 49 -87.5 81.5t-90.5 32.5q-26 0 -41.5 -16t-15.5 -42t21.5 -45t88.5 -24l-15 -128q-66 7 -118 30t-82.5 65t-30.5 106q0 50 23 88t62.5 58.5t90.5 20.5z" />
    <glyph glyph-name="tahalfbeng" horiz-adv-x="732" 
d="M742 622v-110h-752v110h752zM430 33q-94 0 -172.5 36.5t-139 122.5t-102.5 236l125 35q47 -162 110 -238.5t163 -76.5q77 0 114 30t37 89q0 51 -26.5 76.5t-61.5 25.5q-23 0 -38.5 -12t-15.5 -36q0 -22 8 -43l-125 -19q-10 23 -14 43t-4 35q0 50 25 80.5t65 44.5t87 14
q75 0 127 -29t79 -79t27 -113q0 -59 -27.5 -110t-87 -81.5t-153.5 -30.5zM454 -12l285 -169l-57 -90l-288 164z" />
    <glyph glyph-name="thahalfbeng" horiz-adv-x="718" 
d="M227 625q75 0 123 -25t71 -64.5t23 -84.5q0 -65 -40 -112.5t-112 -71.5q77 -22 123.5 -54.5t86.5 -66.5q-2 22 -2 46v50v446h108l23 -66h97v-110h-96v-512h-132q-47 56 -99.5 95.5t-117 65t-148.5 38.5l-32 116q113 21 161 53t48 79q0 29 -21 50t-63 21q-32 0 -46 -12
t-14 -25q0 -24 29 -43l-82 -82q-17 12 -35.5 28.5t-30.5 40t-12 57.5q0 38 21 71t63 52.5t106 19.5zM561 -12l285 -169l-57 -90l-288 164z" />
    <glyph glyph-name="dahalfbeng" horiz-adv-x="564" 
d="M574 622v-110h-371v-145q44 29 109.5 59.5t135.5 52.5l88 -77q-16 -31 -23 -62.5t-7 -62.5q0 -40 6 -73.5t17 -70.5l-129 -25q-14 43 -20.5 80t-6.5 73q0 19 2 36.5t6 34.5q-59 -25 -110 -53.5t-90 -54.5l-110 74v214h-81v110h584z" />
    <glyph glyph-name="dhahalfbeng" horiz-adv-x="629" 
d="M237 629q16 0 31.5 -1.5t30.5 -3.5l-8 -101q-5 1 -11 1.5t-16 0.5q-26 0 -37.5 -10.5t-11.5 -24.5q0 -34 45 -53q37 15 75.5 28.5t75.5 23.5v133h228v-110h-96v-512h-132q-56 81 -144.5 132.5t-200.5 70.5l-50 118q32 18 67 36t71 35q-31 23 -47.5 51t-16.5 65
q0 28 13 56t45 46.5t89 18.5zM184 278q56 -11 117 -43.5t112 -84.5q-1 16 -1.5 33t-0.5 37v151q-59 -19 -113.5 -42t-113.5 -51zM472 -12l285 -169l-57 -90l-288 164z" />
    <glyph glyph-name="nahalfbeng" horiz-adv-x="374" 
d="M-10 512v110h394v-110h-394zM190 469q49 0 89 -13.5t78.5 -39t81.5 -61.5l-72 -81q-36 34 -74.5 58t-78.5 24q-22 0 -35.5 -9.5t-13.5 -29.5q0 -19 13 -32.5t44 -24.5l-58 -110q-63 26 -99 71.5t-36 100.5q0 50 23.5 82.5t60.5 48.5t77 16z" />
    <glyph glyph-name="pahalfbeng" horiz-adv-x="560" 
d="M304 629q50 0 98 -18.5t101.5 -60.5t121.5 -113l-77 -76q-11 12 -21 23t-21 22l-255 -210l-87 87l26 22q10 9 16.5 20.5t6.5 25.5q0 18 -13 27t-30 9q-16 0 -29.5 -4.5t-28.5 -13.5l-99 88q49 58 92.5 96t91 57t107.5 19zM215 471q34 0 61.5 -20t27.5 -65q16 15 31 26
l85 67q-29 19 -59 29.5t-64 10.5q-40 0 -71.5 -14.5t-65.5 -44.5q13 5 26.5 8t28.5 3z" />
    <glyph glyph-name="phahalfbeng" horiz-adv-x="885" 
d="M895 622v-110h-699q45 -16 82 -41.5t67 -52.5l12 -88q-40 -16 -81.5 -35.5t-78.5 -39.5q36 -7 81 -23t88 -40.5t75 -57.5q-1 16 -1.5 33t-0.5 35v283h46q102 0 175 -18.5t131 -71.5q31 -29 46.5 -64t15.5 -73q0 -34 -13.5 -63.5t-46.5 -48.5t-92 -19q-41 0 -72 6l5 110
q5 -1 12.5 -1.5t19.5 -0.5q36 0 47 12.5t11 30.5q0 29 -36 54.5t-117 33.5v-372h-132q-59 74 -149 115t-212 57l-47 113q41 25 89.5 51.5t98.5 50.5q-42 24 -90.5 42t-105.5 27l25 56h-58v110h905zM500 -12l285 -169l-57 -90l-288 164z" />
    <glyph glyph-name="bahalfbeng" horiz-adv-x="537" 
d="M547 622v-110h-59v-392h-132q-44 39 -85 65t-90 42.5t-118 26.5l-47 115q88 44 177.5 79.5t164.5 52.5v11h-368v110h557zM356 303v94q-45 -12 -95 -30.5t-94 -38.5q58 -13 106 -37.5t86 -54.5q-3 32 -3 67z" />
    <glyph glyph-name="bhahalfbeng" horiz-adv-x="750" 
d="M760 622v-110h-770v110h770zM442 29q-70 0 -133.5 19t-118 64t-98.5 122t-76 194l125 35q35 -121 76.5 -190.5t94 -99t120.5 -29.5q72 0 111.5 31t39.5 89q0 29 -9 53q-35 -30 -76 -45.5t-91 -15.5q-68 0 -107.5 32.5t-39.5 88.5q0 24 6 46t15 40l118 -29q-9 -18 -9 -33
q0 -19 11 -27t28 -8q29 0 50.5 15t50.5 57l111 19q73 -99 73 -210q0 -62 -30.5 -111.5t-91 -78t-150.5 -28.5zM380 -12l285 -169l-57 -90l-288 164z" />
    <glyph glyph-name="mahalfbeng" horiz-adv-x="619" 
d="M436 266q-50 0 -94 17.5t-85 41.5q-26 15 -43 22.5t-30 7.5q-30 0 -30 -24q0 -22 28 -41l-81 -80q-29 26 -51.5 58t-22.5 76q0 38 19.5 62t48.5 36t59 14q-11 35 -48 56h-116v110h639v-110h-55q13 -21 21 -47t8 -55q0 -67 -42.5 -105.5t-124.5 -38.5zM302 419
q42 -25 65.5 -34t47.5 -9q54 0 54 59q0 21 -9 40.5t-24 36.5h-182q31 -35 31 -83q8 -5 17 -10z" />
    <glyph glyph-name="yahalfbeng" horiz-adv-x="665" 
d="M675 622v-110h-96v-512h-132q-61 75 -151.5 115t-217.5 57l-47 113q41 25 89.5 51.5t98.5 50.5q-42 24 -90.5 42t-105.5 27l25 56h-58v110h685zM447 512h-251q45 -16 82 -41.5t67 -52.5l12 -88q-40 -16 -81.5 -35.5t-78.5 -39.5q40 -7 85.5 -23t89.5 -41t77 -58
q-2 17 -2 34v36v309zM508 -12l285 -169l-57 -90l-288 164z" />
    <glyph glyph-name="lahalfbeng" horiz-adv-x="539" 
d="M-10 512v110h559v-110h-559zM199 461q53 0 90.5 -17.5t70.5 -51.5q12 32 39 48t58 16q43 0 77 -19t70 -51l-67 -75q-14 14 -28 23.5t-30 9.5q-18 0 -33 -12t-15 -41q0 -8 0.5 -14.5t1.5 -12.5l-112 -7q-13 42 -40 66.5t-65 24.5q-23 0 -37 -12t-14 -31q0 -28 25 -44.5
t64 -27.5l-40 -112q-89 25 -137 73t-48 118q0 46 22.5 79.5t61.5 51.5t86 18z" />
    <glyph glyph-name="shahalfbeng" horiz-adv-x="542" 
d="M82 629q44 0 82.5 -17.5t61.5 -55.5q19 37 53 55t75 18q52 0 93 -19t78 -57t79 -94l-87 -64q-36 55 -70.5 89.5t-80.5 34.5q-28 0 -48.5 -15.5t-20.5 -47.5q0 -68 118 -72l-14 -120q-67 4 -108.5 26.5t-62.5 59.5q-21 -37 -63.5 -61.5t-111.5 -24.5l-13 119
q68 4 92.5 23.5t24.5 48.5q0 32 -22.5 48t-59.5 16q-21 0 -38.5 -2t-38.5 -8l-12 111q26 4 48.5 6.5t45.5 2.5z" />
    <glyph glyph-name="ssahalfbeng" horiz-adv-x="542" 
d="M552 622v-110h-43q20 -34 20 -75q0 -63 -36.5 -107t-97.5 -67t-136 -23q-65 0 -117 21t-82.5 61t-30.5 97q0 27 8.5 50.5t23.5 42.5h-35h-36v110h562zM291 527q-32 0 -59 -9q85 -50 154 -116q12 21 12 45q0 38 -27 59t-80 21zM160 429q0 -37 28.5 -60.5t79.5 -23.5
q30 0 56 9q-35 33 -73.5 62.5t-80.5 54.5q-10 -19 -10 -42z" />
    <glyph glyph-name="sahalfbeng" horiz-adv-x="705" 
d="M518 266q-67 0 -116.5 28.5t-76.5 75.5q-15 -40 -49 -72t-91 -32q-31 0 -59 9t-55 34.5t-56 74.5l92 57q22 -37 37 -48t33 -11q31 0 50 27t21 103h-258v110h725v-110h-54q12 -21 20 -46.5t8 -55.5q0 -67 -45 -105.5t-126 -38.5zM555 435q0 21 -9 40.5t-24 36.5h-144
q11 -60 42.5 -98t79.5 -38q55 0 55 59z" />
    <glyph glyph-name="hahalfbeng" horiz-adv-x="573" 
d="M263 485q92 0 146.5 -27.5t78.5 -69.5t24 -86q0 -67 -35 -108t-100 -62q53 -19 105 -46.5t102 -62.5l-70 -93q-94 68 -210 116t-258 70l22 105q34 -9 68 -14t68 -5q95 0 135 27t40 72q0 36 -27.5 58t-77.5 22q-44 0 -61.5 -11.5t-17.5 -34.5q0 -12 6 -24l-124 -18
q-6 15 -10 34.5t-4 36.5q0 64 71 97q-19 34 -65 51h-79v110h593v-110h-347q13 -12 22 -27h5zM327 -12l285 -169l-57 -90l-288 164z" />
    <glyph glyph-name="ra1halfbeng" horiz-adv-x="636" 
d="M646 622v-110h-96v-512h-132q-56 81 -148 132.5t-204 70.5l-50 118q89 50 195 96.5t210 74.5v20h-431v110h656zM324 342q25 -10 48.5 -22.5t45.5 -29.5v86q-24 -8 -47.5 -16.5t-46.5 -17.5zM178 277q56 -11 123 -44t118 -86q-1 30 -1 61v3q-36 32 -80 56.5t-92 40.5
q-17 -7 -34 -15zM479 -12l285 -169l-57 -90l-288 164z" />
    <glyph glyph-name="wahalfbeng" horiz-adv-x="629" 
d="M639 622v-110h-96v-512h-127q-55 80 -145.5 134t-206.5 74l-48 113q88 49 192 95t207 74v22h-425v110h649zM184 278q56 -11 117 -43t111 -84q-1 29 -1 57v163q-59 -19 -113.5 -42t-113.5 -51zM68 163q68 -13 115.5 -32t84 -45t70.5 -60l-61 -57q-58 45 -110.5 65.5
t-117.5 35.5zM472 -12l285 -169l-57 -90l-288 164z" />
    <glyph glyph-name="kassahalfbeng" horiz-adv-x="1002" 
d="M973 242q0 -34 -15.5 -65.5t-49 -52t-87.5 -20.5q-31 0 -62 6l5 110q4 -1 11.5 -1.5t16.5 -0.5q31 0 40 11t9 24q0 24 -22 38q-19 12 -48 16.5t-71 4.5v-312h-132v65q-36 48 -75 80.5t-83 32.5q-55 0 -55 -42q0 -14 4.5 -24.5t10.5 -19.5l-119 -43q-14 25 -22.5 52.5
t-8.5 61.5q0 47 31 75.5t70 39.5q-15 32 -42.5 53t-64.5 21q-26 0 -39 -11.5t-13 -30.5q0 -14 4.5 -25t10.5 -19l-119 -43q-14 24 -22.5 52t-8.5 61q0 53 35.5 81t82.5 38q-12 33 -38 57h-117v110h1022v-110h-312v-91q96 -2 147.5 -19.5t80.5 -47.5q24 -24 34.5 -52
t10.5 -60zM382 501v11h-136q9 -13 15.5 -28t9.5 -33q64 -18 111 -65t58 -106q73 -17 130 -82q-1 14 -1.5 28.5t-0.5 39.5v48q-82 9 -134 52t-52 135zM503 505q0 -38 16.5 -57.5t51.5 -24.5v89h-68v-7zM629 -12l285 -169l-57 -90l-288 164z" />
    <glyph glyph-name="janyahalfbeng" horiz-adv-x="1051" 
d="M839 38q-69 0 -110 28.5t-67 67.5q-26 -45 -80 -74.5t-142 -29.5q-96 0 -176 35.5t-142.5 122t-105.5 240.5l125 35q35 -121 76.5 -190.5t94.5 -98.5t121 -29q71 0 101.5 25.5t30.5 65.5q0 19 -3 36q-34 -24 -68 -34t-76 -10q-65 0 -107.5 32t-42.5 101q0 40 22 78.5
t82 73.5q-18 -1 -38 -1h-43h-301v110h1071v-110h-474q9 -29 24 -60.5t38 -59.5q48 57 95 78.5t104 21.5q71 0 110.5 -35.5t39.5 -88.5q0 -23 -9.5 -49.5t-36.5 -51.5q21 -16 36 -40.5t15 -59.5q0 -34 -17 -63.5t-53.5 -47.5t-93.5 -18zM396 376q0 -38 41 -38q26 0 46.5 8.5
t38.5 23.5q-15 24 -27 49t-20 49q-79 -46 -79 -92zM830 391q-42 0 -79 -29t-64 -80q1 -3 1 -6q20 -70 57 -103.5t79 -33.5q24 0 39.5 9.5t15.5 32.5q0 21 -16 38q-23 -7 -50 -12l-24 97q84 14 84 54q0 20 -12.5 26.5t-30.5 6.5zM534 -12l285 -169l-57 -90l-288 164z" />
    <glyph glyph-name="kanuktahalfbeng" horiz-adv-x="857" 
d="M825 258q0 -33 -13.5 -63t-46.5 -49t-92 -19q-41 0 -71 6l4 110q5 -1 12.5 -1.5t19.5 -0.5q36 0 47 12.5t11 30.5q0 32 -39 57t-114 40v-381h-132q-56 81 -144.5 132.5t-200.5 70.5l-50 118q87 49 191.5 94.5t206.5 74.5v22h-424v110h877v-110h-326v-21q79 -12 143.5 -43
t102.5 -78.5t38 -111.5zM184 278q56 -11 117 -43.5t112 -83.5q-1 12 -1.5 25.5t-0.5 27.5v167q-59 -19 -113.5 -42t-113.5 -51zM470 -12l285 -169l-57 -90l-288 164zM170 -12q-31 0 -52 21.5t-21 53.5t21 53.5t52 21.5t52 -21.5t21 -53.5t-21 -53.5t-52 -21.5z" />
    <glyph glyph-name="khanuktahalfbeng" horiz-adv-x="749" 
d="M191 421q-67 0 -107 32.5t-40 89.5q0 24 6 45.5t15 39.5l118 -28q-9 -18 -9 -34q0 -18 11 -26t28 -8q29 0 50.5 15t50.5 57l93 21q29 -31 48.5 -73t19.5 -90q0 -66 -37 -117.5t-115 -77.5q77 -22 123.5 -54.5t86.5 -66.5q-1 22 -1.5 46t-0.5 50v446h108l23 -66h97v-110
h-96v-512h-132q-47 56 -99.5 95.5t-117 65t-148.5 38.5l-33 116q109 20 161 51.5t52 82.5q0 15 -6 29q-29 -27 -65 -42t-84 -15zM592 -12l285 -169l-57 -90l-288 164zM267 -12q-31 0 -52 21.5t-21 53.5t21 53.5t52 21.5t52 -21.5t21 -53.5t-21 -53.5t-52 -21.5z" />
    <glyph glyph-name="ganuktahalfbeng" horiz-adv-x="700" 
d="M482 0v391q-28 33 -59.5 62t-68.5 47.5t-79 18.5q-39 0 -64.5 -15t-47.5 -37q16 7 35 11t43 4q67 0 102.5 -37t35.5 -89q0 -60 -43.5 -110t-132.5 -100l-76 107q58 26 92.5 50.5t34.5 53.5q0 17 -10.5 26.5t-35.5 9.5q-39 0 -88 -26l-105 84q53 77 114 127.5t141 50.5
q60 0 110 -26t104 -76q-1 12 -1.5 26.5t-0.5 31.5v103h109l22 -66h97v-110h-96v-512h-132zM543 -12l285 -169l-57 -90l-288 164zM251 -46q-31 0 -52 21.5t-21 53.5t21 53.5t52 21.5t52 -21.5t21 -53.5t-21 -53.5t-52 -21.5z" />
    <glyph glyph-name="ghanuktahalfbeng" horiz-adv-x="662" 
d="M672 622v-110h-96v-512h-132q-50 62 -137 106t-205 61l-42 92q22 15 43 29t44 28q-57 11 -82.5 43t-25.5 70q0 48 32 83h-81v110h682zM386 332q-42 -21 -81.5 -42t-75.5 -43q63 -16 116.5 -42.5t100.5 -69.5q0 15 -1 32.5t-1 34.5v310h-222q-47 -31 -47 -73
q0 -30 18.5 -40.5t38.5 -10.5q23 0 45.5 7t50.5 24zM505 -12l285 -169l-57 -90l-288 164zM170 -27q-31 0 -52 21.5t-21 53.5t21 53.5t52 21.5t52 -21.5t21 -53.5t-21 -53.5t-52 -21.5z" />
    <glyph glyph-name="nganuktahalfbeng" horiz-adv-x="751" 
d="M439 4q-68 0 -130 19t-116.5 65t-99 125.5t-77.5 200.5l125 35q48 -177 118 -254t169 -77q70 0 112.5 30t42.5 87q0 23 -7 46q-77 -61 -167 -61q-57 0 -88 25q-47 36 -47 130v46v0q-52 25 -89 61t-67 75l92 66q20 -26 41.5 -50.5t44.5 -43.5q24 48 69.5 73.5t105.5 25.5
q71 0 107 -32t36 -87q0 -41 -24 -68t-64.5 -40t-89.5 -13q-17 0 -33 1v-20q0 -17 4.5 -27.5t21.5 -10.5q29 0 53 13.5t59 45.5l118 11q25 -36 40.5 -83.5t15.5 -93.5q0 -98 -69.5 -159t-206.5 -61zM465 542q-28 0 -42.5 -19t-18.5 -46q15 -3 31 -3q33 0 49 11.5t16 27.5
q0 14 -9.5 21.5t-25.5 7.5zM594 -12l285 -169l-57 -90l-288 164zM375 -206q-31 0 -52 21.5t-21 53.5t21 53.5t52 21.5t52 -21.5t21 -53.5t-21 -53.5t-52 -21.5z" />
    <glyph glyph-name="canuktahalfbeng" horiz-adv-x="593" 
d="M603 622v-110h-390v-10q28 -39 70.5 -59.5t92.5 -20.5h20q52 0 81 -10t49 -32q14 -15 21 -37.5t7 -45.5q0 -61 -23 -108t-61 -85q-40 -39 -92 -61.5t-111 -22.5q-54 0 -84 10t-50 28q-22 19 -37 53.5t-15 108.5v292h-91v110h613zM229 145q13 -15 46 -15q52 0 103 48
q22 20 34 43t12 47q0 22 -13.5 31.5t-35.5 9.5h-10q-30 0 -53.5 6t-53.5 23q-27 16 -46 36q0 -8 0.5 -16t0.5 -16v-123q0 -35 4 -50.5t12 -23.5zM436 -12l285 -169l-57 -90l-288 164zM223 -206q-31 0 -52 21.5t-21 53.5t21 53.5t52 21.5t52 -21.5t21 -53.5t-21 -53.5
t-52 -21.5z" />
    <glyph glyph-name="chanuktahalfbeng" horiz-adv-x="733" 
d="M241 192q-51 0 -86 12t-54 39q-13 19 -21 44t-8 75v150h-82v110h753v-110h-544v-3q22 -18 48 -28t65 -10h70q24 3 64 3q70 0 115.5 -18.5t71.5 -46.5t36.5 -59.5t10.5 -56.5q0 -75 -38 -122.5t-95 -73.5q45 -9 91.5 -21t94.5 -28l-35 -104q-145 50 -278.5 72.5
t-267.5 29.5l13 111q25 -5 61 -8t79 -3q131 0 187.5 38.5t56.5 100.5q0 65 -62 86v-1q0 -50 -32 -90.5t-87.5 -64t-126.5 -23.5zM208 308q11 -15 42 -15q46 0 78 20.5t32 42.5t-34 22h-27q-28 0 -53.5 8.5t-48.5 23.5q2 -18 2 -30v-30q0 -20 2.5 -29t6.5 -13zM435 -12
l285 -169l-57 -90l-288 164zM245 -177q-31 0 -52 21.5t-21 53.5t21 53.5t52 21.5t52 -21.5t21 -53.5t-21 -53.5t-52 -21.5z" />
    <glyph glyph-name="januktahalfbeng" horiz-adv-x="997" 
d="M440 30q-96 0 -176 35.5t-142.5 122t-105.5 240.5l125 35q35 -121 76.5 -190.5t94.5 -98.5t121 -29q71 0 101.5 25.5t30.5 65.5q0 17 -2 32q-30 -19 -64.5 -29.5t-80.5 -10.5q-65 0 -107.5 32t-42.5 101q0 40 22 78.5t82 73.5q-19 -1 -34.5 -1h-35.5h-312v110h1017v-110
h-296q-13 0 -28 0.5t-31 0.5q20 -25 61.5 -44t116.5 -19q11 0 21.5 1t26.5 2l61 -99q-19 -34 -29.5 -72t-10.5 -85q0 -40 8.5 -86t24.5 -95l-129 -27q-19 54 -28 103.5t-9 111.5q0 37 5.5 72.5t16.5 66.5q-104 15 -167.5 53t-100.5 93q-58 -26 -89 -55.5t-31 -56.5
q0 -20 11 -29.5t26 -9.5q27 0 48 11t48 31l146 -43q7 -20 11.5 -46.5t4.5 -54.5q0 -50 -25 -97.5t-81 -78t-149 -30.5zM610 -12l285 -169l-57 -90l-288 164zM410 -168q-31 0 -52 21.5t-21 53.5t21 53.5t52 21.5t52 -21.5t21 -53.5t-21 -53.5t-52 -21.5z" />
    <glyph glyph-name="jhanuktahalfbeng" horiz-adv-x="854" 
d="M543 622v-329q25 -14 49 -32.5t46 -40.5q-1 12 -1.5 25.5t-0.5 27.5v415h109l22 -66h97v-110h-96v-438h-131q-39 56 -94 98v-172h-132q-56 81 -144.5 132.5t-200.5 70.5l-50 118q88 49 192 95t207 74v22h-425v110h553zM184 278q56 -11 117 -43.5t112 -83.5
q-1 12 -1.5 25.5t-0.5 27.5v167q-59 -19 -113.5 -42t-113.5 -51zM472 -12l285 -169l-57 -90l-288 164zM170 -12q-31 0 -52 21.5t-21 53.5t21 53.5t52 21.5t52 -21.5t21 -53.5t-21 -53.5t-52 -21.5z" />
    <glyph glyph-name="nyanuktahalfbeng" horiz-adv-x="1070" 
d="M533 628q48 0 78.5 -9.5t53.5 -27.5q10 -8 18.5 -20t14.5 -29q37 36 78.5 54t94.5 18q71 0 110.5 -35t39.5 -88q0 -23 -9.5 -50t-36.5 -51q21 -16 36 -41t15 -60q0 -34 -17 -63.5t-52 -47.5t-91 -18q-52 0 -91 19t-65 49q2 -30 2 -62v-166h-130q-16 36 -40 51.5t-71 15.5
q-55 0 -100.5 -7.5t-98.5 -7.5q-43 0 -85.5 7.5t-77.5 30t-56.5 66t-21.5 115.5q0 25 3.5 54t8.5 52l129 -17q-4 -14 -7 -34t-3 -49q0 -49 18.5 -73t48 -31t62.5 -7q47 0 86 7t77 7q40 0 68 -10t58 -40v305q0 31 -4 46t-13 23q-13 14 -43 14q-27 0 -50.5 -12.5t-41.5 -31.5
t-28.5 -38t-10.5 -32q0 -14 9 -23t41 -9q11 0 19 1t18 2l6 -107q-13 -4 -32 -7t-47 -3q-61 0 -102.5 31t-41.5 97q0 41 21 83.5t59 78.5t87.5 58t106.5 22zM853 513q-41 0 -77.5 -28.5t-63.5 -78.5v-15q21 -66 57.5 -98t77.5 -32q24 0 39.5 9.5t15.5 32.5q0 21 -17 38
q-23 -7 -49 -12l-24 97q84 14 84 54q0 19 -12.5 26t-30.5 7zM636 -12l285 -169l-57 -90l-288 164zM414 -167q-31 0 -52 21.5t-21 53.5t21 53.5t52 21.5t52 -21.5t21 -53.5t-21 -53.5t-52 -21.5z" />
    <glyph glyph-name="ttanuktahalfbeng" horiz-adv-x="593" 
d="M380 622q-2 31 -17 44.5t-52 13.5h-75q-76 0 -123.5 14.5t-74.5 44.5q-36 40 -36 115q0 15 1 27.5t4 30.5l125 -8q-1 -9 -1.5 -16t-0.5 -13q0 -21 4.5 -38t15.5 -27q10 -10 27.5 -15t55.5 -5h79q59 0 93.5 -9t58.5 -32q19 -19 29.5 -50t11.5 -77h98v-110h-390v-293
q0 -35 4 -50.5t12 -23.5q13 -15 46 -15q52 0 103 48q22 20 34 43t12 47q0 19 -12 31t-39 12q-13 0 -23.5 -1.5t-19.5 -2.5l-18 108q22 5 44 8t51 3q79 0 113 -39t34 -95t-23 -103t-61 -85q-40 -39 -92 -61.5t-111 -22.5q-54 0 -84 10t-51 29q-21 18 -36 52.5t-15 108.5v292
h-91v110h390zM223 -206q-31 0 -52 21.5t-21 53.5t21 53.5t52 21.5t52 -21.5t21 -53.5t-21 -53.5t-52 -21.5zM436 -12l285 -169l-57 -90l-288 164z" />
    <glyph glyph-name="tthanuktahalfbeng" horiz-adv-x="634" 
d="M308 0q-65 0 -120.5 20t-97.5 54t-68 77l34 115q81 10 126.5 34t63.5 60t18 78q0 15 -1.5 34.5t-9.5 39.5h-263v110h209q-37 44 -54.5 80t-17.5 74q0 42 23 76t66 65l96 -92q-30 -23 -41.5 -42t-11.5 -42q0 -26 20.5 -53.5t58.5 -65.5h306v-110h-120h-33t-28 2
q65 -65 95.5 -133t30.5 -140q0 -113 -70.5 -177t-210.5 -64zM305 114q65 0 106.5 33t41.5 100q0 53 -19.5 105t-66.5 112q4 -16 6.5 -32.5t2.5 -32.5q0 -50 -18 -93.5t-63 -78t-126 -57.5q25 -28 61.5 -42t74.5 -14zM440 -12l285 -169l-57 -90l-288 164zM241 -206
q-31 0 -52 21.5t-21 53.5t21 53.5t52 21.5t52 -21.5t21 -53.5t-21 -53.5t-52 -21.5z" />
    <glyph glyph-name="ddanuktahalfbeng" horiz-adv-x="662" 
d="M672 622v-110h-302v-84q0 -16 4.5 -23.5t17.5 -7.5q17 0 35.5 15t40.5 49l114 21q26 -37 41 -77.5t15 -86.5q0 -88 -67.5 -139.5t-188.5 -51.5q-57 0 -110 13.5t-100 47.5t-86.5 95t-69.5 155l122 34q28 -92 63 -143.5t78 -72t95 -20.5q69 0 105.5 27.5t36.5 68.5
q0 9 -1 19q-30 -28 -65.5 -43t-83.5 -15q-29 0 -50 6.5t-36 19.5q-16 13 -29 40t-13 81v72h-248v110h682zM336 -63q-31 0 -52 21.5t-21 53.5t21 53.5t52 21.5t52 -21.5t21 -53.5t-21 -53.5t-52 -21.5z" />
    <glyph glyph-name="ddhanuktahalfbeng" horiz-adv-x="523" 
d="M533 622v-110h-327v-230q0 -31 11 -42t33 -11q23 0 46 8t41 21q17 12 27.5 28t10.5 32q0 11 -8.5 19t-30.5 8q-9 0 -17 -0.5t-15 -1.5l-16 102q18 4 40.5 6.5t46.5 2.5q59 0 95 -27.5t36 -83.5q0 -53 -23 -92t-66 -71t-90 -46t-99 -14q-40 0 -68 9t-45 26
q-17 16 -29 42.5t-12 89.5v225h-84v110h543zM257 -75q-31 0 -52 21.5t-21 53.5t21 53.5t52 21.5t52 -21.5t21 -53.5t-21 -53.5t-52 -21.5z" />
    <glyph glyph-name="nnanuktahalfbeng" horiz-adv-x="643" 
d="M653 622v-110h-96v-512h-132v392q-44 52 -92.5 88t-98.5 36q-30 0 -48.5 -17t-18.5 -48q0 -21 10.5 -38.5t37.5 -28t78 -12.5l-15 -130q-130 15 -188.5 70.5t-58.5 141.5q0 53 24 92.5t65 61t93 21.5q69 0 120 -31t94 -72q-2 38 -2 74v88h108l23 -66h97zM486 -12
l285 -169l-57 -90l-288 164zM244 -12q-31 0 -52 21.5t-21 53.5t21 53.5t52 21.5t52 -21.5t21 -53.5t-21 -53.5t-52 -21.5z" />
    <glyph glyph-name="tanuktahalfbeng" horiz-adv-x="732" 
d="M742 622v-110h-752v110h752zM430 33q-94 0 -172.5 36.5t-139 122.5t-102.5 236l125 35q47 -162 110 -238.5t163 -76.5q77 0 114 30t37 89q0 51 -26.5 76.5t-61.5 25.5q-23 0 -38.5 -12t-15.5 -36q0 -22 8 -43l-125 -19q-10 23 -14 43t-4 35q0 50 25 80.5t65 44.5t87 14
q75 0 127 -29t79 -79t27 -113q0 -59 -27.5 -110t-87 -81.5t-153.5 -30.5zM551 -12l285 -169l-57 -90l-288 164zM368 -182q-31 0 -52 21.5t-21 53.5t21 53.5t52 21.5t52 -21.5t21 -53.5t-21 -53.5t-52 -21.5z" />
    <glyph glyph-name="thanuktahalfbeng" horiz-adv-x="718" 
d="M227 625q75 0 123 -25t71 -64.5t23 -84.5q0 -65 -40 -112.5t-112 -71.5q77 -22 123.5 -54.5t86.5 -66.5q-2 22 -2 46v50v446h108l23 -66h97v-110h-96v-512h-132q-47 56 -99.5 95.5t-117 65t-148.5 38.5l-32 116q113 21 161 53t48 79q0 29 -21 50t-63 21q-32 0 -46 -12
t-14 -25q0 -24 29 -43l-82 -82q-17 12 -35.5 28.5t-30.5 40t-12 57.5q0 38 21 71t63 52.5t106 19.5zM561 -12l285 -169l-57 -90l-288 164zM232 -12q-31 0 -52 21.5t-21 53.5t21 53.5t52 21.5t52 -21.5t21 -53.5t-21 -53.5t-52 -21.5z" />
    <glyph glyph-name="danuktahalfbeng" horiz-adv-x="639" 
d="M649 622v-110h-442v-228q53 49 126 94t161 81l91 -76q-22 -38 -32 -83t-10 -97q0 -39 8 -87.5t25 -99.5l-129 -27q-18 53 -27.5 103t-9.5 109q0 26 3.5 51t10.5 48q-67 -38 -128 -86.5t-112 -96.5l-109 71v324h-85v110h659zM482 -12l285 -169l-57 -90l-288 164zM288 -135
q-31 0 -52 21.5t-21 53.5t21 53.5t52 21.5t52 -21.5t21 -53.5t-21 -53.5t-52 -21.5z" />
    <glyph glyph-name="dhanuktahalfbeng" horiz-adv-x="629" 
d="M237 629q16 0 31.5 -1.5t30.5 -3.5l-8 -101q-5 1 -11 1.5t-16 0.5q-26 0 -37.5 -10.5t-11.5 -24.5q0 -34 45 -53q37 15 75.5 28.5t75.5 23.5v133h228v-110h-96v-512h-132q-56 81 -144.5 132.5t-200.5 70.5l-50 118q32 18 67 36t71 35q-31 23 -47.5 51t-16.5 65
q0 28 13 56t45 46.5t89 18.5zM184 278q56 -11 117 -43.5t112 -84.5q-1 16 -1.5 33t-0.5 37v151q-59 -19 -113.5 -42t-113.5 -51zM472 -12l285 -169l-57 -90l-288 164zM170 -12q-31 0 -52 21.5t-21 53.5t21 53.5t52 21.5t52 -21.5t21 -53.5t-21 -53.5t-52 -21.5z" />
    <glyph glyph-name="nanuktahalfbeng" horiz-adv-x="634" 
d="M644 622v-110h-96v-512h-132v182q-44 52 -94 87t-97 35q-25 0 -42.5 -11.5t-17.5 -36.5q0 -22 16 -37t51 -29l-59 -110q-67 26 -105.5 74.5t-38.5 106.5q0 53 25 88t64 51.5t82 16.5q62 0 115 -25t102 -70q-1 17 -1 34v32v124h-426v110h654zM477 -12l285 -169l-57 -90
l-288 164zM233 -122q-31 0 -52 21.5t-21 53.5t21 53.5t52 21.5t52 -21.5t21 -53.5t-21 -53.5t-52 -21.5z" />
    <glyph glyph-name="panuktahalfbeng" horiz-adv-x="765" 
d="M775 622v-110h-96v-512h-132v349q-20 26 -38 47l-255 -231l-91 85l28 25q22 29 22 55q0 24 -13.5 34.5t-32.5 10.5q-25 0 -55 -18l-99 91q45 56 88.5 97t90.5 62.5t105 21.5q74 0 131.5 -36.5t121.5 -99.5q-1 16 -2 33.5t-1 35.5v126h108l23 -66h97zM304 370v-4
q11 11 23.5 22t23.5 21l75 65q-30 22 -61 33.5t-64 11.5q-46 0 -81 -19t-67 -52q12 5 26 8t30 3q49 0 72 -27.5t23 -61.5zM608 -12l285 -169l-57 -90l-288 164zM251 -32q-31 0 -52 21.5t-21 53.5t21 53.5t52 21.5t52 -21.5t21 -53.5t-21 -53.5t-52 -21.5z" />
    <glyph glyph-name="phanuktahalfbeng" horiz-adv-x="885" 
d="M895 622v-110h-699q45 -16 82 -41.5t67 -52.5l12 -88q-40 -16 -81.5 -35.5t-78.5 -39.5q36 -7 81 -23t88 -40.5t75 -57.5q-1 16 -1.5 33t-0.5 35v283h46q102 0 175 -18.5t131 -71.5q31 -29 46.5 -64t15.5 -73q0 -34 -13.5 -63.5t-46.5 -48.5t-92 -19q-41 0 -72 6l5 110
q5 -1 12.5 -1.5t19.5 -0.5q36 0 47 12.5t11 30.5q0 29 -36 54.5t-117 33.5v-372h-132q-59 74 -149 115t-212 57l-47 113q41 25 89.5 51.5t98.5 50.5q-42 24 -90.5 42t-105.5 27l25 56h-58v110h905zM172 -27q-31 0 -52 21.5t-21 53.5t21 53.5t52 21.5t52 -21.5t21 -53.5
t-21 -53.5t-52 -21.5zM500 -12l285 -169l-57 -90l-288 164z" />
    <glyph glyph-name="banuktahalfbeng" horiz-adv-x="629" 
d="M639 622v-110h-96v-512h-132q-56 81 -144.5 132.5t-200.5 70.5l-50 118q88 49 192 95t207 74v22h-425v110h649zM184 278q56 -11 117 -43t111 -84q-1 29 -1 57v163q-59 -19 -113.5 -42t-113.5 -51zM472 -12l285 -169l-57 -90l-288 164zM170 -12q-31 0 -52 21.5t-21 53.5
t21 53.5t52 21.5t52 -21.5t21 -53.5t-21 -53.5t-52 -21.5z" />
    <glyph glyph-name="bhanuktahalfbeng" horiz-adv-x="750" 
d="M760 622v-110h-770v110h770zM442 29q-70 0 -133.5 19t-118 64t-98.5 122t-76 194l125 35q35 -121 76.5 -190.5t94 -99t120.5 -29.5q72 0 111.5 31t39.5 89q0 29 -9 53q-35 -30 -76 -45.5t-91 -15.5q-68 0 -107.5 32.5t-39.5 88.5q0 24 6 46t15 40l118 -29q-9 -18 -9 -33
q0 -19 11 -27t28 -8q29 0 50.5 15t50.5 57l111 19q73 -99 73 -210q0 -62 -30.5 -111.5t-91 -78t-150.5 -28.5zM546 -12l285 -169l-57 -90l-288 164zM370 -182q-31 0 -52 21.5t-21 53.5t21 53.5t52 21.5t52 -21.5t21 -53.5t-21 -53.5t-52 -21.5z" />
    <glyph glyph-name="manuktahalfbeng" horiz-adv-x="645" 
d="M655 622v-110h-96v-512h-132v152q-48 56 -96.5 89.5t-94.5 33.5q-26 0 -43 -12t-17 -36q0 -22 16 -37.5t52 -28.5l-59 -111q-67 26 -106 75t-39 106q0 48 20.5 80t54 49.5t71.5 22.5q-10 23 -30 36.5t-53.5 21.5t-87.5 15l14 56h-39v110h665zM427 512h-214q46 -21 72 -56
t33 -91q55 -22 110 -75q-1 17 -1 34v33v155zM488 -12l285 -169l-57 -90l-288 164zM241 -137q-31 0 -52 21.5t-21 53.5t21 53.5t52 21.5t52 -21.5t21 -53.5t-21 -53.5t-52 -21.5z" />
    </font>
</defs>
</svg>
