<svg width="506" height="20" viewBox="0 0 506 20" fill="none" xmlns="http://www.w3.org/2000/svg">
<g clip-path="url(#clip0_3324_171)">
<path d="M0.5 16.7524V12.9556C0.5 10.9307 0.5 8.85511 0.5 6.83016C0.5 5.58988 1.07857 4.70396 2.23571 4.1471C4.4711 3.05869 6.86429 2.95744 9.33636 3.84336C10.2305 4.17241 11.0721 4.37491 11.861 4.47616C12.3607 4.52678 12.913 4.45085 13.4916 4.37491C13.5968 4.3496 13.7282 4.3496 13.8334 4.32429C14.0438 4.29897 14.2805 4.22304 14.5172 4.1471C14.7013 4.09648 14.8854 4.04586 15.0695 3.99523C15.9373 3.79274 16.8052 3.96992 17.4627 4.45085C18.1201 4.93177 18.4883 5.69113 18.4883 6.50111C18.5146 7.99451 18.4883 9.53853 18.4883 11.0066C18.4883 12.1457 18.4883 13.31 18.4883 14.449C18.4883 15.1578 17.9097 15.3856 17.7256 15.4615L17.6731 15.4868C14.9117 16.6259 12.3344 16.7777 9.75714 15.9678C8.86299 15.6893 7.86364 15.4362 6.73279 15.2337C5.41786 15.0059 4.12922 15.3603 2.94578 15.7906C2.6039 15.9171 2.26201 16.0437 1.89383 16.1956C1.73604 16.2715 1.57825 16.3221 1.39416 16.3981L0.5 16.7524ZM5.86493 13.8669C6.23312 13.8669 6.6013 13.8922 6.96948 13.9681C8.15292 14.1959 9.20487 14.4237 10.1516 14.7528C12.4133 15.4615 14.7013 15.335 17.1471 14.3225H17.1734C17.1734 13.2341 17.1734 12.1203 17.1734 11.0066C17.1734 9.53853 17.1734 8.01982 17.1734 6.50111C17.1734 6.07081 16.9893 5.69113 16.6474 5.43801C16.3055 5.18489 15.8321 5.10895 15.3851 5.2102C15.2273 5.23551 15.0958 5.28614 14.9117 5.33676C14.6224 5.4127 14.3331 5.51394 14.0175 5.56457C13.9123 5.58988 13.8071 5.58988 13.6756 5.61519C13.0182 5.71644 12.3607 5.81769 11.6769 5.71644C10.8091 5.6405 9.86234 5.38739 8.86299 5.03302C6.70649 4.27366 4.73409 4.3496 2.81429 5.28614C2.10422 5.61519 1.81494 6.07081 1.81494 6.80485C1.81494 8.85511 1.81494 10.9307 1.81494 12.9556V14.854C2.05162 14.7528 2.26201 14.6768 2.4724 14.6009C3.55065 14.1959 4.65519 13.8669 5.86493 13.8669ZM17.1734 14.449C17.1734 14.4744 17.1734 14.4744 17.1734 14.449V14.449Z" fill="#3C77AE"/>
<path d="M11.8157 8.92295C11.3683 8.56822 10.842 8.59356 10.342 8.66957C10.2368 8.69491 10.1578 8.74559 10.1052 8.8216C10.0262 8.92296 9.99992 9.07499 9.99992 9.22702C10.0262 9.45506 10.2368 9.60709 10.4736 9.60709C10.5526 9.60709 10.6315 9.60709 10.7368 9.60709C10.8157 9.60709 10.921 9.60709 10.9999 9.60709C11.1578 9.60709 11.2631 9.70844 11.2631 9.86047C11.2631 9.98717 11.2631 10.1139 11.2631 10.2152C11.2368 10.8487 10.7104 11.5328 10.0526 11.7102C9.73676 11.8115 9.39466 11.8115 9.05255 11.8115C8.7894 11.8115 8.71045 11.7355 8.71045 11.4821C8.71045 11.1274 8.71045 10.7473 8.71045 10.3926V9.83514C8.71045 9.73378 8.71045 9.60709 8.71045 9.60709C8.73676 9.58175 8.84203 9.58175 8.97361 9.58175C9.26308 9.58175 9.44729 9.40438 9.47361 9.12566C9.49992 8.87228 9.31571 8.64423 9.05255 8.61889C8.97361 8.59356 8.86834 8.59356 8.7894 8.59356C8.76308 8.59356 8.73676 8.59356 8.71045 8.59356C8.71045 8.56822 8.71045 8.56822 8.71045 8.54288C8.71045 8.46686 8.71045 8.41619 8.71045 8.34017C8.71045 8.18814 8.71045 8.01077 8.71045 7.83341C8.68413 7.58002 8.6315 7.40265 8.55255 7.25062C8.26308 6.76919 7.7894 6.56649 7.1315 6.6425C6.86834 6.66784 6.71045 6.89589 6.71045 7.17461C6.73677 7.42799 6.92098 7.58002 7.21045 7.58002C7.23676 7.58002 7.26308 7.58002 7.31571 7.58002C7.36834 7.58002 7.39466 7.58002 7.44729 7.58002C7.65782 7.58002 7.73676 7.68137 7.73676 7.88408C7.73676 7.98544 7.73676 8.08679 7.73676 8.18814C7.73676 8.31483 7.73676 8.44153 7.73676 8.56822C7.60519 8.56822 7.49992 8.56822 7.39466 8.56822C7.1315 8.61889 6.94729 8.8216 6.97361 9.07499C6.99992 9.35371 7.18413 9.53108 7.47361 9.53108C7.52624 9.53108 7.55255 9.53108 7.60519 9.53108H7.65782C7.68413 9.53108 7.71045 9.53108 7.73676 9.53108C7.73676 9.55641 7.73676 9.58175 7.73676 9.60709V10.798C7.73676 11.026 7.73676 11.2794 7.73676 11.5075C7.73676 12.0903 8.15782 12.5717 8.73676 12.673C8.92097 12.6984 9.07887 12.7237 9.26308 12.7237C9.36834 12.7237 9.47361 12.7237 9.57887 12.7237H9.6315C10.2894 12.6984 10.8683 12.4703 11.3683 12.0396C11.9999 11.4821 12.3157 10.7727 12.3157 9.88581C12.2894 9.53108 12.1315 9.17634 11.8157 8.92295Z" fill="#C3599E"/>
</g>
<path d="M34.125 6.92045C34.0644 6.38258 33.8144 5.96591 33.375 5.67045C32.9356 5.37121 32.3826 5.22159 31.7159 5.22159C31.2386 5.22159 30.8258 5.29735 30.4773 5.44886C30.1288 5.59659 29.858 5.80114 29.6648 6.0625C29.4754 6.32008 29.3807 6.61364 29.3807 6.94318C29.3807 7.2197 29.4451 7.45833 29.5739 7.65909C29.7064 7.85985 29.8788 8.02841 30.0909 8.16477C30.3068 8.29735 30.5379 8.40909 30.7841 8.5C31.0303 8.58712 31.267 8.65909 31.4943 8.71591L32.6307 9.01136C33.0019 9.10227 33.3826 9.22538 33.7727 9.38068C34.1629 9.53598 34.5246 9.74053 34.858 9.99432C35.1913 10.2481 35.4602 10.5625 35.6648 10.9375C35.8731 11.3125 35.9773 11.7614 35.9773 12.2841C35.9773 12.9432 35.8068 13.5284 35.4659 14.0398C35.1288 14.5511 34.6383 14.9545 33.9943 15.25C33.3542 15.5455 32.5795 15.6932 31.6705 15.6932C30.7992 15.6932 30.0455 15.5549 29.4091 15.2784C28.7727 15.0019 28.2746 14.6098 27.9148 14.1023C27.5549 13.5909 27.3561 12.9848 27.3182 12.2841H29.0795C29.1136 12.7045 29.25 13.0549 29.4886 13.3352C29.7311 13.6117 30.0398 13.8182 30.4148 13.9545C30.7936 14.0871 31.2083 14.1534 31.6591 14.1534C32.1553 14.1534 32.5966 14.0758 32.983 13.9205C33.3731 13.7614 33.6799 13.5417 33.9034 13.2614C34.1269 12.9773 34.2386 12.6458 34.2386 12.267C34.2386 11.9223 34.1402 11.6402 33.9432 11.4205C33.75 11.2008 33.4867 11.0189 33.1534 10.875C32.8239 10.7311 32.4508 10.6042 32.0341 10.4943L30.6591 10.1193C29.7273 9.86553 28.9886 9.49242 28.4432 9C27.9015 8.50758 27.6307 7.85606 27.6307 7.04545C27.6307 6.375 27.8125 5.78977 28.1761 5.28977C28.5398 4.78977 29.0322 4.40151 29.6534 4.125C30.2746 3.8447 30.9754 3.70455 31.7557 3.70455C32.5436 3.70455 33.2386 3.8428 33.8409 4.11932C34.447 4.39583 34.9242 4.77652 35.2727 5.26136C35.6212 5.74242 35.803 6.29545 35.8182 6.92045H34.125ZM40.4787 15.6932C39.9257 15.6932 39.4257 15.5909 38.9787 15.3864C38.5317 15.178 38.1776 14.8769 37.9162 14.483C37.6586 14.089 37.5298 13.6061 37.5298 13.0341C37.5298 12.5417 37.6245 12.1364 37.8139 11.8182C38.0033 11.5 38.259 11.2481 38.581 11.0625C38.9029 10.8769 39.2628 10.7367 39.6605 10.642C40.0582 10.5473 40.4635 10.4754 40.8764 10.4261C41.3991 10.3655 41.8234 10.3163 42.1491 10.2784C42.4749 10.2367 42.7116 10.1705 42.8594 10.0795C43.0071 9.98864 43.081 9.84091 43.081 9.63636V9.59659C43.081 9.10038 42.9408 8.71591 42.6605 8.44318C42.384 8.17045 41.9711 8.03409 41.4219 8.03409C40.8499 8.03409 40.3991 8.16098 40.0696 8.41477C39.7438 8.66477 39.5185 8.94318 39.3935 9.25L37.7969 8.88636C37.9863 8.35606 38.2628 7.92803 38.6264 7.60227C38.9938 7.27273 39.4162 7.03409 39.8935 6.88636C40.3707 6.73485 40.8726 6.65909 41.3991 6.65909C41.7476 6.65909 42.117 6.70076 42.5071 6.78409C42.901 6.86364 43.2685 7.01136 43.6094 7.22727C43.9541 7.44318 44.2363 7.75189 44.456 8.15341C44.6757 8.55114 44.7855 9.06818 44.7855 9.70455V15.5H43.1264V14.3068H43.0582C42.9484 14.5265 42.7836 14.7424 42.5639 14.9545C42.3442 15.1667 42.062 15.3428 41.7173 15.483C41.3726 15.6231 40.9598 15.6932 40.4787 15.6932ZM40.848 14.3295C41.3177 14.3295 41.7192 14.2367 42.0526 14.0511C42.3897 13.8655 42.6454 13.6231 42.8196 13.3239C42.9976 13.0208 43.0866 12.697 43.0866 12.3523V11.2273C43.026 11.2879 42.9086 11.3447 42.7344 11.3977C42.5639 11.447 42.3688 11.4905 42.1491 11.5284C41.9295 11.5625 41.7154 11.5947 41.5071 11.625C41.2988 11.6515 41.1245 11.6742 40.9844 11.6932C40.6548 11.7348 40.3537 11.8049 40.081 11.9034C39.812 12.0019 39.5961 12.1439 39.4332 12.3295C39.2741 12.5114 39.1946 12.7538 39.1946 13.0568C39.1946 13.4773 39.3499 13.7955 39.6605 14.0114C39.9711 14.2235 40.367 14.3295 40.848 14.3295ZM48.7472 3.86364V15.5H47.0483V3.86364H48.7472ZM53.5724 15.6932C53.0194 15.6932 52.5194 15.5909 52.0724 15.3864C51.6255 15.178 51.2713 14.8769 51.0099 14.483C50.7524 14.089 50.6236 13.6061 50.6236 13.0341C50.6236 12.5417 50.7183 12.1364 50.9077 11.8182C51.0971 11.5 51.3527 11.2481 51.6747 11.0625C51.9967 10.8769 52.3565 10.7367 52.7543 10.642C53.152 10.5473 53.5573 10.4754 53.9702 10.4261C54.4929 10.3655 54.9171 10.3163 55.2429 10.2784C55.5687 10.2367 55.8054 10.1705 55.9531 10.0795C56.1009 9.98864 56.1747 9.84091 56.1747 9.63636V9.59659C56.1747 9.10038 56.0346 8.71591 55.7543 8.44318C55.4777 8.17045 55.0649 8.03409 54.5156 8.03409C53.9437 8.03409 53.4929 8.16098 53.1634 8.41477C52.8376 8.66477 52.6122 8.94318 52.4872 9.25L50.8906 8.88636C51.08 8.35606 51.3565 7.92803 51.7202 7.60227C52.0876 7.27273 52.5099 7.03409 52.9872 6.88636C53.4645 6.73485 53.9664 6.65909 54.4929 6.65909C54.8414 6.65909 55.2107 6.70076 55.6009 6.78409C55.9948 6.86364 56.3622 7.01136 56.7031 7.22727C57.0478 7.44318 57.33 7.75189 57.5497 8.15341C57.7694 8.55114 57.8793 9.06818 57.8793 9.70455V15.5H56.2202V14.3068H56.152C56.0421 14.5265 55.8774 14.7424 55.6577 14.9545C55.438 15.1667 55.1558 15.3428 54.8111 15.483C54.4664 15.6231 54.0535 15.6932 53.5724 15.6932ZM53.9418 14.3295C54.4115 14.3295 54.813 14.2367 55.1463 14.0511C55.4834 13.8655 55.7391 13.6231 55.9134 13.3239C56.0914 13.0208 56.1804 12.697 56.1804 12.3523V11.2273C56.1198 11.2879 56.0024 11.3447 55.8281 11.3977C55.6577 11.447 55.4626 11.4905 55.2429 11.5284C55.0232 11.5625 54.8092 11.5947 54.6009 11.625C54.3925 11.6515 54.2183 11.6742 54.0781 11.6932C53.7486 11.7348 53.4474 11.8049 53.1747 11.9034C52.9058 12.0019 52.6899 12.1439 52.527 12.3295C52.3679 12.5114 52.2884 12.7538 52.2884 13.0568C52.2884 13.4773 52.4437 13.7955 52.7543 14.0114C53.0649 14.2235 53.4607 14.3295 53.9418 14.3295ZM60.142 15.5V6.77273H61.7841V8.15909H61.875C62.0341 7.68939 62.3144 7.32008 62.7159 7.05114C63.1212 6.77841 63.5795 6.64205 64.0909 6.64205C64.197 6.64205 64.322 6.64583 64.4659 6.65341C64.6136 6.66098 64.7292 6.67045 64.8125 6.68182V8.30682C64.7443 8.28788 64.6231 8.26705 64.4489 8.24432C64.2746 8.2178 64.1004 8.20455 63.9261 8.20455C63.5246 8.20455 63.1667 8.28977 62.8523 8.46023C62.5417 8.62689 62.2955 8.85985 62.1136 9.15909C61.9318 9.45455 61.8409 9.79167 61.8409 10.1705V15.5H60.142ZM67.6222 18.7727C67.3684 18.7727 67.1373 18.7519 66.929 18.7102C66.7206 18.6723 66.5653 18.6307 66.4631 18.5852L66.8722 17.1932C67.1828 17.2765 67.4593 17.3125 67.7017 17.3011C67.9441 17.2898 68.1581 17.1989 68.3438 17.0284C68.5331 16.858 68.6998 16.5795 68.8438 16.1932L69.054 15.6136L65.8608 6.77273H67.679L69.8892 13.5455H69.9801L72.1903 6.77273H74.0142L70.4176 16.6648C70.2509 17.1193 70.0388 17.5038 69.7812 17.8182C69.5237 18.1364 69.2169 18.375 68.8608 18.5341C68.5047 18.6932 68.0919 18.7727 67.6222 18.7727ZM79.9815 15.5V3.86364H87.277V5.375H81.7372V8.92045H86.8963V10.4261H81.7372V13.9886H87.3452V15.5H79.9815ZM90.8267 6.77273L92.7528 10.1705L94.696 6.77273H96.554L93.8324 11.1364L96.5767 15.5H94.7188L92.7528 12.2386L90.7926 15.5H88.929L91.6449 11.1364L88.9631 6.77273H90.8267ZM98.2983 18.7727V6.77273H99.9574V8.1875H100.099C100.198 8.00568 100.34 7.79545 100.526 7.55682C100.711 7.31818 100.969 7.10985 101.298 6.93182C101.628 6.75 102.063 6.65909 102.605 6.65909C103.31 6.65909 103.938 6.83712 104.491 7.19318C105.045 7.54924 105.478 8.0625 105.793 8.73295C106.111 9.40341 106.27 10.2102 106.27 11.1534C106.27 12.0966 106.113 12.9053 105.798 13.5795C105.484 14.25 105.052 14.767 104.503 15.1307C103.954 15.4905 103.327 15.6705 102.622 15.6705C102.092 15.6705 101.658 15.5814 101.321 15.4034C100.988 15.2254 100.726 15.017 100.537 14.7784C100.348 14.5398 100.202 14.3277 100.099 14.142H99.9972V18.7727H98.2983ZM99.9631 11.1364C99.9631 11.75 100.052 12.2879 100.23 12.75C100.408 13.2121 100.666 13.5739 101.003 13.8352C101.34 14.0928 101.753 14.2216 102.241 14.2216C102.749 14.2216 103.173 14.0871 103.514 13.8182C103.855 13.5455 104.113 13.1761 104.287 12.7102C104.465 12.2443 104.554 11.7197 104.554 11.1364C104.554 10.5606 104.467 10.0436 104.293 9.58523C104.122 9.12689 103.865 8.76515 103.52 8.5C103.179 8.23485 102.753 8.10227 102.241 8.10227C101.749 8.10227 101.332 8.22917 100.991 8.48295C100.654 8.73674 100.399 9.09091 100.224 9.54545C100.05 10 99.9631 10.5303 99.9631 11.1364ZM111.935 15.6761C111.075 15.6761 110.334 15.4924 109.713 15.125C109.096 14.7538 108.618 14.233 108.281 13.5625C107.948 12.8883 107.781 12.0985 107.781 11.1932C107.781 10.2992 107.948 9.51136 108.281 8.82955C108.618 8.14773 109.088 7.61553 109.69 7.23295C110.296 6.85038 111.005 6.65909 111.815 6.65909C112.308 6.65909 112.785 6.74053 113.247 6.90341C113.709 7.06629 114.124 7.32197 114.491 7.67045C114.859 8.01894 115.149 8.47159 115.361 9.02841C115.573 9.58144 115.679 10.2538 115.679 11.0455V11.6477H108.741V10.375H114.014C114.014 9.92803 113.923 9.5322 113.741 9.1875C113.56 8.83902 113.304 8.56439 112.974 8.36364C112.649 8.16288 112.266 8.0625 111.827 8.0625C111.349 8.0625 110.933 8.17992 110.577 8.41477C110.224 8.64583 109.952 8.94886 109.759 9.32386C109.569 9.69508 109.474 10.0985 109.474 10.5341V11.5284C109.474 12.1117 109.577 12.608 109.781 13.017C109.99 13.4261 110.279 13.7386 110.651 13.9545C111.022 14.1667 111.455 14.2727 111.952 14.2727C112.274 14.2727 112.567 14.2273 112.832 14.1364C113.098 14.0417 113.327 13.9015 113.52 13.7159C113.713 13.5303 113.861 13.3011 113.963 13.0284L115.571 13.3182C115.442 13.7917 115.211 14.2064 114.878 14.5625C114.548 14.9148 114.134 15.1894 113.634 15.3864C113.137 15.5795 112.571 15.6761 111.935 15.6761ZM121.24 15.6761C120.395 15.6761 119.668 15.4848 119.058 15.1023C118.452 14.7159 117.986 14.1837 117.661 13.5057C117.335 12.8277 117.172 12.0511 117.172 11.1761C117.172 10.2898 117.339 9.50758 117.672 8.82955C118.005 8.14773 118.475 7.61553 119.081 7.23295C119.687 6.85038 120.401 6.65909 121.223 6.65909C121.886 6.65909 122.477 6.7822 122.996 7.02841C123.515 7.27083 123.933 7.61174 124.251 8.05114C124.573 8.49053 124.765 9.00379 124.825 9.59091H123.172C123.081 9.18182 122.873 8.82955 122.547 8.53409C122.225 8.23864 121.793 8.09091 121.251 8.09091C120.778 8.09091 120.363 8.21591 120.007 8.46591C119.655 8.71212 119.38 9.06439 119.183 9.52273C118.986 9.97727 118.888 10.5152 118.888 11.1364C118.888 11.7727 118.984 12.322 119.178 12.7841C119.371 13.2462 119.643 13.6042 119.996 13.858C120.352 14.1117 120.77 14.2386 121.251 14.2386C121.573 14.2386 121.865 14.1799 122.126 14.0625C122.392 13.9413 122.613 13.7689 122.791 13.5455C122.973 13.322 123.1 13.053 123.172 12.7386H124.825C124.765 13.303 124.581 13.8068 124.274 14.25C123.967 14.6932 123.556 15.0417 123.041 15.2955C122.53 15.5492 121.929 15.6761 121.24 15.6761ZM130.716 6.77273V8.13636H125.949V6.77273H130.716ZM127.227 4.68182H128.926V12.9375C128.926 13.267 128.975 13.5152 129.074 13.6818C129.172 13.8447 129.299 13.9564 129.455 14.017C129.614 14.0739 129.786 14.1023 129.972 14.1023C130.108 14.1023 130.227 14.0928 130.33 14.0739C130.432 14.0549 130.511 14.0398 130.568 14.0284L130.875 15.4318C130.777 15.4697 130.636 15.5076 130.455 15.5455C130.273 15.5871 130.045 15.6098 129.773 15.6136C129.326 15.6212 128.909 15.5417 128.523 15.375C128.136 15.2083 127.824 14.9508 127.585 14.6023C127.347 14.2538 127.227 13.8163 127.227 13.2898V4.68182ZM135.135 15.6932C134.582 15.6932 134.082 15.5909 133.635 15.3864C133.188 15.178 132.834 14.8769 132.572 14.483C132.315 14.089 132.186 13.6061 132.186 13.0341C132.186 12.5417 132.281 12.1364 132.47 11.8182C132.66 11.5 132.915 11.2481 133.237 11.0625C133.559 10.8769 133.919 10.7367 134.317 10.642C134.714 10.5473 135.12 10.4754 135.533 10.4261C136.055 10.3655 136.48 10.3163 136.805 10.2784C137.131 10.2367 137.368 10.1705 137.516 10.0795C137.663 9.98864 137.737 9.84091 137.737 9.63636V9.59659C137.737 9.10038 137.597 8.71591 137.317 8.44318C137.04 8.17045 136.627 8.03409 136.078 8.03409C135.506 8.03409 135.055 8.16098 134.726 8.41477C134.4 8.66477 134.175 8.94318 134.05 9.25L132.453 8.88636C132.643 8.35606 132.919 7.92803 133.283 7.60227C133.65 7.27273 134.072 7.03409 134.55 6.88636C135.027 6.73485 135.529 6.65909 136.055 6.65909C136.404 6.65909 136.773 6.70076 137.163 6.78409C137.557 6.86364 137.925 7.01136 138.266 7.22727C138.61 7.44318 138.893 7.75189 139.112 8.15341C139.332 8.55114 139.442 9.06818 139.442 9.70455V15.5H137.783V14.3068H137.714C137.605 14.5265 137.44 14.7424 137.22 14.9545C137 15.1667 136.718 15.3428 136.374 15.483C136.029 15.6231 135.616 15.6932 135.135 15.6932ZM135.504 14.3295C135.974 14.3295 136.375 14.2367 136.709 14.0511C137.046 13.8655 137.302 13.6231 137.476 13.3239C137.654 13.0208 137.743 12.697 137.743 12.3523V11.2273C137.682 11.2879 137.565 11.3447 137.391 11.3977C137.22 11.447 137.025 11.4905 136.805 11.5284C136.586 11.5625 136.372 11.5947 136.163 11.625C135.955 11.6515 135.781 11.6742 135.641 11.6932C135.311 11.7348 135.01 11.8049 134.737 11.9034C134.468 12.0019 134.252 12.1439 134.089 12.3295C133.93 12.5114 133.851 12.7538 133.851 13.0568C133.851 13.4773 134.006 13.7955 134.317 14.0114C134.627 14.2235 135.023 14.3295 135.504 14.3295ZM145.778 6.77273V8.13636H141.011V6.77273H145.778ZM142.29 4.68182H143.989V12.9375C143.989 13.267 144.038 13.5152 144.136 13.6818C144.235 13.8447 144.362 13.9564 144.517 14.017C144.676 14.0739 144.848 14.1023 145.034 14.1023C145.17 14.1023 145.29 14.0928 145.392 14.0739C145.494 14.0549 145.574 14.0398 145.631 14.0284L145.938 15.4318C145.839 15.4697 145.699 15.5076 145.517 15.5455C145.335 15.5871 145.108 15.6098 144.835 15.6136C144.388 15.6212 143.972 15.5417 143.585 15.375C143.199 15.2083 142.886 14.9508 142.648 14.6023C142.409 14.2538 142.29 13.8163 142.29 13.2898V4.68182ZM147.658 15.5V6.77273H149.357V15.5H147.658ZM148.516 5.42614C148.22 5.42614 147.966 5.32765 147.754 5.13068C147.546 4.92992 147.442 4.69129 147.442 4.41477C147.442 4.13447 147.546 3.89583 147.754 3.69886C147.966 3.49811 148.22 3.39773 148.516 3.39773C148.811 3.39773 149.063 3.49811 149.271 3.69886C149.483 3.89583 149.589 4.13447 149.589 4.41477C149.589 4.69129 149.483 4.92992 149.271 5.13068C149.063 5.32765 148.811 5.42614 148.516 5.42614ZM155.318 15.6761C154.5 15.6761 153.786 15.4886 153.176 15.1136C152.566 14.7386 152.093 14.214 151.756 13.5398C151.419 12.8655 151.25 12.0777 151.25 11.1761C151.25 10.2708 151.419 9.47917 151.756 8.80114C152.093 8.12311 152.566 7.59659 153.176 7.22159C153.786 6.84659 154.5 6.65909 155.318 6.65909C156.136 6.65909 156.85 6.84659 157.46 7.22159C158.07 7.59659 158.544 8.12311 158.881 8.80114C159.218 9.47917 159.386 10.2708 159.386 11.1761C159.386 12.0777 159.218 12.8655 158.881 13.5398C158.544 14.214 158.07 14.7386 157.46 15.1136C156.85 15.4886 156.136 15.6761 155.318 15.6761ZM155.324 14.25C155.854 14.25 156.294 14.1098 156.642 13.8295C156.991 13.5492 157.248 13.1761 157.415 12.7102C157.585 12.2443 157.67 11.7311 157.67 11.1705C157.67 10.6136 157.585 10.1023 157.415 9.63636C157.248 9.16667 156.991 8.78977 156.642 8.50568C156.294 8.22159 155.854 8.07955 155.324 8.07955C154.79 8.07955 154.347 8.22159 153.994 8.50568C153.646 8.78977 153.386 9.16667 153.216 9.63636C153.049 10.1023 152.966 10.6136 152.966 11.1705C152.966 11.7311 153.049 12.2443 153.216 12.7102C153.386 13.1761 153.646 13.5492 153.994 13.8295C154.347 14.1098 154.79 14.25 155.324 14.25ZM162.982 10.3182V15.5H161.283V6.77273H162.913V8.19318H163.021C163.222 7.73106 163.536 7.35985 163.964 7.07955C164.396 6.79924 164.94 6.65909 165.595 6.65909C166.19 6.65909 166.711 6.78409 167.158 7.03409C167.605 7.2803 167.951 7.64773 168.197 8.13636C168.444 8.625 168.567 9.22917 168.567 9.94886V15.5H166.868V10.1534C166.868 9.52083 166.703 9.02652 166.374 8.67045C166.044 8.31061 165.591 8.13068 165.016 8.13068C164.622 8.13068 164.271 8.21591 163.964 8.38636C163.661 8.55682 163.421 8.80682 163.243 9.13636C163.069 9.46212 162.982 9.85606 162.982 10.3182ZM177.385 8.90341L175.845 9.17614C175.781 8.97917 175.679 8.79167 175.538 8.61364C175.402 8.43561 175.216 8.28977 174.982 8.17614C174.747 8.0625 174.453 8.00568 174.101 8.00568C173.62 8.00568 173.218 8.11364 172.896 8.32955C172.574 8.54167 172.413 8.81629 172.413 9.15341C172.413 9.44508 172.521 9.67992 172.737 9.85795C172.953 10.036 173.302 10.1818 173.783 10.2955L175.169 10.6136C175.972 10.7992 176.571 11.0852 176.964 11.4716C177.358 11.858 177.555 12.3598 177.555 12.9773C177.555 13.5 177.404 13.9659 177.101 14.375C176.802 14.7803 176.383 15.0985 175.845 15.3295C175.311 15.5606 174.692 15.6761 173.987 15.6761C173.01 15.6761 172.213 15.4678 171.595 15.0511C170.978 14.6307 170.599 14.0341 170.459 13.2614L172.101 13.0114C172.203 13.4394 172.413 13.7633 172.732 13.983C173.05 14.1989 173.464 14.3068 173.976 14.3068C174.533 14.3068 174.978 14.1913 175.311 13.9602C175.644 13.7254 175.811 13.4394 175.811 13.1023C175.811 12.8295 175.709 12.6004 175.504 12.4148C175.304 12.2292 174.995 12.089 174.578 11.9943L173.101 11.6705C172.286 11.4848 171.684 11.1894 171.294 10.7841C170.908 10.3788 170.714 9.86553 170.714 9.24432C170.714 8.72917 170.858 8.27841 171.146 7.89205C171.434 7.50568 171.832 7.20455 172.339 6.98864C172.847 6.76894 173.429 6.65909 174.084 6.65909C175.027 6.65909 175.769 6.86364 176.311 7.27273C176.853 7.67803 177.211 8.22159 177.385 8.90341ZM180.543 15.608C180.232 15.608 179.965 15.4981 179.741 15.2784C179.518 15.0549 179.406 14.786 179.406 14.4716C179.406 14.161 179.518 13.8958 179.741 13.6761C179.965 13.4527 180.232 13.3409 180.543 13.3409C180.853 13.3409 181.12 13.4527 181.344 13.6761C181.567 13.8958 181.679 14.161 181.679 14.4716C181.679 14.6799 181.626 14.8712 181.52 15.0455C181.418 15.2159 181.281 15.3523 181.111 15.4545C180.94 15.5568 180.751 15.608 180.543 15.608ZM180.543 9.25568C180.232 9.25568 179.965 9.14394 179.741 8.92045C179.518 8.69697 179.406 8.42992 179.406 8.11932C179.406 7.80871 179.518 7.54356 179.741 7.32386C179.965 7.10038 180.232 6.98864 180.543 6.98864C180.853 6.98864 181.12 7.10038 181.344 7.32386C181.567 7.54356 181.679 7.80871 181.679 8.11932C181.679 8.32765 181.626 8.51894 181.52 8.69318C181.418 8.86364 181.281 9 181.111 9.10227C180.94 9.20455 180.751 9.25568 180.543 9.25568ZM187.751 5.31818H189.222L192.682 13.7699H192.802L196.262 5.31818H197.733V15.5H196.58V7.7642H196.481L193.299 15.5H192.185L189.003 7.7642H188.904V15.5H187.751V5.31818ZM203.149 15.6591C202.459 15.6591 201.855 15.495 201.334 15.1669C200.817 14.8388 200.413 14.3797 200.121 13.7898C199.833 13.1998 199.689 12.5104 199.689 11.7216C199.689 10.9261 199.833 10.2318 200.121 9.63849C200.413 9.04522 200.817 8.58452 201.334 8.25639C201.855 7.92827 202.459 7.7642 203.149 7.7642C203.838 7.7642 204.441 7.92827 204.958 8.25639C205.479 8.58452 205.883 9.04522 206.172 9.63849C206.463 10.2318 206.609 10.9261 206.609 11.7216C206.609 12.5104 206.463 13.1998 206.172 13.7898C205.883 14.3797 205.479 14.8388 204.958 15.1669C204.441 15.495 203.838 15.6591 203.149 15.6591ZM203.149 14.6051C203.672 14.6051 204.103 14.4709 204.441 14.2024C204.779 13.9339 205.03 13.581 205.192 13.1435C205.355 12.706 205.436 12.232 205.436 11.7216C205.436 11.2112 205.355 10.7356 205.192 10.2947C205.03 9.85393 204.779 9.49763 204.441 9.22585C204.103 8.95407 203.672 8.81818 203.149 8.81818C202.625 8.81818 202.194 8.95407 201.856 9.22585C201.518 9.49763 201.268 9.85393 201.105 10.2947C200.943 10.7356 200.862 11.2112 200.862 11.7216C200.862 12.232 200.943 12.706 201.105 13.1435C201.268 13.581 201.518 13.9339 201.856 14.2024C202.194 14.4709 202.625 14.6051 203.149 14.6051ZM213.809 9.57386L212.755 9.87216C212.689 9.6965 212.591 9.5258 212.462 9.36009C212.336 9.19105 212.164 9.05185 211.945 8.94247C211.726 8.8331 211.446 8.77841 211.105 8.77841C210.637 8.77841 210.248 8.88613 209.936 9.10156C209.628 9.31368 209.474 9.58381 209.474 9.91193C209.474 10.2036 209.58 10.4339 209.792 10.603C210.004 10.772 210.336 10.9129 210.786 11.0256L211.92 11.304C212.603 11.4697 213.111 11.7232 213.446 12.0646C213.781 12.4027 213.948 12.8385 213.948 13.3722C213.948 13.8097 213.822 14.2008 213.57 14.5455C213.322 14.8902 212.974 15.1619 212.526 15.3608C212.079 15.5597 211.559 15.6591 210.965 15.6591C210.186 15.6591 209.542 15.4901 209.031 15.152C208.521 14.8139 208.198 14.3201 208.062 13.6705L209.176 13.392C209.282 13.803 209.482 14.1113 209.777 14.3168C210.075 14.5223 210.465 14.625 210.945 14.625C211.492 14.625 211.927 14.509 212.248 14.277C212.573 14.0417 212.735 13.7599 212.735 13.4318C212.735 13.1667 212.642 12.9446 212.457 12.7656C212.271 12.5833 211.986 12.4474 211.602 12.358L210.329 12.0597C209.63 11.8939 209.116 11.6371 208.788 11.2891C208.463 10.9377 208.301 10.4986 208.301 9.97159C208.301 9.54072 208.422 9.15956 208.664 8.82812C208.909 8.49669 209.242 8.23651 209.663 8.04758C210.087 7.85866 210.568 7.7642 211.105 7.7642C211.86 7.7642 212.454 7.92992 212.884 8.26136C213.319 8.5928 213.627 9.0303 213.809 9.57386ZM219.036 7.86364V8.85795H215.078V7.86364H219.036ZM216.232 6.03409H217.405V13.3125C217.405 13.6439 217.453 13.8925 217.549 14.0582C217.648 14.2206 217.774 14.33 217.927 14.3864C218.083 14.4394 218.247 14.4659 218.419 14.4659C218.548 14.4659 218.654 14.4593 218.737 14.446C218.82 14.4295 218.886 14.4162 218.936 14.4062L219.175 15.4602C219.095 15.4901 218.984 15.5199 218.842 15.5497C218.699 15.5829 218.518 15.5994 218.3 15.5994C217.968 15.5994 217.643 15.5282 217.325 15.3857C217.01 15.2431 216.749 15.026 216.54 14.7344C216.334 14.4427 216.232 14.0748 216.232 13.6307V6.03409ZM226.985 15.679C226.501 15.679 226.062 15.5878 225.668 15.4055C225.273 15.2199 224.96 14.9531 224.728 14.6051C224.496 14.2538 224.38 13.8295 224.38 13.3324C224.38 12.8949 224.466 12.5402 224.638 12.2685C224.811 11.9934 225.041 11.7779 225.33 11.6222C225.618 11.4664 225.936 11.3504 226.284 11.2741C226.635 11.1946 226.988 11.1316 227.343 11.0852C227.807 11.0256 228.183 10.9808 228.472 10.951C228.763 10.9179 228.975 10.8632 229.108 10.7869C229.244 10.7107 229.312 10.5781 229.312 10.3892V10.3494C229.312 9.8589 229.178 9.47775 228.909 9.20597C228.644 8.93419 228.241 8.7983 227.701 8.7983C227.141 8.7983 226.702 8.92093 226.384 9.16619C226.065 9.41146 225.842 9.6733 225.712 9.9517L224.599 9.55398C224.798 9.08996 225.063 8.72869 225.394 8.47017C225.729 8.20833 226.094 8.02604 226.488 7.9233C226.886 7.81723 227.277 7.7642 227.661 7.7642C227.906 7.7642 228.188 7.79403 228.506 7.85369C228.828 7.91004 229.138 8.0277 229.436 8.20668C229.738 8.38565 229.988 8.65578 230.187 9.01705C230.386 9.37831 230.485 9.86222 230.485 10.4688V15.5H229.312V14.4659H229.252C229.173 14.6316 229.04 14.8089 228.854 14.9979C228.669 15.1868 228.422 15.3475 228.114 15.4801C227.805 15.6127 227.429 15.679 226.985 15.679ZM227.164 14.625C227.628 14.625 228.019 14.5339 228.337 14.3516C228.659 14.1693 228.901 13.9339 229.063 13.6456C229.229 13.3572 229.312 13.054 229.312 12.7358V11.6619C229.262 11.7216 229.153 11.7763 228.984 11.826C228.818 11.8724 228.626 11.9138 228.407 11.9503C228.192 11.9834 227.981 12.0133 227.776 12.0398C227.573 12.063 227.409 12.0829 227.283 12.0994C226.978 12.1392 226.693 12.2038 226.428 12.2933C226.166 12.3795 225.954 12.5104 225.792 12.6861C225.633 12.8584 225.553 13.0937 225.553 13.392C225.553 13.7997 225.704 14.108 226.006 14.3168C226.311 14.5223 226.697 14.625 227.164 14.625ZM232.627 18.3636V7.86364H233.76V9.0767H233.899C233.985 8.94413 234.105 8.77509 234.257 8.5696C234.413 8.3608 234.635 8.17519 234.923 8.01278C235.215 7.84706 235.61 7.7642 236.107 7.7642C236.75 7.7642 237.316 7.92495 237.807 8.24645C238.298 8.56794 238.68 9.02367 238.955 9.61364C239.231 10.2036 239.368 10.8996 239.368 11.7017C239.368 12.5104 239.231 13.2114 238.955 13.8047C238.68 14.3946 238.299 14.852 237.812 15.1768C237.325 15.4983 236.763 15.6591 236.127 15.6591C235.636 15.6591 235.243 15.5779 234.948 15.4155C234.653 15.2498 234.426 15.0625 234.267 14.8537C234.108 14.6416 233.985 14.4659 233.899 14.3267H233.8V18.3636H232.627ZM233.78 11.6818C233.78 12.2585 233.865 12.7673 234.034 13.2081C234.203 13.6456 234.45 13.9886 234.774 14.2372C235.099 14.4825 235.497 14.6051 235.968 14.6051C236.458 14.6051 236.867 14.4759 237.195 14.2173C237.527 13.9555 237.776 13.6042 237.941 13.1634C238.11 12.7192 238.195 12.2254 238.195 11.6818C238.195 11.1449 238.112 10.661 237.946 10.2301C237.784 9.79593 237.537 9.45289 237.205 9.20099C236.877 8.94579 236.465 8.81818 235.968 8.81818C235.49 8.81818 235.089 8.93916 234.764 9.18111C234.44 9.41974 234.194 9.7545 234.029 10.1854C233.863 10.6129 233.78 11.1117 233.78 11.6818ZM241.158 18.3636V7.86364H242.291V9.0767H242.431C242.517 8.94413 242.636 8.77509 242.789 8.5696C242.944 8.3608 243.166 8.17519 243.455 8.01278C243.746 7.84706 244.141 7.7642 244.638 7.7642C245.281 7.7642 245.848 7.92495 246.338 8.24645C246.829 8.56794 247.212 9.02367 247.487 9.61364C247.762 10.2036 247.899 10.8996 247.899 11.7017C247.899 12.5104 247.762 13.2114 247.487 13.8047C247.212 14.3946 246.83 14.852 246.343 15.1768C245.856 15.4983 245.294 15.6591 244.658 15.6591C244.167 15.6591 243.775 15.5779 243.48 15.4155C243.185 15.2498 242.958 15.0625 242.798 14.8537C242.639 14.6416 242.517 14.4659 242.431 14.3267H242.331V18.3636H241.158ZM242.311 11.6818C242.311 12.2585 242.396 12.7673 242.565 13.2081C242.734 13.6456 242.981 13.9886 243.306 14.2372C243.63 14.4825 244.028 14.6051 244.499 14.6051C244.989 14.6051 245.399 14.4759 245.727 14.2173C246.058 13.9555 246.307 13.6042 246.472 13.1634C246.642 12.7192 246.726 12.2254 246.726 11.6818C246.726 11.1449 246.643 10.661 246.477 10.2301C246.315 9.79593 246.068 9.45289 245.737 9.20099C245.409 8.94579 244.996 8.81818 244.499 8.81818C244.021 8.81818 243.62 8.93916 243.296 9.18111C242.971 9.41974 242.726 9.7545 242.56 10.1854C242.394 10.6129 242.311 11.1117 242.311 11.6818ZM250.862 5.31818V15.5H249.689V5.31818H250.862ZM253.011 15.5V7.86364H254.185V15.5H253.011ZM253.608 6.59091C253.379 6.59091 253.182 6.51302 253.016 6.35724C252.854 6.20147 252.773 6.0142 252.773 5.79545C252.773 5.5767 252.854 5.38944 253.016 5.23366C253.182 5.07789 253.379 5 253.608 5C253.837 5 254.032 5.07789 254.195 5.23366C254.36 5.38944 254.443 5.5767 254.443 5.79545C254.443 6.0142 254.36 6.20147 254.195 6.35724C254.032 6.51302 253.837 6.59091 253.608 6.59091ZM259.436 15.6591C258.72 15.6591 258.104 15.4901 257.586 15.152C257.069 14.8139 256.672 14.3482 256.393 13.755C256.115 13.1617 255.976 12.4839 255.976 11.7216C255.976 10.946 256.118 10.2616 256.403 9.66832C256.692 9.07173 257.093 8.60606 257.606 8.27131C258.123 7.93324 258.727 7.7642 259.416 7.7642C259.953 7.7642 260.437 7.86364 260.868 8.0625C261.299 8.26136 261.652 8.53977 261.927 8.89773C262.202 9.25568 262.372 9.6733 262.439 10.1506H261.265C261.176 9.80256 260.977 9.49432 260.669 9.22585C260.364 8.95407 259.953 8.81818 259.436 8.81818C258.979 8.81818 258.577 8.9375 258.233 9.17614C257.891 9.41146 257.625 9.74455 257.432 10.1754C257.243 10.603 257.149 11.1051 257.149 11.6818C257.149 12.2718 257.242 12.7855 257.427 13.223C257.616 13.6605 257.881 14.0002 258.223 14.2422C258.568 14.4841 258.972 14.6051 259.436 14.6051C259.741 14.6051 260.018 14.5521 260.266 14.446C260.515 14.34 260.725 14.1875 260.898 13.9886C261.07 13.7898 261.193 13.5511 261.265 13.2727H262.439C262.372 13.7235 262.208 14.1295 261.947 14.4908C261.688 14.8487 261.345 15.1338 260.917 15.3459C260.493 15.5547 259.999 15.6591 259.436 15.6591ZM266.401 15.679C265.917 15.679 265.478 15.5878 265.084 15.4055C264.689 15.2199 264.376 14.9531 264.144 14.6051C263.912 14.2538 263.796 13.8295 263.796 13.3324C263.796 12.8949 263.882 12.5402 264.055 12.2685C264.227 11.9934 264.457 11.7779 264.746 11.6222C265.034 11.4664 265.352 11.3504 265.7 11.2741C266.051 11.1946 266.404 11.1316 266.759 11.0852C267.223 11.0256 267.599 10.9808 267.888 10.951C268.179 10.9179 268.391 10.8632 268.524 10.7869C268.66 10.7107 268.728 10.5781 268.728 10.3892V10.3494C268.728 9.8589 268.594 9.47775 268.325 9.20597C268.06 8.93419 267.657 8.7983 267.117 8.7983C266.557 8.7983 266.118 8.92093 265.8 9.16619C265.481 9.41146 265.258 9.6733 265.128 9.9517L264.015 9.55398C264.214 9.08996 264.479 8.72869 264.81 8.47017C265.145 8.20833 265.51 8.02604 265.904 7.9233C266.302 7.81723 266.693 7.7642 267.077 7.7642C267.323 7.7642 267.604 7.79403 267.922 7.85369C268.244 7.91004 268.554 8.0277 268.852 8.20668C269.154 8.38565 269.404 8.65578 269.603 9.01705C269.802 9.37831 269.901 9.86222 269.901 10.4688V15.5H268.728V14.4659H268.668C268.589 14.6316 268.456 14.8089 268.27 14.9979C268.085 15.1868 267.838 15.3475 267.53 15.4801C267.221 15.6127 266.845 15.679 266.401 15.679ZM266.58 14.625C267.044 14.625 267.435 14.5339 267.753 14.3516C268.075 14.1693 268.317 13.9339 268.479 13.6456C268.645 13.3572 268.728 13.054 268.728 12.7358V11.6619C268.678 11.7216 268.569 11.7763 268.4 11.826C268.234 11.8724 268.042 11.9138 267.823 11.9503C267.608 11.9834 267.397 12.0133 267.192 12.0398C266.989 12.063 266.825 12.0829 266.699 12.0994C266.394 12.1392 266.109 12.2038 265.844 12.2933C265.582 12.3795 265.37 12.5104 265.208 12.6861C265.049 12.8584 264.969 13.0937 264.969 13.392C264.969 13.7997 265.12 14.108 265.422 14.3168C265.727 14.5223 266.113 14.625 266.58 14.625ZM273.216 10.9062V15.5H272.043V7.86364H273.176V9.05682H273.276C273.455 8.66903 273.726 8.35748 274.091 8.12216C274.455 7.88352 274.926 7.7642 275.503 7.7642C276.02 7.7642 276.472 7.87027 276.86 8.08239C277.248 8.29119 277.549 8.60938 277.765 9.03693C277.98 9.46117 278.088 9.99811 278.088 10.6477V15.5H276.915V10.7273C276.915 10.1274 276.759 9.66004 276.447 9.32528C276.136 8.98722 275.708 8.81818 275.165 8.81818C274.79 8.81818 274.455 8.89938 274.161 9.06179C273.869 9.22419 273.638 9.46117 273.469 9.77273C273.3 10.0843 273.216 10.4621 273.216 10.9062ZM283.553 7.86364V8.85795H279.596V7.86364H283.553ZM280.749 6.03409H281.922V13.3125C281.922 13.6439 281.97 13.8925 282.067 14.0582C282.166 14.2206 282.292 14.33 282.444 14.3864C282.6 14.4394 282.764 14.4659 282.937 14.4659C283.066 14.4659 283.172 14.4593 283.255 14.446C283.338 14.4295 283.404 14.4162 283.454 14.4062L283.692 15.4602C283.613 15.4901 283.502 15.5199 283.359 15.5497C283.217 15.5829 283.036 15.5994 282.817 15.5994C282.486 15.5994 282.161 15.5282 281.843 15.3857C281.528 15.2431 281.266 15.026 281.057 14.7344C280.852 14.4427 280.749 14.0748 280.749 13.6307V6.03409ZM290.59 9.57386L289.536 9.87216C289.47 9.6965 289.372 9.5258 289.243 9.36009C289.117 9.19105 288.945 9.05185 288.726 8.94247C288.507 8.8331 288.227 8.77841 287.886 8.77841C287.419 8.77841 287.029 8.88613 286.718 9.10156C286.409 9.31368 286.255 9.58381 286.255 9.91193C286.255 10.2036 286.361 10.4339 286.573 10.603C286.785 10.772 287.117 10.9129 287.568 11.0256L288.701 11.304C289.384 11.4697 289.893 11.7232 290.227 12.0646C290.562 12.4027 290.73 12.8385 290.73 13.3722C290.73 13.8097 290.604 14.2008 290.352 14.5455C290.103 14.8902 289.755 15.1619 289.308 15.3608C288.86 15.5597 288.34 15.6591 287.747 15.6591C286.968 15.6591 286.323 15.4901 285.813 15.152C285.302 14.8139 284.979 14.3201 284.843 13.6705L285.957 13.392C286.063 13.803 286.263 14.1113 286.558 14.3168C286.857 14.5223 287.246 14.625 287.727 14.625C288.274 14.625 288.708 14.509 289.029 14.277C289.354 14.0417 289.517 13.7599 289.517 13.4318C289.517 13.1667 289.424 12.9446 289.238 12.7656C289.052 12.5833 288.767 12.4474 288.383 12.358L287.11 12.0597C286.411 11.8939 285.897 11.6371 285.569 11.2891C285.244 10.9377 285.082 10.4986 285.082 9.97159C285.082 9.54072 285.203 9.15956 285.445 8.82812C285.69 8.49669 286.023 8.23651 286.444 8.04758C286.868 7.85866 287.349 7.7642 287.886 7.7642C288.642 7.7642 289.235 7.92992 289.666 8.26136C290.1 8.5928 290.408 9.0303 290.59 9.57386ZM296.433 18.3636V7.86364H297.567V9.0767H297.706C297.792 8.94413 297.911 8.77509 298.064 8.5696C298.22 8.3608 298.442 8.17519 298.73 8.01278C299.022 7.84706 299.416 7.7642 299.913 7.7642C300.556 7.7642 301.123 7.92495 301.614 8.24645C302.104 8.56794 302.487 9.02367 302.762 9.61364C303.037 10.2036 303.175 10.8996 303.175 11.7017C303.175 12.5104 303.037 13.2114 302.762 13.8047C302.487 14.3946 302.106 14.852 301.619 15.1768C301.131 15.4983 300.57 15.6591 299.933 15.6591C299.443 15.6591 299.05 15.5779 298.755 15.4155C298.46 15.2498 298.233 15.0625 298.074 14.8537C297.915 14.6416 297.792 14.4659 297.706 14.3267H297.607V18.3636H296.433ZM297.587 11.6818C297.587 12.2585 297.671 12.7673 297.84 13.2081C298.009 13.6456 298.256 13.9886 298.581 14.2372C298.906 14.4825 299.304 14.6051 299.774 14.6051C300.265 14.6051 300.674 14.4759 301.002 14.2173C301.334 13.9555 301.582 13.6042 301.748 13.1634C301.917 12.7192 302.001 12.2254 302.001 11.6818C302.001 11.1449 301.919 10.661 301.753 10.2301C301.59 9.79593 301.344 9.45289 301.012 9.20099C300.684 8.94579 300.271 8.81818 299.774 8.81818C299.297 8.81818 298.896 8.93916 298.571 9.18111C298.246 9.41974 298.001 9.7545 297.835 10.1854C297.67 10.6129 297.587 11.1117 297.587 11.6818ZM304.964 15.5V7.86364H306.098V9.01705H306.178C306.317 8.6392 306.569 8.33262 306.933 8.0973C307.298 7.86198 307.709 7.74432 308.166 7.74432C308.252 7.74432 308.36 7.74597 308.489 7.74929C308.619 7.7526 308.716 7.75758 308.783 7.7642V8.95739C308.743 8.94744 308.652 8.93253 308.509 8.91264C308.37 8.88944 308.223 8.87784 308.067 8.87784C307.696 8.87784 307.364 8.95573 307.072 9.11151C306.784 9.26397 306.555 9.47609 306.386 9.74787C306.221 10.0163 306.138 10.3229 306.138 10.6676V15.5H304.964ZM313.143 15.6591C312.407 15.6591 311.772 15.4967 311.239 15.1719C310.708 14.8438 310.299 14.3864 310.011 13.7997C309.726 13.2098 309.583 12.5237 309.583 11.7415C309.583 10.9593 309.726 10.2699 310.011 9.6733C310.299 9.07339 310.7 8.60606 311.214 8.27131C311.731 7.93324 312.334 7.7642 313.023 7.7642C313.421 7.7642 313.814 7.83049 314.202 7.96307C314.589 8.09564 314.942 8.31108 315.261 8.60938C315.579 8.90436 315.832 9.29545 316.021 9.78267C316.21 10.2699 316.305 10.8698 316.305 11.5824V12.0795H310.418V11.0653H315.112C315.112 10.6345 315.025 10.25 314.853 9.91193C314.684 9.57386 314.442 9.30705 314.127 9.11151C313.816 8.91596 313.448 8.81818 313.023 8.81818C312.556 8.81818 312.152 8.93419 311.81 9.16619C311.472 9.39489 311.212 9.69318 311.03 10.0611C310.848 10.429 310.756 10.8234 310.756 11.2443V11.9205C310.756 12.4972 310.856 12.986 311.055 13.3871C311.257 13.7848 311.537 14.0881 311.895 14.2969C312.253 14.5024 312.669 14.6051 313.143 14.6051C313.451 14.6051 313.729 14.562 313.978 14.4759C314.23 14.3864 314.447 14.2538 314.629 14.0781C314.812 13.8991 314.952 13.6771 315.052 13.4119L316.185 13.7301C316.066 14.1146 315.866 14.4527 315.584 14.7443C315.302 15.0327 314.954 15.258 314.54 15.4205C314.125 15.5795 313.66 15.6591 313.143 15.6591ZM321.49 7.86364V8.85795H317.374V7.86364H321.49ZM318.607 15.5V6.80966C318.607 6.37216 318.709 6.00758 318.915 5.71591C319.12 5.42424 319.387 5.20549 319.715 5.05966C320.043 4.91383 320.39 4.84091 320.754 4.84091C321.043 4.84091 321.278 4.86411 321.46 4.91051C321.643 4.95691 321.778 5 321.868 5.03977L321.53 6.05398C321.47 6.03409 321.387 6.00923 321.281 5.9794C321.179 5.94957 321.043 5.93466 320.874 5.93466C320.486 5.93466 320.206 6.03243 320.033 6.22798C319.864 6.42353 319.78 6.71023 319.78 7.08807V15.5H318.607ZM326.022 15.6591C325.286 15.6591 324.651 15.4967 324.118 15.1719C323.587 14.8438 323.178 14.3864 322.89 13.7997C322.605 13.2098 322.462 12.5237 322.462 11.7415C322.462 10.9593 322.605 10.2699 322.89 9.6733C323.178 9.07339 323.579 8.60606 324.093 8.27131C324.61 7.93324 325.213 7.7642 325.902 7.7642C326.3 7.7642 326.693 7.83049 327.081 7.96307C327.468 8.09564 327.821 8.31108 328.14 8.60938C328.458 8.90436 328.711 9.29545 328.9 9.78267C329.089 10.2699 329.184 10.8698 329.184 11.5824V12.0795H323.297V11.0653H327.99C327.99 10.6345 327.904 10.25 327.732 9.91193C327.563 9.57386 327.321 9.30705 327.006 9.11151C326.694 8.91596 326.327 8.81818 325.902 8.81818C325.435 8.81818 325.031 8.93419 324.689 9.16619C324.351 9.39489 324.091 9.69318 323.909 10.0611C323.726 10.429 323.635 10.8234 323.635 11.2443V11.9205C323.635 12.4972 323.735 12.986 323.934 13.3871C324.136 13.7848 324.416 14.0881 324.774 14.2969C325.132 14.5024 325.548 14.6051 326.022 14.6051C326.33 14.6051 326.608 14.562 326.857 14.4759C327.109 14.3864 327.326 14.2538 327.508 14.0781C327.69 13.8991 327.831 13.6771 327.931 13.4119L329.064 13.7301C328.945 14.1146 328.744 14.4527 328.463 14.7443C328.181 15.0327 327.833 15.258 327.419 15.4205C327.004 15.5795 326.539 15.6591 326.022 15.6591ZM330.968 15.5V7.86364H332.102V9.01705H332.181C332.321 8.6392 332.573 8.33262 332.937 8.0973C333.302 7.86198 333.713 7.74432 334.17 7.74432C334.256 7.74432 334.364 7.74597 334.493 7.74929C334.623 7.7526 334.72 7.75758 334.787 7.7642V8.95739C334.747 8.94744 334.656 8.93253 334.513 8.91264C334.374 8.88944 334.226 8.87784 334.071 8.87784C333.699 8.87784 333.368 8.95573 333.076 9.11151C332.788 9.26397 332.559 9.47609 332.39 9.74787C332.225 10.0163 332.142 10.3229 332.142 10.6676V15.5H330.968ZM336.177 15.5V7.86364H337.311V9.01705H337.39C337.53 8.6392 337.782 8.33262 338.146 8.0973C338.511 7.86198 338.922 7.74432 339.379 7.74432C339.465 7.74432 339.573 7.74597 339.702 7.74929C339.831 7.7526 339.929 7.75758 339.996 7.7642V8.95739C339.956 8.94744 339.865 8.93253 339.722 8.91264C339.583 8.88944 339.435 8.87784 339.28 8.87784C338.908 8.87784 338.577 8.95573 338.285 9.11151C337.997 9.26397 337.768 9.47609 337.599 9.74787C337.434 10.0163 337.351 10.3229 337.351 10.6676V15.5H336.177ZM344.356 15.6591C343.62 15.6591 342.985 15.4967 342.452 15.1719C341.921 14.8438 341.512 14.3864 341.224 13.7997C340.939 13.2098 340.796 12.5237 340.796 11.7415C340.796 10.9593 340.939 10.2699 341.224 9.6733C341.512 9.07339 341.913 8.60606 342.427 8.27131C342.944 7.93324 343.547 7.7642 344.236 7.7642C344.634 7.7642 345.027 7.83049 345.415 7.96307C345.802 8.09564 346.155 8.31108 346.474 8.60938C346.792 8.90436 347.045 9.29545 347.234 9.78267C347.423 10.2699 347.518 10.8698 347.518 11.5824V12.0795H341.631V11.0653H346.324C346.324 10.6345 346.238 10.25 346.066 9.91193C345.897 9.57386 345.655 9.30705 345.34 9.11151C345.028 8.91596 344.661 8.81818 344.236 8.81818C343.769 8.81818 343.365 8.93419 343.023 9.16619C342.685 9.39489 342.425 9.69318 342.243 10.0611C342.06 10.429 341.969 10.8234 341.969 11.2443V11.9205C341.969 12.4972 342.069 12.986 342.268 13.3871C342.47 13.7848 342.75 14.0881 343.108 14.2969C343.466 14.5024 343.882 14.6051 344.356 14.6051C344.664 14.6051 344.942 14.562 345.191 14.4759C345.443 14.3864 345.66 14.2538 345.842 14.0781C346.024 13.8991 346.165 13.6771 346.265 13.4119L347.398 13.7301C347.279 14.1146 347.078 14.4527 346.797 14.7443C346.515 15.0327 346.167 15.258 345.753 15.4205C345.338 15.5795 344.873 15.6591 344.356 15.6591ZM352.186 15.6591C351.55 15.6591 350.988 15.4983 350.501 15.1768C350.013 14.852 349.632 14.3946 349.357 13.8047C349.082 13.2114 348.944 12.5104 348.944 11.7017C348.944 10.8996 349.082 10.2036 349.357 9.61364C349.632 9.02367 350.015 8.56794 350.506 8.24645C350.996 7.92495 351.563 7.7642 352.206 7.7642C352.703 7.7642 353.096 7.84706 353.384 8.01278C353.676 8.17519 353.898 8.3608 354.05 8.5696C354.206 8.77509 354.327 8.94413 354.413 9.0767H354.513V5.31818H355.686V15.5H354.552V14.3267H354.413C354.327 14.4659 354.204 14.6416 354.045 14.8537C353.886 15.0625 353.659 15.2498 353.364 15.4155C353.069 15.5779 352.676 15.6591 352.186 15.6591ZM352.345 14.6051C352.816 14.6051 353.213 14.4825 353.538 14.2372C353.863 13.9886 354.11 13.6456 354.279 13.2081C354.448 12.7673 354.532 12.2585 354.532 11.6818C354.532 11.1117 354.45 10.6129 354.284 10.1854C354.118 9.7545 353.873 9.41974 353.548 9.18111C353.223 8.93916 352.822 8.81818 352.345 8.81818C351.848 8.81818 351.434 8.94579 351.102 9.20099C350.774 9.45289 350.527 9.79593 350.361 10.2301C350.199 10.661 350.118 11.1449 350.118 11.6818C350.118 12.2254 350.201 12.7192 350.366 13.1634C350.535 13.6042 350.784 13.9555 351.112 14.2173C351.443 14.4759 351.854 14.6051 352.345 14.6051ZM367.344 9.57386L366.29 9.87216C366.224 9.6965 366.126 9.5258 365.997 9.36009C365.871 9.19105 365.699 9.05185 365.48 8.94247C365.261 8.8331 364.981 8.77841 364.64 8.77841C364.172 8.77841 363.783 8.88613 363.471 9.10156C363.163 9.31368 363.009 9.58381 363.009 9.91193C363.009 10.2036 363.115 10.4339 363.327 10.603C363.539 10.772 363.871 10.9129 364.322 11.0256L365.455 11.304C366.138 11.4697 366.647 11.7232 366.981 12.0646C367.316 12.4027 367.483 12.8385 367.483 13.3722C367.483 13.8097 367.358 14.2008 367.106 14.5455C366.857 14.8902 366.509 15.1619 366.062 15.3608C365.614 15.5597 365.094 15.6591 364.501 15.6591C363.722 15.6591 363.077 15.4901 362.567 15.152C362.056 14.8139 361.733 14.3201 361.597 13.6705L362.711 13.392C362.817 13.803 363.017 14.1113 363.312 14.3168C363.611 14.5223 364 14.625 364.481 14.625C365.028 14.625 365.462 14.509 365.783 14.277C366.108 14.0417 366.27 13.7599 366.27 13.4318C366.27 13.1667 366.178 12.9446 365.992 12.7656C365.806 12.5833 365.521 12.4474 365.137 12.358L363.864 12.0597C363.165 11.8939 362.651 11.6371 362.323 11.2891C361.998 10.9377 361.836 10.4986 361.836 9.97159C361.836 9.54072 361.957 9.15956 362.199 8.82812C362.444 8.49669 362.777 8.23651 363.198 8.04758C363.622 7.85866 364.103 7.7642 364.64 7.7642C365.395 7.7642 365.989 7.92992 366.42 8.26136C366.854 8.5928 367.162 9.0303 367.344 9.57386ZM371.497 15.679C371.013 15.679 370.574 15.5878 370.179 15.4055C369.785 15.2199 369.472 14.9531 369.24 14.6051C369.008 14.2538 368.892 13.8295 368.892 13.3324C368.892 12.8949 368.978 12.5402 369.15 12.2685C369.323 11.9934 369.553 11.7779 369.841 11.6222C370.13 11.4664 370.448 11.3504 370.796 11.2741C371.147 11.1946 371.5 11.1316 371.855 11.0852C372.319 11.0256 372.695 10.9808 372.983 10.951C373.275 10.9179 373.487 10.8632 373.62 10.7869C373.756 10.7107 373.824 10.5781 373.824 10.3892V10.3494C373.824 9.8589 373.689 9.47775 373.421 9.20597C373.156 8.93419 372.753 8.7983 372.213 8.7983C371.653 8.7983 371.213 8.92093 370.895 9.16619C370.577 9.41146 370.353 9.6733 370.224 9.9517L369.11 9.55398C369.309 9.08996 369.574 8.72869 369.906 8.47017C370.241 8.20833 370.605 8.02604 371 7.9233C371.397 7.81723 371.788 7.7642 372.173 7.7642C372.418 7.7642 372.7 7.79403 373.018 7.85369C373.34 7.91004 373.65 8.0277 373.948 8.20668C374.249 8.38565 374.5 8.65578 374.699 9.01705C374.897 9.37831 374.997 9.86222 374.997 10.4688V15.5H373.824V14.4659H373.764C373.684 14.6316 373.552 14.8089 373.366 14.9979C373.181 15.1868 372.934 15.3475 372.625 15.4801C372.317 15.6127 371.941 15.679 371.497 15.679ZM371.676 14.625C372.14 14.625 372.531 14.5339 372.849 14.3516C373.171 14.1693 373.413 13.9339 373.575 13.6456C373.741 13.3572 373.824 13.054 373.824 12.7358V11.6619C373.774 11.7216 373.664 11.7763 373.495 11.826C373.33 11.8724 373.137 11.9138 372.919 11.9503C372.703 11.9834 372.493 12.0133 372.287 12.0398C372.085 12.063 371.921 12.0829 371.795 12.0994C371.49 12.1392 371.205 12.2038 370.94 12.2933C370.678 12.3795 370.466 12.5104 370.304 12.6861C370.145 12.8584 370.065 13.0937 370.065 13.392C370.065 13.7997 370.216 14.108 370.517 14.3168C370.822 14.5223 371.208 14.625 371.676 14.625ZM378.312 5.31818V15.5H377.138V5.31818H378.312ZM382.708 15.679C382.224 15.679 381.785 15.5878 381.39 15.4055C380.996 15.2199 380.683 14.9531 380.451 14.6051C380.219 14.2538 380.103 13.8295 380.103 13.3324C380.103 12.8949 380.189 12.5402 380.361 12.2685C380.533 11.9934 380.764 11.7779 381.052 11.6222C381.341 11.4664 381.659 11.3504 382.007 11.2741C382.358 11.1946 382.711 11.1316 383.066 11.0852C383.53 11.0256 383.906 10.9808 384.194 10.951C384.486 10.9179 384.698 10.8632 384.831 10.7869C384.967 10.7107 385.034 10.5781 385.034 10.3892V10.3494C385.034 9.8589 384.9 9.47775 384.632 9.20597C384.367 8.93419 383.964 8.7983 383.424 8.7983C382.864 8.7983 382.424 8.92093 382.106 9.16619C381.788 9.41146 381.564 9.6733 381.435 9.9517L380.321 9.55398C380.52 9.08996 380.785 8.72869 381.117 8.47017C381.452 8.20833 381.816 8.02604 382.211 7.9233C382.608 7.81723 382.999 7.7642 383.384 7.7642C383.629 7.7642 383.911 7.79403 384.229 7.85369C384.551 7.91004 384.86 8.0277 385.159 8.20668C385.46 8.38565 385.711 8.65578 385.909 9.01705C386.108 9.37831 386.208 9.86222 386.208 10.4688V15.5H385.034V14.4659H384.975C384.895 14.6316 384.763 14.8089 384.577 14.9979C384.391 15.1868 384.145 15.3475 383.836 15.4801C383.528 15.6127 383.152 15.679 382.708 15.679ZM382.887 14.625C383.351 14.625 383.742 14.5339 384.06 14.3516C384.382 14.1693 384.623 13.9339 384.786 13.6456C384.952 13.3572 385.034 13.054 385.034 12.7358V11.6619C384.985 11.7216 384.875 11.7763 384.706 11.826C384.541 11.8724 384.348 11.9138 384.13 11.9503C383.914 11.9834 383.704 12.0133 383.498 12.0398C383.296 12.063 383.132 12.0829 383.006 12.0994C382.701 12.1392 382.416 12.2038 382.151 12.2933C381.889 12.3795 381.677 12.5104 381.515 12.6861C381.355 12.8584 381.276 13.0937 381.276 13.392C381.276 13.7997 381.427 14.108 381.728 14.3168C382.033 14.5223 382.419 14.625 382.887 14.625ZM388.349 15.5V7.86364H389.483V9.01705H389.562C389.702 8.6392 389.953 8.33262 390.318 8.0973C390.683 7.86198 391.094 7.74432 391.551 7.74432C391.637 7.74432 391.745 7.74597 391.874 7.74929C392.003 7.7526 392.101 7.75758 392.167 7.7642V8.95739C392.128 8.94744 392.037 8.93253 391.894 8.91264C391.755 8.88944 391.607 8.87784 391.452 8.87784C391.08 8.87784 390.749 8.95573 390.457 9.11151C390.169 9.26397 389.94 9.47609 389.771 9.74787C389.605 10.0163 389.523 10.3229 389.523 10.6676V15.5H388.349ZM394.546 18.3636C394.347 18.3636 394.17 18.3471 394.014 18.3139C393.859 18.2841 393.751 18.2543 393.691 18.2244L393.99 17.1903C394.275 17.2633 394.526 17.2898 394.745 17.2699C394.964 17.25 395.158 17.1522 395.327 16.9766C395.499 16.8042 395.657 16.5241 395.799 16.1364L396.018 15.5398L393.194 7.86364H394.467L396.575 13.9489H396.654L398.762 7.86364H400.035L396.794 16.6136C396.648 17.008 396.467 17.3345 396.252 17.593C396.036 17.8549 395.786 18.0488 395.501 18.1747C395.219 18.3007 394.901 18.3636 394.546 18.3636ZM405.521 15.5V7.86364H406.655V9.01705H406.734C406.873 8.6392 407.125 8.33262 407.49 8.0973C407.854 7.86198 408.265 7.74432 408.723 7.74432C408.809 7.74432 408.917 7.74597 409.046 7.74929C409.175 7.7526 409.273 7.75758 409.339 7.7642V8.95739C409.3 8.94744 409.208 8.93253 409.066 8.91264C408.927 8.88944 408.779 8.87784 408.623 8.87784C408.252 8.87784 407.921 8.95573 407.629 9.11151C407.341 9.26397 407.112 9.47609 406.943 9.74787C406.777 10.0163 406.694 10.3229 406.694 10.6676V15.5H405.521ZM412.977 15.679C412.493 15.679 412.054 15.5878 411.66 15.4055C411.265 15.2199 410.952 14.9531 410.72 14.6051C410.488 14.2538 410.372 13.8295 410.372 13.3324C410.372 12.8949 410.458 12.5402 410.631 12.2685C410.803 11.9934 411.033 11.7779 411.322 11.6222C411.61 11.4664 411.928 11.3504 412.276 11.2741C412.628 11.1946 412.981 11.1316 413.335 11.0852C413.799 11.0256 414.175 10.9808 414.464 10.951C414.755 10.9179 414.968 10.8632 415.1 10.7869C415.236 10.7107 415.304 10.5781 415.304 10.3892V10.3494C415.304 9.8589 415.17 9.47775 414.901 9.20597C414.636 8.93419 414.233 8.7983 413.693 8.7983C413.133 8.7983 412.694 8.92093 412.376 9.16619C412.058 9.41146 411.834 9.6733 411.705 9.9517L410.591 9.55398C410.79 9.08996 411.055 8.72869 411.386 8.47017C411.721 8.20833 412.086 8.02604 412.48 7.9233C412.878 7.81723 413.269 7.7642 413.653 7.7642C413.899 7.7642 414.18 7.79403 414.499 7.85369C414.82 7.91004 415.13 8.0277 415.428 8.20668C415.73 8.38565 415.98 8.65578 416.179 9.01705C416.378 9.37831 416.477 9.86222 416.477 10.4688V15.5H415.304V14.4659H415.244C415.165 14.6316 415.032 14.8089 414.847 14.9979C414.661 15.1868 414.414 15.3475 414.106 15.4801C413.798 15.6127 413.421 15.679 412.977 15.679ZM413.156 14.625C413.62 14.625 414.011 14.5339 414.33 14.3516C414.651 14.1693 414.893 13.9339 415.055 13.6456C415.221 13.3572 415.304 13.054 415.304 12.7358V11.6619C415.254 11.7216 415.145 11.7763 414.976 11.826C414.81 11.8724 414.618 11.9138 414.399 11.9503C414.184 11.9834 413.973 12.0133 413.768 12.0398C413.566 12.063 413.402 12.0829 413.276 12.0994C412.971 12.1392 412.686 12.2038 412.42 12.2933C412.159 12.3795 411.946 12.5104 411.784 12.6861C411.625 12.8584 411.545 13.0937 411.545 13.392C411.545 13.7997 411.696 14.108 411.998 14.3168C412.303 14.5223 412.689 14.625 413.156 14.625ZM419.792 10.9062V15.5H418.619V7.86364H419.752V9.05682H419.852C420.031 8.66903 420.302 8.35748 420.667 8.12216C421.032 7.88352 421.502 7.7642 422.079 7.7642C422.596 7.7642 423.048 7.87027 423.436 8.08239C423.824 8.29119 424.126 8.60938 424.341 9.03693C424.557 9.46117 424.664 9.99811 424.664 10.6477V15.5H423.491V10.7273C423.491 10.1274 423.335 9.66004 423.024 9.32528C422.712 8.98722 422.285 8.81818 421.741 8.81818C421.366 8.81818 421.032 8.89938 420.737 9.06179C420.445 9.22419 420.215 9.46117 420.046 9.77273C419.877 10.0843 419.792 10.4621 419.792 10.9062ZM429.891 18.5227C429.324 18.5227 428.837 18.4498 428.429 18.304C428.021 18.1615 427.682 17.9725 427.41 17.7372C427.141 17.5052 426.928 17.2566 426.768 16.9915L427.703 16.3352C427.809 16.4744 427.943 16.6335 428.106 16.8125C428.268 16.9948 428.49 17.1522 428.772 17.2848C429.057 17.4207 429.43 17.4886 429.891 17.4886C430.507 17.4886 431.016 17.3395 431.417 17.0412C431.818 16.7429 432.018 16.2756 432.018 15.6392V14.0881H431.919C431.833 14.2273 431.71 14.3996 431.551 14.6051C431.395 14.8073 431.17 14.9879 430.875 15.147C430.583 15.3028 430.189 15.3807 429.692 15.3807C429.075 15.3807 428.522 15.2348 428.031 14.9432C427.544 14.6515 427.158 14.2273 426.873 13.6705C426.591 13.1136 426.45 12.4375 426.45 11.642C426.45 10.8598 426.588 10.1787 426.863 9.59872C427.138 9.01539 427.521 8.56463 428.011 8.24645C428.502 7.92495 429.069 7.7642 429.712 7.7642C430.209 7.7642 430.603 7.84706 430.895 8.01278C431.19 8.17519 431.415 8.3608 431.571 8.5696C431.73 8.77509 431.853 8.94413 431.939 9.0767H432.058V7.86364H433.192V15.7188C433.192 16.375 433.043 16.9086 432.744 17.3196C432.449 17.7339 432.052 18.0372 431.551 18.2294C431.054 18.425 430.5 18.5227 429.891 18.5227ZM429.851 14.3267C430.321 14.3267 430.719 14.219 431.044 14.0036C431.369 13.7881 431.616 13.4782 431.785 13.0739C431.954 12.6695 432.038 12.1856 432.038 11.6222C432.038 11.072 431.955 10.5864 431.79 10.1655C431.624 9.74455 431.379 9.41477 431.054 9.17614C430.729 8.9375 430.328 8.81818 429.851 8.81818C429.354 8.81818 428.939 8.94413 428.608 9.19602C428.28 9.44792 428.033 9.78598 427.867 10.2102C427.705 10.6345 427.624 11.1051 427.624 11.6222C427.624 12.1525 427.706 12.6214 427.872 13.0291C428.041 13.4335 428.29 13.7517 428.618 13.9837C428.949 14.2124 429.36 14.3267 429.851 14.3267ZM438.541 15.6591C437.805 15.6591 437.171 15.4967 436.637 15.1719C436.107 14.8438 435.697 14.3864 435.409 13.7997C435.124 13.2098 434.982 12.5237 434.982 11.7415C434.982 10.9593 435.124 10.2699 435.409 9.6733C435.697 9.07339 436.098 8.60606 436.612 8.27131C437.129 7.93324 437.732 7.7642 438.422 7.7642C438.82 7.7642 439.212 7.83049 439.6 7.96307C439.988 8.09564 440.341 8.31108 440.659 8.60938C440.977 8.90436 441.231 9.29545 441.42 9.78267C441.609 10.2699 441.703 10.8698 441.703 11.5824V12.0795H435.817V11.0653H440.51C440.51 10.6345 440.424 10.25 440.251 9.91193C440.082 9.57386 439.84 9.30705 439.526 9.11151C439.214 8.91596 438.846 8.81818 438.422 8.81818C437.955 8.81818 437.55 8.93419 437.209 9.16619C436.871 9.39489 436.611 9.69318 436.428 10.0611C436.246 10.429 436.155 10.8234 436.155 11.2443V11.9205C436.155 12.4972 436.254 12.986 436.453 13.3871C436.655 13.7848 436.935 14.0881 437.293 14.2969C437.651 14.5024 438.067 14.6051 438.541 14.6051C438.849 14.6051 439.128 14.562 439.376 14.4759C439.628 14.3864 439.845 14.2538 440.028 14.0781C440.21 13.8991 440.351 13.6771 440.45 13.4119L441.584 13.7301C441.464 14.1146 441.264 14.4527 440.982 14.7443C440.701 15.0327 440.353 15.258 439.938 15.4205C439.524 15.5795 439.058 15.6591 438.541 15.6591ZM451.085 15.6392C450.561 15.6359 450.055 15.5481 449.568 15.3757C449.084 15.2034 448.65 14.9233 448.266 14.5355C447.881 14.1477 447.576 13.634 447.351 12.9943C447.129 12.3546 447.018 11.5691 447.018 10.6378C447.021 9.78267 447.119 9.0187 447.311 8.34588C447.507 7.66974 447.785 7.09635 448.146 6.62571C448.511 6.15507 448.947 5.79711 449.454 5.55185C449.961 5.30327 450.529 5.17898 451.159 5.17898C451.839 5.17898 452.438 5.31155 452.959 5.5767C453.479 5.83854 453.897 6.19484 454.212 6.6456C454.53 7.09635 454.722 7.6018 454.788 8.16193H452.665C452.583 7.80729 452.409 7.52888 452.143 7.3267C451.878 7.12453 451.55 7.02344 451.159 7.02344C450.496 7.02344 449.992 7.31179 449.648 7.88849C449.306 8.4652 449.132 9.24905 449.126 10.2401H449.195C449.348 9.93845 449.553 9.68158 449.812 9.46946C450.074 9.25402 450.37 9.08996 450.702 8.97727C451.036 8.86127 451.389 8.80327 451.761 8.80327C452.364 8.80327 452.901 8.94579 453.371 9.23082C453.842 9.51255 454.213 9.90033 454.485 10.3942C454.757 10.888 454.893 11.4531 454.893 12.0895C454.893 12.7789 454.732 13.392 454.411 13.929C454.092 14.4659 453.647 14.8868 453.073 15.1918C452.503 15.4934 451.84 15.6425 451.085 15.6392ZM451.075 13.9489C451.406 13.9489 451.703 13.8693 451.964 13.7102C452.226 13.5511 452.432 13.3357 452.581 13.0639C452.73 12.7921 452.805 12.4872 452.805 12.1491C452.805 11.8111 452.73 11.5078 452.581 11.2393C452.435 10.9709 452.233 10.7571 451.974 10.598C451.716 10.4389 451.421 10.3594 451.089 10.3594C450.841 10.3594 450.611 10.4058 450.398 10.4986C450.19 10.5914 450.006 10.7206 449.847 10.8864C449.691 11.0521 449.568 11.2443 449.479 11.4631C449.389 11.6785 449.344 11.9089 449.344 12.1541C449.344 12.4822 449.419 12.7822 449.568 13.054C449.721 13.3258 449.926 13.5429 450.185 13.7053C450.446 13.8677 450.743 13.9489 451.075 13.9489ZM460.411 15.7237C459.556 15.7204 458.82 15.5099 458.204 15.0923C457.591 14.6747 457.118 14.0698 456.787 13.2777C456.459 12.4856 456.296 11.5327 456.3 10.419C456.3 9.30871 456.464 8.36245 456.792 7.58026C457.123 6.79806 457.596 6.20312 458.209 5.79545C458.825 5.38447 459.559 5.17898 460.411 5.17898C461.263 5.17898 461.996 5.38447 462.609 5.79545C463.225 6.20644 463.699 6.80303 464.031 7.58523C464.362 8.36411 464.526 9.30871 464.523 10.419C464.523 11.536 464.357 12.4905 464.026 13.2827C463.697 14.0748 463.227 14.6797 462.614 15.0973C462 15.5149 461.266 15.7237 460.411 15.7237ZM460.411 13.9389C460.995 13.9389 461.46 13.6456 461.808 13.0589C462.156 12.4723 462.329 11.5923 462.325 10.419C462.325 9.64678 462.246 9.00379 462.087 8.49006C461.931 7.97633 461.709 7.5902 461.42 7.33168C461.135 7.07315 460.799 6.94389 460.411 6.94389C459.831 6.94389 459.367 7.2339 459.019 7.81392C458.671 8.39394 458.496 9.26231 458.492 10.419C458.492 11.2012 458.57 11.8542 458.726 12.3778C458.885 12.8982 459.109 13.2893 459.397 13.5511C459.685 13.8097 460.023 13.9389 460.411 13.9389ZM474.076 9.56889V11.2493H469.432V9.56889H474.076ZM482.899 15.6392C482.133 15.6392 481.452 15.5149 480.856 15.2663C480.262 15.0144 479.797 14.6714 479.459 14.2372C479.121 13.803 478.952 13.3108 478.952 12.7607C478.952 12.3364 479.048 11.947 479.24 11.5923C479.435 11.2344 479.701 10.9377 480.035 10.7024C480.37 10.4638 480.745 10.3113 481.159 10.245V10.1754C480.615 10.0661 480.175 9.80256 479.836 9.38494C479.498 8.96401 479.329 8.47514 479.329 7.91832C479.329 7.39134 479.483 6.92235 479.792 6.51136C480.1 6.09706 480.523 5.77225 481.059 5.53693C481.6 5.2983 482.213 5.17898 482.899 5.17898C483.585 5.17898 484.197 5.2983 484.733 5.53693C485.274 5.77557 485.698 6.10204 486.006 6.51633C486.314 6.92732 486.47 7.39465 486.474 7.91832C486.47 8.47846 486.298 8.96733 485.956 9.38494C485.615 9.80256 485.178 10.0661 484.644 10.1754V10.245C485.052 10.3113 485.421 10.4638 485.753 10.7024C486.087 10.9377 486.353 11.2344 486.548 11.5923C486.747 11.947 486.848 12.3364 486.851 12.7607C486.848 13.3108 486.677 13.803 486.339 14.2372C486.001 14.6714 485.534 15.0144 484.937 15.2663C484.344 15.5149 483.665 15.6392 482.899 15.6392ZM482.899 14.0582C483.24 14.0582 483.539 13.9969 483.794 13.8743C484.049 13.7483 484.248 13.576 484.39 13.3572C484.536 13.1352 484.609 12.88 484.609 12.5916C484.609 12.2966 484.535 12.0365 484.385 11.8111C484.236 11.5824 484.034 11.4034 483.779 11.2741C483.524 11.1416 483.23 11.0753 482.899 11.0753C482.571 11.0753 482.278 11.1416 482.019 11.2741C481.76 11.4034 481.557 11.5824 481.407 11.8111C481.262 12.0365 481.189 12.2966 481.189 12.5916C481.189 12.88 481.26 13.1352 481.403 13.3572C481.545 13.576 481.746 13.7483 482.004 13.8743C482.263 13.9969 482.561 14.0582 482.899 14.0582ZM482.899 9.50923C483.184 9.50923 483.438 9.45123 483.66 9.33523C483.882 9.21922 484.056 9.05848 484.182 8.85298C484.308 8.64749 484.371 8.41051 484.371 8.14205C484.371 7.87689 484.308 7.64489 484.182 7.44602C484.056 7.24384 483.883 7.08641 483.665 6.97372C483.446 6.85772 483.191 6.79972 482.899 6.79972C482.611 6.79972 482.355 6.85772 482.133 6.97372C481.911 7.08641 481.737 7.24384 481.611 7.44602C481.489 7.64489 481.427 7.87689 481.427 8.14205C481.427 8.41051 481.49 8.64749 481.616 8.85298C481.742 9.05848 481.916 9.21922 482.138 9.33523C482.36 9.45123 482.614 9.50923 482.899 9.50923ZM492.349 15.7237C491.494 15.7204 490.758 15.5099 490.141 15.0923C489.528 14.6747 489.056 14.0698 488.724 13.2777C488.396 12.4856 488.234 11.5327 488.237 10.419C488.237 9.30871 488.401 8.36245 488.729 7.58026C489.061 6.79806 489.533 6.20312 490.146 5.79545C490.763 5.38447 491.497 5.17898 492.349 5.17898C493.201 5.17898 493.933 5.38447 494.546 5.79545C495.163 6.20644 495.637 6.80303 495.968 7.58523C496.299 8.36411 496.464 9.30871 496.46 10.419C496.46 11.536 496.295 12.4905 495.963 13.2827C495.635 14.0748 495.164 14.6797 494.551 15.0973C493.938 15.5149 493.204 15.7237 492.349 15.7237ZM492.349 13.9389C492.932 13.9389 493.398 13.6456 493.746 13.0589C494.094 12.4723 494.266 11.5923 494.263 10.419C494.263 9.64678 494.183 9.00379 494.024 8.49006C493.868 7.97633 493.646 7.5902 493.358 7.33168C493.073 7.07315 492.737 6.94389 492.349 6.94389C491.769 6.94389 491.305 7.2339 490.957 7.81392C490.609 8.39394 490.433 9.26231 490.43 10.419C490.43 11.2012 490.508 11.8542 490.663 12.3778C490.822 12.8982 491.046 13.2893 491.335 13.5511C491.623 13.8097 491.961 13.9389 492.349 13.9389ZM499.934 13.3026L499.939 10.7621H500.247L502.693 7.86364H505.124L501.838 11.7017H501.336L499.934 13.3026ZM498.015 15.5V5.31818H500.133V15.5H498.015ZM502.788 15.5L500.541 12.174L501.953 10.6776L505.269 15.5H502.788Z" fill="#333333"/>
<defs>
<clipPath id="clip0_3324_171">
<rect width="18" height="13.5054" fill="white" transform="translate(0.5 3.24707)"/>
</clipPath>
</defs>
</svg>
