<svg width="19" height="19" viewBox="0 0 19 19" fill="none" xmlns="http://www.w3.org/2000/svg">
<g id="Frame" clip-path="url(#clip0_3291_2021)">
<g id="Group">
<g id="Group_2">
<path id="Vector" d="M14.8256 11.3711C13.8003 11.3711 12.8889 11.7235 12.1484 12.4012C11.4363 13.0789 11.0376 13.9735 11.0376 14.9223C11.0376 15.8711 11.4363 16.7657 12.1484 17.4434C12.8604 18.1211 13.8003 18.5006 14.7971 18.5006H14.8256C16.8762 18.5006 18.5281 16.9012 18.5281 14.9494C18.4996 12.9976 16.8477 11.3982 14.8256 11.3711ZM14.7686 17.3892C13.3446 17.3892 12.2053 16.3048 12.2053 14.9494C12.2053 13.594 13.3446 12.5096 14.7686 12.5096C16.1927 12.5096 17.3319 13.594 17.3319 14.9494C17.3319 16.2777 16.1927 17.3892 14.7686 17.3892Z" fill="#C3599E"/>
<path id="Vector_2" d="M15.6802 10.4761L15.196 10.4218C14.7688 10.3676 14.2562 10.3947 13.8005 10.5032H13.7435L13.6865 10.4761C13.4017 10.2592 13.0884 10.2321 12.6897 10.3947C9.89857 11.6146 7.05047 11.6146 4.23085 10.4218C3.68971 10.1779 3.23402 10.3134 2.94921 10.8014C2.69288 11.2351 2.46503 11.6688 2.23718 12.1297C2.15174 12.3194 2.0663 12.4821 1.98085 12.6718C1.83845 12.9429 1.89541 13.1327 2.2087 13.3495C3.63275 14.3254 5.11376 14.9218 6.62326 15.1116C7.39225 15.1929 8.16123 15.22 8.98718 15.2471C9.30047 15.2471 9.61376 15.2742 9.92706 15.2742H10.041V15.3827C10.0695 15.5453 10.0979 15.708 10.1264 15.8977C10.1549 15.9791 10.1549 16.0604 10.1834 16.1417C10.1834 16.1959 10.2973 16.4128 10.3258 16.4399L9.5568 16.4941C9.32895 16.5212 9.10111 16.5212 8.87326 16.5483C8.44604 16.5754 7.99035 16.5483 7.56313 16.5212C7.13592 16.4941 6.7087 16.4399 6.28149 16.3857C5.85427 16.3044 5.45554 16.223 5.02832 16.1146C4.62959 16.0062 4.23085 15.8706 3.83212 15.708C3.43338 15.5453 3.03465 15.3827 2.6644 15.1658C2.29414 14.9761 1.89541 14.7321 1.55364 14.4881C1.49668 14.461 1.43971 14.4068 1.38275 14.3797C0.442879 13.7291 0.271993 13.2411 0.670727 12.2652C0.984018 11.4791 1.35427 10.72 1.80997 10.0423C2.43655 9.06641 3.63275 8.74111 4.74351 9.22906C7.1644 10.2863 9.64225 10.2863 12.0916 9.25617C13.2309 8.76822 14.1138 9.09352 15.1106 10.0423L15.6802 10.4761Z" fill="#3C77AE"/>
<g id="Group_3">
<path id="Vector_3" d="M16.6773 14.1081L14.3134 16.3581L12.8608 14.9756L13.5159 14.3792L14.3134 15.1382L16.0222 13.5117L16.6773 14.1081Z" fill="#C3599E"/>
</g>
</g>
<g id="Group_4">
<path id="Vector_4" d="M8.47444 9.1747C5.96811 9.1747 3.91748 7.22289 3.91748 4.83735C3.91748 2.45181 5.96811 0.5 8.47444 0.5C10.9808 0.5 13.0314 2.45181 13.0314 4.83735C13.0314 7.22289 10.9808 9.1747 8.47444 9.1747ZM8.47444 1.63855C6.62318 1.63855 5.11368 3.0753 5.11368 4.83735C5.11368 6.5994 6.62318 8.03614 8.47444 8.03614C10.3257 8.03614 11.8352 6.5994 11.8352 4.83735C11.8352 3.0753 10.3257 1.63855 8.47444 1.63855Z" fill="#3C77AE"/>
</g>
</g>
</g>
<defs>
<clipPath id="clip0_3291_2021">
<rect width="18" height="18" fill="white" transform="translate(0.5 0.5)"/>
</clipPath>
</defs>
</svg>
