<svg width="19" height="14" viewBox="0 0 19 14" fill="none" xmlns="http://www.w3.org/2000/svg">
<g clip-path="url(#clip0_3291_2098)">
<path d="M0.5 13.7524V9.95564C0.5 7.93069 0.5 5.85511 0.5 3.83016C0.5 2.58988 1.07857 1.70396 2.23571 1.1471C4.4711 0.0586914 6.86429 -0.0425561 9.33636 0.84336C10.2305 1.17241 11.0721 1.37491 11.861 1.47616C12.3607 1.52678 12.913 1.45085 13.4916 1.37491C13.5968 1.3496 13.7282 1.3496 13.8334 1.32429C14.0438 1.29897 14.2805 1.22304 14.5172 1.1471C14.7013 1.09648 14.8854 1.04586 15.0695 0.995231C15.9373 0.792736 16.8052 0.969919 17.4627 1.45085C18.1201 1.93177 18.4883 2.69113 18.4883 3.50111C18.5146 4.99451 18.4883 6.53853 18.4883 8.00662C18.4883 9.14566 18.4883 10.31 18.4883 11.449C18.4883 12.1578 17.9097 12.3856 17.7256 12.4615L17.6731 12.4868C14.9117 13.6259 12.3344 13.7777 9.75714 12.9678C8.86299 12.6893 7.86364 12.4362 6.73279 12.2337C5.41786 12.0059 4.12922 12.3603 2.94578 12.7906C2.6039 12.9171 2.26201 13.0437 1.89383 13.1956C1.73604 13.2715 1.57825 13.3221 1.39416 13.3981L0.5 13.7524ZM5.86493 10.8669C6.23312 10.8669 6.6013 10.8922 6.96948 10.9681C8.15292 11.1959 9.20487 11.4237 10.1516 11.7528C12.4133 12.4615 14.7013 12.335 17.1471 11.3225H17.1734C17.1734 10.2341 17.1734 9.12035 17.1734 8.00662C17.1734 6.53853 17.1734 5.01982 17.1734 3.50111C17.1734 3.07081 16.9893 2.69113 16.6474 2.43801C16.3055 2.18489 15.8321 2.10895 15.3851 2.2102C15.2273 2.23551 15.0958 2.28614 14.9117 2.33676C14.6224 2.4127 14.3331 2.51394 14.0175 2.56457C13.9123 2.58988 13.8071 2.58988 13.6756 2.61519C13.0182 2.71644 12.3607 2.81769 11.6769 2.71644C10.8091 2.6405 9.86234 2.38739 8.86299 2.03302C6.70649 1.27366 4.73409 1.3496 2.81429 2.28614C2.10422 2.61519 1.81494 3.07081 1.81494 3.80485C1.81494 5.85511 1.81494 7.93069 1.81494 9.95564V11.854C2.05162 11.7528 2.26201 11.6768 2.4724 11.6009C3.55065 11.1959 4.65519 10.8669 5.86493 10.8669ZM17.1734 11.449C17.1734 11.4744 17.1734 11.4744 17.1734 11.449V11.449Z" fill="#3C77AE"/>
<path d="M11.8157 5.92295C11.3683 5.56822 10.842 5.59356 10.342 5.66957C10.2368 5.69491 10.1578 5.74559 10.1052 5.8216C10.0262 5.92296 9.99992 6.07499 9.99992 6.22702C10.0262 6.45506 10.2368 6.60709 10.4736 6.60709C10.5526 6.60709 10.6315 6.60709 10.7368 6.60709C10.8157 6.60709 10.921 6.60709 10.9999 6.60709C11.1578 6.60709 11.2631 6.70844 11.2631 6.86047C11.2631 6.98717 11.2631 7.11386 11.2631 7.21521C11.2368 7.84867 10.7104 8.53281 10.0526 8.71018C9.73676 8.81153 9.39466 8.81153 9.05255 8.81153C8.7894 8.81153 8.71045 8.73551 8.71045 8.48213C8.71045 8.12739 8.71045 7.74732 8.71045 7.39258V6.83514C8.71045 6.73378 8.71045 6.60709 8.71045 6.60709C8.73676 6.58175 8.84203 6.58175 8.97361 6.58175C9.26308 6.58175 9.44729 6.40438 9.47361 6.12566C9.49992 5.87228 9.31571 5.64423 9.05255 5.61889C8.97361 5.59356 8.86834 5.59356 8.7894 5.59356C8.76308 5.59356 8.73676 5.59356 8.71045 5.59356C8.71045 5.56822 8.71045 5.56822 8.71045 5.54288C8.71045 5.46686 8.71045 5.41619 8.71045 5.34017C8.71045 5.18814 8.71045 5.01077 8.71045 4.83341C8.68413 4.58002 8.6315 4.40265 8.55255 4.25062C8.26308 3.76919 7.7894 3.56649 7.1315 3.6425C6.86834 3.66784 6.71045 3.89589 6.71045 4.17461C6.73677 4.42799 6.92098 4.58002 7.21045 4.58002C7.23676 4.58002 7.26308 4.58002 7.31571 4.58002C7.36834 4.58002 7.39466 4.58002 7.44729 4.58002C7.65782 4.58002 7.73676 4.68137 7.73676 4.88408C7.73676 4.98544 7.73676 5.08679 7.73676 5.18814C7.73676 5.31483 7.73676 5.44153 7.73676 5.56822C7.60519 5.56822 7.49992 5.56822 7.39466 5.56822C7.1315 5.61889 6.94729 5.8216 6.97361 6.07499C6.99992 6.35371 7.18413 6.53108 7.47361 6.53108C7.52624 6.53108 7.55255 6.53108 7.60519 6.53108H7.65782C7.68413 6.53108 7.71045 6.53108 7.73676 6.53108C7.73676 6.55641 7.73676 6.58175 7.73676 6.60709V7.79799C7.73676 8.02604 7.73676 8.27942 7.73676 8.50747C7.73676 9.09025 8.15782 9.57168 8.73676 9.67303C8.92097 9.69837 9.07887 9.72371 9.26308 9.72371C9.36834 9.72371 9.47361 9.72371 9.57887 9.72371H9.6315C10.2894 9.69837 10.8683 9.47033 11.3683 9.03957C11.9999 8.48213 12.3157 7.77266 12.3157 6.88581C12.2894 6.53108 12.1315 6.17634 11.8157 5.92295Z" fill="#C3599E"/>
</g>
<defs>
<clipPath id="clip0_3291_2098">
<rect width="18" height="13.5054" fill="white" transform="translate(0.5 0.24707)"/>
</clipPath>
</defs>
</svg>
