<svg width="19" height="19" viewBox="0 0 19 19" fill="none" xmlns="http://www.w3.org/2000/svg">
<g clip-path="url(#clip0_3291_2056)">
<path d="M17.8972 5.47405C17.8424 4.40229 17.1849 3.68779 16.1164 3.46794C15.5958 3.35802 15.0479 3.41298 14.4999 3.41298C14.1986 3.41298 13.8972 3.41298 13.5958 3.41298C13.5684 2.8084 13.5684 2.31374 13.5136 1.7916C13.4315 1.04962 12.8835 0.5 12.1712 0.5C10.1986 0.5 8.22597 0.5 6.25337 0.5C5.51365 0.5 4.9657 1.04962 4.91091 1.7916C4.88351 2.31374 4.91091 2.83588 4.91091 3.41298C4.14378 3.41298 3.45885 3.41298 2.80132 3.41298C1.45885 3.41298 0.527344 4.37481 0.527344 5.69389V17.9504H8.60954C8.28077 17.5657 7.952 17.2359 7.67803 16.8786C7.48625 16.6313 7.29447 16.5489 6.9931 16.5489C5.48625 16.5489 3.952 16.5489 2.44515 16.5489C2.08899 16.5489 1.952 16.4664 1.952 16.0817C1.9794 14.4328 1.9794 12.8115 1.952 11.1626C1.952 10.7229 2.08899 10.6405 2.49995 10.6405C3.78762 10.6679 5.04789 10.6405 6.33556 10.6405C6.47255 10.6405 6.69173 10.5855 6.77392 10.4756C6.9931 10.0908 7.15748 9.70611 7.37666 9.23893H6.91091C5.43145 9.23893 3.952 9.21145 2.47255 9.23893C2.06159 9.23893 1.952 9.10153 1.952 8.71679C1.9794 7.78244 1.952 6.87557 1.952 5.94122C1.952 5.00687 2.14378 4.8145 3.07529 4.8145H14.1164C14.6369 4.8145 15.1575 4.8145 15.7054 4.8145C16.3082 4.84199 16.5547 5.11679 16.5547 5.69389C16.5547 6.16107 16.5547 6.60076 16.5547 7.06794C16.5547 7.17786 16.5547 7.34275 16.6369 7.42519C17.0479 7.80992 17.4862 8.19466 17.952 8.60687C17.9246 7.53512 17.9794 6.49084 17.8972 5.47405ZM12.1712 3.3855H6.28077C6.28077 2.97328 6.25337 2.56107 6.28077 2.14886C6.28077 2.06641 6.44515 1.92901 6.55474 1.92901C8.33556 1.92901 10.1164 1.92901 11.8698 1.92901C11.952 1.92901 12.1164 2.06641 12.1438 2.14886C12.1712 2.56107 12.1712 2.97328 12.1712 3.3855Z" fill="#3C77AE"/>
<path d="M12.8285 7.2053C9.70524 7.23278 7.21208 9.73354 7.23948 12.8389C7.26688 16.0267 9.76003 18.5274 12.8833 18.5274C15.9518 18.5 18.5272 15.9168 18.4998 12.8938C18.4724 9.70606 15.9518 7.17782 12.8285 7.2053ZM12.8285 16.9335C10.5546 16.9335 8.74633 15.0648 8.77373 12.7564C8.80113 10.6129 10.6915 8.77171 12.8559 8.77171C15.1025 8.77171 16.9107 10.6404 16.9107 12.9213C16.9107 15.1198 15.0477 16.9335 12.8285 16.9335Z" fill="#C3599E"/>
<path d="M15.0204 13.8281C14.5546 14.3228 14.2533 14.5976 13.8697 15.0098L12.0889 12.9762C12.0889 12.509 12.0889 12.0144 12.0889 11.5472V10.5029H13.6779V12.3991L15.0204 13.8281Z" fill="#C3599E"/>
</g>
<defs>
<clipPath id="clip0_3291_2056">
<rect width="18" height="18" fill="white" transform="translate(0.5 0.5)"/>
</clipPath>
</defs>
</svg>
