<svg width="21" height="21" viewBox="0 0 21 21" fill="none" xmlns="http://www.w3.org/2000/svg">
<rect width="20" height="20" transform="translate(0.5 0.5)" fill="white"/>
<path d="M16.4805 11.4043H18.8327V19.8417H16.4805V11.4043Z" fill="#84AFDD"/>
<path d="M9.28607 12.9375V19.8448H6.94971V12.9375H9.28607Z" fill="#84AFDD"/>
<path d="M14.0597 19.8505H11.7212V14.0557H14.0597V19.8505Z" fill="#84AFDD"/>
<path d="M4.73519 15.3281V19.8455H2.38623V15.3281H4.73519Z" fill="#84AFDD"/>
<path d="M17.2269 4.40918C16.1155 4.40918 15.3159 5.55787 15.825 6.60376L12.6984 9.68785C12.4897 9.58762 12.2607 9.53554 12.0286 9.53554C11.7966 9.53554 11.5676 9.58762 11.3589 9.68785L10.3099 8.65225C10.4176 8.44978 10.474 8.22459 10.4744 7.99593C10.4768 7.76395 10.426 7.53443 10.3259 7.32456C10.2258 7.11468 10.0789 6.92988 9.89617 6.78399C9.71346 6.6381 9.4997 6.53489 9.27088 6.4821C9.04206 6.42931 8.80411 6.4283 8.57483 6.47915C8.34556 6.52999 8.1309 6.63138 7.94693 6.77571C7.76296 6.92004 7.61444 7.10359 7.51249 7.31261C7.41054 7.52163 7.35779 7.75071 7.3582 7.9827C7.35862 8.21469 7.41217 8.44358 7.51486 8.65225L4.39095 11.7363C4.18009 11.6372 3.94931 11.5861 3.71573 11.587C3.48216 11.5879 3.25179 11.6408 3.04173 11.7416C2.83167 11.8425 2.64732 11.9887 2.50235 12.1695C2.35737 12.3503 2.25551 12.561 2.20432 12.786C2.15313 13.011 2.15392 13.2445 2.20664 13.4691C2.25936 13.6938 2.36265 13.9038 2.50884 14.0837C2.65504 14.2635 2.84039 14.4086 3.05112 14.508C3.26186 14.6074 3.49258 14.6588 3.72616 14.6581C3.98844 14.6594 4.24675 14.5948 4.47676 14.4703C4.70678 14.3459 4.90095 14.1657 5.04099 13.9468C5.18104 13.7278 5.26236 13.4773 5.27731 13.2188C5.29226 12.9602 5.24034 12.7022 5.12644 12.469L8.25035 9.38486C8.45917 9.4849 8.68825 9.53688 8.92035 9.53688C9.15245 9.53688 9.38153 9.4849 9.59035 9.38486L10.6393 10.4205C10.5317 10.6229 10.4753 10.8481 10.4749 11.0768C10.4725 11.3088 10.5232 11.5383 10.6234 11.7482C10.7235 11.958 10.8704 12.1428 11.0531 12.2887C11.2358 12.4346 11.4496 12.5378 11.6784 12.5906C11.9072 12.6434 12.1452 12.6444 12.3744 12.5936C12.6037 12.5427 12.8184 12.4413 13.0023 12.297C13.1863 12.1527 13.3348 11.9691 13.4368 11.7601C13.5387 11.5511 13.5915 11.322 13.5911 11.09C13.5907 10.858 13.5371 10.6291 13.4344 10.4205L16.5583 7.33637C17.6281 7.8493 18.7812 7.03932 18.7812 5.95231C18.7822 5.75013 18.7427 5.54976 18.665 5.36269C18.5873 5.17561 18.473 5.00552 18.3286 4.86215C18.1842 4.71879 18.0126 4.60498 17.8235 4.52724C17.6345 4.44951 17.4317 4.40939 17.2269 4.40918Z" fill="#C3599E"/>
<path d="M13 1.33301L13.5613 3.06047H15.3776L13.9082 4.12809L14.4695 5.85555L13 4.78792L11.5305 5.85555L12.0918 4.12809L10.6224 3.06047H12.4387L13 1.33301Z" fill="#3C77AE"/>
<path d="M4.24984 4.66602L4.71757 6.10556L6.2312 6.10556L5.00665 6.99525L5.47439 8.4348L4.24984 7.54511L3.02528 8.4348L3.49302 6.99525L2.26847 6.10556L3.7821 6.10556L4.24984 4.66602Z" fill="#3C77AE"/>
</svg>
